<?xml version="1.0" encoding="utf-8" standalone="no"?>
<!DOCTYPE svg PUBLIC "-//W3C//DTD SVG 1.1//EN"
  "http://www.w3.org/Graphics/SVG/1.1/DTD/svg11.dtd">
<svg xmlns:xlink="http://www.w3.org/1999/xlink" width="288pt" height="288pt" viewBox="0 0 288 288" xmlns="http://www.w3.org/2000/svg" version="1.1">
 <metadata>
  <rdf:RDF xmlns:dc="http://purl.org/dc/elements/1.1/" xmlns:cc="http://creativecommons.org/ns#" xmlns:rdf="http://www.w3.org/1999/02/22-rdf-syntax-ns#">
   <cc:Work>
    <dc:type rdf:resource="http://purl.org/dc/dcmitype/StillImage"/>
    <dc:date>2024-02-17T02:33:07.054382</dc:date>
    <dc:format>image/svg+xml</dc:format>
    <dc:creator>
     <cc:Agent>
      <dc:title>Matplotlib v3.8.2, https://matplotlib.org/</dc:title>
     </cc:Agent>
    </dc:creator>
   </cc:Work>
  </rdf:RDF>
 </metadata>
 <defs>
  <style type="text/css">*{stroke-linejoin: round; stroke-linecap: butt}</style>
 </defs>
 <g id="figure_1">
  <g id="patch_1">
   <path d="M 0 288 
L 288 288 
L 288 0 
L 0 0 
z
" style="fill: #ffffff"/>
  </g>
  <g id="axes_1">
   <g id="patch_2">
    <path d="M 55.28 242.44 
L 275.800868 242.44 
L 275.800868 10.8 
L 55.28 10.8 
z
" style="fill: #ffffff"/>
   </g>
   <g id="matplotlib.axis_1">
    <g id="xtick_1">
     <g id="line2d_1">
      <defs>
       <path id="m8fa4c95e81" d="M 0 0 
L 0 3.5 
" style="stroke: #000000; stroke-width: 0.8"/>
      </defs>
      <g>
       <use xlink:href="#m8fa4c95e81" x="65.303676" y="242.44" style="stroke: #000000; stroke-width: 0.8"/>
      </g>
     </g>
     <g id="text_1">
      <!-- 0 -->
      <g transform="translate(62.122426 257.038437) scale(0.1 -0.1)">
       <defs>
        <path id="DejaVuSans-30" d="M 2034 4250 
Q 1547 4250 1301 3770 
Q 1056 3291 1056 2328 
Q 1056 1369 1301 889 
Q 1547 409 2034 409 
Q 2525 409 2770 889 
Q 3016 1369 3016 2328 
Q 3016 3291 2770 3770 
Q 2525 4250 2034 4250 
z
M 2034 4750 
Q 2819 4750 3233 4129 
Q 3647 3509 3647 2328 
Q 3647 1150 3233 529 
Q 2819 -91 2034 -91 
Q 1250 -91 836 529 
Q 422 1150 422 2328 
Q 422 3509 836 4129 
Q 1250 4750 2034 4750 
z
" transform="scale(0.015625)"/>
       </defs>
       <use xlink:href="#DejaVuSans-30"/>
      </g>
     </g>
    </g>
    <g id="xtick_2">
     <g id="line2d_2">
      <g>
       <use xlink:href="#m8fa4c95e81" x="105.803376" y="242.44" style="stroke: #000000; stroke-width: 0.8"/>
      </g>
     </g>
     <g id="text_2">
      <!-- 20 -->
      <g transform="translate(99.440876 257.038437) scale(0.1 -0.1)">
       <defs>
        <path id="DejaVuSans-32" d="M 1228 531 
L 3431 531 
L 3431 0 
L 469 0 
L 469 531 
Q 828 903 1448 1529 
Q 2069 2156 2228 2338 
Q 2531 2678 2651 2914 
Q 2772 3150 2772 3378 
Q 2772 3750 2511 3984 
Q 2250 4219 1831 4219 
Q 1534 4219 1204 4116 
Q 875 4013 500 3803 
L 500 4441 
Q 881 4594 1212 4672 
Q 1544 4750 1819 4750 
Q 2544 4750 2975 4387 
Q 3406 4025 3406 3419 
Q 3406 3131 3298 2873 
Q 3191 2616 2906 2266 
Q 2828 2175 2409 1742 
Q 1991 1309 1228 531 
z
" transform="scale(0.015625)"/>
       </defs>
       <use xlink:href="#DejaVuSans-32"/>
       <use xlink:href="#DejaVuSans-30" x="63.623047"/>
      </g>
     </g>
    </g>
    <g id="xtick_3">
     <g id="line2d_3">
      <g>
       <use xlink:href="#m8fa4c95e81" x="146.303076" y="242.44" style="stroke: #000000; stroke-width: 0.8"/>
      </g>
     </g>
     <g id="text_3">
      <!-- 40 -->
      <g transform="translate(139.940576 257.038437) scale(0.1 -0.1)">
       <defs>
        <path id="DejaVuSans-34" d="M 2419 4116 
L 825 1625 
L 2419 1625 
L 2419 4116 
z
M 2253 4666 
L 3047 4666 
L 3047 1625 
L 3713 1625 
L 3713 1100 
L 3047 1100 
L 3047 0 
L 2419 0 
L 2419 1100 
L 313 1100 
L 313 1709 
L 2253 4666 
z
" transform="scale(0.015625)"/>
       </defs>
       <use xlink:href="#DejaVuSans-34"/>
       <use xlink:href="#DejaVuSans-30" x="63.623047"/>
      </g>
     </g>
    </g>
    <g id="xtick_4">
     <g id="line2d_4">
      <g>
       <use xlink:href="#m8fa4c95e81" x="186.802777" y="242.44" style="stroke: #000000; stroke-width: 0.8"/>
      </g>
     </g>
     <g id="text_4">
      <!-- 60 -->
      <g transform="translate(180.440277 257.038437) scale(0.1 -0.1)">
       <defs>
        <path id="DejaVuSans-36" d="M 2113 2584 
Q 1688 2584 1439 2293 
Q 1191 2003 1191 1497 
Q 1191 994 1439 701 
Q 1688 409 2113 409 
Q 2538 409 2786 701 
Q 3034 994 3034 1497 
Q 3034 2003 2786 2293 
Q 2538 2584 2113 2584 
z
M 3366 4563 
L 3366 3988 
Q 3128 4100 2886 4159 
Q 2644 4219 2406 4219 
Q 1781 4219 1451 3797 
Q 1122 3375 1075 2522 
Q 1259 2794 1537 2939 
Q 1816 3084 2150 3084 
Q 2853 3084 3261 2657 
Q 3669 2231 3669 1497 
Q 3669 778 3244 343 
Q 2819 -91 2113 -91 
Q 1303 -91 875 529 
Q 447 1150 447 2328 
Q 447 3434 972 4092 
Q 1497 4750 2381 4750 
Q 2619 4750 2861 4703 
Q 3103 4656 3366 4563 
z
" transform="scale(0.015625)"/>
       </defs>
       <use xlink:href="#DejaVuSans-36"/>
       <use xlink:href="#DejaVuSans-30" x="63.623047"/>
      </g>
     </g>
    </g>
    <g id="xtick_5">
     <g id="line2d_5">
      <g>
       <use xlink:href="#m8fa4c95e81" x="227.302477" y="242.44" style="stroke: #000000; stroke-width: 0.8"/>
      </g>
     </g>
     <g id="text_5">
      <!-- 80 -->
      <g transform="translate(220.939977 257.038437) scale(0.1 -0.1)">
       <defs>
        <path id="DejaVuSans-38" d="M 2034 2216 
Q 1584 2216 1326 1975 
Q 1069 1734 1069 1313 
Q 1069 891 1326 650 
Q 1584 409 2034 409 
Q 2484 409 2743 651 
Q 3003 894 3003 1313 
Q 3003 1734 2745 1975 
Q 2488 2216 2034 2216 
z
M 1403 2484 
Q 997 2584 770 2862 
Q 544 3141 544 3541 
Q 544 4100 942 4425 
Q 1341 4750 2034 4750 
Q 2731 4750 3128 4425 
Q 3525 4100 3525 3541 
Q 3525 3141 3298 2862 
Q 3072 2584 2669 2484 
Q 3125 2378 3379 2068 
Q 3634 1759 3634 1313 
Q 3634 634 3220 271 
Q 2806 -91 2034 -91 
Q 1263 -91 848 271 
Q 434 634 434 1313 
Q 434 1759 690 2068 
Q 947 2378 1403 2484 
z
M 1172 3481 
Q 1172 3119 1398 2916 
Q 1625 2713 2034 2713 
Q 2441 2713 2670 2916 
Q 2900 3119 2900 3481 
Q 2900 3844 2670 4047 
Q 2441 4250 2034 4250 
Q 1625 4250 1398 4047 
Q 1172 3844 1172 3481 
z
" transform="scale(0.015625)"/>
       </defs>
       <use xlink:href="#DejaVuSans-38"/>
       <use xlink:href="#DejaVuSans-30" x="63.623047"/>
      </g>
     </g>
    </g>
    <g id="xtick_6">
     <g id="line2d_6">
      <g>
       <use xlink:href="#m8fa4c95e81" x="267.802177" y="242.44" style="stroke: #000000; stroke-width: 0.8"/>
      </g>
     </g>
     <g id="text_6">
      <!-- 100 -->
      <g transform="translate(258.258427 257.038437) scale(0.1 -0.1)">
       <defs>
        <path id="DejaVuSans-31" d="M 794 531 
L 1825 531 
L 1825 4091 
L 703 3866 
L 703 4441 
L 1819 4666 
L 2450 4666 
L 2450 531 
L 3481 531 
L 3481 0 
L 794 0 
L 794 531 
z
" transform="scale(0.015625)"/>
       </defs>
       <use xlink:href="#DejaVuSans-31"/>
       <use xlink:href="#DejaVuSans-30" x="63.623047"/>
       <use xlink:href="#DejaVuSans-30" x="127.246094"/>
      </g>
     </g>
    </g>
    <g id="text_7">
     <!-- Iterations -->
     <g transform="translate(132.20184 273.755938) scale(0.14 -0.14)">
      <defs>
       <path id="DejaVuSans-49" d="M 628 4666 
L 1259 4666 
L 1259 0 
L 628 0 
L 628 4666 
z
" transform="scale(0.015625)"/>
       <path id="DejaVuSans-74" d="M 1172 4494 
L 1172 3500 
L 2356 3500 
L 2356 3053 
L 1172 3053 
L 1172 1153 
Q 1172 725 1289 603 
Q 1406 481 1766 481 
L 2356 481 
L 2356 0 
L 1766 0 
Q 1100 0 847 248 
Q 594 497 594 1153 
L 594 3053 
L 172 3053 
L 172 3500 
L 594 3500 
L 594 4494 
L 1172 4494 
z
" transform="scale(0.015625)"/>
       <path id="DejaVuSans-65" d="M 3597 1894 
L 3597 1613 
L 953 1613 
Q 991 1019 1311 708 
Q 1631 397 2203 397 
Q 2534 397 2845 478 
Q 3156 559 3463 722 
L 3463 178 
Q 3153 47 2828 -22 
Q 2503 -91 2169 -91 
Q 1331 -91 842 396 
Q 353 884 353 1716 
Q 353 2575 817 3079 
Q 1281 3584 2069 3584 
Q 2775 3584 3186 3129 
Q 3597 2675 3597 1894 
z
M 3022 2063 
Q 3016 2534 2758 2815 
Q 2500 3097 2075 3097 
Q 1594 3097 1305 2825 
Q 1016 2553 972 2059 
L 3022 2063 
z
" transform="scale(0.015625)"/>
       <path id="DejaVuSans-72" d="M 2631 2963 
Q 2534 3019 2420 3045 
Q 2306 3072 2169 3072 
Q 1681 3072 1420 2755 
Q 1159 2438 1159 1844 
L 1159 0 
L 581 0 
L 581 3500 
L 1159 3500 
L 1159 2956 
Q 1341 3275 1631 3429 
Q 1922 3584 2338 3584 
Q 2397 3584 2469 3576 
Q 2541 3569 2628 3553 
L 2631 2963 
z
" transform="scale(0.015625)"/>
       <path id="DejaVuSans-61" d="M 2194 1759 
Q 1497 1759 1228 1600 
Q 959 1441 959 1056 
Q 959 750 1161 570 
Q 1363 391 1709 391 
Q 2188 391 2477 730 
Q 2766 1069 2766 1631 
L 2766 1759 
L 2194 1759 
z
M 3341 1997 
L 3341 0 
L 2766 0 
L 2766 531 
Q 2569 213 2275 61 
Q 1981 -91 1556 -91 
Q 1019 -91 701 211 
Q 384 513 384 1019 
Q 384 1609 779 1909 
Q 1175 2209 1959 2209 
L 2766 2209 
L 2766 2266 
Q 2766 2663 2505 2880 
Q 2244 3097 1772 3097 
Q 1472 3097 1187 3025 
Q 903 2953 641 2809 
L 641 3341 
Q 956 3463 1253 3523 
Q 1550 3584 1831 3584 
Q 2591 3584 2966 3190 
Q 3341 2797 3341 1997 
z
" transform="scale(0.015625)"/>
       <path id="DejaVuSans-69" d="M 603 3500 
L 1178 3500 
L 1178 0 
L 603 0 
L 603 3500 
z
M 603 4863 
L 1178 4863 
L 1178 4134 
L 603 4134 
L 603 4863 
z
" transform="scale(0.015625)"/>
       <path id="DejaVuSans-6f" d="M 1959 3097 
Q 1497 3097 1228 2736 
Q 959 2375 959 1747 
Q 959 1119 1226 758 
Q 1494 397 1959 397 
Q 2419 397 2687 759 
Q 2956 1122 2956 1747 
Q 2956 2369 2687 2733 
Q 2419 3097 1959 3097 
z
M 1959 3584 
Q 2709 3584 3137 3096 
Q 3566 2609 3566 1747 
Q 3566 888 3137 398 
Q 2709 -91 1959 -91 
Q 1206 -91 779 398 
Q 353 888 353 1747 
Q 353 2609 779 3096 
Q 1206 3584 1959 3584 
z
" transform="scale(0.015625)"/>
       <path id="DejaVuSans-6e" d="M 3513 2113 
L 3513 0 
L 2938 0 
L 2938 2094 
Q 2938 2591 2744 2837 
Q 2550 3084 2163 3084 
Q 1697 3084 1428 2787 
Q 1159 2491 1159 1978 
L 1159 0 
L 581 0 
L 581 3500 
L 1159 3500 
L 1159 2956 
Q 1366 3272 1645 3428 
Q 1925 3584 2291 3584 
Q 2894 3584 3203 3211 
Q 3513 2838 3513 2113 
z
" transform="scale(0.015625)"/>
       <path id="DejaVuSans-73" d="M 2834 3397 
L 2834 2853 
Q 2591 2978 2328 3040 
Q 2066 3103 1784 3103 
Q 1356 3103 1142 2972 
Q 928 2841 928 2578 
Q 928 2378 1081 2264 
Q 1234 2150 1697 2047 
L 1894 2003 
Q 2506 1872 2764 1633 
Q 3022 1394 3022 966 
Q 3022 478 2636 193 
Q 2250 -91 1575 -91 
Q 1294 -91 989 -36 
Q 684 19 347 128 
L 347 722 
Q 666 556 975 473 
Q 1284 391 1588 391 
Q 1994 391 2212 530 
Q 2431 669 2431 922 
Q 2431 1156 2273 1281 
Q 2116 1406 1581 1522 
L 1381 1569 
Q 847 1681 609 1914 
Q 372 2147 372 2553 
Q 372 3047 722 3315 
Q 1072 3584 1716 3584 
Q 2034 3584 2315 3537 
Q 2597 3491 2834 3397 
z
" transform="scale(0.015625)"/>
      </defs>
      <use xlink:href="#DejaVuSans-49"/>
      <use xlink:href="#DejaVuSans-74" x="29.492188"/>
      <use xlink:href="#DejaVuSans-65" x="68.701172"/>
      <use xlink:href="#DejaVuSans-72" x="130.224609"/>
      <use xlink:href="#DejaVuSans-61" x="171.337891"/>
      <use xlink:href="#DejaVuSans-74" x="232.617188"/>
      <use xlink:href="#DejaVuSans-69" x="271.826172"/>
      <use xlink:href="#DejaVuSans-6f" x="299.609375"/>
      <use xlink:href="#DejaVuSans-6e" x="360.791016"/>
      <use xlink:href="#DejaVuSans-73" x="424.169922"/>
     </g>
    </g>
   </g>
   <g id="matplotlib.axis_2">
    <g id="ytick_1">
     <g id="line2d_7">
      <defs>
       <path id="mf99f0ec52d" d="M 0 0 
L -3.5 0 
" style="stroke: #000000; stroke-width: 0.8"/>
      </defs>
      <g>
       <use xlink:href="#mf99f0ec52d" x="55.28" y="233.337182" style="stroke: #000000; stroke-width: 0.8"/>
      </g>
     </g>
     <g id="text_8">
      <!-- 20 -->
      <g transform="translate(35.555 237.1364) scale(0.1 -0.1)">
       <use xlink:href="#DejaVuSans-32"/>
       <use xlink:href="#DejaVuSans-30" x="63.623047"/>
      </g>
     </g>
    </g>
    <g id="ytick_2">
     <g id="line2d_8">
      <g>
       <use xlink:href="#mf99f0ec52d" x="55.28" y="206.677881" style="stroke: #000000; stroke-width: 0.8"/>
      </g>
     </g>
     <g id="text_9">
      <!-- 40 -->
      <g transform="translate(35.555 210.477099) scale(0.1 -0.1)">
       <use xlink:href="#DejaVuSans-34"/>
       <use xlink:href="#DejaVuSans-30" x="63.623047"/>
      </g>
     </g>
    </g>
    <g id="ytick_3">
     <g id="line2d_9">
      <g>
       <use xlink:href="#mf99f0ec52d" x="55.28" y="180.01858" style="stroke: #000000; stroke-width: 0.8"/>
      </g>
     </g>
     <g id="text_10">
      <!-- 60 -->
      <g transform="translate(35.555 183.817799) scale(0.1 -0.1)">
       <use xlink:href="#DejaVuSans-36"/>
       <use xlink:href="#DejaVuSans-30" x="63.623047"/>
      </g>
     </g>
    </g>
    <g id="ytick_4">
     <g id="line2d_10">
      <g>
       <use xlink:href="#mf99f0ec52d" x="55.28" y="153.359279" style="stroke: #000000; stroke-width: 0.8"/>
      </g>
     </g>
     <g id="text_11">
      <!-- 80 -->
      <g transform="translate(35.555 157.158498) scale(0.1 -0.1)">
       <use xlink:href="#DejaVuSans-38"/>
       <use xlink:href="#DejaVuSans-30" x="63.623047"/>
      </g>
     </g>
    </g>
    <g id="ytick_5">
     <g id="line2d_11">
      <g>
       <use xlink:href="#mf99f0ec52d" x="55.28" y="126.699978" style="stroke: #000000; stroke-width: 0.8"/>
      </g>
     </g>
     <g id="text_12">
      <!-- 100 -->
      <g transform="translate(29.1925 130.499197) scale(0.1 -0.1)">
       <use xlink:href="#DejaVuSans-31"/>
       <use xlink:href="#DejaVuSans-30" x="63.623047"/>
       <use xlink:href="#DejaVuSans-30" x="127.246094"/>
      </g>
     </g>
    </g>
    <g id="ytick_6">
     <g id="line2d_12">
      <g>
       <use xlink:href="#mf99f0ec52d" x="55.28" y="100.040677" style="stroke: #000000; stroke-width: 0.8"/>
      </g>
     </g>
     <g id="text_13">
      <!-- 120 -->
      <g transform="translate(29.1925 103.839896) scale(0.1 -0.1)">
       <use xlink:href="#DejaVuSans-31"/>
       <use xlink:href="#DejaVuSans-32" x="63.623047"/>
       <use xlink:href="#DejaVuSans-30" x="127.246094"/>
      </g>
     </g>
    </g>
    <g id="ytick_7">
     <g id="line2d_13">
      <g>
       <use xlink:href="#mf99f0ec52d" x="55.28" y="73.381376" style="stroke: #000000; stroke-width: 0.8"/>
      </g>
     </g>
     <g id="text_14">
      <!-- 140 -->
      <g transform="translate(29.1925 77.180595) scale(0.1 -0.1)">
       <use xlink:href="#DejaVuSans-31"/>
       <use xlink:href="#DejaVuSans-34" x="63.623047"/>
       <use xlink:href="#DejaVuSans-30" x="127.246094"/>
      </g>
     </g>
    </g>
    <g id="ytick_8">
     <g id="line2d_14">
      <g>
       <use xlink:href="#mf99f0ec52d" x="55.28" y="46.722075" style="stroke: #000000; stroke-width: 0.8"/>
      </g>
     </g>
     <g id="text_15">
      <!-- 160 -->
      <g transform="translate(29.1925 50.521294) scale(0.1 -0.1)">
       <use xlink:href="#DejaVuSans-31"/>
       <use xlink:href="#DejaVuSans-36" x="63.623047"/>
       <use xlink:href="#DejaVuSans-30" x="127.246094"/>
      </g>
     </g>
    </g>
    <g id="ytick_9">
     <g id="line2d_15">
      <g>
       <use xlink:href="#mf99f0ec52d" x="55.28" y="20.062774" style="stroke: #000000; stroke-width: 0.8"/>
      </g>
     </g>
     <g id="text_16">
      <!-- 180 -->
      <g transform="translate(29.1925 23.861993) scale(0.1 -0.1)">
       <use xlink:href="#DejaVuSans-31"/>
       <use xlink:href="#DejaVuSans-38" x="63.623047"/>
       <use xlink:href="#DejaVuSans-30" x="127.246094"/>
      </g>
     </g>
    </g>
    <g id="text_17">
     <!-- Qd_score_norm -->
     <g transform="translate(21.891562 180.673125) rotate(-90) scale(0.14 -0.14)">
      <defs>
       <path id="DejaVuSans-51" d="M 2522 4238 
Q 1834 4238 1429 3725 
Q 1025 3213 1025 2328 
Q 1025 1447 1429 934 
Q 1834 422 2522 422 
Q 3209 422 3611 934 
Q 4013 1447 4013 2328 
Q 4013 3213 3611 3725 
Q 3209 4238 2522 4238 
z
M 3406 84 
L 4238 -825 
L 3475 -825 
L 2784 -78 
Q 2681 -84 2626 -87 
Q 2572 -91 2522 -91 
Q 1538 -91 948 567 
Q 359 1225 359 2328 
Q 359 3434 948 4092 
Q 1538 4750 2522 4750 
Q 3503 4750 4090 4092 
Q 4678 3434 4678 2328 
Q 4678 1516 4351 937 
Q 4025 359 3406 84 
z
" transform="scale(0.015625)"/>
       <path id="DejaVuSans-64" d="M 2906 2969 
L 2906 4863 
L 3481 4863 
L 3481 0 
L 2906 0 
L 2906 525 
Q 2725 213 2448 61 
Q 2172 -91 1784 -91 
Q 1150 -91 751 415 
Q 353 922 353 1747 
Q 353 2572 751 3078 
Q 1150 3584 1784 3584 
Q 2172 3584 2448 3432 
Q 2725 3281 2906 2969 
z
M 947 1747 
Q 947 1113 1208 752 
Q 1469 391 1925 391 
Q 2381 391 2643 752 
Q 2906 1113 2906 1747 
Q 2906 2381 2643 2742 
Q 2381 3103 1925 3103 
Q 1469 3103 1208 2742 
Q 947 2381 947 1747 
z
" transform="scale(0.015625)"/>
       <path id="DejaVuSans-5f" d="M 3263 -1063 
L 3263 -1509 
L -63 -1509 
L -63 -1063 
L 3263 -1063 
z
" transform="scale(0.015625)"/>
       <path id="DejaVuSans-63" d="M 3122 3366 
L 3122 2828 
Q 2878 2963 2633 3030 
Q 2388 3097 2138 3097 
Q 1578 3097 1268 2742 
Q 959 2388 959 1747 
Q 959 1106 1268 751 
Q 1578 397 2138 397 
Q 2388 397 2633 464 
Q 2878 531 3122 666 
L 3122 134 
Q 2881 22 2623 -34 
Q 2366 -91 2075 -91 
Q 1284 -91 818 406 
Q 353 903 353 1747 
Q 353 2603 823 3093 
Q 1294 3584 2113 3584 
Q 2378 3584 2631 3529 
Q 2884 3475 3122 3366 
z
" transform="scale(0.015625)"/>
       <path id="DejaVuSans-6d" d="M 3328 2828 
Q 3544 3216 3844 3400 
Q 4144 3584 4550 3584 
Q 5097 3584 5394 3201 
Q 5691 2819 5691 2113 
L 5691 0 
L 5113 0 
L 5113 2094 
Q 5113 2597 4934 2840 
Q 4756 3084 4391 3084 
Q 3944 3084 3684 2787 
Q 3425 2491 3425 1978 
L 3425 0 
L 2847 0 
L 2847 2094 
Q 2847 2600 2669 2842 
Q 2491 3084 2119 3084 
Q 1678 3084 1418 2786 
Q 1159 2488 1159 1978 
L 1159 0 
L 581 0 
L 581 3500 
L 1159 3500 
L 1159 2956 
Q 1356 3278 1631 3431 
Q 1906 3584 2284 3584 
Q 2666 3584 2933 3390 
Q 3200 3197 3328 2828 
z
" transform="scale(0.015625)"/>
      </defs>
      <use xlink:href="#DejaVuSans-51"/>
      <use xlink:href="#DejaVuSans-64" x="78.710938"/>
      <use xlink:href="#DejaVuSans-5f" x="142.1875"/>
      <use xlink:href="#DejaVuSans-73" x="192.1875"/>
      <use xlink:href="#DejaVuSans-63" x="244.287109"/>
      <use xlink:href="#DejaVuSans-6f" x="299.267578"/>
      <use xlink:href="#DejaVuSans-72" x="360.449219"/>
      <use xlink:href="#DejaVuSans-65" x="399.3125"/>
      <use xlink:href="#DejaVuSans-5f" x="460.835938"/>
      <use xlink:href="#DejaVuSans-6e" x="510.835938"/>
      <use xlink:href="#DejaVuSans-6f" x="574.214844"/>
      <use xlink:href="#DejaVuSans-72" x="635.396484"/>
      <use xlink:href="#DejaVuSans-6d" x="674.759766"/>
     </g>
    </g>
   </g>
   <g id="line2d_16">
    <path d="M 65.303676 231.910909 
L 67.328661 215.408802 
L 69.353646 205.771465 
L 71.378631 196.094138 
L 73.403616 187.403206 
L 75.428601 183.510948 
L 77.453586 176.57953 
L 79.478571 171.24767 
L 81.503556 167.475379 
L 83.528541 164.142966 
L 85.553526 161.663651 
L 87.578511 158.744458 
L 89.603496 153.439257 
L 91.628481 147.107673 
L 93.653466 144.295117 
L 95.678451 139.789695 
L 97.703436 133.08488 
L 99.728421 132.271772 
L 101.753406 131.2054 
L 103.778391 127.619724 
L 105.803376 123.780784 
L 107.828361 117.46253 
L 109.853346 117.022652 
L 111.878331 114.609985 
L 113.903316 112.410593 
L 115.928301 108.784928 
L 117.953286 108.198423 
L 119.978271 107.331996 
L 122.003256 104.799362 
L 124.028241 104.546099 
L 126.053226 102.839904 
L 128.078211 101.680224 
L 130.103196 101.05373 
L 132.128181 99.600798 
L 134.153166 97.987911 
L 136.178151 97.707988 
L 138.203136 96.321704 
L 140.228121 96.041782 
L 142.253106 94.828784 
L 144.278091 94.58885 
L 146.303076 93.535808 
L 148.328061 91.53636 
L 150.353046 91.296426 
L 152.378031 91.256437 
L 154.403016 89.896813 
L 156.428001 87.444157 
L 158.452986 86.497752 
L 160.477971 83.858481 
L 162.502956 82.192275 
L 164.527941 80.952617 
L 166.552926 78.126732 
L 168.577911 76.873744 
L 170.602896 76.793767 
L 172.627881 75.780713 
L 174.652866 73.541332 
L 176.677851 72.47496 
L 178.702836 71.168654 
L 180.727821 70.795424 
L 182.752806 70.795424 
L 184.777791 69.675733 
L 186.802777 68.236131 
L 188.827762 67.103111 
L 190.852747 64.557147 
L 192.877732 64.317214 
L 194.902717 60.611571 
L 196.927702 58.932035 
L 198.952687 58.052278 
L 200.977672 57.785685 
L 203.002657 57.759026 
L 205.027642 56.546027 
L 207.052627 55.399678 
L 209.077612 55.279711 
L 211.102597 55.173073 
L 213.127582 53.893427 
L 215.152567 50.387729 
L 217.177552 50.121136 
L 219.202537 48.788171 
L 221.227522 48.628215 
L 223.252507 47.575173 
L 225.277492 45.215825 
L 227.302477 44.216101 
L 229.327462 44.216101 
L 231.352447 41.016985 
L 233.377432 39.65736 
L 235.402417 39.497405 
L 237.427402 38.257747 
L 239.452387 35.605147 
L 241.477372 35.298565 
L 243.502357 33.765655 
L 245.527342 31.339658 
L 247.552327 31.046406 
L 249.577312 29.76676 
L 251.602297 29.75343 
L 253.627282 28.260509 
L 255.652267 27.274115 
L 257.677252 27.194137 
L 259.702237 25.847842 
L 261.727222 24.568196 
L 263.752207 23.821736 
L 265.777192 21.329091 
" clip-path="url(#pf170d7c400)" style="fill: none; stroke: #000000; stroke-width: 1.5; stroke-linecap: square"/>
   </g>
   <g id="line2d_17">
    <path d="M 65.303676 231.910909 
L 67.328661 215.408802 
L 69.353646 205.771465 
L 71.378631 196.094138 
L 73.403616 187.403206 
L 75.428601 183.510948 
L 77.453586 176.57953 
L 79.478571 171.24767 
L 81.503556 167.475379 
L 83.528541 164.142966 
L 85.553526 161.663651 
L 87.578511 158.744458 
L 89.603496 153.439257 
L 91.628481 147.107673 
L 93.653466 144.295117 
L 95.678451 139.789695 
L 97.703436 133.08488 
L 99.728421 132.271772 
L 101.753406 131.2054 
L 103.778391 127.619724 
L 105.803376 123.780784 
L 107.828361 117.46253 
L 109.853346 117.022652 
L 111.878331 114.609985 
L 113.903316 112.410593 
L 115.928301 108.784928 
L 117.953286 108.198423 
L 119.978271 107.331996 
L 122.003256 104.799362 
L 124.028241 104.546099 
L 126.053226 102.839904 
L 128.078211 101.680224 
L 130.103196 101.05373 
L 132.128181 99.600798 
L 134.153166 97.987911 
L 136.178151 97.707988 
L 138.203136 96.321704 
L 140.228121 96.041782 
L 142.253106 94.828784 
L 144.278091 94.58885 
L 146.303076 93.535808 
L 148.328061 91.53636 
L 150.353046 91.296426 
L 152.378031 91.256437 
L 154.403016 89.896813 
L 156.428001 87.444157 
L 158.452986 86.497752 
L 160.477971 83.858481 
L 162.502956 82.192275 
L 164.527941 80.952617 
L 166.552926 78.126732 
L 168.577911 76.873744 
L 170.602896 76.793767 
L 172.627881 75.780713 
L 174.652866 73.541332 
L 176.677851 72.47496 
L 178.702836 71.168654 
L 180.727821 70.795424 
L 182.752806 70.795424 
L 184.777791 69.675733 
L 186.802777 68.236131 
L 188.827762 67.103111 
L 190.852747 64.557147 
L 192.877732 64.317214 
L 194.902717 60.611571 
L 196.927702 58.932035 
L 198.952687 58.052278 
L 200.977672 57.785685 
L 203.002657 57.759026 
L 205.027642 56.546027 
L 207.052627 55.399678 
L 209.077612 55.279711 
L 211.102597 55.173073 
L 213.127582 53.893427 
L 215.152567 50.387729 
L 217.177552 50.121136 
L 219.202537 48.788171 
L 221.227522 48.628215 
L 223.252507 47.575173 
L 225.277492 45.215825 
L 227.302477 44.216101 
L 229.327462 44.216101 
L 231.352447 41.016985 
L 233.377432 39.65736 
L 235.402417 39.497405 
L 237.427402 38.257747 
L 239.452387 35.605147 
L 241.477372 35.298565 
L 243.502357 33.765655 
L 245.527342 31.339658 
L 247.552327 31.046406 
L 249.577312 29.76676 
L 251.602297 29.75343 
L 253.627282 28.260509 
L 255.652267 27.274115 
L 257.677252 27.194137 
L 259.702237 25.847842 
L 261.727222 24.568196 
L 263.752207 23.821736 
L 265.777192 21.329091 
" clip-path="url(#pf170d7c400)" style="fill: none; stroke: #000000; stroke-width: 1.5; stroke-linecap: square"/>
   </g>
   <g id="line2d_18">
    <path d="M 65.303676 231.910909 
L 67.328661 215.408802 
L 69.353646 205.771465 
L 71.378631 196.094138 
L 73.403616 187.403206 
L 75.428601 183.510948 
L 77.453586 176.57953 
L 79.478571 171.24767 
L 81.503556 167.475379 
L 83.528541 164.142966 
L 85.553526 161.663651 
L 87.578511 158.744458 
L 89.603496 153.439257 
L 91.628481 147.107673 
L 93.653466 144.295117 
L 95.678451 139.789695 
L 97.703436 133.08488 
L 99.728421 132.271772 
L 101.753406 131.2054 
L 103.778391 127.619724 
L 105.803376 123.780784 
L 107.828361 117.46253 
L 109.853346 117.022652 
L 111.878331 114.609985 
L 113.903316 112.410593 
L 115.928301 108.784928 
L 117.953286 108.198423 
L 119.978271 107.331996 
L 122.003256 104.799362 
L 124.028241 104.546099 
L 126.053226 102.839904 
L 128.078211 101.680224 
L 130.103196 101.05373 
L 132.128181 99.600798 
L 134.153166 97.987911 
L 136.178151 97.707988 
L 138.203136 96.321704 
L 140.228121 96.041782 
L 142.253106 94.828784 
L 144.278091 94.58885 
L 146.303076 93.535808 
L 148.328061 91.53636 
L 150.353046 91.296426 
L 152.378031 91.256437 
L 154.403016 89.896813 
L 156.428001 87.444157 
L 158.452986 86.497752 
L 160.477971 83.858481 
L 162.502956 82.192275 
L 164.527941 80.952617 
L 166.552926 78.126732 
L 168.577911 76.873744 
L 170.602896 76.793767 
L 172.627881 75.780713 
L 174.652866 73.541332 
L 176.677851 72.47496 
L 178.702836 71.168654 
L 180.727821 70.795424 
L 182.752806 70.795424 
L 184.777791 69.675733 
L 186.802777 68.236131 
L 188.827762 67.103111 
L 190.852747 64.557147 
L 192.877732 64.317214 
L 194.902717 60.611571 
L 196.927702 58.932035 
L 198.952687 58.052278 
L 200.977672 57.785685 
L 203.002657 57.759026 
L 205.027642 56.546027 
L 207.052627 55.399678 
L 209.077612 55.279711 
L 211.102597 55.173073 
L 213.127582 53.893427 
L 215.152567 50.387729 
L 217.177552 50.121136 
L 219.202537 48.788171 
L 221.227522 48.628215 
L 223.252507 47.575173 
L 225.277492 45.215825 
L 227.302477 44.216101 
L 229.327462 44.216101 
L 231.352447 41.016985 
L 233.377432 39.65736 
L 235.402417 39.497405 
L 237.427402 38.257747 
L 239.452387 35.605147 
L 241.477372 35.298565 
L 243.502357 33.765655 
L 245.527342 31.339658 
L 247.552327 31.046406 
L 249.577312 29.76676 
L 251.602297 29.75343 
L 253.627282 28.260509 
L 255.652267 27.274115 
L 257.677252 27.194137 
L 259.702237 25.847842 
L 261.727222 24.568196 
L 263.752207 23.821736 
L 265.777192 21.329091 
" clip-path="url(#pf170d7c400)" style="fill: none; stroke: #000000; stroke-width: 1.5; stroke-linecap: square"/>
   </g>
   <g id="line2d_19">
    <path d="M 65.303676 231.910909 
L 67.328661 215.408802 
L 69.353646 205.771465 
L 71.378631 196.094138 
L 73.403616 187.403206 
L 75.428601 183.510948 
L 77.453586 176.57953 
L 79.478571 171.24767 
L 81.503556 167.475379 
L 83.528541 164.142966 
L 85.553526 161.663651 
L 87.578511 158.744458 
L 89.603496 153.439257 
L 91.628481 147.107673 
L 93.653466 144.295117 
L 95.678451 139.789695 
L 97.703436 133.08488 
L 99.728421 132.271772 
L 101.753406 131.2054 
L 103.778391 127.619724 
L 105.803376 123.780784 
L 107.828361 117.46253 
L 109.853346 117.022652 
L 111.878331 114.609985 
L 113.903316 112.410593 
L 115.928301 108.784928 
L 117.953286 108.198423 
L 119.978271 107.331996 
L 122.003256 104.799362 
L 124.028241 104.546099 
L 126.053226 102.839904 
L 128.078211 101.680224 
L 130.103196 101.05373 
L 132.128181 99.600798 
L 134.153166 97.987911 
L 136.178151 97.707988 
L 138.203136 96.321704 
L 140.228121 96.041782 
L 142.253106 94.828784 
L 144.278091 94.58885 
L 146.303076 93.535808 
L 148.328061 91.53636 
L 150.353046 91.296426 
L 152.378031 91.256437 
L 154.403016 89.896813 
L 156.428001 87.444157 
L 158.452986 86.497752 
L 160.477971 83.858481 
L 162.502956 82.192275 
L 164.527941 80.952617 
L 166.552926 78.126732 
L 168.577911 76.873744 
L 170.602896 76.793767 
L 172.627881 75.780713 
L 174.652866 73.541332 
L 176.677851 72.47496 
L 178.702836 71.168654 
L 180.727821 70.795424 
L 182.752806 70.795424 
L 184.777791 69.675733 
L 186.802777 68.236131 
L 188.827762 67.103111 
L 190.852747 64.557147 
L 192.877732 64.317214 
L 194.902717 60.611571 
L 196.927702 58.932035 
L 198.952687 58.052278 
L 200.977672 57.785685 
L 203.002657 57.759026 
L 205.027642 56.546027 
L 207.052627 55.399678 
L 209.077612 55.279711 
L 211.102597 55.173073 
L 213.127582 53.893427 
L 215.152567 50.387729 
L 217.177552 50.121136 
L 219.202537 48.788171 
L 221.227522 48.628215 
L 223.252507 47.575173 
L 225.277492 45.215825 
L 227.302477 44.216101 
L 229.327462 44.216101 
L 231.352447 41.016985 
L 233.377432 39.65736 
L 235.402417 39.497405 
L 237.427402 38.257747 
L 239.452387 35.605147 
L 241.477372 35.298565 
L 243.502357 33.765655 
L 245.527342 31.339658 
L 247.552327 31.046406 
L 249.577312 29.76676 
L 251.602297 29.75343 
L 253.627282 28.260509 
L 255.652267 27.274115 
L 257.677252 27.194137 
L 259.702237 25.847842 
L 261.727222 24.568196 
L 263.752207 23.821736 
L 265.777192 21.329091 
" clip-path="url(#pf170d7c400)" style="fill: none; stroke: #000000; stroke-width: 1.5; stroke-linecap: square"/>
   </g>
   <g id="line2d_20">
    <path d="M 65.303676 231.910909 
L 67.328661 215.408802 
L 69.353646 205.771465 
L 71.378631 196.094138 
L 73.403616 187.403206 
L 75.428601 183.510948 
L 77.453586 176.57953 
L 79.478571 171.24767 
L 81.503556 167.475379 
L 83.528541 164.142966 
L 85.553526 161.663651 
L 87.578511 158.744458 
L 89.603496 153.439257 
L 91.628481 147.107673 
L 93.653466 144.295117 
L 95.678451 139.789695 
L 97.703436 133.08488 
L 99.728421 132.271772 
L 101.753406 131.2054 
L 103.778391 127.619724 
L 105.803376 123.780784 
L 107.828361 117.46253 
L 109.853346 117.022652 
L 111.878331 114.609985 
L 113.903316 112.410593 
L 115.928301 108.784928 
L 117.953286 108.198423 
L 119.978271 107.331996 
L 122.003256 104.799362 
L 124.028241 104.546099 
L 126.053226 102.839904 
L 128.078211 101.680224 
L 130.103196 101.05373 
L 132.128181 99.600798 
L 134.153166 97.987911 
L 136.178151 97.707988 
L 138.203136 96.321704 
L 140.228121 96.041782 
L 142.253106 94.828784 
L 144.278091 94.58885 
L 146.303076 93.535808 
L 148.328061 91.53636 
L 150.353046 91.296426 
L 152.378031 91.256437 
L 154.403016 89.896813 
L 156.428001 87.444157 
L 158.452986 86.497752 
L 160.477971 83.858481 
L 162.502956 82.192275 
L 164.527941 80.952617 
L 166.552926 78.126732 
L 168.577911 76.873744 
L 170.602896 76.793767 
L 172.627881 75.780713 
L 174.652866 73.541332 
L 176.677851 72.47496 
L 178.702836 71.168654 
L 180.727821 70.795424 
L 182.752806 70.795424 
L 184.777791 69.675733 
L 186.802777 68.236131 
L 188.827762 67.103111 
L 190.852747 64.557147 
L 192.877732 64.317214 
L 194.902717 60.611571 
L 196.927702 58.932035 
L 198.952687 58.052278 
L 200.977672 57.785685 
L 203.002657 57.759026 
L 205.027642 56.546027 
L 207.052627 55.399678 
L 209.077612 55.279711 
L 211.102597 55.173073 
L 213.127582 53.893427 
L 215.152567 50.387729 
L 217.177552 50.121136 
L 219.202537 48.788171 
L 221.227522 48.628215 
L 223.252507 47.575173 
L 225.277492 45.215825 
L 227.302477 44.216101 
L 229.327462 44.216101 
L 231.352447 41.016985 
L 233.377432 39.65736 
L 235.402417 39.497405 
L 237.427402 38.257747 
L 239.452387 35.605147 
L 241.477372 35.298565 
L 243.502357 33.765655 
L 245.527342 31.339658 
L 247.552327 31.046406 
L 249.577312 29.76676 
L 251.602297 29.75343 
L 253.627282 28.260509 
L 255.652267 27.274115 
L 257.677252 27.194137 
L 259.702237 25.847842 
L 261.727222 24.568196 
L 263.752207 23.821736 
L 265.777192 21.329091 
" clip-path="url(#pf170d7c400)" style="fill: none; stroke: #000000; stroke-width: 1.5; stroke-linecap: square"/>
   </g>
   <g id="line2d_21">
    <path d="M 65.303676 231.910909 
L 67.328661 215.408802 
L 69.353646 205.771465 
L 71.378631 196.094138 
L 73.403616 187.403206 
L 75.428601 183.510948 
L 77.453586 176.57953 
L 79.478571 171.24767 
L 81.503556 167.475379 
L 83.528541 164.142966 
L 85.553526 161.663651 
L 87.578511 158.744458 
L 89.603496 153.439257 
L 91.628481 147.107673 
L 93.653466 144.295117 
L 95.678451 139.789695 
L 97.703436 133.08488 
L 99.728421 132.271772 
L 101.753406 131.2054 
L 103.778391 127.619724 
L 105.803376 123.780784 
L 107.828361 117.46253 
L 109.853346 117.022652 
L 111.878331 114.609985 
L 113.903316 112.410593 
L 115.928301 108.784928 
L 117.953286 108.198423 
L 119.978271 107.331996 
L 122.003256 104.799362 
L 124.028241 104.546099 
L 126.053226 102.839904 
L 128.078211 101.680224 
L 130.103196 101.05373 
L 132.128181 99.600798 
L 134.153166 97.987911 
L 136.178151 97.707988 
L 138.203136 96.321704 
L 140.228121 96.041782 
L 142.253106 94.828784 
L 144.278091 94.58885 
L 146.303076 93.535808 
L 148.328061 91.53636 
L 150.353046 91.296426 
L 152.378031 91.256437 
L 154.403016 89.896813 
L 156.428001 87.444157 
L 158.452986 86.497752 
L 160.477971 83.858481 
L 162.502956 82.192275 
L 164.527941 80.952617 
L 166.552926 78.126732 
L 168.577911 76.873744 
L 170.602896 76.793767 
L 172.627881 75.780713 
L 174.652866 73.541332 
L 176.677851 72.47496 
L 178.702836 71.168654 
L 180.727821 70.795424 
L 182.752806 70.795424 
L 184.777791 69.675733 
L 186.802777 68.236131 
L 188.827762 67.103111 
L 190.852747 64.557147 
L 192.877732 64.317214 
L 194.902717 60.611571 
L 196.927702 58.932035 
L 198.952687 58.052278 
L 200.977672 57.785685 
L 203.002657 57.759026 
L 205.027642 56.546027 
L 207.052627 55.399678 
L 209.077612 55.279711 
L 211.102597 55.173073 
L 213.127582 53.893427 
L 215.152567 50.387729 
L 217.177552 50.121136 
L 219.202537 48.788171 
L 221.227522 48.628215 
L 223.252507 47.575173 
L 225.277492 45.215825 
L 227.302477 44.216101 
L 229.327462 44.216101 
L 231.352447 41.016985 
L 233.377432 39.65736 
L 235.402417 39.497405 
L 237.427402 38.257747 
L 239.452387 35.605147 
L 241.477372 35.298565 
L 243.502357 33.765655 
L 245.527342 31.339658 
L 247.552327 31.046406 
L 249.577312 29.76676 
L 251.602297 29.75343 
L 253.627282 28.260509 
L 255.652267 27.274115 
L 257.677252 27.194137 
L 259.702237 25.847842 
L 261.727222 24.568196 
L 263.752207 23.821736 
L 265.777192 21.329091 
" clip-path="url(#pf170d7c400)" style="fill: none; stroke: #000000; stroke-width: 1.5; stroke-linecap: square"/>
   </g>
   <g id="patch_3">
    <path d="M 55.28 242.44 
L 55.28 10.8 
" style="fill: none; stroke: #000000; stroke-width: 0.8; stroke-linejoin: miter; stroke-linecap: square"/>
   </g>
   <g id="patch_4">
    <path d="M 275.800868 242.44 
L 275.800868 10.8 
" style="fill: none; stroke: #000000; stroke-width: 0.8; stroke-linejoin: miter; stroke-linecap: square"/>
   </g>
   <g id="patch_5">
    <path d="M 55.28 242.44 
L 275.800868 242.44 
" style="fill: none; stroke: #000000; stroke-width: 0.8; stroke-linejoin: miter; stroke-linecap: square"/>
   </g>
   <g id="patch_6">
    <path d="M 55.28 10.8 
L 275.800868 10.8 
" style="fill: none; stroke: #000000; stroke-width: 0.8; stroke-linejoin: miter; stroke-linecap: square"/>
   </g>
  </g>
 </g>
 <defs>
  <clipPath id="pf170d7c400">
   <rect x="55.28" y="10.8" width="220.520868" height="231.64"/>
  </clipPath>
 </defs>
</svg>
