<?xml version="1.0" encoding="utf-8" standalone="no"?>
<!DOCTYPE svg PUBLIC "-//W3C//DTD SVG 1.1//EN"
  "http://www.w3.org/Graphics/SVG/1.1/DTD/svg11.dtd">
<svg xmlns:xlink="http://www.w3.org/1999/xlink" width="288pt" height="288pt" viewBox="0 0 288 288" xmlns="http://www.w3.org/2000/svg" version="1.1">
 <metadata>
  <rdf:RDF xmlns:dc="http://purl.org/dc/elements/1.1/" xmlns:cc="http://creativecommons.org/ns#" xmlns:rdf="http://www.w3.org/1999/02/22-rdf-syntax-ns#">
   <cc:Work>
    <dc:type rdf:resource="http://purl.org/dc/dcmitype/StillImage"/>
    <dc:date>2024-02-24T02:37:59.323047</dc:date>
    <dc:format>image/svg+xml</dc:format>
    <dc:creator>
     <cc:Agent>
      <dc:title>Matplotlib v3.8.2, https://matplotlib.org/</dc:title>
     </cc:Agent>
    </dc:creator>
   </cc:Work>
  </rdf:RDF>
 </metadata>
 <defs>
  <style type="text/css">*{stroke-linejoin: round; stroke-linecap: butt}</style>
 </defs>
 <g id="figure_1">
  <g id="patch_1">
   <path d="M 0 288 
L 288 288 
L 288 0 
L 0 0 
z
" style="fill: #ffffff"/>
  </g>
  <g id="axes_1">
   <g id="patch_2">
    <path d="M 55.19 242.44 
L 275.800868 242.44 
L 275.800868 10.8 
L 55.19 10.8 
z
" style="fill: #ffffff"/>
   </g>
   <g id="matplotlib.axis_1">
    <g id="xtick_1">
     <g id="line2d_1">
      <defs>
       <path id="m38d95a7432" d="M 0 0 
L 0 3.5 
" style="stroke: #000000; stroke-width: 0.8"/>
      </defs>
      <g>
       <use xlink:href="#m38d95a7432" x="65.217767" y="242.44" style="stroke: #000000; stroke-width: 0.8"/>
      </g>
     </g>
     <g id="text_1">
      <!-- 0 -->
      <g transform="translate(62.036517 257.038437) scale(0.1 -0.1)">
       <defs>
        <path id="DejaVuSans-30" d="M 2034 4250 
Q 1547 4250 1301 3770 
Q 1056 3291 1056 2328 
Q 1056 1369 1301 889 
Q 1547 409 2034 409 
Q 2525 409 2770 889 
Q 3016 1369 3016 2328 
Q 3016 3291 2770 3770 
Q 2525 4250 2034 4250 
z
M 2034 4750 
Q 2819 4750 3233 4129 
Q 3647 3509 3647 2328 
Q 3647 1150 3233 529 
Q 2819 -91 2034 -91 
Q 1250 -91 836 529 
Q 422 1150 422 2328 
Q 422 3509 836 4129 
Q 1250 4750 2034 4750 
z
" transform="scale(0.015625)"/>
       </defs>
       <use xlink:href="#DejaVuSans-30"/>
      </g>
     </g>
    </g>
    <g id="xtick_2">
     <g id="line2d_2">
      <g>
       <use xlink:href="#m38d95a7432" x="105.733996" y="242.44" style="stroke: #000000; stroke-width: 0.8"/>
      </g>
     </g>
     <g id="text_2">
      <!-- 20 -->
      <g transform="translate(99.371496 257.038437) scale(0.1 -0.1)">
       <defs>
        <path id="DejaVuSans-32" d="M 1228 531 
L 3431 531 
L 3431 0 
L 469 0 
L 469 531 
Q 828 903 1448 1529 
Q 2069 2156 2228 2338 
Q 2531 2678 2651 2914 
Q 2772 3150 2772 3378 
Q 2772 3750 2511 3984 
Q 2250 4219 1831 4219 
Q 1534 4219 1204 4116 
Q 875 4013 500 3803 
L 500 4441 
Q 881 4594 1212 4672 
Q 1544 4750 1819 4750 
Q 2544 4750 2975 4387 
Q 3406 4025 3406 3419 
Q 3406 3131 3298 2873 
Q 3191 2616 2906 2266 
Q 2828 2175 2409 1742 
Q 1991 1309 1228 531 
z
" transform="scale(0.015625)"/>
       </defs>
       <use xlink:href="#DejaVuSans-32"/>
       <use xlink:href="#DejaVuSans-30" x="63.623047"/>
      </g>
     </g>
    </g>
    <g id="xtick_3">
     <g id="line2d_3">
      <g>
       <use xlink:href="#m38d95a7432" x="146.250225" y="242.44" style="stroke: #000000; stroke-width: 0.8"/>
      </g>
     </g>
     <g id="text_3">
      <!-- 40 -->
      <g transform="translate(139.887725 257.038437) scale(0.1 -0.1)">
       <defs>
        <path id="DejaVuSans-34" d="M 2419 4116 
L 825 1625 
L 2419 1625 
L 2419 4116 
z
M 2253 4666 
L 3047 4666 
L 3047 1625 
L 3713 1625 
L 3713 1100 
L 3047 1100 
L 3047 0 
L 2419 0 
L 2419 1100 
L 313 1100 
L 313 1709 
L 2253 4666 
z
" transform="scale(0.015625)"/>
       </defs>
       <use xlink:href="#DejaVuSans-34"/>
       <use xlink:href="#DejaVuSans-30" x="63.623047"/>
      </g>
     </g>
    </g>
    <g id="xtick_4">
     <g id="line2d_4">
      <g>
       <use xlink:href="#m38d95a7432" x="186.766454" y="242.44" style="stroke: #000000; stroke-width: 0.8"/>
      </g>
     </g>
     <g id="text_4">
      <!-- 60 -->
      <g transform="translate(180.403954 257.038437) scale(0.1 -0.1)">
       <defs>
        <path id="DejaVuSans-36" d="M 2113 2584 
Q 1688 2584 1439 2293 
Q 1191 2003 1191 1497 
Q 1191 994 1439 701 
Q 1688 409 2113 409 
Q 2538 409 2786 701 
Q 3034 994 3034 1497 
Q 3034 2003 2786 2293 
Q 2538 2584 2113 2584 
z
M 3366 4563 
L 3366 3988 
Q 3128 4100 2886 4159 
Q 2644 4219 2406 4219 
Q 1781 4219 1451 3797 
Q 1122 3375 1075 2522 
Q 1259 2794 1537 2939 
Q 1816 3084 2150 3084 
Q 2853 3084 3261 2657 
Q 3669 2231 3669 1497 
Q 3669 778 3244 343 
Q 2819 -91 2113 -91 
Q 1303 -91 875 529 
Q 447 1150 447 2328 
Q 447 3434 972 4092 
Q 1497 4750 2381 4750 
Q 2619 4750 2861 4703 
Q 3103 4656 3366 4563 
z
" transform="scale(0.015625)"/>
       </defs>
       <use xlink:href="#DejaVuSans-36"/>
       <use xlink:href="#DejaVuSans-30" x="63.623047"/>
      </g>
     </g>
    </g>
    <g id="xtick_5">
     <g id="line2d_5">
      <g>
       <use xlink:href="#m38d95a7432" x="227.282683" y="242.44" style="stroke: #000000; stroke-width: 0.8"/>
      </g>
     </g>
     <g id="text_5">
      <!-- 80 -->
      <g transform="translate(220.920183 257.038437) scale(0.1 -0.1)">
       <defs>
        <path id="DejaVuSans-38" d="M 2034 2216 
Q 1584 2216 1326 1975 
Q 1069 1734 1069 1313 
Q 1069 891 1326 650 
Q 1584 409 2034 409 
Q 2484 409 2743 651 
Q 3003 894 3003 1313 
Q 3003 1734 2745 1975 
Q 2488 2216 2034 2216 
z
M 1403 2484 
Q 997 2584 770 2862 
Q 544 3141 544 3541 
Q 544 4100 942 4425 
Q 1341 4750 2034 4750 
Q 2731 4750 3128 4425 
Q 3525 4100 3525 3541 
Q 3525 3141 3298 2862 
Q 3072 2584 2669 2484 
Q 3125 2378 3379 2068 
Q 3634 1759 3634 1313 
Q 3634 634 3220 271 
Q 2806 -91 2034 -91 
Q 1263 -91 848 271 
Q 434 634 434 1313 
Q 434 1759 690 2068 
Q 947 2378 1403 2484 
z
M 1172 3481 
Q 1172 3119 1398 2916 
Q 1625 2713 2034 2713 
Q 2441 2713 2670 2916 
Q 2900 3119 2900 3481 
Q 2900 3844 2670 4047 
Q 2441 4250 2034 4250 
Q 1625 4250 1398 4047 
Q 1172 3844 1172 3481 
z
" transform="scale(0.015625)"/>
       </defs>
       <use xlink:href="#DejaVuSans-38"/>
       <use xlink:href="#DejaVuSans-30" x="63.623047"/>
      </g>
     </g>
    </g>
    <g id="xtick_6">
     <g id="line2d_6">
      <g>
       <use xlink:href="#m38d95a7432" x="267.798913" y="242.44" style="stroke: #000000; stroke-width: 0.8"/>
      </g>
     </g>
     <g id="text_6">
      <!-- 100 -->
      <g transform="translate(258.255163 257.038437) scale(0.1 -0.1)">
       <defs>
        <path id="DejaVuSans-31" d="M 794 531 
L 1825 531 
L 1825 4091 
L 703 3866 
L 703 4441 
L 1819 4666 
L 2450 4666 
L 2450 531 
L 3481 531 
L 3481 0 
L 794 0 
L 794 531 
z
" transform="scale(0.015625)"/>
       </defs>
       <use xlink:href="#DejaVuSans-31"/>
       <use xlink:href="#DejaVuSans-30" x="63.623047"/>
       <use xlink:href="#DejaVuSans-30" x="127.246094"/>
      </g>
     </g>
    </g>
    <g id="text_7">
     <!-- Iterations -->
     <g transform="translate(132.15684 273.755938) scale(0.14 -0.14)">
      <defs>
       <path id="DejaVuSans-49" d="M 628 4666 
L 1259 4666 
L 1259 0 
L 628 0 
L 628 4666 
z
" transform="scale(0.015625)"/>
       <path id="DejaVuSans-74" d="M 1172 4494 
L 1172 3500 
L 2356 3500 
L 2356 3053 
L 1172 3053 
L 1172 1153 
Q 1172 725 1289 603 
Q 1406 481 1766 481 
L 2356 481 
L 2356 0 
L 1766 0 
Q 1100 0 847 248 
Q 594 497 594 1153 
L 594 3053 
L 172 3053 
L 172 3500 
L 594 3500 
L 594 4494 
L 1172 4494 
z
" transform="scale(0.015625)"/>
       <path id="DejaVuSans-65" d="M 3597 1894 
L 3597 1613 
L 953 1613 
Q 991 1019 1311 708 
Q 1631 397 2203 397 
Q 2534 397 2845 478 
Q 3156 559 3463 722 
L 3463 178 
Q 3153 47 2828 -22 
Q 2503 -91 2169 -91 
Q 1331 -91 842 396 
Q 353 884 353 1716 
Q 353 2575 817 3079 
Q 1281 3584 2069 3584 
Q 2775 3584 3186 3129 
Q 3597 2675 3597 1894 
z
M 3022 2063 
Q 3016 2534 2758 2815 
Q 2500 3097 2075 3097 
Q 1594 3097 1305 2825 
Q 1016 2553 972 2059 
L 3022 2063 
z
" transform="scale(0.015625)"/>
       <path id="DejaVuSans-72" d="M 2631 2963 
Q 2534 3019 2420 3045 
Q 2306 3072 2169 3072 
Q 1681 3072 1420 2755 
Q 1159 2438 1159 1844 
L 1159 0 
L 581 0 
L 581 3500 
L 1159 3500 
L 1159 2956 
Q 1341 3275 1631 3429 
Q 1922 3584 2338 3584 
Q 2397 3584 2469 3576 
Q 2541 3569 2628 3553 
L 2631 2963 
z
" transform="scale(0.015625)"/>
       <path id="DejaVuSans-61" d="M 2194 1759 
Q 1497 1759 1228 1600 
Q 959 1441 959 1056 
Q 959 750 1161 570 
Q 1363 391 1709 391 
Q 2188 391 2477 730 
Q 2766 1069 2766 1631 
L 2766 1759 
L 2194 1759 
z
M 3341 1997 
L 3341 0 
L 2766 0 
L 2766 531 
Q 2569 213 2275 61 
Q 1981 -91 1556 -91 
Q 1019 -91 701 211 
Q 384 513 384 1019 
Q 384 1609 779 1909 
Q 1175 2209 1959 2209 
L 2766 2209 
L 2766 2266 
Q 2766 2663 2505 2880 
Q 2244 3097 1772 3097 
Q 1472 3097 1187 3025 
Q 903 2953 641 2809 
L 641 3341 
Q 956 3463 1253 3523 
Q 1550 3584 1831 3584 
Q 2591 3584 2966 3190 
Q 3341 2797 3341 1997 
z
" transform="scale(0.015625)"/>
       <path id="DejaVuSans-69" d="M 603 3500 
L 1178 3500 
L 1178 0 
L 603 0 
L 603 3500 
z
M 603 4863 
L 1178 4863 
L 1178 4134 
L 603 4134 
L 603 4863 
z
" transform="scale(0.015625)"/>
       <path id="DejaVuSans-6f" d="M 1959 3097 
Q 1497 3097 1228 2736 
Q 959 2375 959 1747 
Q 959 1119 1226 758 
Q 1494 397 1959 397 
Q 2419 397 2687 759 
Q 2956 1122 2956 1747 
Q 2956 2369 2687 2733 
Q 2419 3097 1959 3097 
z
M 1959 3584 
Q 2709 3584 3137 3096 
Q 3566 2609 3566 1747 
Q 3566 888 3137 398 
Q 2709 -91 1959 -91 
Q 1206 -91 779 398 
Q 353 888 353 1747 
Q 353 2609 779 3096 
Q 1206 3584 1959 3584 
z
" transform="scale(0.015625)"/>
       <path id="DejaVuSans-6e" d="M 3513 2113 
L 3513 0 
L 2938 0 
L 2938 2094 
Q 2938 2591 2744 2837 
Q 2550 3084 2163 3084 
Q 1697 3084 1428 2787 
Q 1159 2491 1159 1978 
L 1159 0 
L 581 0 
L 581 3500 
L 1159 3500 
L 1159 2956 
Q 1366 3272 1645 3428 
Q 1925 3584 2291 3584 
Q 2894 3584 3203 3211 
Q 3513 2838 3513 2113 
z
" transform="scale(0.015625)"/>
       <path id="DejaVuSans-73" d="M 2834 3397 
L 2834 2853 
Q 2591 2978 2328 3040 
Q 2066 3103 1784 3103 
Q 1356 3103 1142 2972 
Q 928 2841 928 2578 
Q 928 2378 1081 2264 
Q 1234 2150 1697 2047 
L 1894 2003 
Q 2506 1872 2764 1633 
Q 3022 1394 3022 966 
Q 3022 478 2636 193 
Q 2250 -91 1575 -91 
Q 1294 -91 989 -36 
Q 684 19 347 128 
L 347 722 
Q 666 556 975 473 
Q 1284 391 1588 391 
Q 1994 391 2212 530 
Q 2431 669 2431 922 
Q 2431 1156 2273 1281 
Q 2116 1406 1581 1522 
L 1381 1569 
Q 847 1681 609 1914 
Q 372 2147 372 2553 
Q 372 3047 722 3315 
Q 1072 3584 1716 3584 
Q 2034 3584 2315 3537 
Q 2597 3491 2834 3397 
z
" transform="scale(0.015625)"/>
      </defs>
      <use xlink:href="#DejaVuSans-49"/>
      <use xlink:href="#DejaVuSans-74" x="29.492188"/>
      <use xlink:href="#DejaVuSans-65" x="68.701172"/>
      <use xlink:href="#DejaVuSans-72" x="130.224609"/>
      <use xlink:href="#DejaVuSans-61" x="171.337891"/>
      <use xlink:href="#DejaVuSans-74" x="232.617188"/>
      <use xlink:href="#DejaVuSans-69" x="271.826172"/>
      <use xlink:href="#DejaVuSans-6f" x="299.609375"/>
      <use xlink:href="#DejaVuSans-6e" x="360.791016"/>
      <use xlink:href="#DejaVuSans-73" x="424.169922"/>
     </g>
    </g>
   </g>
   <g id="matplotlib.axis_2">
    <g id="ytick_1">
     <g id="line2d_7">
      <defs>
       <path id="mcda9b92a71" d="M 0 0 
L -3.5 0 
" style="stroke: #000000; stroke-width: 0.8"/>
      </defs>
      <g>
       <use xlink:href="#mcda9b92a71" x="55.19" y="220.443259" style="stroke: #000000; stroke-width: 0.8"/>
      </g>
     </g>
     <g id="text_8">
      <!-- 50 -->
      <g transform="translate(35.465 224.242478) scale(0.1 -0.1)">
       <defs>
        <path id="DejaVuSans-35" d="M 691 4666 
L 3169 4666 
L 3169 4134 
L 1269 4134 
L 1269 2991 
Q 1406 3038 1543 3061 
Q 1681 3084 1819 3084 
Q 2600 3084 3056 2656 
Q 3513 2228 3513 1497 
Q 3513 744 3044 326 
Q 2575 -91 1722 -91 
Q 1428 -91 1123 -41 
Q 819 9 494 109 
L 494 744 
Q 775 591 1075 516 
Q 1375 441 1709 441 
Q 2250 441 2565 725 
Q 2881 1009 2881 1497 
Q 2881 1984 2565 2268 
Q 2250 2553 1709 2553 
Q 1456 2553 1204 2497 
Q 953 2441 691 2322 
L 691 4666 
z
" transform="scale(0.015625)"/>
       </defs>
       <use xlink:href="#DejaVuSans-35"/>
       <use xlink:href="#DejaVuSans-30" x="63.623047"/>
      </g>
     </g>
    </g>
    <g id="ytick_2">
     <g id="line2d_8">
      <g>
       <use xlink:href="#mcda9b92a71" x="55.19" y="187.809082" style="stroke: #000000; stroke-width: 0.8"/>
      </g>
     </g>
     <g id="text_9">
      <!-- 100 -->
      <g transform="translate(29.1025 191.608301) scale(0.1 -0.1)">
       <use xlink:href="#DejaVuSans-31"/>
       <use xlink:href="#DejaVuSans-30" x="63.623047"/>
       <use xlink:href="#DejaVuSans-30" x="127.246094"/>
      </g>
     </g>
    </g>
    <g id="ytick_3">
     <g id="line2d_9">
      <g>
       <use xlink:href="#mcda9b92a71" x="55.19" y="155.174905" style="stroke: #000000; stroke-width: 0.8"/>
      </g>
     </g>
     <g id="text_10">
      <!-- 150 -->
      <g transform="translate(29.1025 158.974124) scale(0.1 -0.1)">
       <use xlink:href="#DejaVuSans-31"/>
       <use xlink:href="#DejaVuSans-35" x="63.623047"/>
       <use xlink:href="#DejaVuSans-30" x="127.246094"/>
      </g>
     </g>
    </g>
    <g id="ytick_4">
     <g id="line2d_10">
      <g>
       <use xlink:href="#mcda9b92a71" x="55.19" y="122.540728" style="stroke: #000000; stroke-width: 0.8"/>
      </g>
     </g>
     <g id="text_11">
      <!-- 200 -->
      <g transform="translate(29.1025 126.339947) scale(0.1 -0.1)">
       <use xlink:href="#DejaVuSans-32"/>
       <use xlink:href="#DejaVuSans-30" x="63.623047"/>
       <use xlink:href="#DejaVuSans-30" x="127.246094"/>
      </g>
     </g>
    </g>
    <g id="ytick_5">
     <g id="line2d_11">
      <g>
       <use xlink:href="#mcda9b92a71" x="55.19" y="89.906551" style="stroke: #000000; stroke-width: 0.8"/>
      </g>
     </g>
     <g id="text_12">
      <!-- 250 -->
      <g transform="translate(29.1025 93.705769) scale(0.1 -0.1)">
       <use xlink:href="#DejaVuSans-32"/>
       <use xlink:href="#DejaVuSans-35" x="63.623047"/>
       <use xlink:href="#DejaVuSans-30" x="127.246094"/>
      </g>
     </g>
    </g>
    <g id="ytick_6">
     <g id="line2d_12">
      <g>
       <use xlink:href="#mcda9b92a71" x="55.19" y="57.272374" style="stroke: #000000; stroke-width: 0.8"/>
      </g>
     </g>
     <g id="text_13">
      <!-- 300 -->
      <g transform="translate(29.1025 61.071592) scale(0.1 -0.1)">
       <defs>
        <path id="DejaVuSans-33" d="M 2597 2516 
Q 3050 2419 3304 2112 
Q 3559 1806 3559 1356 
Q 3559 666 3084 287 
Q 2609 -91 1734 -91 
Q 1441 -91 1130 -33 
Q 819 25 488 141 
L 488 750 
Q 750 597 1062 519 
Q 1375 441 1716 441 
Q 2309 441 2620 675 
Q 2931 909 2931 1356 
Q 2931 1769 2642 2001 
Q 2353 2234 1838 2234 
L 1294 2234 
L 1294 2753 
L 1863 2753 
Q 2328 2753 2575 2939 
Q 2822 3125 2822 3475 
Q 2822 3834 2567 4026 
Q 2313 4219 1838 4219 
Q 1578 4219 1281 4162 
Q 984 4106 628 3988 
L 628 4550 
Q 988 4650 1302 4700 
Q 1616 4750 1894 4750 
Q 2613 4750 3031 4423 
Q 3450 4097 3450 3541 
Q 3450 3153 3228 2886 
Q 3006 2619 2597 2516 
z
" transform="scale(0.015625)"/>
       </defs>
       <use xlink:href="#DejaVuSans-33"/>
       <use xlink:href="#DejaVuSans-30" x="63.623047"/>
       <use xlink:href="#DejaVuSans-30" x="127.246094"/>
      </g>
     </g>
    </g>
    <g id="ytick_7">
     <g id="line2d_13">
      <g>
       <use xlink:href="#mcda9b92a71" x="55.19" y="24.638196" style="stroke: #000000; stroke-width: 0.8"/>
      </g>
     </g>
     <g id="text_14">
      <!-- 350 -->
      <g transform="translate(29.1025 28.437415) scale(0.1 -0.1)">
       <use xlink:href="#DejaVuSans-33"/>
       <use xlink:href="#DejaVuSans-35" x="63.623047"/>
       <use xlink:href="#DejaVuSans-30" x="127.246094"/>
      </g>
     </g>
    </g>
    <g id="text_15">
     <!-- Qd_score_norm -->
     <g transform="translate(21.801562 180.673125) rotate(-90) scale(0.14 -0.14)">
      <defs>
       <path id="DejaVuSans-51" d="M 2522 4238 
Q 1834 4238 1429 3725 
Q 1025 3213 1025 2328 
Q 1025 1447 1429 934 
Q 1834 422 2522 422 
Q 3209 422 3611 934 
Q 4013 1447 4013 2328 
Q 4013 3213 3611 3725 
Q 3209 4238 2522 4238 
z
M 3406 84 
L 4238 -825 
L 3475 -825 
L 2784 -78 
Q 2681 -84 2626 -87 
Q 2572 -91 2522 -91 
Q 1538 -91 948 567 
Q 359 1225 359 2328 
Q 359 3434 948 4092 
Q 1538 4750 2522 4750 
Q 3503 4750 4090 4092 
Q 4678 3434 4678 2328 
Q 4678 1516 4351 937 
Q 4025 359 3406 84 
z
" transform="scale(0.015625)"/>
       <path id="DejaVuSans-64" d="M 2906 2969 
L 2906 4863 
L 3481 4863 
L 3481 0 
L 2906 0 
L 2906 525 
Q 2725 213 2448 61 
Q 2172 -91 1784 -91 
Q 1150 -91 751 415 
Q 353 922 353 1747 
Q 353 2572 751 3078 
Q 1150 3584 1784 3584 
Q 2172 3584 2448 3432 
Q 2725 3281 2906 2969 
z
M 947 1747 
Q 947 1113 1208 752 
Q 1469 391 1925 391 
Q 2381 391 2643 752 
Q 2906 1113 2906 1747 
Q 2906 2381 2643 2742 
Q 2381 3103 1925 3103 
Q 1469 3103 1208 2742 
Q 947 2381 947 1747 
z
" transform="scale(0.015625)"/>
       <path id="DejaVuSans-5f" d="M 3263 -1063 
L 3263 -1509 
L -63 -1509 
L -63 -1063 
L 3263 -1063 
z
" transform="scale(0.015625)"/>
       <path id="DejaVuSans-63" d="M 3122 3366 
L 3122 2828 
Q 2878 2963 2633 3030 
Q 2388 3097 2138 3097 
Q 1578 3097 1268 2742 
Q 959 2388 959 1747 
Q 959 1106 1268 751 
Q 1578 397 2138 397 
Q 2388 397 2633 464 
Q 2878 531 3122 666 
L 3122 134 
Q 2881 22 2623 -34 
Q 2366 -91 2075 -91 
Q 1284 -91 818 406 
Q 353 903 353 1747 
Q 353 2603 823 3093 
Q 1294 3584 2113 3584 
Q 2378 3584 2631 3529 
Q 2884 3475 3122 3366 
z
" transform="scale(0.015625)"/>
       <path id="DejaVuSans-6d" d="M 3328 2828 
Q 3544 3216 3844 3400 
Q 4144 3584 4550 3584 
Q 5097 3584 5394 3201 
Q 5691 2819 5691 2113 
L 5691 0 
L 5113 0 
L 5113 2094 
Q 5113 2597 4934 2840 
Q 4756 3084 4391 3084 
Q 3944 3084 3684 2787 
Q 3425 2491 3425 1978 
L 3425 0 
L 2847 0 
L 2847 2094 
Q 2847 2600 2669 2842 
Q 2491 3084 2119 3084 
Q 1678 3084 1418 2786 
Q 1159 2488 1159 1978 
L 1159 0 
L 581 0 
L 581 3500 
L 1159 3500 
L 1159 2956 
Q 1356 3278 1631 3431 
Q 1906 3584 2284 3584 
Q 2666 3584 2933 3390 
Q 3200 3197 3328 2828 
z
" transform="scale(0.015625)"/>
      </defs>
      <use xlink:href="#DejaVuSans-51"/>
      <use xlink:href="#DejaVuSans-64" x="78.710938"/>
      <use xlink:href="#DejaVuSans-5f" x="142.1875"/>
      <use xlink:href="#DejaVuSans-73" x="192.1875"/>
      <use xlink:href="#DejaVuSans-63" x="244.287109"/>
      <use xlink:href="#DejaVuSans-6f" x="299.267578"/>
      <use xlink:href="#DejaVuSans-72" x="360.449219"/>
      <use xlink:href="#DejaVuSans-65" x="399.3125"/>
      <use xlink:href="#DejaVuSans-5f" x="460.835938"/>
      <use xlink:href="#DejaVuSans-6e" x="510.835938"/>
      <use xlink:href="#DejaVuSans-6f" x="574.214844"/>
      <use xlink:href="#DejaVuSans-72" x="635.396484"/>
      <use xlink:href="#DejaVuSans-6d" x="674.759766"/>
     </g>
    </g>
   </g>
   <g id="line2d_14">
    <path d="M 65.217767 231.910909 
L 67.243578 219.601297 
L 69.26939 209.334585 
L 71.295201 200.608206 
L 73.321013 190.16527 
L 75.346824 182.43097 
L 77.372635 177.007169 
L 79.398447 172.399224 
L 81.424258 165.102222 
L 83.45007 157.94881 
L 85.475881 153.641099 
L 87.501693 147.127317 
L 89.527504 141.579507 
L 91.553316 137.532869 
L 93.579127 134.393461 
L 95.604939 129.98132 
L 97.63075 125.784565 
L 99.656562 121.489907 
L 101.682373 121.078717 
L 103.708184 117.97847 
L 105.733996 113.860037 
L 107.759807 111.680074 
L 109.785619 110.002677 
L 111.81143 107.333201 
L 113.837242 102.790524 
L 115.863053 101.361147 
L 117.888865 98.704725 
L 119.914676 95.258556 
L 121.940488 93.581159 
L 123.966299 90.813781 
L 125.99211 89.410511 
L 128.017922 87.9485 
L 130.043733 85.631474 
L 132.069545 84.665502 
L 134.095356 83.196964 
L 136.121168 81.963392 
L 138.146979 79.665946 
L 140.172791 77.792744 
L 142.198602 76.657075 
L 144.224414 75.188537 
L 146.250225 73.354496 
L 148.276036 71.833743 
L 150.301848 69.333965 
L 152.327659 67.754471 
L 154.353471 65.306908 
L 156.379282 63.955853 
L 158.405094 62.108759 
L 160.430905 60.614113 
L 162.456717 58.101282 
L 164.482528 56.952559 
L 166.50834 55.327377 
L 168.534151 52.997296 
L 170.559963 51.084934 
L 172.585774 50.008006 
L 174.611585 47.723613 
L 176.637397 45.889573 
L 178.663208 45.15204 
L 180.68902 44.166488 
L 182.714831 43.220097 
L 184.740643 42.417296 
L 186.766454 41.921257 
L 188.792266 41.66671 
L 190.818077 40.433138 
L 192.843889 39.114717 
L 194.8697 38.174853 
L 196.895511 36.503983 
L 198.921323 35.857827 
L 200.947134 34.904909 
L 202.972946 33.782293 
L 204.998757 33.247092 
L 207.024569 33.299307 
L 209.05038 31.021442 
L 211.076192 30.088104 
L 213.102003 28.841478 
L 215.127815 28.626093 
L 217.153626 28.495556 
L 219.179438 27.731916 
L 221.205249 27.092287 
L 223.23106 26.596247 
L 225.256872 26.282959 
L 227.282683 25.878295 
L 229.308495 25.8065 
L 231.334306 25.630275 
L 233.360118 24.925377 
L 235.385929 24.037728 
L 237.411741 23.965932 
L 239.437552 23.456839 
L 241.463364 23.287142 
L 243.489175 23.013014 
L 245.514986 22.921639 
L 247.540798 22.764995 
L 249.566609 22.490868 
L 251.592421 22.399492 
L 253.618232 22.268955 
L 255.644044 22.047043 
L 257.669855 21.812077 
L 259.695667 21.635852 
L 261.721478 21.511842 
L 263.74729 21.43352 
L 265.773101 21.329091 
" clip-path="url(#pbf8fc7cf2f)" style="fill: none; stroke: #000000; stroke-width: 1.5; stroke-linecap: square"/>
   </g>
   <g id="line2d_15">
    <path d="M 65.217767 231.910909 
L 67.243578 219.601297 
L 69.26939 209.334585 
L 71.295201 200.608206 
L 73.321013 190.16527 
L 75.346824 182.43097 
L 77.372635 177.007169 
L 79.398447 172.399224 
L 81.424258 165.102222 
L 83.45007 157.94881 
L 85.475881 153.641099 
L 87.501693 147.127317 
L 89.527504 141.579507 
L 91.553316 137.532869 
L 93.579127 134.393461 
L 95.604939 129.98132 
L 97.63075 125.784565 
L 99.656562 121.489907 
L 101.682373 121.078717 
L 103.708184 117.97847 
L 105.733996 113.860037 
L 107.759807 111.680074 
L 109.785619 110.002677 
L 111.81143 107.333201 
L 113.837242 102.790524 
L 115.863053 101.361147 
L 117.888865 98.704725 
L 119.914676 95.258556 
L 121.940488 93.581159 
L 123.966299 90.813781 
L 125.99211 89.410511 
L 128.017922 87.9485 
L 130.043733 85.631474 
L 132.069545 84.665502 
L 134.095356 83.196964 
L 136.121168 81.963392 
L 138.146979 79.665946 
L 140.172791 77.792744 
L 142.198602 76.657075 
L 144.224414 75.188537 
L 146.250225 73.354496 
L 148.276036 71.833743 
L 150.301848 69.333965 
L 152.327659 67.754471 
L 154.353471 65.306908 
L 156.379282 63.955853 
L 158.405094 62.108759 
L 160.430905 60.614113 
L 162.456717 58.101282 
L 164.482528 56.952559 
L 166.50834 55.327377 
L 168.534151 52.997296 
L 170.559963 51.084934 
L 172.585774 50.008006 
L 174.611585 47.723613 
L 176.637397 45.889573 
L 178.663208 45.15204 
L 180.68902 44.166488 
L 182.714831 43.220097 
L 184.740643 42.417296 
L 186.766454 41.921257 
L 188.792266 41.66671 
L 190.818077 40.433138 
L 192.843889 39.114717 
L 194.8697 38.174853 
L 196.895511 36.503983 
L 198.921323 35.857827 
L 200.947134 34.904909 
L 202.972946 33.782293 
L 204.998757 33.247092 
L 207.024569 33.299307 
L 209.05038 31.021442 
L 211.076192 30.088104 
L 213.102003 28.841478 
L 215.127815 28.626093 
L 217.153626 28.495556 
L 219.179438 27.731916 
L 221.205249 27.092287 
L 223.23106 26.596247 
L 225.256872 26.282959 
L 227.282683 25.878295 
L 229.308495 25.8065 
L 231.334306 25.630275 
L 233.360118 24.925377 
L 235.385929 24.037728 
L 237.411741 23.965932 
L 239.437552 23.456839 
L 241.463364 23.287142 
L 243.489175 23.013014 
L 245.514986 22.921639 
L 247.540798 22.764995 
L 249.566609 22.490868 
L 251.592421 22.399492 
L 253.618232 22.268955 
L 255.644044 22.047043 
L 257.669855 21.812077 
L 259.695667 21.635852 
L 261.721478 21.511842 
L 263.74729 21.43352 
L 265.773101 21.329091 
" clip-path="url(#pbf8fc7cf2f)" style="fill: none; stroke: #000000; stroke-width: 1.5; stroke-linecap: square"/>
   </g>
   <g id="line2d_16">
    <path d="M 65.217767 231.910909 
L 67.243578 219.601297 
L 69.26939 209.334585 
L 71.295201 200.608206 
L 73.321013 190.16527 
L 75.346824 182.43097 
L 77.372635 177.007169 
L 79.398447 172.399224 
L 81.424258 165.102222 
L 83.45007 157.94881 
L 85.475881 153.641099 
L 87.501693 147.127317 
L 89.527504 141.579507 
L 91.553316 137.532869 
L 93.579127 134.393461 
L 95.604939 129.98132 
L 97.63075 125.784565 
L 99.656562 121.489907 
L 101.682373 121.078717 
L 103.708184 117.97847 
L 105.733996 113.860037 
L 107.759807 111.680074 
L 109.785619 110.002677 
L 111.81143 107.333201 
L 113.837242 102.790524 
L 115.863053 101.361147 
L 117.888865 98.704725 
L 119.914676 95.258556 
L 121.940488 93.581159 
L 123.966299 90.813781 
L 125.99211 89.410511 
L 128.017922 87.9485 
L 130.043733 85.631474 
L 132.069545 84.665502 
L 134.095356 83.196964 
L 136.121168 81.963392 
L 138.146979 79.665946 
L 140.172791 77.792744 
L 142.198602 76.657075 
L 144.224414 75.188537 
L 146.250225 73.354496 
L 148.276036 71.833743 
L 150.301848 69.333965 
L 152.327659 67.754471 
L 154.353471 65.306908 
L 156.379282 63.955853 
L 158.405094 62.108759 
L 160.430905 60.614113 
L 162.456717 58.101282 
L 164.482528 56.952559 
L 166.50834 55.327377 
L 168.534151 52.997296 
L 170.559963 51.084934 
L 172.585774 50.008006 
L 174.611585 47.723613 
L 176.637397 45.889573 
L 178.663208 45.15204 
L 180.68902 44.166488 
L 182.714831 43.220097 
L 184.740643 42.417296 
L 186.766454 41.921257 
L 188.792266 41.66671 
L 190.818077 40.433138 
L 192.843889 39.114717 
L 194.8697 38.174853 
L 196.895511 36.503983 
L 198.921323 35.857827 
L 200.947134 34.904909 
L 202.972946 33.782293 
L 204.998757 33.247092 
L 207.024569 33.299307 
L 209.05038 31.021442 
L 211.076192 30.088104 
L 213.102003 28.841478 
L 215.127815 28.626093 
L 217.153626 28.495556 
L 219.179438 27.731916 
L 221.205249 27.092287 
L 223.23106 26.596247 
L 225.256872 26.282959 
L 227.282683 25.878295 
L 229.308495 25.8065 
L 231.334306 25.630275 
L 233.360118 24.925377 
L 235.385929 24.037728 
L 237.411741 23.965932 
L 239.437552 23.456839 
L 241.463364 23.287142 
L 243.489175 23.013014 
L 245.514986 22.921639 
L 247.540798 22.764995 
L 249.566609 22.490868 
L 251.592421 22.399492 
L 253.618232 22.268955 
L 255.644044 22.047043 
L 257.669855 21.812077 
L 259.695667 21.635852 
L 261.721478 21.511842 
L 263.74729 21.43352 
L 265.773101 21.329091 
" clip-path="url(#pbf8fc7cf2f)" style="fill: none; stroke: #000000; stroke-width: 1.5; stroke-linecap: square"/>
   </g>
   <g id="line2d_17">
    <path d="M 65.217767 231.910909 
L 67.243578 219.601297 
L 69.26939 209.334585 
L 71.295201 200.608206 
L 73.321013 190.16527 
L 75.346824 182.43097 
L 77.372635 177.007169 
L 79.398447 172.399224 
L 81.424258 165.102222 
L 83.45007 157.94881 
L 85.475881 153.641099 
L 87.501693 147.127317 
L 89.527504 141.579507 
L 91.553316 137.532869 
L 93.579127 134.393461 
L 95.604939 129.98132 
L 97.63075 125.784565 
L 99.656562 121.489907 
L 101.682373 121.078717 
L 103.708184 117.97847 
L 105.733996 113.860037 
L 107.759807 111.680074 
L 109.785619 110.002677 
L 111.81143 107.333201 
L 113.837242 102.790524 
L 115.863053 101.361147 
L 117.888865 98.704725 
L 119.914676 95.258556 
L 121.940488 93.581159 
L 123.966299 90.813781 
L 125.99211 89.410511 
L 128.017922 87.9485 
L 130.043733 85.631474 
L 132.069545 84.665502 
L 134.095356 83.196964 
L 136.121168 81.963392 
L 138.146979 79.665946 
L 140.172791 77.792744 
L 142.198602 76.657075 
L 144.224414 75.188537 
L 146.250225 73.354496 
L 148.276036 71.833743 
L 150.301848 69.333965 
L 152.327659 67.754471 
L 154.353471 65.306908 
L 156.379282 63.955853 
L 158.405094 62.108759 
L 160.430905 60.614113 
L 162.456717 58.101282 
L 164.482528 56.952559 
L 166.50834 55.327377 
L 168.534151 52.997296 
L 170.559963 51.084934 
L 172.585774 50.008006 
L 174.611585 47.723613 
L 176.637397 45.889573 
L 178.663208 45.15204 
L 180.68902 44.166488 
L 182.714831 43.220097 
L 184.740643 42.417296 
L 186.766454 41.921257 
L 188.792266 41.66671 
L 190.818077 40.433138 
L 192.843889 39.114717 
L 194.8697 38.174853 
L 196.895511 36.503983 
L 198.921323 35.857827 
L 200.947134 34.904909 
L 202.972946 33.782293 
L 204.998757 33.247092 
L 207.024569 33.299307 
L 209.05038 31.021442 
L 211.076192 30.088104 
L 213.102003 28.841478 
L 215.127815 28.626093 
L 217.153626 28.495556 
L 219.179438 27.731916 
L 221.205249 27.092287 
L 223.23106 26.596247 
L 225.256872 26.282959 
L 227.282683 25.878295 
L 229.308495 25.8065 
L 231.334306 25.630275 
L 233.360118 24.925377 
L 235.385929 24.037728 
L 237.411741 23.965932 
L 239.437552 23.456839 
L 241.463364 23.287142 
L 243.489175 23.013014 
L 245.514986 22.921639 
L 247.540798 22.764995 
L 249.566609 22.490868 
L 251.592421 22.399492 
L 253.618232 22.268955 
L 255.644044 22.047043 
L 257.669855 21.812077 
L 259.695667 21.635852 
L 261.721478 21.511842 
L 263.74729 21.43352 
L 265.773101 21.329091 
" clip-path="url(#pbf8fc7cf2f)" style="fill: none; stroke: #000000; stroke-width: 1.5; stroke-linecap: square"/>
   </g>
   <g id="line2d_18">
    <path d="M 65.217767 231.910909 
L 67.243578 219.601297 
L 69.26939 209.334585 
L 71.295201 200.608206 
L 73.321013 190.16527 
L 75.346824 182.43097 
L 77.372635 177.007169 
L 79.398447 172.399224 
L 81.424258 165.102222 
L 83.45007 157.94881 
L 85.475881 153.641099 
L 87.501693 147.127317 
L 89.527504 141.579507 
L 91.553316 137.532869 
L 93.579127 134.393461 
L 95.604939 129.98132 
L 97.63075 125.784565 
L 99.656562 121.489907 
L 101.682373 121.078717 
L 103.708184 117.97847 
L 105.733996 113.860037 
L 107.759807 111.680074 
L 109.785619 110.002677 
L 111.81143 107.333201 
L 113.837242 102.790524 
L 115.863053 101.361147 
L 117.888865 98.704725 
L 119.914676 95.258556 
L 121.940488 93.581159 
L 123.966299 90.813781 
L 125.99211 89.410511 
L 128.017922 87.9485 
L 130.043733 85.631474 
L 132.069545 84.665502 
L 134.095356 83.196964 
L 136.121168 81.963392 
L 138.146979 79.665946 
L 140.172791 77.792744 
L 142.198602 76.657075 
L 144.224414 75.188537 
L 146.250225 73.354496 
L 148.276036 71.833743 
L 150.301848 69.333965 
L 152.327659 67.754471 
L 154.353471 65.306908 
L 156.379282 63.955853 
L 158.405094 62.108759 
L 160.430905 60.614113 
L 162.456717 58.101282 
L 164.482528 56.952559 
L 166.50834 55.327377 
L 168.534151 52.997296 
L 170.559963 51.084934 
L 172.585774 50.008006 
L 174.611585 47.723613 
L 176.637397 45.889573 
L 178.663208 45.15204 
L 180.68902 44.166488 
L 182.714831 43.220097 
L 184.740643 42.417296 
L 186.766454 41.921257 
L 188.792266 41.66671 
L 190.818077 40.433138 
L 192.843889 39.114717 
L 194.8697 38.174853 
L 196.895511 36.503983 
L 198.921323 35.857827 
L 200.947134 34.904909 
L 202.972946 33.782293 
L 204.998757 33.247092 
L 207.024569 33.299307 
L 209.05038 31.021442 
L 211.076192 30.088104 
L 213.102003 28.841478 
L 215.127815 28.626093 
L 217.153626 28.495556 
L 219.179438 27.731916 
L 221.205249 27.092287 
L 223.23106 26.596247 
L 225.256872 26.282959 
L 227.282683 25.878295 
L 229.308495 25.8065 
L 231.334306 25.630275 
L 233.360118 24.925377 
L 235.385929 24.037728 
L 237.411741 23.965932 
L 239.437552 23.456839 
L 241.463364 23.287142 
L 243.489175 23.013014 
L 245.514986 22.921639 
L 247.540798 22.764995 
L 249.566609 22.490868 
L 251.592421 22.399492 
L 253.618232 22.268955 
L 255.644044 22.047043 
L 257.669855 21.812077 
L 259.695667 21.635852 
L 261.721478 21.511842 
L 263.74729 21.43352 
L 265.773101 21.329091 
" clip-path="url(#pbf8fc7cf2f)" style="fill: none; stroke: #000000; stroke-width: 1.5; stroke-linecap: square"/>
   </g>
   <g id="line2d_19">
    <path d="M 65.217767 231.910909 
L 67.243578 219.601297 
L 69.26939 209.334585 
L 71.295201 200.608206 
L 73.321013 190.16527 
L 75.346824 182.43097 
L 77.372635 177.007169 
L 79.398447 172.399224 
L 81.424258 165.102222 
L 83.45007 157.94881 
L 85.475881 153.641099 
L 87.501693 147.127317 
L 89.527504 141.579507 
L 91.553316 137.532869 
L 93.579127 134.393461 
L 95.604939 129.98132 
L 97.63075 125.784565 
L 99.656562 121.489907 
L 101.682373 121.078717 
L 103.708184 117.97847 
L 105.733996 113.860037 
L 107.759807 111.680074 
L 109.785619 110.002677 
L 111.81143 107.333201 
L 113.837242 102.790524 
L 115.863053 101.361147 
L 117.888865 98.704725 
L 119.914676 95.258556 
L 121.940488 93.581159 
L 123.966299 90.813781 
L 125.99211 89.410511 
L 128.017922 87.9485 
L 130.043733 85.631474 
L 132.069545 84.665502 
L 134.095356 83.196964 
L 136.121168 81.963392 
L 138.146979 79.665946 
L 140.172791 77.792744 
L 142.198602 76.657075 
L 144.224414 75.188537 
L 146.250225 73.354496 
L 148.276036 71.833743 
L 150.301848 69.333965 
L 152.327659 67.754471 
L 154.353471 65.306908 
L 156.379282 63.955853 
L 158.405094 62.108759 
L 160.430905 60.614113 
L 162.456717 58.101282 
L 164.482528 56.952559 
L 166.50834 55.327377 
L 168.534151 52.997296 
L 170.559963 51.084934 
L 172.585774 50.008006 
L 174.611585 47.723613 
L 176.637397 45.889573 
L 178.663208 45.15204 
L 180.68902 44.166488 
L 182.714831 43.220097 
L 184.740643 42.417296 
L 186.766454 41.921257 
L 188.792266 41.66671 
L 190.818077 40.433138 
L 192.843889 39.114717 
L 194.8697 38.174853 
L 196.895511 36.503983 
L 198.921323 35.857827 
L 200.947134 34.904909 
L 202.972946 33.782293 
L 204.998757 33.247092 
L 207.024569 33.299307 
L 209.05038 31.021442 
L 211.076192 30.088104 
L 213.102003 28.841478 
L 215.127815 28.626093 
L 217.153626 28.495556 
L 219.179438 27.731916 
L 221.205249 27.092287 
L 223.23106 26.596247 
L 225.256872 26.282959 
L 227.282683 25.878295 
L 229.308495 25.8065 
L 231.334306 25.630275 
L 233.360118 24.925377 
L 235.385929 24.037728 
L 237.411741 23.965932 
L 239.437552 23.456839 
L 241.463364 23.287142 
L 243.489175 23.013014 
L 245.514986 22.921639 
L 247.540798 22.764995 
L 249.566609 22.490868 
L 251.592421 22.399492 
L 253.618232 22.268955 
L 255.644044 22.047043 
L 257.669855 21.812077 
L 259.695667 21.635852 
L 261.721478 21.511842 
L 263.74729 21.43352 
L 265.773101 21.329091 
" clip-path="url(#pbf8fc7cf2f)" style="fill: none; stroke: #000000; stroke-width: 1.5; stroke-linecap: square"/>
   </g>
   <g id="patch_3">
    <path d="M 55.19 242.44 
L 55.19 10.8 
" style="fill: none; stroke: #000000; stroke-width: 0.8; stroke-linejoin: miter; stroke-linecap: square"/>
   </g>
   <g id="patch_4">
    <path d="M 275.800868 242.44 
L 275.800868 10.8 
" style="fill: none; stroke: #000000; stroke-width: 0.8; stroke-linejoin: miter; stroke-linecap: square"/>
   </g>
   <g id="patch_5">
    <path d="M 55.19 242.44 
L 275.800868 242.44 
" style="fill: none; stroke: #000000; stroke-width: 0.8; stroke-linejoin: miter; stroke-linecap: square"/>
   </g>
   <g id="patch_6">
    <path d="M 55.19 10.8 
L 275.800868 10.8 
" style="fill: none; stroke: #000000; stroke-width: 0.8; stroke-linejoin: miter; stroke-linecap: square"/>
   </g>
  </g>
 </g>
 <defs>
  <clipPath id="pbf8fc7cf2f">
   <rect x="55.19" y="10.8" width="220.610868" height="231.64"/>
  </clipPath>
 </defs>
</svg>
