<?xml version="1.0" encoding="utf-8" standalone="no"?>
<!DOCTYPE svg PUBLIC "-//W3C//DTD SVG 1.1//EN"
  "http://www.w3.org/Graphics/SVG/1.1/DTD/svg11.dtd">
<svg xmlns:xlink="http://www.w3.org/1999/xlink" width="460.8pt" height="345.6pt" viewBox="0 0 460.8 345.6" xmlns="http://www.w3.org/2000/svg" version="1.1">
 <metadata>
  <rdf:RDF xmlns:dc="http://purl.org/dc/elements/1.1/" xmlns:cc="http://creativecommons.org/ns#" xmlns:rdf="http://www.w3.org/1999/02/22-rdf-syntax-ns#">
   <cc:Work>
    <dc:type rdf:resource="http://purl.org/dc/dcmitype/StillImage"/>
    <dc:date>2024-03-18T15:04:45.105932</dc:date>
    <dc:format>image/svg+xml</dc:format>
    <dc:creator>
     <cc:Agent>
      <dc:title>Matplotlib v3.7.2, https://matplotlib.org/</dc:title>
     </cc:Agent>
    </dc:creator>
   </cc:Work>
  </rdf:RDF>
 </metadata>
 <defs>
  <style type="text/css">*{stroke-linejoin: round; stroke-linecap: butt}</style>
 </defs>
 <g id="figure_1">
  <g id="patch_1">
   <path d="M 0 345.6 
L 460.8 345.6 
L 460.8 0 
L 0 0 
z
" style="fill: #ffffff"/>
  </g>
  <g id="axes_1">
   <g id="patch_2">
    <path d="M 57.6 307.584 
L 414.72 307.584 
L 414.72 41.472 
L 57.6 41.472 
z
" style="fill: #ffffff"/>
   </g>
   <g id="PolyCollection_1">
    <path d="M 73.832727 295.488 
L 73.832727 291.926984 
L 77.112066 280.175126 
L 80.391405 269.421364 
L 83.670744 259.8883 
L 86.950083 250.913157 
L 90.229421 242.361364 
L 93.50876 234.461877 
L 96.788099 227.252651 
L 100.067438 219.843645 
L 103.346777 212.932895 
L 106.626116 206.592742 
L 109.905455 200.508969 
L 113.184793 194.973549 
L 116.464132 189.481999 
L 119.743471 184.264329 
L 123.02281 179.008965 
L 126.302149 173.906283 
L 129.581488 169.771078 
L 132.860826 165.142253 
L 136.140165 161.332499 
L 139.419504 157.584451 
L 142.698843 153.681714 
L 145.978182 149.922459 
L 149.257521 146.264746 
L 152.53686 142.991232 
L 155.816198 139.687209 
L 159.095537 137.062204 
L 162.374876 133.873109 
L 165.654215 131.23978 
L 168.933554 128.248871 
L 172.212893 125.205637 
L 175.492231 122.60553 
L 178.77157 120.274607 
L 182.050909 118.003202 
L 185.330248 116.073985 
L 188.609587 114.125722 
L 191.888926 112.153858 
L 195.168264 110.246921 
L 198.447603 108.312677 
L 201.726942 106.32984 
L 205.006281 104.650469 
L 208.28562 102.964533 
L 211.564959 101.31028 
L 214.844298 99.720359 
L 218.123636 98.190109 
L 221.402975 96.733035 
L 224.682314 95.369769 
L 227.961653 93.943996 
L 231.240992 92.490472 
L 234.520331 91.315472 
L 237.799669 90.016596 
L 241.079008 88.856478 
L 244.358347 87.663417 
L 247.637686 86.707641 
L 250.917025 85.682522 
L 254.196364 84.719671 
L 257.475702 83.788538 
L 260.755041 82.893864 
L 264.03438 81.933798 
L 267.313719 80.941604 
L 270.593058 80.011936 
L 273.872397 79.108083 
L 277.151736 78.156578 
L 280.431074 77.291041 
L 283.710413 76.372586 
L 286.989752 75.650239 
L 290.269091 74.838739 
L 293.54843 74.031795 
L 296.827769 73.340158 
L 300.107107 72.648061 
L 303.386446 71.866915 
L 306.665785 71.220854 
L 309.945124 70.633431 
L 313.224463 69.99118 
L 316.503802 69.362094 
L 319.78314 68.703937 
L 323.062479 67.995065 
L 326.341818 67.360434 
L 329.621157 66.852448 
L 332.900496 66.295398 
L 336.179835 65.730594 
L 339.459174 65.21701 
L 342.738512 64.560272 
L 346.017851 64.104118 
L 349.29719 63.588492 
L 352.576529 63.034982 
L 355.855868 62.609351 
L 359.135207 62.165407 
L 362.414545 61.784462 
L 365.693884 61.346694 
L 368.973223 60.860324 
L 372.252562 60.392979 
L 375.531901 59.987216 
L 378.81124 59.589974 
L 382.090579 59.263304 
L 385.369917 58.765193 
L 388.649256 58.328146 
L 391.928595 57.91306 
L 395.207934 57.507532 
L 398.487273 57.20623 
L 398.487273 66.561795 
L 398.487273 66.561795 
L 395.207934 67.03603 
L 391.928595 67.42089 
L 388.649256 67.866796 
L 385.369917 68.246752 
L 382.090579 68.681219 
L 378.81124 69.137372 
L 375.531901 69.590615 
L 372.252562 70.068819 
L 368.973223 70.539796 
L 365.693884 71.000573 
L 362.414545 71.488099 
L 359.135207 72.057523 
L 355.855868 72.679102 
L 352.576529 73.211406 
L 349.29719 73.8184 
L 346.017851 74.313802 
L 342.738512 74.920511 
L 339.459174 75.510572 
L 336.179835 76.073019 
L 332.900496 76.654569 
L 329.621157 77.410721 
L 326.341818 78.174612 
L 323.062479 78.820402 
L 319.78314 79.618756 
L 316.503802 80.425378 
L 313.224463 81.263594 
L 309.945124 81.917454 
L 306.665785 82.757687 
L 303.386446 83.564917 
L 300.107107 84.40223 
L 296.827769 85.04659 
L 293.54843 86.006612 
L 290.269091 86.939164 
L 286.989752 87.91507 
L 283.710413 88.879965 
L 280.431074 89.833531 
L 277.151736 90.772351 
L 273.872397 91.832255 
L 270.593058 92.832224 
L 267.313719 94.027158 
L 264.03438 95.317448 
L 260.755041 96.585792 
L 257.475702 97.860969 
L 254.196364 99.07223 
L 250.917025 100.319156 
L 247.637686 101.645025 
L 244.358347 103.096133 
L 241.079008 104.5037 
L 237.799669 105.911429 
L 234.520331 107.356773 
L 231.240992 108.71782 
L 227.961653 110.293318 
L 224.682314 111.929488 
L 221.402975 113.522679 
L 218.123636 115.399463 
L 214.844298 116.943065 
L 211.564959 118.661365 
L 208.28562 120.432448 
L 205.006281 122.338417 
L 201.726942 124.287653 
L 198.447603 126.230974 
L 195.168264 128.231994 
L 191.888926 130.263122 
L 188.609587 132.693442 
L 185.330248 134.975191 
L 182.050909 137.203982 
L 178.77157 140.009432 
L 175.492231 142.349385 
L 172.212893 144.97603 
L 168.933554 147.782248 
L 165.654215 150.148514 
L 162.374876 153.051397 
L 159.095537 155.994174 
L 155.816198 159.104167 
L 152.53686 162.430877 
L 149.257521 165.805746 
L 145.978182 169.029948 
L 142.698843 172.549201 
L 139.419504 176.198426 
L 136.140165 179.771054 
L 132.860826 183.712891 
L 129.581488 187.714021 
L 126.302149 191.595317 
L 123.02281 195.805248 
L 119.743471 200.604692 
L 116.464132 205.545637 
L 113.184793 210.389777 
L 109.905455 215.469104 
L 106.626116 220.883626 
L 103.346777 226.32699 
L 100.067438 232.423162 
L 96.788099 238.933624 
L 93.50876 245.442275 
L 90.229421 252.481269 
L 86.950083 259.623461 
L 83.670744 267.578176 
L 80.391405 276.136875 
L 77.112066 285.107344 
L 73.832727 295.488 
z
" clip-path="url(#p0ed9df1315)" style="fill: #ff00ff; fill-opacity: 0.5"/>
   </g>
   <g id="PolyCollection_2">
    <path d="M 73.832727 295.086988 
L 73.832727 291.605973 
L 77.112066 279.657807 
L 80.391405 268.939224 
L 83.670744 259.346777 
L 86.950083 250.347389 
L 90.229421 242.424879 
L 93.50876 234.54358 
L 96.788099 227.006492 
L 100.067438 219.985241 
L 103.346777 213.857634 
L 106.626116 207.855278 
L 109.905455 202.598937 
L 113.184793 197.415765 
L 116.464132 192.439037 
L 119.743471 187.196024 
L 123.02281 182.102807 
L 126.302149 177.494767 
L 129.581488 172.871774 
L 132.860826 168.795442 
L 136.140165 164.860073 
L 139.419504 161.038705 
L 142.698843 157.368208 
L 145.978182 153.800292 
L 149.257521 150.622547 
L 152.53686 147.372553 
L 155.816198 144.186165 
L 159.095537 141.198939 
L 162.374876 138.283574 
L 165.654215 135.837876 
L 168.933554 133.131586 
L 172.212893 130.318469 
L 175.492231 127.965418 
L 178.77157 125.726076 
L 182.050909 123.361722 
L 185.330248 121.380868 
L 188.609587 119.210343 
L 191.888926 117.057097 
L 195.168264 115.128398 
L 198.447603 113.029882 
L 201.726942 111.239767 
L 205.006281 109.75176 
L 208.28562 108.153549 
L 211.564959 106.187802 
L 214.844298 104.659863 
L 218.123636 103.271048 
L 221.402975 101.560255 
L 224.682314 100.053058 
L 227.961653 98.789193 
L 231.240992 97.54013 
L 234.520331 96.36547 
L 237.799669 95.108158 
L 241.079008 93.790285 
L 244.358347 92.59963 
L 247.637686 91.457125 
L 250.917025 90.321404 
L 254.196364 89.273715 
L 257.475702 88.106493 
L 260.755041 87.164332 
L 264.03438 86.285325 
L 267.313719 85.259284 
L 270.593058 84.217897 
L 273.872397 83.377808 
L 277.151736 82.460277 
L 280.431074 81.406222 
L 283.710413 80.439543 
L 286.989752 79.596022 
L 290.269091 78.628104 
L 293.54843 77.819244 
L 296.827769 77.028984 
L 300.107107 76.341647 
L 303.386446 75.572568 
L 306.665785 74.824544 
L 309.945124 74.050604 
L 313.224463 73.390478 
L 316.503802 72.806285 
L 319.78314 72.112361 
L 323.062479 71.509103 
L 326.341818 70.939498 
L 329.621157 70.285949 
L 332.900496 69.561054 
L 336.179835 68.939674 
L 339.459174 68.43379 
L 342.738512 67.924954 
L 346.017851 67.454765 
L 349.29719 66.898653 
L 352.576529 66.365892 
L 355.855868 65.869033 
L 359.135207 65.418305 
L 362.414545 64.849833 
L 365.693884 64.478637 
L 368.973223 64.055859 
L 372.252562 63.572901 
L 375.531901 63.081535 
L 378.81124 62.615069 
L 382.090579 62.196265 
L 385.369917 61.806854 
L 388.649256 61.373062 
L 391.928595 60.955852 
L 395.207934 60.568893 
L 398.487273 60.240827 
L 398.487273 70.227835 
L 398.487273 70.227835 
L 395.207934 70.684413 
L 391.928595 71.08616 
L 388.649256 71.404421 
L 385.369917 71.855296 
L 382.090579 72.28289 
L 378.81124 72.800166 
L 375.531901 73.20548 
L 372.252562 73.849542 
L 368.973223 74.344971 
L 365.693884 74.89876 
L 362.414545 75.417554 
L 359.135207 75.872158 
L 355.855868 76.583615 
L 352.576529 77.209857 
L 349.29719 77.716142 
L 346.017851 78.184928 
L 342.738512 78.765133 
L 339.459174 79.340311 
L 336.179835 79.950663 
L 332.900496 80.651732 
L 329.621157 81.334179 
L 326.341818 81.972818 
L 323.062479 82.720478 
L 319.78314 83.429442 
L 316.503802 84.04858 
L 313.224463 84.66888 
L 309.945124 85.428004 
L 306.665785 86.22125 
L 303.386446 86.943468 
L 300.107107 87.767911 
L 296.827769 88.594245 
L 293.54843 89.475117 
L 290.269091 90.484063 
L 286.989752 91.370934 
L 283.710413 92.317762 
L 280.431074 93.321165 
L 277.151736 94.236214 
L 273.872397 95.266072 
L 270.593058 96.127373 
L 267.313719 97.346616 
L 264.03438 98.445178 
L 260.755041 99.59201 
L 257.475702 100.736488 
L 254.196364 102.005848 
L 250.917025 103.312089 
L 247.637686 104.467398 
L 244.358347 105.778986 
L 241.079008 107.063719 
L 237.799669 108.639682 
L 234.520331 109.838285 
L 231.240992 111.283725 
L 227.961653 112.86798 
L 224.682314 114.409694 
L 221.402975 115.877585 
L 218.123636 117.643122 
L 214.844298 119.352674 
L 211.564959 120.938092 
L 208.28562 122.648722 
L 205.006281 124.482713 
L 201.726942 126.225318 
L 198.447603 128.190311 
L 195.168264 130.163927 
L 191.888926 132.065564 
L 188.609587 134.295169 
L 185.330248 136.429605 
L 182.050909 138.425621 
L 178.77157 140.876716 
L 175.492231 143.368348 
L 172.212893 146.08613 
L 168.933554 148.750806 
L 165.654215 151.46193 
L 162.374876 154.227434 
L 159.095537 157.330048 
L 155.816198 160.208104 
L 152.53686 163.140281 
L 149.257521 166.528163 
L 145.978182 169.852408 
L 142.698843 173.314761 
L 139.419504 176.449269 
L 136.140165 179.937508 
L 132.860826 184.228215 
L 129.581488 188.142609 
L 126.302149 192.381979 
L 123.02281 196.667963 
L 119.743471 201.129995 
L 116.464132 205.594088 
L 113.184793 210.660961 
L 109.905455 216.024733 
L 106.626116 221.311414 
L 103.346777 226.624395 
L 100.067438 232.704077 
L 96.788099 238.879009 
L 93.50876 245.26279 
L 90.229421 252.267578 
L 86.950083 259.556443 
L 83.670744 267.359431 
L 80.391405 275.776234 
L 77.112066 285.349666 
L 73.832727 295.086988 
z
" clip-path="url(#p0ed9df1315)" style="fill: #cd853f; fill-opacity: 0.5"/>
   </g>
   <g id="PolyCollection_3">
    <path d="M 73.832727 290.910128 
L 73.832727 287.386408 
L 77.112066 272.941906 
L 80.391405 259.849167 
L 83.670744 248.453656 
L 86.950083 238.346887 
L 90.229421 229.144179 
L 93.50876 220.418135 
L 96.788099 212.099731 
L 100.067438 204.628828 
L 103.346777 197.590772 
L 106.626116 190.548145 
L 109.905455 184.49895 
L 113.184793 178.578059 
L 116.464132 173.189813 
L 119.743471 168.160144 
L 123.02281 162.856759 
L 126.302149 158.053196 
L 129.581488 153.491068 
L 132.860826 149.34813 
L 136.140165 145.652514 
L 139.419504 142.189255 
L 142.698843 138.620914 
L 145.978182 135.275474 
L 149.257521 132.200937 
L 152.53686 129.189665 
L 155.816198 126.328678 
L 159.095537 123.907215 
L 162.374876 121.193036 
L 165.654215 118.362131 
L 168.933554 116.070566 
L 172.212893 114.146462 
L 175.492231 111.918245 
L 178.77157 109.734395 
L 182.050909 107.773367 
L 185.330248 105.804821 
L 188.609587 103.788819 
L 191.888926 102.045865 
L 195.168264 100.428828 
L 198.447603 98.821657 
L 201.726942 97.35 
L 205.006281 95.88505 
L 208.28562 94.330501 
L 211.564959 92.925861 
L 214.844298 91.089602 
L 218.123636 89.88763 
L 221.402975 88.627135 
L 224.682314 87.314238 
L 227.961653 86.223247 
L 231.240992 84.918432 
L 234.520331 83.519809 
L 237.799669 82.31868 
L 241.079008 81.177718 
L 244.358347 80.361929 
L 247.637686 79.394776 
L 250.917025 78.45167 
L 254.196364 77.5284 
L 257.475702 76.736922 
L 260.755041 76.076634 
L 264.03438 75.322163 
L 267.313719 74.544432 
L 270.593058 73.642548 
L 273.872397 72.96619 
L 277.151736 72.202989 
L 280.431074 71.609023 
L 283.710413 70.912425 
L 286.989752 70.336337 
L 290.269091 69.659717 
L 293.54843 69.042001 
L 296.827769 68.448817 
L 300.107107 67.806084 
L 303.386446 67.247388 
L 306.665785 66.57927 
L 309.945124 66.013688 
L 313.224463 65.502442 
L 316.503802 64.817658 
L 319.78314 64.208185 
L 323.062479 63.649114 
L 326.341818 63.294877 
L 329.621157 62.927548 
L 332.900496 62.439636 
L 336.179835 61.77841 
L 339.459174 61.178863 
L 342.738512 60.697343 
L 346.017851 60.253004 
L 349.29719 59.809422 
L 352.576529 59.299379 
L 355.855868 59.059481 
L 359.135207 58.59988 
L 362.414545 58.146727 
L 365.693884 57.775212 
L 368.973223 57.234133 
L 372.252562 56.930005 
L 375.531901 56.690303 
L 378.81124 56.411149 
L 382.090579 56.014981 
L 385.369917 55.572402 
L 388.649256 55.34051 
L 391.928595 55.13605 
L 395.207934 54.952947 
L 398.487273 54.665272 
L 398.487273 60.197942 
L 398.487273 60.197942 
L 395.207934 60.492621 
L 391.928595 60.849144 
L 388.649256 61.243148 
L 385.369917 61.700498 
L 382.090579 62.108684 
L 378.81124 62.318545 
L 375.531901 62.758892 
L 372.252562 63.177473 
L 368.973223 63.479233 
L 365.693884 63.869331 
L 362.414545 64.245896 
L 359.135207 64.686376 
L 355.855868 65.068715 
L 352.576529 65.531228 
L 349.29719 65.979819 
L 346.017851 66.548106 
L 342.738512 67.039568 
L 339.459174 67.526489 
L 336.179835 68.039255 
L 332.900496 68.614042 
L 329.621157 69.143742 
L 326.341818 69.681814 
L 323.062479 70.357378 
L 319.78314 70.94284 
L 316.503802 71.58465 
L 313.224463 72.071578 
L 309.945124 72.600218 
L 306.665785 73.27205 
L 303.386446 73.964064 
L 300.107107 74.636478 
L 296.827769 75.255535 
L 293.54843 75.84737 
L 290.269091 76.660252 
L 286.989752 77.260271 
L 283.710413 77.995844 
L 280.431074 78.665122 
L 277.151736 79.448099 
L 273.872397 80.257687 
L 270.593058 81.068943 
L 267.313719 81.823481 
L 264.03438 82.608873 
L 260.755041 83.540103 
L 257.475702 84.380877 
L 254.196364 85.344024 
L 250.917025 86.492963 
L 247.637686 87.75235 
L 244.358347 88.809215 
L 241.079008 90.084827 
L 237.799669 91.294573 
L 234.520331 92.541514 
L 231.240992 93.691966 
L 227.961653 94.97307 
L 224.682314 96.416444 
L 221.402975 97.539569 
L 218.123636 98.567022 
L 214.844298 100.098483 
L 211.564959 101.54663 
L 208.28562 103.083877 
L 205.006281 104.701383 
L 201.726942 106.461441 
L 198.447603 108.184673 
L 195.168264 109.766927 
L 191.888926 111.403337 
L 188.609587 113.046915 
L 185.330248 115.050931 
L 182.050909 117.277656 
L 178.77157 119.59315 
L 175.492231 121.931961 
L 172.212893 124.236491 
L 168.933554 126.563974 
L 165.654215 129.301774 
L 162.374876 131.685293 
L 159.095537 134.693224 
L 155.816198 137.684273 
L 152.53686 140.306682 
L 149.257521 143.384696 
L 145.978182 146.502551 
L 142.698843 150.06396 
L 139.419504 153.647346 
L 136.140165 157.449426 
L 132.860826 161.348221 
L 129.581488 165.562483 
L 126.302149 170.071733 
L 123.02281 174.973735 
L 119.743471 179.678508 
L 116.464132 184.554592 
L 113.184793 190.333609 
L 109.905455 195.809587 
L 106.626116 201.982811 
L 103.346777 208.134266 
L 100.067438 214.937927 
L 96.788099 222.112577 
L 93.50876 229.636233 
L 90.229421 237.96949 
L 86.950083 247.176269 
L 83.670744 256.714719 
L 80.391405 266.910276 
L 77.112066 278.215864 
L 73.832727 290.910128 
z
" clip-path="url(#p0ed9df1315)" style="fill: #4b0082; fill-opacity: 0.5"/>
   </g>
   <g id="PolyCollection_4">
    <path d="M 73.832727 292.469103 
L 73.832727 288.811206 
L 77.112066 275.267225 
L 80.391405 262.735043 
L 83.670744 252.017018 
L 86.950083 242.073688 
L 90.229421 232.99567 
L 93.50876 223.963956 
L 96.788099 215.383669 
L 100.067438 208.070495 
L 103.346777 201.122692 
L 106.626116 194.759546 
L 109.905455 188.641022 
L 113.184793 182.629324 
L 116.464132 177.225293 
L 119.743471 171.966528 
L 123.02281 167.134644 
L 126.302149 162.49205 
L 129.581488 157.646034 
L 132.860826 153.610268 
L 136.140165 149.502138 
L 139.419504 146.119489 
L 142.698843 142.609361 
L 145.978182 139.124129 
L 149.257521 135.750672 
L 152.53686 132.595014 
L 155.816198 129.611454 
L 159.095537 126.659038 
L 162.374876 124.038207 
L 165.654215 121.565982 
L 168.933554 119.134513 
L 172.212893 116.832956 
L 175.492231 114.655965 
L 178.77157 112.54475 
L 182.050909 110.266349 
L 185.330248 108.23936 
L 188.609587 106.33754 
L 191.888926 104.623922 
L 195.168264 102.708497 
L 198.447603 100.987741 
L 201.726942 99.456795 
L 205.006281 97.891111 
L 208.28562 96.553304 
L 211.564959 94.929648 
L 214.844298 93.437616 
L 218.123636 91.922444 
L 221.402975 90.642677 
L 224.682314 89.422368 
L 227.961653 88.126997 
L 231.240992 86.815305 
L 234.520331 85.590238 
L 237.799669 84.490648 
L 241.079008 83.364544 
L 244.358347 82.165093 
L 247.637686 81.17836 
L 250.917025 80.29559 
L 254.196364 79.322978 
L 257.475702 78.379506 
L 260.755041 77.464508 
L 264.03438 76.595033 
L 267.313719 75.723021 
L 270.593058 74.783498 
L 273.872397 74.086793 
L 277.151736 73.16724 
L 280.431074 72.373935 
L 283.710413 71.593149 
L 286.989752 70.785699 
L 290.269091 70.033317 
L 293.54843 69.32602 
L 296.827769 68.641293 
L 300.107107 68.029273 
L 303.386446 67.454341 
L 306.665785 66.928439 
L 309.945124 66.261575 
L 313.224463 65.707246 
L 316.503802 65.188236 
L 319.78314 64.593625 
L 323.062479 63.941134 
L 326.341818 63.344385 
L 329.621157 62.813962 
L 332.900496 62.245428 
L 336.179835 61.812425 
L 339.459174 61.353645 
L 342.738512 60.9257 
L 346.017851 60.442157 
L 349.29719 60.02036 
L 352.576529 59.573712 
L 355.855868 59.185002 
L 359.135207 58.87482 
L 362.414545 58.435078 
L 365.693884 58.050361 
L 368.973223 57.688415 
L 372.252562 57.286216 
L 375.531901 56.878675 
L 378.81124 56.55006 
L 382.090579 56.214113 
L 385.369917 55.891453 
L 388.649256 55.577125 
L 391.928595 55.251448 
L 395.207934 54.948096 
L 398.487273 54.685339 
L 398.487273 61.744219 
L 398.487273 61.744219 
L 395.207934 62.03776 
L 391.928595 62.358648 
L 388.649256 62.878133 
L 385.369917 63.319309 
L 382.090579 63.660115 
L 378.81124 64.049553 
L 375.531901 64.397993 
L 372.252562 64.827068 
L 368.973223 65.178692 
L 365.693884 65.614698 
L 362.414545 66.018686 
L 359.135207 66.451425 
L 355.855868 66.9172 
L 352.576529 67.327422 
L 349.29719 67.847955 
L 346.017851 68.356775 
L 342.738512 68.877256 
L 339.459174 69.361296 
L 336.179835 69.859329 
L 332.900496 70.308893 
L 329.621157 70.919494 
L 326.341818 71.559102 
L 323.062479 72.1265 
L 319.78314 72.730614 
L 316.503802 73.400455 
L 313.224463 73.972464 
L 309.945124 74.61044 
L 306.665785 75.310292 
L 303.386446 75.916877 
L 300.107107 76.542935 
L 296.827769 77.159363 
L 293.54843 77.836729 
L 290.269091 78.563953 
L 286.989752 79.34051 
L 283.710413 80.186121 
L 280.431074 81.014968 
L 277.151736 81.804958 
L 273.872397 82.6546 
L 270.593058 83.561503 
L 267.313719 84.425356 
L 264.03438 85.324501 
L 260.755041 86.290622 
L 257.475702 87.323994 
L 254.196364 88.41953 
L 250.917025 89.358304 
L 247.637686 90.385099 
L 244.358347 91.515403 
L 241.079008 92.676046 
L 237.799669 93.93245 
L 234.520331 95.40491 
L 231.240992 96.508696 
L 227.961653 97.852407 
L 224.682314 99.095324 
L 221.402975 100.621757 
L 218.123636 102.064075 
L 214.844298 103.495694 
L 211.564959 105.141394 
L 208.28562 106.815452 
L 205.006281 108.714702 
L 201.726942 110.446873 
L 198.447603 112.055621 
L 195.168264 113.85294 
L 191.888926 115.689402 
L 188.609587 117.587861 
L 185.330248 119.870525 
L 182.050909 122.115856 
L 178.77157 124.168892 
L 175.492231 126.395839 
L 172.212893 128.960609 
L 168.933554 131.184655 
L 165.654215 133.859181 
L 162.374876 136.821182 
L 159.095537 139.535953 
L 155.816198 142.617627 
L 152.53686 145.839766 
L 149.257521 149.147854 
L 145.978182 152.386638 
L 142.698843 156.008304 
L 139.419504 159.703276 
L 136.140165 164.013101 
L 132.860826 167.770035 
L 129.581488 172.223293 
L 126.302149 176.347931 
L 123.02281 180.392448 
L 119.743471 185.489292 
L 116.464132 190.888983 
L 113.184793 196.358166 
L 109.905455 201.574529 
L 106.626116 207.631493 
L 103.346777 213.651169 
L 100.067438 220.244311 
L 96.788099 227.271854 
L 93.50876 234.174017 
L 90.229421 242.263243 
L 86.950083 250.517841 
L 83.670744 259.542677 
L 80.391405 269.338988 
L 77.112066 280.431418 
L 73.832727 292.469103 
z
" clip-path="url(#p0ed9df1315)" style="fill: #d2b48c; fill-opacity: 0.5"/>
   </g>
   <g id="PolyCollection_5">
    <path d="M 73.832727 293.405876 
L 73.832727 289.634102 
L 77.112066 276.210934 
L 80.391405 264.512357 
L 83.670744 253.800297 
L 86.950083 243.67826 
L 90.229421 234.573266 
L 93.50876 225.546323 
L 96.788099 217.417541 
L 100.067438 209.99523 
L 103.346777 202.71192 
L 106.626116 195.946332 
L 109.905455 189.405672 
L 113.184793 183.387428 
L 116.464132 177.856059 
L 119.743471 172.355337 
L 123.02281 167.150471 
L 126.302149 162.303773 
L 129.581488 157.918297 
L 132.860826 153.616674 
L 136.140165 149.306814 
L 139.419504 145.610147 
L 142.698843 141.989527 
L 145.978182 138.424308 
L 149.257521 135.162499 
L 152.53686 131.996228 
L 155.816198 129.214033 
L 159.095537 126.141947 
L 162.374876 123.428045 
L 165.654215 120.614035 
L 168.933554 117.836169 
L 172.212893 115.349492 
L 175.492231 113.009422 
L 178.77157 110.753593 
L 182.050909 108.548778 
L 185.330248 106.598934 
L 188.609587 104.559565 
L 191.888926 102.647047 
L 195.168264 100.741091 
L 198.447603 98.834705 
L 201.726942 97.132796 
L 205.006281 95.489106 
L 208.28562 93.760549 
L 211.564959 92.354559 
L 214.844298 90.854404 
L 218.123636 89.459444 
L 221.402975 88.242259 
L 224.682314 86.964783 
L 227.961653 85.58489 
L 231.240992 84.490728 
L 234.520331 83.412721 
L 237.799669 82.349188 
L 241.079008 81.241554 
L 244.358347 80.291538 
L 247.637686 79.340983 
L 250.917025 78.364915 
L 254.196364 77.42031 
L 257.475702 76.573614 
L 260.755041 75.569322 
L 264.03438 74.561332 
L 267.313719 73.716457 
L 270.593058 72.898721 
L 273.872397 72.121856 
L 277.151736 71.302797 
L 280.431074 70.506795 
L 283.710413 69.751049 
L 286.989752 69.059903 
L 290.269091 68.465304 
L 293.54843 67.907658 
L 296.827769 67.297763 
L 300.107107 66.699295 
L 303.386446 66.102041 
L 306.665785 65.509078 
L 309.945124 64.927643 
L 313.224463 64.34411 
L 316.503802 63.671961 
L 319.78314 63.101588 
L 323.062479 62.527409 
L 326.341818 62.060422 
L 329.621157 61.537143 
L 332.900496 61.10715 
L 336.179835 60.674517 
L 339.459174 60.217142 
L 342.738512 59.707133 
L 346.017851 59.323131 
L 349.29719 58.856726 
L 352.576529 58.41383 
L 355.855868 57.910278 
L 359.135207 57.420996 
L 362.414545 57.069923 
L 365.693884 56.772639 
L 368.973223 56.473649 
L 372.252562 56.164035 
L 375.531901 55.733177 
L 378.81124 55.430672 
L 382.090579 55.132275 
L 385.369917 54.781326 
L 388.649256 54.43336 
L 391.928595 54.1064 
L 395.207934 53.864666 
L 398.487273 53.568 
L 398.487273 59.787007 
L 398.487273 59.787007 
L 395.207934 60.202978 
L 391.928595 60.531549 
L 388.649256 60.867074 
L 385.369917 61.243373 
L 382.090579 61.57214 
L 378.81124 62.155749 
L 375.531901 62.574286 
L 372.252562 63.022632 
L 368.973223 63.499343 
L 365.693884 63.906685 
L 362.414545 64.366446 
L 359.135207 64.890515 
L 355.855868 65.366452 
L 352.576529 65.953499 
L 349.29719 66.51897 
L 346.017851 67.054347 
L 342.738512 67.505561 
L 339.459174 68.029976 
L 336.179835 68.520309 
L 332.900496 69.109491 
L 329.621157 69.545954 
L 326.341818 70.09058 
L 323.062479 70.699342 
L 319.78314 71.3983 
L 316.503802 72.046008 
L 313.224463 72.7155 
L 309.945124 73.32287 
L 306.665785 73.866077 
L 303.386446 74.567404 
L 300.107107 75.359141 
L 296.827769 76.052301 
L 293.54843 76.735296 
L 290.269091 77.580089 
L 286.989752 78.370137 
L 283.710413 79.109028 
L 280.431074 80.038423 
L 277.151736 80.997467 
L 273.872397 81.937656 
L 270.593058 82.912615 
L 267.313719 83.782681 
L 264.03438 84.742864 
L 260.755041 85.711682 
L 257.475702 86.632225 
L 254.196364 87.748047 
L 250.917025 88.851276 
L 247.637686 90.011578 
L 244.358347 91.137295 
L 241.079008 92.498901 
L 237.799669 93.7819 
L 234.520331 94.901947 
L 231.240992 96.179551 
L 227.961653 97.560917 
L 224.682314 98.858982 
L 221.402975 100.366351 
L 218.123636 102.014284 
L 214.844298 103.433729 
L 211.564959 104.922671 
L 208.28562 106.612387 
L 205.006281 108.28451 
L 201.726942 110.13312 
L 198.447603 111.927994 
L 195.168264 113.946786 
L 191.888926 116.134535 
L 188.609587 118.263189 
L 185.330248 120.491937 
L 182.050909 122.716631 
L 178.77157 125.199922 
L 175.492231 127.365189 
L 172.212893 129.84449 
L 168.933554 132.133335 
L 165.654215 134.758174 
L 162.374876 137.53599 
L 159.095537 140.272984 
L 155.816198 143.180493 
L 152.53686 146.230099 
L 149.257521 149.794865 
L 145.978182 152.899298 
L 142.698843 156.430751 
L 139.419504 160.217801 
L 136.140165 163.946317 
L 132.860826 168.212618 
L 129.581488 172.697149 
L 126.302149 177.279384 
L 123.02281 182.035566 
L 119.743471 186.992536 
L 116.464132 192.11833 
L 113.184793 197.400216 
L 109.905455 202.735834 
L 106.626116 208.940548 
L 103.346777 214.996123 
L 100.067438 221.169003 
L 96.788099 228.367309 
L 93.50876 235.723218 
L 90.229421 243.662416 
L 86.950083 252.23592 
L 83.670744 261.534398 
L 80.391405 271.65608 
L 77.112066 282.096041 
L 73.832727 293.405876 
z
" clip-path="url(#p0ed9df1315)" style="fill: #98fb98; fill-opacity: 0.5"/>
   </g>
   <g id="matplotlib.axis_1">
    <g id="xtick_1">
     <g id="line2d_1">
      <path d="M 73.832727 307.584 
L 73.832727 41.472 
" clip-path="url(#p0ed9df1315)" style="fill: none; stroke: #b0b0b0; stroke-width: 0.8; stroke-linecap: square"/>
     </g>
     <g id="line2d_2">
      <defs>
       <path id="m1b0cdeec24" d="M 0 0 
L 0 3.5 
" style="stroke: #000000; stroke-width: 0.8"/>
      </defs>
      <g>
       <use xlink:href="#m1b0cdeec24" x="73.832727" y="307.584" style="stroke: #000000; stroke-width: 0.8"/>
      </g>
     </g>
     <g id="text_1">
      <!-- 0 -->
      <g transform="translate(70.651477 322.182437) scale(0.1 -0.1)">
       <defs>
        <path id="DejaVuSans-30" d="M 2034 4250 
Q 1547 4250 1301 3770 
Q 1056 3291 1056 2328 
Q 1056 1369 1301 889 
Q 1547 409 2034 409 
Q 2525 409 2770 889 
Q 3016 1369 3016 2328 
Q 3016 3291 2770 3770 
Q 2525 4250 2034 4250 
z
M 2034 4750 
Q 2819 4750 3233 4129 
Q 3647 3509 3647 2328 
Q 3647 1150 3233 529 
Q 2819 -91 2034 -91 
Q 1250 -91 836 529 
Q 422 1150 422 2328 
Q 422 3509 836 4129 
Q 1250 4750 2034 4750 
z
" transform="scale(0.015625)"/>
       </defs>
       <use xlink:href="#DejaVuSans-30"/>
      </g>
     </g>
    </g>
    <g id="xtick_2">
     <g id="line2d_3">
      <path d="M 139.419504 307.584 
L 139.419504 41.472 
" clip-path="url(#p0ed9df1315)" style="fill: none; stroke: #b0b0b0; stroke-width: 0.8; stroke-linecap: square"/>
     </g>
     <g id="line2d_4">
      <g>
       <use xlink:href="#m1b0cdeec24" x="139.419504" y="307.584" style="stroke: #000000; stroke-width: 0.8"/>
      </g>
     </g>
     <g id="text_2">
      <!-- 2000 -->
      <g transform="translate(126.694504 322.182437) scale(0.1 -0.1)">
       <defs>
        <path id="DejaVuSans-32" d="M 1228 531 
L 3431 531 
L 3431 0 
L 469 0 
L 469 531 
Q 828 903 1448 1529 
Q 2069 2156 2228 2338 
Q 2531 2678 2651 2914 
Q 2772 3150 2772 3378 
Q 2772 3750 2511 3984 
Q 2250 4219 1831 4219 
Q 1534 4219 1204 4116 
Q 875 4013 500 3803 
L 500 4441 
Q 881 4594 1212 4672 
Q 1544 4750 1819 4750 
Q 2544 4750 2975 4387 
Q 3406 4025 3406 3419 
Q 3406 3131 3298 2873 
Q 3191 2616 2906 2266 
Q 2828 2175 2409 1742 
Q 1991 1309 1228 531 
z
" transform="scale(0.015625)"/>
       </defs>
       <use xlink:href="#DejaVuSans-32"/>
       <use xlink:href="#DejaVuSans-30" x="63.623047"/>
       <use xlink:href="#DejaVuSans-30" x="127.246094"/>
       <use xlink:href="#DejaVuSans-30" x="190.869141"/>
      </g>
     </g>
    </g>
    <g id="xtick_3">
     <g id="line2d_5">
      <path d="M 205.006281 307.584 
L 205.006281 41.472 
" clip-path="url(#p0ed9df1315)" style="fill: none; stroke: #b0b0b0; stroke-width: 0.8; stroke-linecap: square"/>
     </g>
     <g id="line2d_6">
      <g>
       <use xlink:href="#m1b0cdeec24" x="205.006281" y="307.584" style="stroke: #000000; stroke-width: 0.8"/>
      </g>
     </g>
     <g id="text_3">
      <!-- 4000 -->
      <g transform="translate(192.281281 322.182437) scale(0.1 -0.1)">
       <defs>
        <path id="DejaVuSans-34" d="M 2419 4116 
L 825 1625 
L 2419 1625 
L 2419 4116 
z
M 2253 4666 
L 3047 4666 
L 3047 1625 
L 3713 1625 
L 3713 1100 
L 3047 1100 
L 3047 0 
L 2419 0 
L 2419 1100 
L 313 1100 
L 313 1709 
L 2253 4666 
z
" transform="scale(0.015625)"/>
       </defs>
       <use xlink:href="#DejaVuSans-34"/>
       <use xlink:href="#DejaVuSans-30" x="63.623047"/>
       <use xlink:href="#DejaVuSans-30" x="127.246094"/>
       <use xlink:href="#DejaVuSans-30" x="190.869141"/>
      </g>
     </g>
    </g>
    <g id="xtick_4">
     <g id="line2d_7">
      <path d="M 270.593058 307.584 
L 270.593058 41.472 
" clip-path="url(#p0ed9df1315)" style="fill: none; stroke: #b0b0b0; stroke-width: 0.8; stroke-linecap: square"/>
     </g>
     <g id="line2d_8">
      <g>
       <use xlink:href="#m1b0cdeec24" x="270.593058" y="307.584" style="stroke: #000000; stroke-width: 0.8"/>
      </g>
     </g>
     <g id="text_4">
      <!-- 6000 -->
      <g transform="translate(257.868058 322.182437) scale(0.1 -0.1)">
       <defs>
        <path id="DejaVuSans-36" d="M 2113 2584 
Q 1688 2584 1439 2293 
Q 1191 2003 1191 1497 
Q 1191 994 1439 701 
Q 1688 409 2113 409 
Q 2538 409 2786 701 
Q 3034 994 3034 1497 
Q 3034 2003 2786 2293 
Q 2538 2584 2113 2584 
z
M 3366 4563 
L 3366 3988 
Q 3128 4100 2886 4159 
Q 2644 4219 2406 4219 
Q 1781 4219 1451 3797 
Q 1122 3375 1075 2522 
Q 1259 2794 1537 2939 
Q 1816 3084 2150 3084 
Q 2853 3084 3261 2657 
Q 3669 2231 3669 1497 
Q 3669 778 3244 343 
Q 2819 -91 2113 -91 
Q 1303 -91 875 529 
Q 447 1150 447 2328 
Q 447 3434 972 4092 
Q 1497 4750 2381 4750 
Q 2619 4750 2861 4703 
Q 3103 4656 3366 4563 
z
" transform="scale(0.015625)"/>
       </defs>
       <use xlink:href="#DejaVuSans-36"/>
       <use xlink:href="#DejaVuSans-30" x="63.623047"/>
       <use xlink:href="#DejaVuSans-30" x="127.246094"/>
       <use xlink:href="#DejaVuSans-30" x="190.869141"/>
      </g>
     </g>
    </g>
    <g id="xtick_5">
     <g id="line2d_9">
      <path d="M 336.179835 307.584 
L 336.179835 41.472 
" clip-path="url(#p0ed9df1315)" style="fill: none; stroke: #b0b0b0; stroke-width: 0.8; stroke-linecap: square"/>
     </g>
     <g id="line2d_10">
      <g>
       <use xlink:href="#m1b0cdeec24" x="336.179835" y="307.584" style="stroke: #000000; stroke-width: 0.8"/>
      </g>
     </g>
     <g id="text_5">
      <!-- 8000 -->
      <g transform="translate(323.454835 322.182437) scale(0.1 -0.1)">
       <defs>
        <path id="DejaVuSans-38" d="M 2034 2216 
Q 1584 2216 1326 1975 
Q 1069 1734 1069 1313 
Q 1069 891 1326 650 
Q 1584 409 2034 409 
Q 2484 409 2743 651 
Q 3003 894 3003 1313 
Q 3003 1734 2745 1975 
Q 2488 2216 2034 2216 
z
M 1403 2484 
Q 997 2584 770 2862 
Q 544 3141 544 3541 
Q 544 4100 942 4425 
Q 1341 4750 2034 4750 
Q 2731 4750 3128 4425 
Q 3525 4100 3525 3541 
Q 3525 3141 3298 2862 
Q 3072 2584 2669 2484 
Q 3125 2378 3379 2068 
Q 3634 1759 3634 1313 
Q 3634 634 3220 271 
Q 2806 -91 2034 -91 
Q 1263 -91 848 271 
Q 434 634 434 1313 
Q 434 1759 690 2068 
Q 947 2378 1403 2484 
z
M 1172 3481 
Q 1172 3119 1398 2916 
Q 1625 2713 2034 2713 
Q 2441 2713 2670 2916 
Q 2900 3119 2900 3481 
Q 2900 3844 2670 4047 
Q 2441 4250 2034 4250 
Q 1625 4250 1398 4047 
Q 1172 3844 1172 3481 
z
" transform="scale(0.015625)"/>
       </defs>
       <use xlink:href="#DejaVuSans-38"/>
       <use xlink:href="#DejaVuSans-30" x="63.623047"/>
       <use xlink:href="#DejaVuSans-30" x="127.246094"/>
       <use xlink:href="#DejaVuSans-30" x="190.869141"/>
      </g>
     </g>
    </g>
    <g id="xtick_6">
     <g id="line2d_11">
      <path d="M 401.766612 307.584 
L 401.766612 41.472 
" clip-path="url(#p0ed9df1315)" style="fill: none; stroke: #b0b0b0; stroke-width: 0.8; stroke-linecap: square"/>
     </g>
     <g id="line2d_12">
      <g>
       <use xlink:href="#m1b0cdeec24" x="401.766612" y="307.584" style="stroke: #000000; stroke-width: 0.8"/>
      </g>
     </g>
     <g id="text_6">
      <!-- 10000 -->
      <g transform="translate(385.860362 322.182437) scale(0.1 -0.1)">
       <defs>
        <path id="DejaVuSans-31" d="M 794 531 
L 1825 531 
L 1825 4091 
L 703 3866 
L 703 4441 
L 1819 4666 
L 2450 4666 
L 2450 531 
L 3481 531 
L 3481 0 
L 794 0 
L 794 531 
z
" transform="scale(0.015625)"/>
       </defs>
       <use xlink:href="#DejaVuSans-31"/>
       <use xlink:href="#DejaVuSans-30" x="63.623047"/>
       <use xlink:href="#DejaVuSans-30" x="127.246094"/>
       <use xlink:href="#DejaVuSans-30" x="190.869141"/>
       <use xlink:href="#DejaVuSans-30" x="254.492188"/>
      </g>
     </g>
    </g>
    <g id="text_7">
     <!-- Evaluations -->
     <g transform="translate(207.173281 335.860562) scale(0.1 -0.1)">
      <defs>
       <path id="DejaVuSans-45" d="M 628 4666 
L 3578 4666 
L 3578 4134 
L 1259 4134 
L 1259 2753 
L 3481 2753 
L 3481 2222 
L 1259 2222 
L 1259 531 
L 3634 531 
L 3634 0 
L 628 0 
L 628 4666 
z
" transform="scale(0.015625)"/>
       <path id="DejaVuSans-76" d="M 191 3500 
L 800 3500 
L 1894 563 
L 2988 3500 
L 3597 3500 
L 2284 0 
L 1503 0 
L 191 3500 
z
" transform="scale(0.015625)"/>
       <path id="DejaVuSans-61" d="M 2194 1759 
Q 1497 1759 1228 1600 
Q 959 1441 959 1056 
Q 959 750 1161 570 
Q 1363 391 1709 391 
Q 2188 391 2477 730 
Q 2766 1069 2766 1631 
L 2766 1759 
L 2194 1759 
z
M 3341 1997 
L 3341 0 
L 2766 0 
L 2766 531 
Q 2569 213 2275 61 
Q 1981 -91 1556 -91 
Q 1019 -91 701 211 
Q 384 513 384 1019 
Q 384 1609 779 1909 
Q 1175 2209 1959 2209 
L 2766 2209 
L 2766 2266 
Q 2766 2663 2505 2880 
Q 2244 3097 1772 3097 
Q 1472 3097 1187 3025 
Q 903 2953 641 2809 
L 641 3341 
Q 956 3463 1253 3523 
Q 1550 3584 1831 3584 
Q 2591 3584 2966 3190 
Q 3341 2797 3341 1997 
z
" transform="scale(0.015625)"/>
       <path id="DejaVuSans-6c" d="M 603 4863 
L 1178 4863 
L 1178 0 
L 603 0 
L 603 4863 
z
" transform="scale(0.015625)"/>
       <path id="DejaVuSans-75" d="M 544 1381 
L 544 3500 
L 1119 3500 
L 1119 1403 
Q 1119 906 1312 657 
Q 1506 409 1894 409 
Q 2359 409 2629 706 
Q 2900 1003 2900 1516 
L 2900 3500 
L 3475 3500 
L 3475 0 
L 2900 0 
L 2900 538 
Q 2691 219 2414 64 
Q 2138 -91 1772 -91 
Q 1169 -91 856 284 
Q 544 659 544 1381 
z
M 1991 3584 
L 1991 3584 
z
" transform="scale(0.015625)"/>
       <path id="DejaVuSans-74" d="M 1172 4494 
L 1172 3500 
L 2356 3500 
L 2356 3053 
L 1172 3053 
L 1172 1153 
Q 1172 725 1289 603 
Q 1406 481 1766 481 
L 2356 481 
L 2356 0 
L 1766 0 
Q 1100 0 847 248 
Q 594 497 594 1153 
L 594 3053 
L 172 3053 
L 172 3500 
L 594 3500 
L 594 4494 
L 1172 4494 
z
" transform="scale(0.015625)"/>
       <path id="DejaVuSans-69" d="M 603 3500 
L 1178 3500 
L 1178 0 
L 603 0 
L 603 3500 
z
M 603 4863 
L 1178 4863 
L 1178 4134 
L 603 4134 
L 603 4863 
z
" transform="scale(0.015625)"/>
       <path id="DejaVuSans-6f" d="M 1959 3097 
Q 1497 3097 1228 2736 
Q 959 2375 959 1747 
Q 959 1119 1226 758 
Q 1494 397 1959 397 
Q 2419 397 2687 759 
Q 2956 1122 2956 1747 
Q 2956 2369 2687 2733 
Q 2419 3097 1959 3097 
z
M 1959 3584 
Q 2709 3584 3137 3096 
Q 3566 2609 3566 1747 
Q 3566 888 3137 398 
Q 2709 -91 1959 -91 
Q 1206 -91 779 398 
Q 353 888 353 1747 
Q 353 2609 779 3096 
Q 1206 3584 1959 3584 
z
" transform="scale(0.015625)"/>
       <path id="DejaVuSans-6e" d="M 3513 2113 
L 3513 0 
L 2938 0 
L 2938 2094 
Q 2938 2591 2744 2837 
Q 2550 3084 2163 3084 
Q 1697 3084 1428 2787 
Q 1159 2491 1159 1978 
L 1159 0 
L 581 0 
L 581 3500 
L 1159 3500 
L 1159 2956 
Q 1366 3272 1645 3428 
Q 1925 3584 2291 3584 
Q 2894 3584 3203 3211 
Q 3513 2838 3513 2113 
z
" transform="scale(0.015625)"/>
       <path id="DejaVuSans-73" d="M 2834 3397 
L 2834 2853 
Q 2591 2978 2328 3040 
Q 2066 3103 1784 3103 
Q 1356 3103 1142 2972 
Q 928 2841 928 2578 
Q 928 2378 1081 2264 
Q 1234 2150 1697 2047 
L 1894 2003 
Q 2506 1872 2764 1633 
Q 3022 1394 3022 966 
Q 3022 478 2636 193 
Q 2250 -91 1575 -91 
Q 1294 -91 989 -36 
Q 684 19 347 128 
L 347 722 
Q 666 556 975 473 
Q 1284 391 1588 391 
Q 1994 391 2212 530 
Q 2431 669 2431 922 
Q 2431 1156 2273 1281 
Q 2116 1406 1581 1522 
L 1381 1569 
Q 847 1681 609 1914 
Q 372 2147 372 2553 
Q 372 3047 722 3315 
Q 1072 3584 1716 3584 
Q 2034 3584 2315 3537 
Q 2597 3491 2834 3397 
z
" transform="scale(0.015625)"/>
      </defs>
      <use xlink:href="#DejaVuSans-45"/>
      <use xlink:href="#DejaVuSans-76" x="63.183594"/>
      <use xlink:href="#DejaVuSans-61" x="122.363281"/>
      <use xlink:href="#DejaVuSans-6c" x="183.642578"/>
      <use xlink:href="#DejaVuSans-75" x="211.425781"/>
      <use xlink:href="#DejaVuSans-61" x="274.804688"/>
      <use xlink:href="#DejaVuSans-74" x="336.083984"/>
      <use xlink:href="#DejaVuSans-69" x="375.292969"/>
      <use xlink:href="#DejaVuSans-6f" x="403.076172"/>
      <use xlink:href="#DejaVuSans-6e" x="464.257812"/>
      <use xlink:href="#DejaVuSans-73" x="527.636719"/>
     </g>
    </g>
   </g>
   <g id="matplotlib.axis_2">
    <g id="ytick_1">
     <g id="line2d_13">
      <path d="M 57.6 274.730921 
L 414.72 274.730921 
" clip-path="url(#p0ed9df1315)" style="fill: none; stroke: #b0b0b0; stroke-width: 0.8; stroke-linecap: square"/>
     </g>
     <g id="line2d_14">
      <defs>
       <path id="m625fffd5fc" d="M 0 0 
L -3.5 0 
" style="stroke: #000000; stroke-width: 0.8"/>
      </defs>
      <g>
       <use xlink:href="#m625fffd5fc" x="57.6" y="274.730921" style="stroke: #000000; stroke-width: 0.8"/>
      </g>
     </g>
     <g id="text_8">
      <!-- 50 -->
      <g transform="translate(37.875 278.53014) scale(0.1 -0.1)">
       <defs>
        <path id="DejaVuSans-35" d="M 691 4666 
L 3169 4666 
L 3169 4134 
L 1269 4134 
L 1269 2991 
Q 1406 3038 1543 3061 
Q 1681 3084 1819 3084 
Q 2600 3084 3056 2656 
Q 3513 2228 3513 1497 
Q 3513 744 3044 326 
Q 2575 -91 1722 -91 
Q 1428 -91 1123 -41 
Q 819 9 494 109 
L 494 744 
Q 775 591 1075 516 
Q 1375 441 1709 441 
Q 2250 441 2565 725 
Q 2881 1009 2881 1497 
Q 2881 1984 2565 2268 
Q 2250 2553 1709 2553 
Q 1456 2553 1204 2497 
Q 953 2441 691 2322 
L 691 4666 
z
" transform="scale(0.015625)"/>
       </defs>
       <use xlink:href="#DejaVuSans-35"/>
       <use xlink:href="#DejaVuSans-30" x="63.623047"/>
      </g>
     </g>
    </g>
    <g id="ytick_2">
     <g id="line2d_15">
      <path d="M 57.6 239.70846 
L 414.72 239.70846 
" clip-path="url(#p0ed9df1315)" style="fill: none; stroke: #b0b0b0; stroke-width: 0.8; stroke-linecap: square"/>
     </g>
     <g id="line2d_16">
      <g>
       <use xlink:href="#m625fffd5fc" x="57.6" y="239.70846" style="stroke: #000000; stroke-width: 0.8"/>
      </g>
     </g>
     <g id="text_9">
      <!-- 100 -->
      <g transform="translate(31.5125 243.507679) scale(0.1 -0.1)">
       <use xlink:href="#DejaVuSans-31"/>
       <use xlink:href="#DejaVuSans-30" x="63.623047"/>
       <use xlink:href="#DejaVuSans-30" x="127.246094"/>
      </g>
     </g>
    </g>
    <g id="ytick_3">
     <g id="line2d_17">
      <path d="M 57.6 204.685998 
L 414.72 204.685998 
" clip-path="url(#p0ed9df1315)" style="fill: none; stroke: #b0b0b0; stroke-width: 0.8; stroke-linecap: square"/>
     </g>
     <g id="line2d_18">
      <g>
       <use xlink:href="#m625fffd5fc" x="57.6" y="204.685998" style="stroke: #000000; stroke-width: 0.8"/>
      </g>
     </g>
     <g id="text_10">
      <!-- 150 -->
      <g transform="translate(31.5125 208.485217) scale(0.1 -0.1)">
       <use xlink:href="#DejaVuSans-31"/>
       <use xlink:href="#DejaVuSans-35" x="63.623047"/>
       <use xlink:href="#DejaVuSans-30" x="127.246094"/>
      </g>
     </g>
    </g>
    <g id="ytick_4">
     <g id="line2d_19">
      <path d="M 57.6 169.663537 
L 414.72 169.663537 
" clip-path="url(#p0ed9df1315)" style="fill: none; stroke: #b0b0b0; stroke-width: 0.8; stroke-linecap: square"/>
     </g>
     <g id="line2d_20">
      <g>
       <use xlink:href="#m625fffd5fc" x="57.6" y="169.663537" style="stroke: #000000; stroke-width: 0.8"/>
      </g>
     </g>
     <g id="text_11">
      <!-- 200 -->
      <g transform="translate(31.5125 173.462755) scale(0.1 -0.1)">
       <use xlink:href="#DejaVuSans-32"/>
       <use xlink:href="#DejaVuSans-30" x="63.623047"/>
       <use xlink:href="#DejaVuSans-30" x="127.246094"/>
      </g>
     </g>
    </g>
    <g id="ytick_5">
     <g id="line2d_21">
      <path d="M 57.6 134.641075 
L 414.72 134.641075 
" clip-path="url(#p0ed9df1315)" style="fill: none; stroke: #b0b0b0; stroke-width: 0.8; stroke-linecap: square"/>
     </g>
     <g id="line2d_22">
      <g>
       <use xlink:href="#m625fffd5fc" x="57.6" y="134.641075" style="stroke: #000000; stroke-width: 0.8"/>
      </g>
     </g>
     <g id="text_12">
      <!-- 250 -->
      <g transform="translate(31.5125 138.440294) scale(0.1 -0.1)">
       <use xlink:href="#DejaVuSans-32"/>
       <use xlink:href="#DejaVuSans-35" x="63.623047"/>
       <use xlink:href="#DejaVuSans-30" x="127.246094"/>
      </g>
     </g>
    </g>
    <g id="ytick_6">
     <g id="line2d_23">
      <path d="M 57.6 99.618614 
L 414.72 99.618614 
" clip-path="url(#p0ed9df1315)" style="fill: none; stroke: #b0b0b0; stroke-width: 0.8; stroke-linecap: square"/>
     </g>
     <g id="line2d_24">
      <g>
       <use xlink:href="#m625fffd5fc" x="57.6" y="99.618614" style="stroke: #000000; stroke-width: 0.8"/>
      </g>
     </g>
     <g id="text_13">
      <!-- 300 -->
      <g transform="translate(31.5125 103.417832) scale(0.1 -0.1)">
       <defs>
        <path id="DejaVuSans-33" d="M 2597 2516 
Q 3050 2419 3304 2112 
Q 3559 1806 3559 1356 
Q 3559 666 3084 287 
Q 2609 -91 1734 -91 
Q 1441 -91 1130 -33 
Q 819 25 488 141 
L 488 750 
Q 750 597 1062 519 
Q 1375 441 1716 441 
Q 2309 441 2620 675 
Q 2931 909 2931 1356 
Q 2931 1769 2642 2001 
Q 2353 2234 1838 2234 
L 1294 2234 
L 1294 2753 
L 1863 2753 
Q 2328 2753 2575 2939 
Q 2822 3125 2822 3475 
Q 2822 3834 2567 4026 
Q 2313 4219 1838 4219 
Q 1578 4219 1281 4162 
Q 984 4106 628 3988 
L 628 4550 
Q 988 4650 1302 4700 
Q 1616 4750 1894 4750 
Q 2613 4750 3031 4423 
Q 3450 4097 3450 3541 
Q 3450 3153 3228 2886 
Q 3006 2619 2597 2516 
z
" transform="scale(0.015625)"/>
       </defs>
       <use xlink:href="#DejaVuSans-33"/>
       <use xlink:href="#DejaVuSans-30" x="63.623047"/>
       <use xlink:href="#DejaVuSans-30" x="127.246094"/>
      </g>
     </g>
    </g>
    <g id="ytick_7">
     <g id="line2d_25">
      <path d="M 57.6 64.596152 
L 414.72 64.596152 
" clip-path="url(#p0ed9df1315)" style="fill: none; stroke: #b0b0b0; stroke-width: 0.8; stroke-linecap: square"/>
     </g>
     <g id="line2d_26">
      <g>
       <use xlink:href="#m625fffd5fc" x="57.6" y="64.596152" style="stroke: #000000; stroke-width: 0.8"/>
      </g>
     </g>
     <g id="text_14">
      <!-- 350 -->
      <g transform="translate(31.5125 68.395371) scale(0.1 -0.1)">
       <use xlink:href="#DejaVuSans-33"/>
       <use xlink:href="#DejaVuSans-35" x="63.623047"/>
       <use xlink:href="#DejaVuSans-30" x="127.246094"/>
      </g>
     </g>
    </g>
   </g>
   <g id="line2d_27">
    <path d="M 73.832727 293.707492 
L 77.112066 282.641235 
L 80.391405 272.77912 
L 83.670744 263.733238 
L 86.950083 255.268309 
L 90.229421 247.421316 
L 93.50876 239.952076 
L 96.788099 233.093137 
L 100.067438 226.133403 
L 103.346777 219.629942 
L 106.626116 213.738184 
L 109.905455 207.989037 
L 113.184793 202.681663 
L 116.464132 197.513818 
L 119.743471 192.434511 
L 123.02281 187.407106 
L 126.302149 182.7508 
L 129.581488 178.742549 
L 132.860826 174.427572 
L 136.140165 170.551776 
L 139.419504 166.891439 
L 142.698843 163.115457 
L 145.978182 159.476203 
L 149.257521 156.035246 
L 152.53686 152.711054 
L 155.816198 149.395688 
L 159.095537 146.528189 
L 162.374876 143.462253 
L 165.654215 140.694147 
L 168.933554 138.015559 
L 172.212893 135.090834 
L 175.492231 132.477457 
L 178.77157 130.14202 
L 182.050909 127.603592 
L 185.330248 125.524588 
L 188.609587 123.409582 
L 191.888926 121.20849 
L 195.168264 119.239457 
L 198.447603 117.271825 
L 201.726942 115.308746 
L 205.006281 113.494443 
L 208.28562 111.698491 
L 211.564959 109.985823 
L 214.844298 108.331712 
L 218.123636 106.794786 
L 221.402975 105.127857 
L 224.682314 103.649629 
L 227.961653 102.118657 
L 231.240992 100.604146 
L 234.520331 99.336122 
L 237.799669 97.964012 
L 241.079008 96.680089 
L 244.358347 95.379775 
L 247.637686 94.176333 
L 250.917025 93.000839 
L 254.196364 91.895951 
L 257.475702 90.824754 
L 260.755041 89.739828 
L 264.03438 88.625623 
L 267.313719 87.484381 
L 270.593058 86.42208 
L 273.872397 85.470169 
L 277.151736 84.464464 
L 280.431074 83.562286 
L 283.710413 82.626276 
L 286.989752 81.782654 
L 290.269091 80.888951 
L 293.54843 80.019204 
L 296.827769 79.193374 
L 300.107107 78.525145 
L 303.386446 77.715916 
L 306.665785 76.98927 
L 309.945124 76.275442 
L 313.224463 75.627387 
L 316.503802 74.893736 
L 319.78314 74.161347 
L 323.062479 73.407733 
L 326.341818 72.767523 
L 329.621157 72.131585 
L 332.900496 71.474984 
L 336.179835 70.901806 
L 339.459174 70.363791 
L 342.738512 69.740391 
L 346.017851 69.20896 
L 349.29719 68.703446 
L 352.576529 68.123194 
L 355.855868 67.644227 
L 359.135207 67.111465 
L 362.414545 66.63628 
L 365.693884 66.173634 
L 368.973223 65.70006 
L 372.252562 65.230899 
L 375.531901 64.788916 
L 378.81124 64.363673 
L 382.090579 63.972262 
L 385.369917 63.505973 
L 388.649256 63.097471 
L 391.928595 62.666975 
L 395.207934 62.271781 
L 398.487273 61.884013 
" clip-path="url(#p0ed9df1315)" style="fill: none; stroke: #ff00ff; stroke-width: 2; stroke-linecap: square"/>
   </g>
   <g id="line2d_28">
    <path d="M 73.832727 293.34648 
L 77.112066 282.503736 
L 80.391405 272.357729 
L 83.670744 263.353104 
L 86.950083 254.951916 
L 90.229421 247.346228 
L 93.50876 239.903185 
L 96.788099 232.942751 
L 100.067438 226.344659 
L 103.346777 220.241014 
L 106.626116 214.583346 
L 109.905455 209.311835 
L 113.184793 204.038363 
L 116.464132 199.016562 
L 119.743471 194.163009 
L 123.02281 189.385385 
L 126.302149 184.938373 
L 129.581488 180.507191 
L 132.860826 176.511829 
L 136.140165 172.398791 
L 139.419504 168.743987 
L 142.698843 165.341485 
L 145.978182 161.82635 
L 149.257521 158.575355 
L 152.53686 155.256417 
L 155.816198 152.197135 
L 159.095537 149.264494 
L 162.374876 146.255504 
L 165.654215 143.649903 
L 168.933554 140.941196 
L 172.212893 138.202299 
L 175.492231 135.666883 
L 178.77157 133.301396 
L 182.050909 130.893672 
L 185.330248 128.905236 
L 188.609587 126.752756 
L 191.888926 124.56133 
L 195.168264 122.646162 
L 198.447603 120.610096 
L 201.726942 118.732542 
L 205.006281 117.117236 
L 208.28562 115.401136 
L 211.564959 113.562947 
L 214.844298 112.006268 
L 218.123636 110.457085 
L 221.402975 108.71892 
L 224.682314 107.231376 
L 227.961653 105.828586 
L 231.240992 104.411928 
L 234.520331 103.101878 
L 237.799669 101.87392 
L 241.079008 100.427002 
L 244.358347 99.189308 
L 247.637686 97.962261 
L 250.917025 96.816747 
L 254.196364 95.639782 
L 257.475702 94.42149 
L 260.755041 93.378171 
L 264.03438 92.365252 
L 267.313719 91.30295 
L 270.593058 90.172635 
L 273.872397 89.32194 
L 277.151736 88.348245 
L 280.431074 87.363694 
L 283.710413 86.378652 
L 286.989752 85.483478 
L 290.269091 84.556083 
L 293.54843 83.64718 
L 296.827769 82.811614 
L 300.107107 82.054779 
L 303.386446 81.258018 
L 306.665785 80.522897 
L 309.945124 79.739304 
L 313.224463 79.029679 
L 316.503802 78.427433 
L 319.78314 77.770902 
L 323.062479 77.114791 
L 326.341818 76.456158 
L 329.621157 75.810064 
L 332.900496 75.106393 
L 336.179835 74.445169 
L 339.459174 73.887051 
L 342.738512 73.345043 
L 346.017851 72.819846 
L 349.29719 72.307398 
L 352.576529 71.787874 
L 355.855868 71.226324 
L 359.135207 70.645232 
L 362.414545 70.133693 
L 365.693884 69.688698 
L 368.973223 69.200415 
L 372.252562 68.711221 
L 375.531901 68.143507 
L 378.81124 67.707618 
L 382.090579 67.239577 
L 385.369917 66.831075 
L 388.649256 66.388742 
L 391.928595 66.021006 
L 395.207934 65.626653 
L 398.487273 65.234331 
" clip-path="url(#p0ed9df1315)" style="fill: none; stroke: #cd853f; stroke-width: 2; stroke-linecap: square"/>
   </g>
   <g id="line2d_29">
    <path d="M 73.832727 289.148268 
L 77.112066 275.578885 
L 80.391405 263.379721 
L 83.670744 252.584188 
L 86.950083 242.761578 
L 90.229421 233.556834 
L 93.50876 225.027184 
L 96.788099 217.106154 
L 100.067438 209.783377 
L 103.346777 202.862519 
L 106.626116 196.265478 
L 109.905455 190.154268 
L 113.184793 184.455834 
L 116.464132 178.872203 
L 119.743471 173.919326 
L 123.02281 168.915247 
L 126.302149 164.062464 
L 129.581488 159.526775 
L 132.860826 155.348176 
L 136.140165 151.55097 
L 139.419504 147.9183 
L 142.698843 144.342437 
L 145.978182 140.889012 
L 149.257521 137.792816 
L 152.53686 134.748174 
L 155.816198 132.006475 
L 159.095537 129.30022 
L 162.374876 126.439165 
L 165.654215 123.831953 
L 168.933554 121.31727 
L 172.212893 119.191477 
L 175.492231 116.925103 
L 178.77157 114.663773 
L 182.050909 112.525511 
L 185.330248 110.427876 
L 188.609587 108.417867 
L 191.888926 106.724601 
L 195.168264 105.097878 
L 198.447603 103.503165 
L 201.726942 101.90572 
L 205.006281 100.293216 
L 208.28562 98.707189 
L 211.564959 97.236246 
L 214.844298 95.594042 
L 218.123636 94.227326 
L 221.402975 93.083352 
L 224.682314 91.865341 
L 227.961653 90.598158 
L 231.240992 89.305199 
L 234.520331 88.030662 
L 237.799669 86.806627 
L 241.079008 85.631273 
L 244.358347 84.585572 
L 247.637686 83.573563 
L 250.917025 82.472317 
L 254.196364 81.436212 
L 257.475702 80.5589 
L 260.755041 79.808368 
L 264.03438 78.965518 
L 267.313719 78.183956 
L 270.593058 77.355745 
L 273.872397 76.611938 
L 277.151736 75.825544 
L 280.431074 75.137072 
L 283.710413 74.454134 
L 286.989752 73.798304 
L 290.269091 73.159984 
L 293.54843 72.444686 
L 296.827769 71.852176 
L 300.107107 71.221281 
L 303.386446 70.605726 
L 306.665785 69.92566 
L 309.945124 69.306953 
L 313.224463 68.78701 
L 316.503802 68.201154 
L 319.78314 67.575513 
L 323.062479 67.003246 
L 326.341818 66.488346 
L 329.621157 66.035645 
L 332.900496 65.526839 
L 336.179835 64.908833 
L 339.459174 64.352676 
L 342.738512 63.868455 
L 346.017851 63.400555 
L 349.29719 62.894621 
L 352.576529 62.415303 
L 355.855868 62.064098 
L 359.135207 61.643128 
L 362.414545 61.196311 
L 365.693884 60.822272 
L 368.973223 60.356683 
L 372.252562 60.053739 
L 375.531901 59.724598 
L 378.81124 59.364847 
L 382.090579 59.061833 
L 385.369917 58.63645 
L 388.649256 58.291829 
L 391.928595 57.992597 
L 395.207934 57.722784 
L 398.487273 57.431607 
" clip-path="url(#p0ed9df1315)" style="fill: none; stroke: #4b0082; stroke-width: 2; stroke-linecap: square"/>
   </g>
   <g id="line2d_30">
    <path d="M 73.832727 290.640155 
L 77.112066 277.849321 
L 80.391405 266.037016 
L 83.670744 255.779847 
L 86.950083 246.295765 
L 90.229421 237.629456 
L 93.50876 229.068986 
L 96.788099 221.327761 
L 100.067438 214.157403 
L 103.346777 207.38693 
L 106.626116 201.19552 
L 109.905455 195.107775 
L 113.184793 189.493745 
L 116.464132 184.057138 
L 119.743471 178.72791 
L 123.02281 173.763546 
L 126.302149 169.41999 
L 129.581488 164.934664 
L 132.860826 160.690152 
L 136.140165 156.757619 
L 139.419504 152.911383 
L 142.698843 149.308832 
L 145.978182 145.755383 
L 149.257521 142.449263 
L 152.53686 139.21739 
L 155.816198 136.11454 
L 159.095537 133.097495 
L 162.374876 130.429694 
L 165.654215 127.712582 
L 168.933554 125.159584 
L 172.212893 122.896783 
L 175.492231 120.525902 
L 178.77157 118.356821 
L 182.050909 116.191102 
L 185.330248 114.054942 
L 188.609587 111.9627 
L 191.888926 110.156662 
L 195.168264 108.280719 
L 198.447603 106.521681 
L 201.726942 104.951834 
L 205.006281 103.302906 
L 208.28562 101.684378 
L 211.564959 100.035521 
L 214.844298 98.466655 
L 218.123636 96.99326 
L 221.402975 95.632217 
L 224.682314 94.258846 
L 227.961653 92.989702 
L 231.240992 91.662001 
L 234.520331 90.497574 
L 237.799669 89.211549 
L 241.079008 88.020295 
L 244.358347 86.840248 
L 247.637686 85.781729 
L 250.917025 84.826947 
L 254.196364 83.871254 
L 257.475702 82.85175 
L 260.755041 81.877565 
L 264.03438 80.959767 
L 267.313719 80.074189 
L 270.593058 79.1725 
L 273.872397 78.370696 
L 277.151736 77.486099 
L 280.431074 76.694451 
L 283.710413 75.889635 
L 286.989752 75.063105 
L 290.269091 74.298635 
L 293.54843 73.581375 
L 296.827769 72.900328 
L 300.107107 72.286104 
L 303.386446 71.685609 
L 306.665785 71.119366 
L 309.945124 70.436007 
L 313.224463 69.839855 
L 316.503802 69.294345 
L 319.78314 68.66212 
L 323.062479 68.033817 
L 326.341818 67.451743 
L 329.621157 66.866728 
L 332.900496 66.27716 
L 336.179835 65.835877 
L 339.459174 65.35747 
L 342.738512 64.901478 
L 346.017851 64.399466 
L 349.29719 63.934157 
L 352.576529 63.450567 
L 355.855868 63.051101 
L 359.135207 62.663122 
L 362.414545 62.226882 
L 365.693884 61.83253 
L 368.973223 61.433554 
L 372.252562 61.056642 
L 375.531901 60.638334 
L 378.81124 60.299807 
L 382.090579 59.937114 
L 385.369917 59.605381 
L 388.649256 59.227629 
L 391.928595 58.805048 
L 395.207934 58.492928 
L 398.487273 58.214779 
" clip-path="url(#p0ed9df1315)" style="fill: none; stroke: #d2b48c; stroke-width: 2; stroke-linecap: square"/>
   </g>
   <g id="line2d_31">
    <path d="M 73.832727 291.519989 
L 77.112066 279.153488 
L 80.391405 268.084219 
L 83.670744 257.667348 
L 86.950083 247.95709 
L 90.229421 239.117841 
L 93.50876 230.63477 
L 96.788099 222.892425 
L 100.067438 215.582116 
L 103.346777 208.854021 
L 106.626116 202.44344 
L 109.905455 196.070753 
L 113.184793 190.393822 
L 116.464132 184.987194 
L 119.743471 179.673937 
L 123.02281 174.593018 
L 126.302149 169.791579 
L 129.581488 165.307723 
L 132.860826 160.914646 
L 136.140165 156.626565 
L 139.419504 152.913974 
L 142.698843 149.210139 
L 145.978182 145.661803 
L 149.257521 142.478682 
L 152.53686 139.113163 
L 155.816198 136.197263 
L 159.095537 133.207466 
L 162.374876 130.482018 
L 165.654215 127.686105 
L 168.933554 124.984752 
L 172.212893 122.596991 
L 175.492231 120.187305 
L 178.77157 117.976757 
L 182.050909 115.632704 
L 185.330248 113.545435 
L 188.609587 111.411377 
L 191.888926 109.390791 
L 195.168264 107.343938 
L 198.447603 105.381349 
L 201.726942 103.632958 
L 205.006281 101.886808 
L 208.28562 100.186468 
L 211.564959 98.638615 
L 214.844298 97.144066 
L 218.123636 95.736864 
L 221.402975 94.304305 
L 224.682314 92.911882 
L 227.961653 91.572903 
L 231.240992 90.33514 
L 234.520331 89.157334 
L 237.799669 88.065544 
L 241.079008 86.870227 
L 244.358347 85.714416 
L 247.637686 84.67628 
L 250.917025 83.608095 
L 254.196364 82.584179 
L 257.475702 81.602919 
L 260.755041 80.640502 
L 264.03438 79.652098 
L 267.313719 78.749569 
L 270.593058 77.905668 
L 273.872397 77.029756 
L 277.151736 76.150132 
L 280.431074 75.272609 
L 283.710413 74.430039 
L 286.989752 73.71502 
L 290.269091 73.022696 
L 293.54843 72.321477 
L 296.827769 71.675032 
L 300.107107 71.029218 
L 303.386446 70.334722 
L 306.665785 69.687577 
L 309.945124 69.125257 
L 313.224463 68.529805 
L 316.503802 67.858985 
L 319.78314 67.249944 
L 323.062479 66.613376 
L 326.341818 66.075501 
L 329.621157 65.541548 
L 332.900496 65.10832 
L 336.179835 64.597413 
L 339.459174 64.123559 
L 342.738512 63.606347 
L 346.017851 63.188739 
L 349.29719 62.687848 
L 352.576529 62.183665 
L 355.855868 61.638365 
L 359.135207 61.155755 
L 362.414545 60.718185 
L 365.693884 60.339662 
L 368.973223 59.986496 
L 372.252562 59.593333 
L 375.531901 59.153731 
L 378.81124 58.79321 
L 382.090579 58.352207 
L 385.369917 58.012349 
L 388.649256 57.650217 
L 391.928595 57.318975 
L 395.207934 57.033822 
L 398.487273 56.677503 
" clip-path="url(#p0ed9df1315)" style="fill: none; stroke: #98fb98; stroke-width: 2; stroke-linecap: square"/>
   </g>
   <g id="patch_3">
    <path d="M 57.6 307.584 
L 57.6 41.472 
" style="fill: none; stroke: #000000; stroke-width: 0.8; stroke-linejoin: miter; stroke-linecap: square"/>
   </g>
   <g id="patch_4">
    <path d="M 414.72 307.584 
L 414.72 41.472 
" style="fill: none; stroke: #000000; stroke-width: 0.8; stroke-linejoin: miter; stroke-linecap: square"/>
   </g>
   <g id="patch_5">
    <path d="M 57.6 307.584 
L 414.72 307.584 
" style="fill: none; stroke: #000000; stroke-width: 0.8; stroke-linejoin: miter; stroke-linecap: square"/>
   </g>
   <g id="patch_6">
    <path d="M 57.6 41.472 
L 414.72 41.472 
" style="fill: none; stroke: #000000; stroke-width: 0.8; stroke-linejoin: miter; stroke-linecap: square"/>
   </g>
   <g id="text_15">
    <!-- QD_score for Global -->
    <g transform="translate(176.49375 35.472) scale(0.12 -0.12)">
     <defs>
      <path id="DejaVuSans-51" d="M 2522 4238 
Q 1834 4238 1429 3725 
Q 1025 3213 1025 2328 
Q 1025 1447 1429 934 
Q 1834 422 2522 422 
Q 3209 422 3611 934 
Q 4013 1447 4013 2328 
Q 4013 3213 3611 3725 
Q 3209 4238 2522 4238 
z
M 3406 84 
L 4238 -825 
L 3475 -825 
L 2784 -78 
Q 2681 -84 2626 -87 
Q 2572 -91 2522 -91 
Q 1538 -91 948 567 
Q 359 1225 359 2328 
Q 359 3434 948 4092 
Q 1538 4750 2522 4750 
Q 3503 4750 4090 4092 
Q 4678 3434 4678 2328 
Q 4678 1516 4351 937 
Q 4025 359 3406 84 
z
" transform="scale(0.015625)"/>
      <path id="DejaVuSans-44" d="M 1259 4147 
L 1259 519 
L 2022 519 
Q 2988 519 3436 956 
Q 3884 1394 3884 2338 
Q 3884 3275 3436 3711 
Q 2988 4147 2022 4147 
L 1259 4147 
z
M 628 4666 
L 1925 4666 
Q 3281 4666 3915 4102 
Q 4550 3538 4550 2338 
Q 4550 1131 3912 565 
Q 3275 0 1925 0 
L 628 0 
L 628 4666 
z
" transform="scale(0.015625)"/>
      <path id="DejaVuSans-5f" d="M 3263 -1063 
L 3263 -1509 
L -63 -1509 
L -63 -1063 
L 3263 -1063 
z
" transform="scale(0.015625)"/>
      <path id="DejaVuSans-63" d="M 3122 3366 
L 3122 2828 
Q 2878 2963 2633 3030 
Q 2388 3097 2138 3097 
Q 1578 3097 1268 2742 
Q 959 2388 959 1747 
Q 959 1106 1268 751 
Q 1578 397 2138 397 
Q 2388 397 2633 464 
Q 2878 531 3122 666 
L 3122 134 
Q 2881 22 2623 -34 
Q 2366 -91 2075 -91 
Q 1284 -91 818 406 
Q 353 903 353 1747 
Q 353 2603 823 3093 
Q 1294 3584 2113 3584 
Q 2378 3584 2631 3529 
Q 2884 3475 3122 3366 
z
" transform="scale(0.015625)"/>
      <path id="DejaVuSans-72" d="M 2631 2963 
Q 2534 3019 2420 3045 
Q 2306 3072 2169 3072 
Q 1681 3072 1420 2755 
Q 1159 2438 1159 1844 
L 1159 0 
L 581 0 
L 581 3500 
L 1159 3500 
L 1159 2956 
Q 1341 3275 1631 3429 
Q 1922 3584 2338 3584 
Q 2397 3584 2469 3576 
Q 2541 3569 2628 3553 
L 2631 2963 
z
" transform="scale(0.015625)"/>
      <path id="DejaVuSans-65" d="M 3597 1894 
L 3597 1613 
L 953 1613 
Q 991 1019 1311 708 
Q 1631 397 2203 397 
Q 2534 397 2845 478 
Q 3156 559 3463 722 
L 3463 178 
Q 3153 47 2828 -22 
Q 2503 -91 2169 -91 
Q 1331 -91 842 396 
Q 353 884 353 1716 
Q 353 2575 817 3079 
Q 1281 3584 2069 3584 
Q 2775 3584 3186 3129 
Q 3597 2675 3597 1894 
z
M 3022 2063 
Q 3016 2534 2758 2815 
Q 2500 3097 2075 3097 
Q 1594 3097 1305 2825 
Q 1016 2553 972 2059 
L 3022 2063 
z
" transform="scale(0.015625)"/>
      <path id="DejaVuSans-20" transform="scale(0.015625)"/>
      <path id="DejaVuSans-66" d="M 2375 4863 
L 2375 4384 
L 1825 4384 
Q 1516 4384 1395 4259 
Q 1275 4134 1275 3809 
L 1275 3500 
L 2222 3500 
L 2222 3053 
L 1275 3053 
L 1275 0 
L 697 0 
L 697 3053 
L 147 3053 
L 147 3500 
L 697 3500 
L 697 3744 
Q 697 4328 969 4595 
Q 1241 4863 1831 4863 
L 2375 4863 
z
" transform="scale(0.015625)"/>
      <path id="DejaVuSans-47" d="M 3809 666 
L 3809 1919 
L 2778 1919 
L 2778 2438 
L 4434 2438 
L 4434 434 
Q 4069 175 3628 42 
Q 3188 -91 2688 -91 
Q 1594 -91 976 548 
Q 359 1188 359 2328 
Q 359 3472 976 4111 
Q 1594 4750 2688 4750 
Q 3144 4750 3555 4637 
Q 3966 4525 4313 4306 
L 4313 3634 
Q 3963 3931 3569 4081 
Q 3175 4231 2741 4231 
Q 1884 4231 1454 3753 
Q 1025 3275 1025 2328 
Q 1025 1384 1454 906 
Q 1884 428 2741 428 
Q 3075 428 3337 486 
Q 3600 544 3809 666 
z
" transform="scale(0.015625)"/>
      <path id="DejaVuSans-62" d="M 3116 1747 
Q 3116 2381 2855 2742 
Q 2594 3103 2138 3103 
Q 1681 3103 1420 2742 
Q 1159 2381 1159 1747 
Q 1159 1113 1420 752 
Q 1681 391 2138 391 
Q 2594 391 2855 752 
Q 3116 1113 3116 1747 
z
M 1159 2969 
Q 1341 3281 1617 3432 
Q 1894 3584 2278 3584 
Q 2916 3584 3314 3078 
Q 3713 2572 3713 1747 
Q 3713 922 3314 415 
Q 2916 -91 2278 -91 
Q 1894 -91 1617 61 
Q 1341 213 1159 525 
L 1159 0 
L 581 0 
L 581 4863 
L 1159 4863 
L 1159 2969 
z
" transform="scale(0.015625)"/>
     </defs>
     <use xlink:href="#DejaVuSans-51"/>
     <use xlink:href="#DejaVuSans-44" x="78.710938"/>
     <use xlink:href="#DejaVuSans-5f" x="155.712891"/>
     <use xlink:href="#DejaVuSans-73" x="205.712891"/>
     <use xlink:href="#DejaVuSans-63" x="257.8125"/>
     <use xlink:href="#DejaVuSans-6f" x="312.792969"/>
     <use xlink:href="#DejaVuSans-72" x="373.974609"/>
     <use xlink:href="#DejaVuSans-65" x="412.837891"/>
     <use xlink:href="#DejaVuSans-20" x="474.361328"/>
     <use xlink:href="#DejaVuSans-66" x="506.148438"/>
     <use xlink:href="#DejaVuSans-6f" x="541.353516"/>
     <use xlink:href="#DejaVuSans-72" x="602.535156"/>
     <use xlink:href="#DejaVuSans-20" x="643.648438"/>
     <use xlink:href="#DejaVuSans-47" x="675.435547"/>
     <use xlink:href="#DejaVuSans-6c" x="752.925781"/>
     <use xlink:href="#DejaVuSans-6f" x="780.708984"/>
     <use xlink:href="#DejaVuSans-62" x="841.890625"/>
     <use xlink:href="#DejaVuSans-61" x="905.367188"/>
     <use xlink:href="#DejaVuSans-6c" x="966.646484"/>
    </g>
   </g>
   <g id="legend_1">
    <g id="patch_7">
     <path d="M 64.6 124.25325 
L 203.5625 124.25325 
Q 205.5625 124.25325 205.5625 122.25325 
L 205.5625 48.472 
Q 205.5625 46.472 203.5625 46.472 
L 64.6 46.472 
Q 62.6 46.472 62.6 48.472 
L 62.6 122.25325 
Q 62.6 124.25325 64.6 124.25325 
z
" style="fill: #ffffff; opacity: 0.8; stroke: #cccccc; stroke-linejoin: miter"/>
    </g>
    <g id="line2d_32">
     <path d="M 66.6 54.570438 
L 76.6 54.570438 
L 86.6 54.570438 
" style="fill: none; stroke: #ff00ff; stroke-width: 2; stroke-linecap: square"/>
    </g>
    <g id="text_16">
     <!-- G_S_B_exLimit -->
     <g transform="translate(94.6 58.070438) scale(0.1 -0.1)">
      <defs>
       <path id="DejaVuSans-53" d="M 3425 4513 
L 3425 3897 
Q 3066 4069 2747 4153 
Q 2428 4238 2131 4238 
Q 1616 4238 1336 4038 
Q 1056 3838 1056 3469 
Q 1056 3159 1242 3001 
Q 1428 2844 1947 2747 
L 2328 2669 
Q 3034 2534 3370 2195 
Q 3706 1856 3706 1288 
Q 3706 609 3251 259 
Q 2797 -91 1919 -91 
Q 1588 -91 1214 -16 
Q 841 59 441 206 
L 441 856 
Q 825 641 1194 531 
Q 1563 422 1919 422 
Q 2459 422 2753 634 
Q 3047 847 3047 1241 
Q 3047 1584 2836 1778 
Q 2625 1972 2144 2069 
L 1759 2144 
Q 1053 2284 737 2584 
Q 422 2884 422 3419 
Q 422 4038 858 4394 
Q 1294 4750 2059 4750 
Q 2388 4750 2728 4690 
Q 3069 4631 3425 4513 
z
" transform="scale(0.015625)"/>
       <path id="DejaVuSans-42" d="M 1259 2228 
L 1259 519 
L 2272 519 
Q 2781 519 3026 730 
Q 3272 941 3272 1375 
Q 3272 1813 3026 2020 
Q 2781 2228 2272 2228 
L 1259 2228 
z
M 1259 4147 
L 1259 2741 
L 2194 2741 
Q 2656 2741 2882 2914 
Q 3109 3088 3109 3444 
Q 3109 3797 2882 3972 
Q 2656 4147 2194 4147 
L 1259 4147 
z
M 628 4666 
L 2241 4666 
Q 2963 4666 3353 4366 
Q 3744 4066 3744 3513 
Q 3744 3084 3544 2831 
Q 3344 2578 2956 2516 
Q 3422 2416 3680 2098 
Q 3938 1781 3938 1306 
Q 3938 681 3513 340 
Q 3088 0 2303 0 
L 628 0 
L 628 4666 
z
" transform="scale(0.015625)"/>
       <path id="DejaVuSans-78" d="M 3513 3500 
L 2247 1797 
L 3578 0 
L 2900 0 
L 1881 1375 
L 863 0 
L 184 0 
L 1544 1831 
L 300 3500 
L 978 3500 
L 1906 2253 
L 2834 3500 
L 3513 3500 
z
" transform="scale(0.015625)"/>
       <path id="DejaVuSans-4c" d="M 628 4666 
L 1259 4666 
L 1259 531 
L 3531 531 
L 3531 0 
L 628 0 
L 628 4666 
z
" transform="scale(0.015625)"/>
       <path id="DejaVuSans-6d" d="M 3328 2828 
Q 3544 3216 3844 3400 
Q 4144 3584 4550 3584 
Q 5097 3584 5394 3201 
Q 5691 2819 5691 2113 
L 5691 0 
L 5113 0 
L 5113 2094 
Q 5113 2597 4934 2840 
Q 4756 3084 4391 3084 
Q 3944 3084 3684 2787 
Q 3425 2491 3425 1978 
L 3425 0 
L 2847 0 
L 2847 2094 
Q 2847 2600 2669 2842 
Q 2491 3084 2119 3084 
Q 1678 3084 1418 2786 
Q 1159 2488 1159 1978 
L 1159 0 
L 581 0 
L 581 3500 
L 1159 3500 
L 1159 2956 
Q 1356 3278 1631 3431 
Q 1906 3584 2284 3584 
Q 2666 3584 2933 3390 
Q 3200 3197 3328 2828 
z
" transform="scale(0.015625)"/>
      </defs>
      <use xlink:href="#DejaVuSans-47"/>
      <use xlink:href="#DejaVuSans-5f" x="77.490234"/>
      <use xlink:href="#DejaVuSans-53" x="127.490234"/>
      <use xlink:href="#DejaVuSans-5f" x="190.966797"/>
      <use xlink:href="#DejaVuSans-42" x="240.966797"/>
      <use xlink:href="#DejaVuSans-5f" x="309.570312"/>
      <use xlink:href="#DejaVuSans-65" x="359.570312"/>
      <use xlink:href="#DejaVuSans-78" x="419.34375"/>
      <use xlink:href="#DejaVuSans-4c" x="478.523438"/>
      <use xlink:href="#DejaVuSans-69" x="534.236328"/>
      <use xlink:href="#DejaVuSans-6d" x="562.019531"/>
      <use xlink:href="#DejaVuSans-69" x="659.431641"/>
      <use xlink:href="#DejaVuSans-74" x="687.214844"/>
     </g>
    </g>
    <g id="line2d_33">
     <path d="M 66.6 69.526688 
L 76.6 69.526688 
L 86.6 69.526688 
" style="fill: none; stroke: #cd853f; stroke-width: 2; stroke-linecap: square"/>
    </g>
    <g id="text_17">
     <!-- G_SUfq_B_exLimit -->
     <g transform="translate(94.6 73.026688) scale(0.1 -0.1)">
      <defs>
       <path id="DejaVuSans-55" d="M 556 4666 
L 1191 4666 
L 1191 1831 
Q 1191 1081 1462 751 
Q 1734 422 2344 422 
Q 2950 422 3222 751 
Q 3494 1081 3494 1831 
L 3494 4666 
L 4128 4666 
L 4128 1753 
Q 4128 841 3676 375 
Q 3225 -91 2344 -91 
Q 1459 -91 1007 375 
Q 556 841 556 1753 
L 556 4666 
z
" transform="scale(0.015625)"/>
       <path id="DejaVuSans-71" d="M 947 1747 
Q 947 1113 1208 752 
Q 1469 391 1925 391 
Q 2381 391 2643 752 
Q 2906 1113 2906 1747 
Q 2906 2381 2643 2742 
Q 2381 3103 1925 3103 
Q 1469 3103 1208 2742 
Q 947 2381 947 1747 
z
M 2906 525 
Q 2725 213 2448 61 
Q 2172 -91 1784 -91 
Q 1150 -91 751 415 
Q 353 922 353 1747 
Q 353 2572 751 3078 
Q 1150 3584 1784 3584 
Q 2172 3584 2448 3432 
Q 2725 3281 2906 2969 
L 2906 3500 
L 3481 3500 
L 3481 -1331 
L 2906 -1331 
L 2906 525 
z
" transform="scale(0.015625)"/>
      </defs>
      <use xlink:href="#DejaVuSans-47"/>
      <use xlink:href="#DejaVuSans-5f" x="77.490234"/>
      <use xlink:href="#DejaVuSans-53" x="127.490234"/>
      <use xlink:href="#DejaVuSans-55" x="190.966797"/>
      <use xlink:href="#DejaVuSans-66" x="264.160156"/>
      <use xlink:href="#DejaVuSans-71" x="299.365234"/>
      <use xlink:href="#DejaVuSans-5f" x="362.841797"/>
      <use xlink:href="#DejaVuSans-42" x="412.841797"/>
      <use xlink:href="#DejaVuSans-5f" x="481.445312"/>
      <use xlink:href="#DejaVuSans-65" x="531.445312"/>
      <use xlink:href="#DejaVuSans-78" x="591.21875"/>
      <use xlink:href="#DejaVuSans-4c" x="650.398438"/>
      <use xlink:href="#DejaVuSans-69" x="706.111328"/>
      <use xlink:href="#DejaVuSans-6d" x="733.894531"/>
      <use xlink:href="#DejaVuSans-69" x="831.306641"/>
      <use xlink:href="#DejaVuSans-74" x="859.089844"/>
     </g>
    </g>
    <g id="line2d_34">
     <path d="M 66.6 84.482938 
L 76.6 84.482938 
L 86.6 84.482938 
" style="fill: none; stroke: #4b0082; stroke-width: 2; stroke-linecap: square"/>
    </g>
    <g id="text_18">
     <!-- G_T_B_exLimit -->
     <g transform="translate(94.6 87.982938) scale(0.1 -0.1)">
      <defs>
       <path id="DejaVuSans-54" d="M -19 4666 
L 3928 4666 
L 3928 4134 
L 2272 4134 
L 2272 0 
L 1638 0 
L 1638 4134 
L -19 4134 
L -19 4666 
z
" transform="scale(0.015625)"/>
      </defs>
      <use xlink:href="#DejaVuSans-47"/>
      <use xlink:href="#DejaVuSans-5f" x="77.490234"/>
      <use xlink:href="#DejaVuSans-54" x="127.490234"/>
      <use xlink:href="#DejaVuSans-5f" x="188.574219"/>
      <use xlink:href="#DejaVuSans-42" x="238.574219"/>
      <use xlink:href="#DejaVuSans-5f" x="307.177734"/>
      <use xlink:href="#DejaVuSans-65" x="357.177734"/>
      <use xlink:href="#DejaVuSans-78" x="416.951172"/>
      <use xlink:href="#DejaVuSans-4c" x="476.130859"/>
      <use xlink:href="#DejaVuSans-69" x="531.84375"/>
      <use xlink:href="#DejaVuSans-6d" x="559.626953"/>
      <use xlink:href="#DejaVuSans-69" x="657.039062"/>
      <use xlink:href="#DejaVuSans-74" x="684.822266"/>
     </g>
    </g>
    <g id="line2d_35">
     <path d="M 66.6 99.439188 
L 76.6 99.439188 
L 86.6 99.439188 
" style="fill: none; stroke: #d2b48c; stroke-width: 2; stroke-linecap: square"/>
    </g>
    <g id="text_19">
     <!-- G_TWoff_B_exLimit -->
     <g transform="translate(94.6 102.939188) scale(0.1 -0.1)">
      <defs>
       <path id="DejaVuSans-57" d="M 213 4666 
L 850 4666 
L 1831 722 
L 2809 4666 
L 3519 4666 
L 4500 722 
L 5478 4666 
L 6119 4666 
L 4947 0 
L 4153 0 
L 3169 4050 
L 2175 0 
L 1381 0 
L 213 4666 
z
" transform="scale(0.015625)"/>
      </defs>
      <use xlink:href="#DejaVuSans-47"/>
      <use xlink:href="#DejaVuSans-5f" x="77.490234"/>
      <use xlink:href="#DejaVuSans-54" x="127.490234"/>
      <use xlink:href="#DejaVuSans-57" x="188.574219"/>
      <use xlink:href="#DejaVuSans-6f" x="281.576172"/>
      <use xlink:href="#DejaVuSans-66" x="342.757812"/>
      <use xlink:href="#DejaVuSans-66" x="377.962891"/>
      <use xlink:href="#DejaVuSans-5f" x="413.167969"/>
      <use xlink:href="#DejaVuSans-42" x="463.167969"/>
      <use xlink:href="#DejaVuSans-5f" x="531.771484"/>
      <use xlink:href="#DejaVuSans-65" x="581.771484"/>
      <use xlink:href="#DejaVuSans-78" x="641.544922"/>
      <use xlink:href="#DejaVuSans-4c" x="700.724609"/>
      <use xlink:href="#DejaVuSans-69" x="756.4375"/>
      <use xlink:href="#DejaVuSans-6d" x="784.220703"/>
      <use xlink:href="#DejaVuSans-69" x="881.632812"/>
      <use xlink:href="#DejaVuSans-74" x="909.416016"/>
     </g>
    </g>
    <g id="line2d_36">
     <path d="M 66.6 114.395438 
L 76.6 114.395438 
L 86.6 114.395438 
" style="fill: none; stroke: #98fb98; stroke-width: 2; stroke-linecap: square"/>
    </g>
    <g id="text_20">
     <!-- G_TWoffFq_B_exLimit -->
     <g transform="translate(94.6 117.895438) scale(0.1 -0.1)">
      <defs>
       <path id="DejaVuSans-46" d="M 628 4666 
L 3309 4666 
L 3309 4134 
L 1259 4134 
L 1259 2759 
L 3109 2759 
L 3109 2228 
L 1259 2228 
L 1259 0 
L 628 0 
L 628 4666 
z
" transform="scale(0.015625)"/>
      </defs>
      <use xlink:href="#DejaVuSans-47"/>
      <use xlink:href="#DejaVuSans-5f" x="77.490234"/>
      <use xlink:href="#DejaVuSans-54" x="127.490234"/>
      <use xlink:href="#DejaVuSans-57" x="188.574219"/>
      <use xlink:href="#DejaVuSans-6f" x="281.576172"/>
      <use xlink:href="#DejaVuSans-66" x="342.757812"/>
      <use xlink:href="#DejaVuSans-66" x="377.962891"/>
      <use xlink:href="#DejaVuSans-46" x="413.167969"/>
      <use xlink:href="#DejaVuSans-71" x="470.6875"/>
      <use xlink:href="#DejaVuSans-5f" x="534.164062"/>
      <use xlink:href="#DejaVuSans-42" x="584.164062"/>
      <use xlink:href="#DejaVuSans-5f" x="652.767578"/>
      <use xlink:href="#DejaVuSans-65" x="702.767578"/>
      <use xlink:href="#DejaVuSans-78" x="762.541016"/>
      <use xlink:href="#DejaVuSans-4c" x="821.720703"/>
      <use xlink:href="#DejaVuSans-69" x="877.433594"/>
      <use xlink:href="#DejaVuSans-6d" x="905.216797"/>
      <use xlink:href="#DejaVuSans-69" x="1002.628906"/>
      <use xlink:href="#DejaVuSans-74" x="1030.412109"/>
     </g>
    </g>
   </g>
  </g>
 </g>
 <defs>
  <clipPath id="p0ed9df1315">
   <rect x="57.6" y="41.472" width="357.12" height="266.112"/>
  </clipPath>
 </defs>
</svg>
