<?xml version="1.0" encoding="utf-8" standalone="no"?>
<!DOCTYPE svg PUBLIC "-//W3C//DTD SVG 1.1//EN"
  "http://www.w3.org/Graphics/SVG/1.1/DTD/svg11.dtd">
<svg xmlns:xlink="http://www.w3.org/1999/xlink" width="460.8pt" height="345.6pt" viewBox="0 0 460.8 345.6" xmlns="http://www.w3.org/2000/svg" version="1.1">
 <metadata>
  <rdf:RDF xmlns:dc="http://purl.org/dc/elements/1.1/" xmlns:cc="http://creativecommons.org/ns#" xmlns:rdf="http://www.w3.org/1999/02/22-rdf-syntax-ns#">
   <cc:Work>
    <dc:type rdf:resource="http://purl.org/dc/dcmitype/StillImage"/>
    <dc:date>2024-03-18T15:04:22.693494</dc:date>
    <dc:format>image/svg+xml</dc:format>
    <dc:creator>
     <cc:Agent>
      <dc:title>Matplotlib v3.7.2, https://matplotlib.org/</dc:title>
     </cc:Agent>
    </dc:creator>
   </cc:Work>
  </rdf:RDF>
 </metadata>
 <defs>
  <style type="text/css">*{stroke-linejoin: round; stroke-linecap: butt}</style>
 </defs>
 <g id="figure_1">
  <g id="patch_1">
   <path d="M 0 345.6 
L 460.8 345.6 
L 460.8 0 
L 0 0 
z
" style="fill: #ffffff"/>
  </g>
  <g id="axes_1">
   <g id="patch_2">
    <path d="M 57.6 307.584 
L 414.72 307.584 
L 414.72 41.472 
L 57.6 41.472 
z
" style="fill: #ffffff"/>
   </g>
   <g id="PolyCollection_1">
    <path d="M 73.832727 295.488 
L 73.832727 292.397448 
L 77.112066 284.638146 
L 80.391405 278.706158 
L 83.670744 273.547618 
L 86.950083 268.74878 
L 90.229421 264.723189 
L 93.50876 260.738653 
L 96.788099 257.172351 
L 100.067438 253.635608 
L 103.346777 250.376008 
L 106.626116 247.263083 
L 109.905455 244.045174 
L 113.184793 241.116908 
L 116.464132 238.443807 
L 119.743471 235.629179 
L 123.02281 232.788367 
L 126.302149 230.300518 
L 129.581488 227.681561 
L 132.860826 225.090415 
L 136.140165 222.757492 
L 139.419504 220.736028 
L 142.698843 218.506808 
L 145.978182 216.199638 
L 149.257521 213.973061 
L 152.53686 211.625217 
L 155.816198 209.46848 
L 159.095537 207.295739 
L 162.374876 205.008049 
L 165.654215 203.033419 
L 168.933554 201.163673 
L 172.212893 198.906195 
L 175.492231 197.023894 
L 178.77157 194.953456 
L 182.050909 193.256449 
L 185.330248 191.147846 
L 188.609587 189.42703 
L 191.888926 187.758054 
L 195.168264 186.092245 
L 198.447603 184.501385 
L 201.726942 182.84823 
L 205.006281 181.278819 
L 208.28562 179.874757 
L 211.564959 178.285985 
L 214.844298 176.820031 
L 218.123636 175.349326 
L 221.402975 173.854683 
L 224.682314 172.333285 
L 227.961653 170.965991 
L 231.240992 169.513004 
L 234.520331 167.953512 
L 237.799669 166.655169 
L 241.079008 165.341723 
L 244.358347 164.118185 
L 247.637686 162.91896 
L 250.917025 161.610012 
L 254.196364 160.376756 
L 257.475702 159.006621 
L 260.755041 157.755392 
L 264.03438 156.456869 
L 267.313719 155.489731 
L 270.593058 154.209154 
L 273.872397 152.976165 
L 277.151736 151.72642 
L 280.431074 150.528505 
L 283.710413 149.321222 
L 286.989752 148.211502 
L 290.269091 147.208078 
L 293.54843 145.955779 
L 296.827769 144.879918 
L 300.107107 143.849941 
L 303.386446 142.804699 
L 306.665785 141.841682 
L 309.945124 140.714596 
L 313.224463 139.585404 
L 316.503802 138.660561 
L 319.78314 137.802913 
L 323.062479 136.898105 
L 326.341818 135.833252 
L 329.621157 134.874223 
L 332.900496 133.8523 
L 336.179835 132.890199 
L 339.459174 131.987093 
L 342.738512 131.00806 
L 346.017851 130.070638 
L 349.29719 129.37168 
L 352.576529 128.443017 
L 355.855868 127.590365 
L 359.135207 126.701108 
L 362.414545 125.967847 
L 365.693884 125.257866 
L 368.973223 124.282804 
L 372.252562 123.498309 
L 375.531901 122.6822 
L 378.81124 122.014978 
L 382.090579 121.365589 
L 385.369917 120.592302 
L 388.649256 119.802058 
L 391.928595 119.034928 
L 395.207934 118.405911 
L 398.487273 117.648934 
L 398.487273 153.93622 
L 398.487273 153.93622 
L 395.207934 154.843789 
L 391.928595 155.567427 
L 388.649256 156.28203 
L 385.369917 157.221993 
L 382.090579 157.951484 
L 378.81124 158.696139 
L 375.531901 159.516963 
L 372.252562 160.364699 
L 368.973223 161.303818 
L 365.693884 162.074396 
L 362.414545 162.854005 
L 359.135207 163.537797 
L 355.855868 164.326837 
L 352.576529 165.213933 
L 349.29719 166.011969 
L 346.017851 166.777627 
L 342.738512 167.579392 
L 339.459174 168.391319 
L 336.179835 168.986782 
L 332.900496 169.826723 
L 329.621157 170.71698 
L 326.341818 171.48872 
L 323.062479 172.355128 
L 319.78314 173.32995 
L 316.503802 174.278272 
L 313.224463 175.187462 
L 309.945124 176.195634 
L 306.665785 177.076976 
L 303.386446 178.052656 
L 300.107107 179.010089 
L 296.827769 179.960759 
L 293.54843 180.877191 
L 290.269091 181.716519 
L 286.989752 182.714928 
L 283.710413 183.741029 
L 280.431074 184.805521 
L 277.151736 185.791552 
L 273.872397 186.829716 
L 270.593058 187.963066 
L 267.313719 188.962681 
L 264.03438 190.023753 
L 260.755041 191.021137 
L 257.475702 192.233055 
L 254.196364 193.471981 
L 250.917025 194.648558 
L 247.637686 195.891708 
L 244.358347 197.156612 
L 241.079008 198.189556 
L 237.799669 199.64694 
L 234.520331 200.692347 
L 231.240992 202.02673 
L 227.961653 203.257726 
L 224.682314 204.405631 
L 221.402975 205.465374 
L 218.123636 206.715465 
L 214.844298 207.96929 
L 211.564959 209.260277 
L 208.28562 210.274954 
L 205.006281 211.551647 
L 201.726942 212.743666 
L 198.447603 213.866112 
L 195.168264 215.106272 
L 191.888926 216.332233 
L 188.609587 217.69519 
L 185.330248 218.864881 
L 182.050909 220.282074 
L 178.77157 221.584731 
L 175.492231 223.155838 
L 172.212893 224.377726 
L 168.933554 225.647868 
L 165.654215 226.877962 
L 162.374876 228.236913 
L 159.095537 229.884282 
L 155.816198 231.279709 
L 152.53686 232.724812 
L 149.257521 234.237386 
L 145.978182 235.808932 
L 142.698843 237.4921 
L 139.419504 239.32435 
L 136.140165 241.057376 
L 132.860826 242.828716 
L 129.581488 244.636327 
L 126.302149 246.276527 
L 123.02281 248.033945 
L 119.743471 249.948679 
L 116.464132 251.868833 
L 113.184793 254.064502 
L 109.905455 256.380315 
L 106.626116 258.526022 
L 103.346777 260.824136 
L 100.067438 263.339518 
L 96.788099 266.02911 
L 93.50876 268.732637 
L 90.229421 271.968057 
L 86.950083 275.439238 
L 83.670744 279.001715 
L 80.391405 283.649323 
L 77.112066 288.911775 
L 73.832727 295.488 
z
" clip-path="url(#p8ae4a41a12)" style="fill-opacity: 0.5"/>
   </g>
   <g id="PolyCollection_2">
    <path d="M 73.832727 293.589204 
L 73.832727 289.988262 
L 77.112066 279.195296 
L 80.391405 270.191285 
L 83.670744 261.678 
L 86.950083 254.085777 
L 90.229421 247.154371 
L 93.50876 239.989861 
L 96.788099 233.428107 
L 100.067438 227.446208 
L 103.346777 221.276102 
L 106.626116 215.410828 
L 109.905455 210.254851 
L 113.184793 205.063244 
L 116.464132 200.290507 
L 119.743471 195.601891 
L 123.02281 191.289815 
L 126.302149 187.123302 
L 129.581488 183.010265 
L 132.860826 179.246139 
L 136.140165 175.658787 
L 139.419504 172.364353 
L 142.698843 169.080418 
L 145.978182 165.582464 
L 149.257521 162.397454 
L 152.53686 159.404447 
L 155.816198 156.617732 
L 159.095537 154.015513 
L 162.374876 151.445207 
L 165.654215 148.781484 
L 168.933554 146.147658 
L 172.212893 143.738696 
L 175.492231 141.150128 
L 178.77157 138.907123 
L 182.050909 136.675529 
L 185.330248 134.749622 
L 188.609587 132.627913 
L 191.888926 130.650214 
L 195.168264 128.507492 
L 198.447603 126.62248 
L 201.726942 124.650822 
L 205.006281 123.032503 
L 208.28562 121.258375 
L 211.564959 119.686271 
L 214.844298 118.138341 
L 218.123636 116.644395 
L 221.402975 115.091807 
L 224.682314 113.539844 
L 227.961653 111.896948 
L 231.240992 110.467799 
L 234.520331 109.001251 
L 237.799669 107.662451 
L 241.079008 106.493203 
L 244.358347 105.408781 
L 247.637686 104.085231 
L 250.917025 102.909943 
L 254.196364 101.630817 
L 257.475702 100.465864 
L 260.755041 99.41028 
L 264.03438 98.297218 
L 267.313719 97.255696 
L 270.593058 96.237283 
L 273.872397 95.173464 
L 277.151736 94.143589 
L 280.431074 93.189137 
L 283.710413 92.275719 
L 286.989752 91.585618 
L 290.269091 90.678672 
L 293.54843 89.74213 
L 296.827769 88.767974 
L 300.107107 88.000155 
L 303.386446 87.277567 
L 306.665785 86.413731 
L 309.945124 85.715283 
L 313.224463 85.02188 
L 316.503802 84.392451 
L 319.78314 83.637081 
L 323.062479 82.912495 
L 326.341818 82.100576 
L 329.621157 81.485042 
L 332.900496 80.758502 
L 336.179835 79.992294 
L 339.459174 79.371857 
L 342.738512 78.732064 
L 346.017851 78.215236 
L 349.29719 77.623043 
L 352.576529 76.918378 
L 355.855868 76.277783 
L 359.135207 75.735723 
L 362.414545 75.158193 
L 365.693884 74.561854 
L 368.973223 73.936953 
L 372.252562 73.268381 
L 375.531901 72.597893 
L 378.81124 72.131399 
L 382.090579 71.540976 
L 385.369917 71.023401 
L 388.649256 70.537233 
L 391.928595 70.099529 
L 395.207934 69.659799 
L 398.487273 69.167846 
L 398.487273 84.245879 
L 398.487273 84.245879 
L 395.207934 84.909174 
L 391.928595 85.343388 
L 388.649256 85.959635 
L 385.369917 86.352601 
L 382.090579 87.003463 
L 378.81124 87.639563 
L 375.531901 88.243435 
L 372.252562 88.964746 
L 368.973223 89.586674 
L 365.693884 90.379107 
L 362.414545 90.982493 
L 359.135207 91.784415 
L 355.855868 92.401813 
L 352.576529 93.071501 
L 349.29719 93.812932 
L 346.017851 94.61366 
L 342.738512 95.459027 
L 339.459174 96.212436 
L 336.179835 97.033465 
L 332.900496 97.844254 
L 329.621157 98.508391 
L 326.341818 99.267538 
L 323.062479 100.042298 
L 319.78314 100.906635 
L 316.503802 101.844012 
L 313.224463 102.843493 
L 309.945124 103.63491 
L 306.665785 104.585435 
L 303.386446 105.523501 
L 300.107107 106.419721 
L 296.827769 107.345911 
L 293.54843 108.376675 
L 290.269091 109.364379 
L 286.989752 110.288939 
L 283.710413 111.416735 
L 280.431074 112.482421 
L 277.151736 113.627593 
L 273.872397 114.829226 
L 270.593058 115.976291 
L 267.313719 117.197242 
L 264.03438 118.220409 
L 260.755041 119.555201 
L 257.475702 120.830739 
L 254.196364 122.100733 
L 250.917025 123.47753 
L 247.637686 124.84957 
L 244.358347 126.189378 
L 241.079008 127.708827 
L 237.799669 129.102481 
L 234.520331 130.623182 
L 231.240992 131.989197 
L 227.961653 133.549188 
L 224.682314 135.127352 
L 221.402975 136.713389 
L 218.123636 138.313674 
L 214.844298 139.893892 
L 211.564959 141.425738 
L 208.28562 143.395284 
L 205.006281 145.217526 
L 201.726942 147.13763 
L 198.447603 148.838666 
L 195.168264 150.84606 
L 191.888926 152.843658 
L 188.609587 154.798072 
L 185.330248 156.900023 
L 182.050909 159.006824 
L 178.77157 161.2722 
L 175.492231 163.573305 
L 172.212893 165.677709 
L 168.933554 168.040287 
L 165.654215 170.711571 
L 162.374876 173.436859 
L 159.095537 175.921645 
L 155.816198 178.506542 
L 152.53686 181.255735 
L 149.257521 183.812244 
L 145.978182 186.952062 
L 142.698843 189.867325 
L 139.419504 193.088366 
L 136.140165 196.220058 
L 132.860826 199.396679 
L 129.581488 203.144759 
L 126.302149 206.739508 
L 123.02281 210.27489 
L 119.743471 214.074251 
L 116.464132 218.166875 
L 113.184793 222.513506 
L 109.905455 226.743339 
L 106.626116 230.918025 
L 103.346777 235.728913 
L 100.067438 240.720697 
L 96.788099 246.017699 
L 93.50876 251.334639 
L 90.229421 257.12466 
L 86.950083 263.506258 
L 83.670744 269.841844 
L 80.391405 276.978718 
L 77.112066 284.86542 
L 73.832727 293.589204 
z
" clip-path="url(#p8ae4a41a12)" style="fill: #ff0000; fill-opacity: 0.5"/>
   </g>
   <g id="PolyCollection_3">
    <path d="M 73.832727 286.756495 
L 73.832727 282.983377 
L 77.112066 266.847323 
L 80.391405 253.87492 
L 83.670744 241.892228 
L 86.950083 231.449626 
L 90.229421 221.794542 
L 93.50876 212.853901 
L 96.788099 205.06602 
L 100.067438 197.806237 
L 103.346777 190.954024 
L 106.626116 184.909877 
L 109.905455 178.892287 
L 113.184793 173.115751 
L 116.464132 167.765374 
L 119.743471 162.845852 
L 123.02281 158.409604 
L 126.302149 153.831579 
L 129.581488 149.389114 
L 132.860826 145.397395 
L 136.140165 141.488671 
L 139.419504 137.870453 
L 142.698843 134.492939 
L 145.978182 131.372475 
L 149.257521 128.423838 
L 152.53686 125.478443 
L 155.816198 122.672706 
L 159.095537 120.052062 
L 162.374876 117.458247 
L 165.654215 114.745361 
L 168.933554 112.727283 
L 172.212893 110.368993 
L 175.492231 108.568399 
L 178.77157 106.344978 
L 182.050909 104.186149 
L 185.330248 102.508168 
L 188.609587 100.69199 
L 191.888926 99.049984 
L 195.168264 97.314641 
L 198.447603 95.688279 
L 201.726942 93.843097 
L 205.006281 92.361316 
L 208.28562 90.83131 
L 211.564959 89.481194 
L 214.844298 88.122029 
L 218.123636 86.71459 
L 221.402975 85.589584 
L 224.682314 84.56381 
L 227.961653 83.116819 
L 231.240992 81.942795 
L 234.520331 80.930713 
L 237.799669 79.979282 
L 241.079008 78.893406 
L 244.358347 78.093725 
L 247.637686 77.021801 
L 250.917025 76.31521 
L 254.196364 75.673922 
L 257.475702 74.787674 
L 260.755041 73.856301 
L 264.03438 73.086131 
L 267.313719 72.372188 
L 270.593058 71.469402 
L 273.872397 70.78904 
L 277.151736 70.140873 
L 280.431074 69.491103 
L 283.710413 68.625977 
L 286.989752 67.926292 
L 290.269091 67.328001 
L 293.54843 66.678492 
L 296.827769 66.093976 
L 300.107107 65.499495 
L 303.386446 64.890047 
L 306.665785 64.114998 
L 309.945124 63.614506 
L 313.224463 63.079441 
L 316.503802 62.607425 
L 319.78314 62.239207 
L 323.062479 61.674632 
L 326.341818 61.247309 
L 329.621157 60.773305 
L 332.900496 60.362243 
L 336.179835 60.018292 
L 339.459174 59.648687 
L 342.738512 59.176972 
L 346.017851 58.835879 
L 349.29719 58.398745 
L 352.576529 58.000359 
L 355.855868 57.664916 
L 359.135207 57.371261 
L 362.414545 57.037381 
L 365.693884 56.778902 
L 368.973223 56.445405 
L 372.252562 56.107729 
L 375.531901 55.777307 
L 378.81124 55.306306 
L 382.090579 55.025082 
L 385.369917 54.72769 
L 388.649256 54.434574 
L 391.928595 54.068692 
L 395.207934 53.827208 
L 398.487273 53.568 
L 398.487273 60.695773 
L 398.487273 60.695773 
L 395.207934 61.127273 
L 391.928595 61.459064 
L 388.649256 61.726647 
L 385.369917 62.08762 
L 382.090579 62.443897 
L 378.81124 62.605888 
L 375.531901 62.987504 
L 372.252562 63.185741 
L 368.973223 63.552523 
L 365.693884 63.932743 
L 362.414545 64.438631 
L 359.135207 64.92117 
L 355.855868 65.424293 
L 352.576529 65.949884 
L 349.29719 66.372407 
L 346.017851 66.834751 
L 342.738512 67.234735 
L 339.459174 67.686209 
L 336.179835 68.09472 
L 332.900496 68.74453 
L 329.621157 69.151851 
L 326.341818 69.661086 
L 323.062479 70.220229 
L 319.78314 70.672003 
L 316.503802 71.211401 
L 313.224463 71.802736 
L 309.945124 72.500366 
L 306.665785 73.18094 
L 303.386446 73.676609 
L 300.107107 74.392315 
L 296.827769 75.150769 
L 293.54843 75.754053 
L 290.269091 76.454111 
L 286.989752 77.143515 
L 283.710413 77.819775 
L 280.431074 78.479313 
L 277.151736 79.311276 
L 273.872397 80.286267 
L 270.593058 81.264838 
L 267.313719 82.10615 
L 264.03438 82.913786 
L 260.755041 83.867931 
L 257.475702 84.735093 
L 254.196364 85.70799 
L 250.917025 86.745559 
L 247.637686 87.709688 
L 244.358347 88.711713 
L 241.079008 89.724738 
L 237.799669 90.835575 
L 234.520331 92.244309 
L 231.240992 93.290461 
L 227.961653 94.569202 
L 224.682314 95.791182 
L 221.402975 97.053457 
L 218.123636 98.409979 
L 214.844298 99.807463 
L 211.564959 101.185735 
L 208.28562 102.710274 
L 205.006281 104.327528 
L 201.726942 105.77568 
L 198.447603 107.461766 
L 195.168264 109.136436 
L 191.888926 110.694409 
L 188.609587 112.549158 
L 185.330248 114.52984 
L 182.050909 116.612662 
L 178.77157 118.409796 
L 175.492231 120.436413 
L 172.212893 122.73447 
L 168.933554 125.212119 
L 165.654215 127.49613 
L 162.374876 130.131707 
L 159.095537 132.678147 
L 155.816198 135.507827 
L 152.53686 138.432597 
L 149.257521 141.626129 
L 145.978182 144.461313 
L 142.698843 147.757013 
L 139.419504 151.16578 
L 136.140165 154.859977 
L 132.860826 158.741117 
L 129.581488 162.549364 
L 126.302149 166.658745 
L 123.02281 170.782408 
L 119.743471 175.687768 
L 116.464132 180.345841 
L 113.184793 185.407578 
L 109.905455 190.714222 
L 106.626116 196.497598 
L 103.346777 202.643335 
L 100.067438 208.987114 
L 96.788099 215.413398 
L 93.50876 223.243547 
L 90.229421 231.56514 
L 86.950083 240.271276 
L 83.670744 250.332311 
L 80.391405 260.625413 
L 77.112066 272.373853 
L 73.832727 286.756495 
z
" clip-path="url(#p8ae4a41a12)" style="fill: #4169e1; fill-opacity: 0.5"/>
   </g>
   <g id="PolyCollection_4">
    <path d="M 73.832727 289.577733 
L 73.832727 286.115024 
L 77.112066 272.320678 
L 80.391405 261.24594 
L 83.670744 250.662306 
L 86.950083 241.754078 
L 90.229421 233.442578 
L 93.50876 225.856223 
L 96.788099 218.155829 
L 100.067438 211.387618 
L 103.346777 205.310202 
L 106.626116 199.314857 
L 109.905455 193.982882 
L 113.184793 188.704887 
L 116.464132 183.465585 
L 119.743471 178.332659 
L 123.02281 173.650152 
L 126.302149 169.170038 
L 129.581488 164.648682 
L 132.860826 160.530648 
L 136.140165 156.981966 
L 139.419504 153.29072 
L 142.698843 149.889413 
L 145.978182 146.434193 
L 149.257521 143.054259 
L 152.53686 139.947655 
L 155.816198 136.902781 
L 159.095537 133.959128 
L 162.374876 131.061166 
L 165.654215 128.409515 
L 168.933554 126.127751 
L 172.212893 123.758772 
L 175.492231 121.422472 
L 178.77157 119.109882 
L 182.050909 116.804424 
L 185.330248 114.875394 
L 188.609587 112.928421 
L 191.888926 110.926878 
L 195.168264 108.922431 
L 198.447603 107.101736 
L 201.726942 105.354543 
L 205.006281 103.681777 
L 208.28562 102.156643 
L 211.564959 100.598283 
L 214.844298 99.093658 
L 218.123636 97.681756 
L 221.402975 96.298476 
L 224.682314 95.069907 
L 227.961653 93.913319 
L 231.240992 92.478458 
L 234.520331 91.249754 
L 237.799669 90.183897 
L 241.079008 88.970509 
L 244.358347 87.780699 
L 247.637686 86.725566 
L 250.917025 85.726244 
L 254.196364 84.764185 
L 257.475702 83.724955 
L 260.755041 82.649005 
L 264.03438 81.832231 
L 267.313719 80.700796 
L 270.593058 79.708098 
L 273.872397 78.807237 
L 277.151736 77.950966 
L 280.431074 77.098101 
L 283.710413 76.228754 
L 286.989752 75.414417 
L 290.269091 74.592395 
L 293.54843 73.788057 
L 296.827769 73.08688 
L 300.107107 72.341867 
L 303.386446 71.593254 
L 306.665785 70.988635 
L 309.945124 70.215481 
L 313.224463 69.523366 
L 316.503802 68.889018 
L 319.78314 68.318497 
L 323.062479 67.724579 
L 326.341818 67.131685 
L 329.621157 66.644728 
L 332.900496 66.117207 
L 336.179835 65.623482 
L 339.459174 65.087685 
L 342.738512 64.586029 
L 346.017851 64.209446 
L 349.29719 63.685012 
L 352.576529 63.182038 
L 355.855868 62.719131 
L 359.135207 62.377157 
L 362.414545 61.851921 
L 365.693884 61.453233 
L 368.973223 60.980183 
L 372.252562 60.625187 
L 375.531901 60.176321 
L 378.81124 59.752585 
L 382.090579 59.458465 
L 385.369917 59.146313 
L 388.649256 58.654639 
L 391.928595 58.320304 
L 395.207934 57.923638 
L 398.487273 57.590453 
L 398.487273 68.116235 
L 398.487273 68.116235 
L 395.207934 68.529878 
L 391.928595 68.904594 
L 388.649256 69.276542 
L 385.369917 69.679014 
L 382.090579 70.088437 
L 378.81124 70.56654 
L 375.531901 71.003699 
L 372.252562 71.52348 
L 368.973223 71.971014 
L 365.693884 72.398844 
L 362.414545 72.87901 
L 359.135207 73.391731 
L 355.855868 73.931837 
L 352.576529 74.473915 
L 349.29719 75.074419 
L 346.017851 75.685451 
L 342.738512 76.124165 
L 339.459174 76.720514 
L 336.179835 77.408013 
L 332.900496 77.951824 
L 329.621157 78.446685 
L 326.341818 79.065451 
L 323.062479 79.678174 
L 319.78314 80.404642 
L 316.503802 81.017149 
L 313.224463 81.682422 
L 309.945124 82.397257 
L 306.665785 83.081984 
L 303.386446 83.732089 
L 300.107107 84.54953 
L 296.827769 85.294387 
L 293.54843 86.147199 
L 290.269091 86.8093 
L 286.989752 87.624887 
L 283.710413 88.450964 
L 280.431074 89.352653 
L 277.151736 90.300288 
L 273.872397 91.180538 
L 270.593058 92.418305 
L 267.313719 93.449186 
L 264.03438 94.519235 
L 260.755041 95.584616 
L 257.475702 96.71478 
L 254.196364 97.832417 
L 250.917025 98.861387 
L 247.637686 99.958322 
L 244.358347 101.194466 
L 241.079008 102.316136 
L 237.799669 103.578242 
L 234.520331 104.816569 
L 231.240992 106.232423 
L 227.961653 107.616235 
L 224.682314 109.000241 
L 221.402975 110.475438 
L 218.123636 111.948712 
L 214.844298 113.459588 
L 211.564959 115.112886 
L 208.28562 116.823851 
L 205.006281 118.639875 
L 201.726942 120.149586 
L 198.447603 122.199254 
L 195.168264 124.238555 
L 191.888926 126.17057 
L 188.609587 128.07406 
L 185.330248 130.222371 
L 182.050909 132.347796 
L 178.77157 134.346392 
L 175.492231 136.6649 
L 172.212893 139.11361 
L 168.933554 141.19053 
L 165.654215 143.636813 
L 162.374876 146.259406 
L 159.095537 148.944493 
L 155.816198 151.780452 
L 152.53686 154.664192 
L 149.257521 157.718122 
L 145.978182 160.883851 
L 142.698843 164.068015 
L 139.419504 167.366003 
L 136.140165 170.681874 
L 132.860826 174.517583 
L 129.581488 178.215508 
L 126.302149 182.54414 
L 123.02281 186.476692 
L 119.743471 190.762447 
L 116.464132 195.17583 
L 113.184793 200.100587 
L 109.905455 205.326604 
L 106.626116 210.741504 
L 103.346777 216.603386 
L 100.067438 222.34237 
L 96.788099 228.647386 
L 93.50876 234.852773 
L 90.229421 242.080797 
L 86.950083 249.436153 
L 83.670744 257.801662 
L 80.391405 266.725378 
L 77.112066 277.605703 
L 73.832727 289.577733 
z
" clip-path="url(#p8ae4a41a12)" style="fill: #ffd700; fill-opacity: 0.5"/>
   </g>
   <g id="PolyCollection_5">
    <path d="M 73.832727 291.183754 
L 73.832727 287.819436 
L 77.112066 277.13751 
L 80.391405 268.647466 
L 83.670744 261.474001 
L 86.950083 254.852894 
L 90.229421 249.075182 
L 93.50876 243.730564 
L 96.788099 238.693046 
L 100.067438 234.096435 
L 103.346777 229.972927 
L 106.626116 226.052719 
L 109.905455 222.562797 
L 113.184793 218.77023 
L 116.464132 215.234837 
L 119.743471 212.03645 
L 123.02281 208.594939 
L 126.302149 205.41426 
L 129.581488 202.091707 
L 132.860826 199.109255 
L 136.140165 196.488785 
L 139.419504 193.868194 
L 142.698843 191.225594 
L 145.978182 188.638107 
L 149.257521 186.008643 
L 152.53686 183.388232 
L 155.816198 181.000151 
L 159.095537 178.590985 
L 162.374876 176.157293 
L 165.654215 173.78234 
L 168.933554 171.492885 
L 172.212893 169.3288 
L 175.492231 167.249245 
L 178.77157 165.295027 
L 182.050909 163.314475 
L 185.330248 161.262267 
L 188.609587 159.38306 
L 191.888926 157.666797 
L 195.168264 155.711585 
L 198.447603 153.935153 
L 201.726942 152.213041 
L 205.006281 150.47338 
L 208.28562 148.674976 
L 211.564959 147.002253 
L 214.844298 145.222901 
L 218.123636 143.73713 
L 221.402975 142.057043 
L 224.682314 140.541926 
L 227.961653 139.214715 
L 231.240992 137.70288 
L 234.520331 136.423611 
L 237.799669 134.945466 
L 241.079008 133.470546 
L 244.358347 132.211009 
L 247.637686 131.043398 
L 250.917025 129.698971 
L 254.196364 128.418029 
L 257.475702 127.223295 
L 260.755041 126.002859 
L 264.03438 124.998319 
L 267.313719 123.936654 
L 270.593058 122.740124 
L 273.872397 121.421486 
L 277.151736 120.431952 
L 280.431074 119.40828 
L 283.710413 118.373254 
L 286.989752 117.547928 
L 290.269091 116.605687 
L 293.54843 115.631069 
L 296.827769 114.843197 
L 300.107107 113.96839 
L 303.386446 112.978801 
L 306.665785 112.032549 
L 309.945124 111.083217 
L 313.224463 110.256573 
L 316.503802 109.396129 
L 319.78314 108.824113 
L 323.062479 108.056745 
L 326.341818 107.170013 
L 329.621157 106.304725 
L 332.900496 105.49773 
L 336.179835 104.743527 
L 339.459174 103.890225 
L 342.738512 103.326668 
L 346.017851 102.456038 
L 349.29719 101.732669 
L 352.576529 100.951504 
L 355.855868 100.36991 
L 359.135207 99.772458 
L 362.414545 98.831101 
L 365.693884 98.141604 
L 368.973223 97.581655 
L 372.252562 96.994147 
L 375.531901 96.371214 
L 378.81124 95.769391 
L 382.090579 95.193628 
L 385.369917 94.487231 
L 388.649256 93.810041 
L 391.928595 93.198906 
L 395.207934 92.587769 
L 398.487273 92.123769 
L 398.487273 114.468733 
L 398.487273 114.468733 
L 395.207934 115.272224 
L 391.928595 116.054008 
L 388.649256 116.651157 
L 385.369917 117.485583 
L 382.090579 118.159761 
L 378.81124 118.952227 
L 375.531901 119.636835 
L 372.252562 120.416504 
L 368.973223 121.057062 
L 365.693884 121.835176 
L 362.414545 122.674693 
L 359.135207 123.495954 
L 355.855868 124.233338 
L 352.576529 124.930038 
L 349.29719 125.676765 
L 346.017851 126.539513 
L 342.738512 127.298354 
L 339.459174 127.894816 
L 336.179835 128.70564 
L 332.900496 129.66523 
L 329.621157 130.589846 
L 326.341818 131.383071 
L 323.062479 132.560186 
L 319.78314 133.672027 
L 316.503802 134.584689 
L 313.224463 135.31359 
L 309.945124 136.24325 
L 306.665785 136.9753 
L 303.386446 138.100051 
L 300.107107 139.16084 
L 296.827769 140.289268 
L 293.54843 141.302176 
L 290.269091 142.327427 
L 286.989752 143.268885 
L 283.710413 144.363315 
L 280.431074 145.562182 
L 277.151736 146.50639 
L 273.872397 147.647487 
L 270.593058 148.701501 
L 267.313719 149.900492 
L 264.03438 150.897062 
L 260.755041 152.045321 
L 257.475702 153.321563 
L 254.196364 154.465528 
L 250.917025 155.600312 
L 247.637686 156.702054 
L 244.358347 158.025651 
L 241.079008 159.337013 
L 237.799669 160.503144 
L 234.520331 161.935149 
L 231.240992 163.3386 
L 227.961653 164.724568 
L 224.682314 166.200037 
L 221.402975 167.598156 
L 218.123636 169.062664 
L 214.844298 170.57389 
L 211.564959 171.925104 
L 208.28562 173.588067 
L 205.006281 174.978875 
L 201.726942 176.444981 
L 198.447603 177.938037 
L 195.168264 179.435138 
L 191.888926 181.063387 
L 188.609587 182.916413 
L 185.330248 184.61744 
L 182.050909 186.192328 
L 178.77157 188.047219 
L 175.492231 189.792913 
L 172.212893 191.337646 
L 168.933554 193.30827 
L 165.654215 195.085477 
L 162.374876 197.076731 
L 159.095537 199.055406 
L 155.816198 201.28253 
L 152.53686 203.258551 
L 149.257521 205.455981 
L 145.978182 207.936467 
L 142.698843 209.977833 
L 139.419504 212.200916 
L 136.140165 214.779507 
L 132.860826 217.430194 
L 129.581488 220.247138 
L 126.302149 222.886731 
L 123.02281 225.659077 
L 119.743471 228.679189 
L 116.464132 231.377006 
L 113.184793 234.257356 
L 109.905455 237.253035 
L 106.626116 240.634838 
L 103.346777 244.119645 
L 100.067438 247.733808 
L 96.788099 251.180868 
L 93.50876 255.016348 
L 90.229421 259.38598 
L 86.950083 264.002142 
L 83.670744 269.206133 
L 80.391405 275.311018 
L 77.112066 282.127252 
L 73.832727 291.183754 
z
" clip-path="url(#p8ae4a41a12)" style="fill: #228b22; fill-opacity: 0.5"/>
   </g>
   <g id="matplotlib.axis_1">
    <g id="xtick_1">
     <g id="line2d_1">
      <path d="M 73.832727 307.584 
L 73.832727 41.472 
" clip-path="url(#p8ae4a41a12)" style="fill: none; stroke: #b0b0b0; stroke-width: 0.8; stroke-linecap: square"/>
     </g>
     <g id="line2d_2">
      <defs>
       <path id="m1f1bfbbd17" d="M 0 0 
L 0 3.5 
" style="stroke: #000000; stroke-width: 0.8"/>
      </defs>
      <g>
       <use xlink:href="#m1f1bfbbd17" x="73.832727" y="307.584" style="stroke: #000000; stroke-width: 0.8"/>
      </g>
     </g>
     <g id="text_1">
      <!-- 0 -->
      <g transform="translate(70.651477 322.182437) scale(0.1 -0.1)">
       <defs>
        <path id="DejaVuSans-30" d="M 2034 4250 
Q 1547 4250 1301 3770 
Q 1056 3291 1056 2328 
Q 1056 1369 1301 889 
Q 1547 409 2034 409 
Q 2525 409 2770 889 
Q 3016 1369 3016 2328 
Q 3016 3291 2770 3770 
Q 2525 4250 2034 4250 
z
M 2034 4750 
Q 2819 4750 3233 4129 
Q 3647 3509 3647 2328 
Q 3647 1150 3233 529 
Q 2819 -91 2034 -91 
Q 1250 -91 836 529 
Q 422 1150 422 2328 
Q 422 3509 836 4129 
Q 1250 4750 2034 4750 
z
" transform="scale(0.015625)"/>
       </defs>
       <use xlink:href="#DejaVuSans-30"/>
      </g>
     </g>
    </g>
    <g id="xtick_2">
     <g id="line2d_3">
      <path d="M 139.419504 307.584 
L 139.419504 41.472 
" clip-path="url(#p8ae4a41a12)" style="fill: none; stroke: #b0b0b0; stroke-width: 0.8; stroke-linecap: square"/>
     </g>
     <g id="line2d_4">
      <g>
       <use xlink:href="#m1f1bfbbd17" x="139.419504" y="307.584" style="stroke: #000000; stroke-width: 0.8"/>
      </g>
     </g>
     <g id="text_2">
      <!-- 2000 -->
      <g transform="translate(126.694504 322.182437) scale(0.1 -0.1)">
       <defs>
        <path id="DejaVuSans-32" d="M 1228 531 
L 3431 531 
L 3431 0 
L 469 0 
L 469 531 
Q 828 903 1448 1529 
Q 2069 2156 2228 2338 
Q 2531 2678 2651 2914 
Q 2772 3150 2772 3378 
Q 2772 3750 2511 3984 
Q 2250 4219 1831 4219 
Q 1534 4219 1204 4116 
Q 875 4013 500 3803 
L 500 4441 
Q 881 4594 1212 4672 
Q 1544 4750 1819 4750 
Q 2544 4750 2975 4387 
Q 3406 4025 3406 3419 
Q 3406 3131 3298 2873 
Q 3191 2616 2906 2266 
Q 2828 2175 2409 1742 
Q 1991 1309 1228 531 
z
" transform="scale(0.015625)"/>
       </defs>
       <use xlink:href="#DejaVuSans-32"/>
       <use xlink:href="#DejaVuSans-30" x="63.623047"/>
       <use xlink:href="#DejaVuSans-30" x="127.246094"/>
       <use xlink:href="#DejaVuSans-30" x="190.869141"/>
      </g>
     </g>
    </g>
    <g id="xtick_3">
     <g id="line2d_5">
      <path d="M 205.006281 307.584 
L 205.006281 41.472 
" clip-path="url(#p8ae4a41a12)" style="fill: none; stroke: #b0b0b0; stroke-width: 0.8; stroke-linecap: square"/>
     </g>
     <g id="line2d_6">
      <g>
       <use xlink:href="#m1f1bfbbd17" x="205.006281" y="307.584" style="stroke: #000000; stroke-width: 0.8"/>
      </g>
     </g>
     <g id="text_3">
      <!-- 4000 -->
      <g transform="translate(192.281281 322.182437) scale(0.1 -0.1)">
       <defs>
        <path id="DejaVuSans-34" d="M 2419 4116 
L 825 1625 
L 2419 1625 
L 2419 4116 
z
M 2253 4666 
L 3047 4666 
L 3047 1625 
L 3713 1625 
L 3713 1100 
L 3047 1100 
L 3047 0 
L 2419 0 
L 2419 1100 
L 313 1100 
L 313 1709 
L 2253 4666 
z
" transform="scale(0.015625)"/>
       </defs>
       <use xlink:href="#DejaVuSans-34"/>
       <use xlink:href="#DejaVuSans-30" x="63.623047"/>
       <use xlink:href="#DejaVuSans-30" x="127.246094"/>
       <use xlink:href="#DejaVuSans-30" x="190.869141"/>
      </g>
     </g>
    </g>
    <g id="xtick_4">
     <g id="line2d_7">
      <path d="M 270.593058 307.584 
L 270.593058 41.472 
" clip-path="url(#p8ae4a41a12)" style="fill: none; stroke: #b0b0b0; stroke-width: 0.8; stroke-linecap: square"/>
     </g>
     <g id="line2d_8">
      <g>
       <use xlink:href="#m1f1bfbbd17" x="270.593058" y="307.584" style="stroke: #000000; stroke-width: 0.8"/>
      </g>
     </g>
     <g id="text_4">
      <!-- 6000 -->
      <g transform="translate(257.868058 322.182437) scale(0.1 -0.1)">
       <defs>
        <path id="DejaVuSans-36" d="M 2113 2584 
Q 1688 2584 1439 2293 
Q 1191 2003 1191 1497 
Q 1191 994 1439 701 
Q 1688 409 2113 409 
Q 2538 409 2786 701 
Q 3034 994 3034 1497 
Q 3034 2003 2786 2293 
Q 2538 2584 2113 2584 
z
M 3366 4563 
L 3366 3988 
Q 3128 4100 2886 4159 
Q 2644 4219 2406 4219 
Q 1781 4219 1451 3797 
Q 1122 3375 1075 2522 
Q 1259 2794 1537 2939 
Q 1816 3084 2150 3084 
Q 2853 3084 3261 2657 
Q 3669 2231 3669 1497 
Q 3669 778 3244 343 
Q 2819 -91 2113 -91 
Q 1303 -91 875 529 
Q 447 1150 447 2328 
Q 447 3434 972 4092 
Q 1497 4750 2381 4750 
Q 2619 4750 2861 4703 
Q 3103 4656 3366 4563 
z
" transform="scale(0.015625)"/>
       </defs>
       <use xlink:href="#DejaVuSans-36"/>
       <use xlink:href="#DejaVuSans-30" x="63.623047"/>
       <use xlink:href="#DejaVuSans-30" x="127.246094"/>
       <use xlink:href="#DejaVuSans-30" x="190.869141"/>
      </g>
     </g>
    </g>
    <g id="xtick_5">
     <g id="line2d_9">
      <path d="M 336.179835 307.584 
L 336.179835 41.472 
" clip-path="url(#p8ae4a41a12)" style="fill: none; stroke: #b0b0b0; stroke-width: 0.8; stroke-linecap: square"/>
     </g>
     <g id="line2d_10">
      <g>
       <use xlink:href="#m1f1bfbbd17" x="336.179835" y="307.584" style="stroke: #000000; stroke-width: 0.8"/>
      </g>
     </g>
     <g id="text_5">
      <!-- 8000 -->
      <g transform="translate(323.454835 322.182437) scale(0.1 -0.1)">
       <defs>
        <path id="DejaVuSans-38" d="M 2034 2216 
Q 1584 2216 1326 1975 
Q 1069 1734 1069 1313 
Q 1069 891 1326 650 
Q 1584 409 2034 409 
Q 2484 409 2743 651 
Q 3003 894 3003 1313 
Q 3003 1734 2745 1975 
Q 2488 2216 2034 2216 
z
M 1403 2484 
Q 997 2584 770 2862 
Q 544 3141 544 3541 
Q 544 4100 942 4425 
Q 1341 4750 2034 4750 
Q 2731 4750 3128 4425 
Q 3525 4100 3525 3541 
Q 3525 3141 3298 2862 
Q 3072 2584 2669 2484 
Q 3125 2378 3379 2068 
Q 3634 1759 3634 1313 
Q 3634 634 3220 271 
Q 2806 -91 2034 -91 
Q 1263 -91 848 271 
Q 434 634 434 1313 
Q 434 1759 690 2068 
Q 947 2378 1403 2484 
z
M 1172 3481 
Q 1172 3119 1398 2916 
Q 1625 2713 2034 2713 
Q 2441 2713 2670 2916 
Q 2900 3119 2900 3481 
Q 2900 3844 2670 4047 
Q 2441 4250 2034 4250 
Q 1625 4250 1398 4047 
Q 1172 3844 1172 3481 
z
" transform="scale(0.015625)"/>
       </defs>
       <use xlink:href="#DejaVuSans-38"/>
       <use xlink:href="#DejaVuSans-30" x="63.623047"/>
       <use xlink:href="#DejaVuSans-30" x="127.246094"/>
       <use xlink:href="#DejaVuSans-30" x="190.869141"/>
      </g>
     </g>
    </g>
    <g id="xtick_6">
     <g id="line2d_11">
      <path d="M 401.766612 307.584 
L 401.766612 41.472 
" clip-path="url(#p8ae4a41a12)" style="fill: none; stroke: #b0b0b0; stroke-width: 0.8; stroke-linecap: square"/>
     </g>
     <g id="line2d_12">
      <g>
       <use xlink:href="#m1f1bfbbd17" x="401.766612" y="307.584" style="stroke: #000000; stroke-width: 0.8"/>
      </g>
     </g>
     <g id="text_6">
      <!-- 10000 -->
      <g transform="translate(385.860362 322.182437) scale(0.1 -0.1)">
       <defs>
        <path id="DejaVuSans-31" d="M 794 531 
L 1825 531 
L 1825 4091 
L 703 3866 
L 703 4441 
L 1819 4666 
L 2450 4666 
L 2450 531 
L 3481 531 
L 3481 0 
L 794 0 
L 794 531 
z
" transform="scale(0.015625)"/>
       </defs>
       <use xlink:href="#DejaVuSans-31"/>
       <use xlink:href="#DejaVuSans-30" x="63.623047"/>
       <use xlink:href="#DejaVuSans-30" x="127.246094"/>
       <use xlink:href="#DejaVuSans-30" x="190.869141"/>
       <use xlink:href="#DejaVuSans-30" x="254.492188"/>
      </g>
     </g>
    </g>
    <g id="text_7">
     <!-- Evaluations -->
     <g transform="translate(207.173281 335.860562) scale(0.1 -0.1)">
      <defs>
       <path id="DejaVuSans-45" d="M 628 4666 
L 3578 4666 
L 3578 4134 
L 1259 4134 
L 1259 2753 
L 3481 2753 
L 3481 2222 
L 1259 2222 
L 1259 531 
L 3634 531 
L 3634 0 
L 628 0 
L 628 4666 
z
" transform="scale(0.015625)"/>
       <path id="DejaVuSans-76" d="M 191 3500 
L 800 3500 
L 1894 563 
L 2988 3500 
L 3597 3500 
L 2284 0 
L 1503 0 
L 191 3500 
z
" transform="scale(0.015625)"/>
       <path id="DejaVuSans-61" d="M 2194 1759 
Q 1497 1759 1228 1600 
Q 959 1441 959 1056 
Q 959 750 1161 570 
Q 1363 391 1709 391 
Q 2188 391 2477 730 
Q 2766 1069 2766 1631 
L 2766 1759 
L 2194 1759 
z
M 3341 1997 
L 3341 0 
L 2766 0 
L 2766 531 
Q 2569 213 2275 61 
Q 1981 -91 1556 -91 
Q 1019 -91 701 211 
Q 384 513 384 1019 
Q 384 1609 779 1909 
Q 1175 2209 1959 2209 
L 2766 2209 
L 2766 2266 
Q 2766 2663 2505 2880 
Q 2244 3097 1772 3097 
Q 1472 3097 1187 3025 
Q 903 2953 641 2809 
L 641 3341 
Q 956 3463 1253 3523 
Q 1550 3584 1831 3584 
Q 2591 3584 2966 3190 
Q 3341 2797 3341 1997 
z
" transform="scale(0.015625)"/>
       <path id="DejaVuSans-6c" d="M 603 4863 
L 1178 4863 
L 1178 0 
L 603 0 
L 603 4863 
z
" transform="scale(0.015625)"/>
       <path id="DejaVuSans-75" d="M 544 1381 
L 544 3500 
L 1119 3500 
L 1119 1403 
Q 1119 906 1312 657 
Q 1506 409 1894 409 
Q 2359 409 2629 706 
Q 2900 1003 2900 1516 
L 2900 3500 
L 3475 3500 
L 3475 0 
L 2900 0 
L 2900 538 
Q 2691 219 2414 64 
Q 2138 -91 1772 -91 
Q 1169 -91 856 284 
Q 544 659 544 1381 
z
M 1991 3584 
L 1991 3584 
z
" transform="scale(0.015625)"/>
       <path id="DejaVuSans-74" d="M 1172 4494 
L 1172 3500 
L 2356 3500 
L 2356 3053 
L 1172 3053 
L 1172 1153 
Q 1172 725 1289 603 
Q 1406 481 1766 481 
L 2356 481 
L 2356 0 
L 1766 0 
Q 1100 0 847 248 
Q 594 497 594 1153 
L 594 3053 
L 172 3053 
L 172 3500 
L 594 3500 
L 594 4494 
L 1172 4494 
z
" transform="scale(0.015625)"/>
       <path id="DejaVuSans-69" d="M 603 3500 
L 1178 3500 
L 1178 0 
L 603 0 
L 603 3500 
z
M 603 4863 
L 1178 4863 
L 1178 4134 
L 603 4134 
L 603 4863 
z
" transform="scale(0.015625)"/>
       <path id="DejaVuSans-6f" d="M 1959 3097 
Q 1497 3097 1228 2736 
Q 959 2375 959 1747 
Q 959 1119 1226 758 
Q 1494 397 1959 397 
Q 2419 397 2687 759 
Q 2956 1122 2956 1747 
Q 2956 2369 2687 2733 
Q 2419 3097 1959 3097 
z
M 1959 3584 
Q 2709 3584 3137 3096 
Q 3566 2609 3566 1747 
Q 3566 888 3137 398 
Q 2709 -91 1959 -91 
Q 1206 -91 779 398 
Q 353 888 353 1747 
Q 353 2609 779 3096 
Q 1206 3584 1959 3584 
z
" transform="scale(0.015625)"/>
       <path id="DejaVuSans-6e" d="M 3513 2113 
L 3513 0 
L 2938 0 
L 2938 2094 
Q 2938 2591 2744 2837 
Q 2550 3084 2163 3084 
Q 1697 3084 1428 2787 
Q 1159 2491 1159 1978 
L 1159 0 
L 581 0 
L 581 3500 
L 1159 3500 
L 1159 2956 
Q 1366 3272 1645 3428 
Q 1925 3584 2291 3584 
Q 2894 3584 3203 3211 
Q 3513 2838 3513 2113 
z
" transform="scale(0.015625)"/>
       <path id="DejaVuSans-73" d="M 2834 3397 
L 2834 2853 
Q 2591 2978 2328 3040 
Q 2066 3103 1784 3103 
Q 1356 3103 1142 2972 
Q 928 2841 928 2578 
Q 928 2378 1081 2264 
Q 1234 2150 1697 2047 
L 1894 2003 
Q 2506 1872 2764 1633 
Q 3022 1394 3022 966 
Q 3022 478 2636 193 
Q 2250 -91 1575 -91 
Q 1294 -91 989 -36 
Q 684 19 347 128 
L 347 722 
Q 666 556 975 473 
Q 1284 391 1588 391 
Q 1994 391 2212 530 
Q 2431 669 2431 922 
Q 2431 1156 2273 1281 
Q 2116 1406 1581 1522 
L 1381 1569 
Q 847 1681 609 1914 
Q 372 2147 372 2553 
Q 372 3047 722 3315 
Q 1072 3584 1716 3584 
Q 2034 3584 2315 3537 
Q 2597 3491 2834 3397 
z
" transform="scale(0.015625)"/>
      </defs>
      <use xlink:href="#DejaVuSans-45"/>
      <use xlink:href="#DejaVuSans-76" x="63.183594"/>
      <use xlink:href="#DejaVuSans-61" x="122.363281"/>
      <use xlink:href="#DejaVuSans-6c" x="183.642578"/>
      <use xlink:href="#DejaVuSans-75" x="211.425781"/>
      <use xlink:href="#DejaVuSans-61" x="274.804688"/>
      <use xlink:href="#DejaVuSans-74" x="336.083984"/>
      <use xlink:href="#DejaVuSans-69" x="375.292969"/>
      <use xlink:href="#DejaVuSans-6f" x="403.076172"/>
      <use xlink:href="#DejaVuSans-6e" x="464.257812"/>
      <use xlink:href="#DejaVuSans-73" x="527.636719"/>
     </g>
    </g>
   </g>
   <g id="matplotlib.axis_2">
    <g id="ytick_1">
     <g id="line2d_13">
      <path d="M 57.6 274.422676 
L 414.72 274.422676 
" clip-path="url(#p8ae4a41a12)" style="fill: none; stroke: #b0b0b0; stroke-width: 0.8; stroke-linecap: square"/>
     </g>
     <g id="line2d_14">
      <defs>
       <path id="m1d85d59527" d="M 0 0 
L -3.5 0 
" style="stroke: #000000; stroke-width: 0.8"/>
      </defs>
      <g>
       <use xlink:href="#m1d85d59527" x="57.6" y="274.422676" style="stroke: #000000; stroke-width: 0.8"/>
      </g>
     </g>
     <g id="text_8">
      <!-- 50 -->
      <g transform="translate(37.875 278.221895) scale(0.1 -0.1)">
       <defs>
        <path id="DejaVuSans-35" d="M 691 4666 
L 3169 4666 
L 3169 4134 
L 1269 4134 
L 1269 2991 
Q 1406 3038 1543 3061 
Q 1681 3084 1819 3084 
Q 2600 3084 3056 2656 
Q 3513 2228 3513 1497 
Q 3513 744 3044 326 
Q 2575 -91 1722 -91 
Q 1428 -91 1123 -41 
Q 819 9 494 109 
L 494 744 
Q 775 591 1075 516 
Q 1375 441 1709 441 
Q 2250 441 2565 725 
Q 2881 1009 2881 1497 
Q 2881 1984 2565 2268 
Q 2250 2553 1709 2553 
Q 1456 2553 1204 2497 
Q 953 2441 691 2322 
L 691 4666 
z
" transform="scale(0.015625)"/>
       </defs>
       <use xlink:href="#DejaVuSans-35"/>
       <use xlink:href="#DejaVuSans-30" x="63.623047"/>
      </g>
     </g>
    </g>
    <g id="ytick_2">
     <g id="line2d_15">
      <path d="M 57.6 239.347103 
L 414.72 239.347103 
" clip-path="url(#p8ae4a41a12)" style="fill: none; stroke: #b0b0b0; stroke-width: 0.8; stroke-linecap: square"/>
     </g>
     <g id="line2d_16">
      <g>
       <use xlink:href="#m1d85d59527" x="57.6" y="239.347103" style="stroke: #000000; stroke-width: 0.8"/>
      </g>
     </g>
     <g id="text_9">
      <!-- 100 -->
      <g transform="translate(31.5125 243.146322) scale(0.1 -0.1)">
       <use xlink:href="#DejaVuSans-31"/>
       <use xlink:href="#DejaVuSans-30" x="63.623047"/>
       <use xlink:href="#DejaVuSans-30" x="127.246094"/>
      </g>
     </g>
    </g>
    <g id="ytick_3">
     <g id="line2d_17">
      <path d="M 57.6 204.27153 
L 414.72 204.27153 
" clip-path="url(#p8ae4a41a12)" style="fill: none; stroke: #b0b0b0; stroke-width: 0.8; stroke-linecap: square"/>
     </g>
     <g id="line2d_18">
      <g>
       <use xlink:href="#m1d85d59527" x="57.6" y="204.27153" style="stroke: #000000; stroke-width: 0.8"/>
      </g>
     </g>
     <g id="text_10">
      <!-- 150 -->
      <g transform="translate(31.5125 208.070749) scale(0.1 -0.1)">
       <use xlink:href="#DejaVuSans-31"/>
       <use xlink:href="#DejaVuSans-35" x="63.623047"/>
       <use xlink:href="#DejaVuSans-30" x="127.246094"/>
      </g>
     </g>
    </g>
    <g id="ytick_4">
     <g id="line2d_19">
      <path d="M 57.6 169.195957 
L 414.72 169.195957 
" clip-path="url(#p8ae4a41a12)" style="fill: none; stroke: #b0b0b0; stroke-width: 0.8; stroke-linecap: square"/>
     </g>
     <g id="line2d_20">
      <g>
       <use xlink:href="#m1d85d59527" x="57.6" y="169.195957" style="stroke: #000000; stroke-width: 0.8"/>
      </g>
     </g>
     <g id="text_11">
      <!-- 200 -->
      <g transform="translate(31.5125 172.995176) scale(0.1 -0.1)">
       <use xlink:href="#DejaVuSans-32"/>
       <use xlink:href="#DejaVuSans-30" x="63.623047"/>
       <use xlink:href="#DejaVuSans-30" x="127.246094"/>
      </g>
     </g>
    </g>
    <g id="ytick_5">
     <g id="line2d_21">
      <path d="M 57.6 134.120384 
L 414.72 134.120384 
" clip-path="url(#p8ae4a41a12)" style="fill: none; stroke: #b0b0b0; stroke-width: 0.8; stroke-linecap: square"/>
     </g>
     <g id="line2d_22">
      <g>
       <use xlink:href="#m1d85d59527" x="57.6" y="134.120384" style="stroke: #000000; stroke-width: 0.8"/>
      </g>
     </g>
     <g id="text_12">
      <!-- 250 -->
      <g transform="translate(31.5125 137.919603) scale(0.1 -0.1)">
       <use xlink:href="#DejaVuSans-32"/>
       <use xlink:href="#DejaVuSans-35" x="63.623047"/>
       <use xlink:href="#DejaVuSans-30" x="127.246094"/>
      </g>
     </g>
    </g>
    <g id="ytick_6">
     <g id="line2d_23">
      <path d="M 57.6 99.044811 
L 414.72 99.044811 
" clip-path="url(#p8ae4a41a12)" style="fill: none; stroke: #b0b0b0; stroke-width: 0.8; stroke-linecap: square"/>
     </g>
     <g id="line2d_24">
      <g>
       <use xlink:href="#m1d85d59527" x="57.6" y="99.044811" style="stroke: #000000; stroke-width: 0.8"/>
      </g>
     </g>
     <g id="text_13">
      <!-- 300 -->
      <g transform="translate(31.5125 102.84403) scale(0.1 -0.1)">
       <defs>
        <path id="DejaVuSans-33" d="M 2597 2516 
Q 3050 2419 3304 2112 
Q 3559 1806 3559 1356 
Q 3559 666 3084 287 
Q 2609 -91 1734 -91 
Q 1441 -91 1130 -33 
Q 819 25 488 141 
L 488 750 
Q 750 597 1062 519 
Q 1375 441 1716 441 
Q 2309 441 2620 675 
Q 2931 909 2931 1356 
Q 2931 1769 2642 2001 
Q 2353 2234 1838 2234 
L 1294 2234 
L 1294 2753 
L 1863 2753 
Q 2328 2753 2575 2939 
Q 2822 3125 2822 3475 
Q 2822 3834 2567 4026 
Q 2313 4219 1838 4219 
Q 1578 4219 1281 4162 
Q 984 4106 628 3988 
L 628 4550 
Q 988 4650 1302 4700 
Q 1616 4750 1894 4750 
Q 2613 4750 3031 4423 
Q 3450 4097 3450 3541 
Q 3450 3153 3228 2886 
Q 3006 2619 2597 2516 
z
" transform="scale(0.015625)"/>
       </defs>
       <use xlink:href="#DejaVuSans-33"/>
       <use xlink:href="#DejaVuSans-30" x="63.623047"/>
       <use xlink:href="#DejaVuSans-30" x="127.246094"/>
      </g>
     </g>
    </g>
    <g id="ytick_7">
     <g id="line2d_25">
      <path d="M 57.6 63.969238 
L 414.72 63.969238 
" clip-path="url(#p8ae4a41a12)" style="fill: none; stroke: #b0b0b0; stroke-width: 0.8; stroke-linecap: square"/>
     </g>
     <g id="line2d_26">
      <g>
       <use xlink:href="#m1d85d59527" x="57.6" y="63.969238" style="stroke: #000000; stroke-width: 0.8"/>
      </g>
     </g>
     <g id="text_14">
      <!-- 350 -->
      <g transform="translate(31.5125 67.768457) scale(0.1 -0.1)">
       <use xlink:href="#DejaVuSans-33"/>
       <use xlink:href="#DejaVuSans-35" x="63.623047"/>
       <use xlink:href="#DejaVuSans-30" x="127.246094"/>
      </g>
     </g>
    </g>
   </g>
   <g id="line2d_27">
    <path d="M 73.832727 293.942724 
L 77.112066 286.77496 
L 80.391405 281.177741 
L 83.670744 276.274667 
L 86.950083 272.094009 
L 90.229421 268.345623 
L 93.50876 264.735645 
L 96.788099 261.60073 
L 100.067438 258.487563 
L 103.346777 255.600072 
L 106.626116 252.894552 
L 109.905455 250.212744 
L 113.184793 247.590705 
L 116.464132 245.15632 
L 119.743471 242.788929 
L 123.02281 240.411156 
L 126.302149 238.288523 
L 129.581488 236.158944 
L 132.860826 233.959565 
L 136.140165 231.907434 
L 139.419504 230.030189 
L 142.698843 227.999454 
L 145.978182 226.004285 
L 149.257521 224.105224 
L 152.53686 222.175015 
L 155.816198 220.374094 
L 159.095537 218.590011 
L 162.374876 216.622481 
L 165.654215 214.95569 
L 168.933554 213.405771 
L 172.212893 211.64196 
L 175.492231 210.089866 
L 178.77157 208.269093 
L 182.050909 206.769262 
L 185.330248 205.006364 
L 188.609587 203.56111 
L 191.888926 202.045143 
L 195.168264 200.599258 
L 198.447603 199.183748 
L 201.726942 197.795948 
L 205.006281 196.415233 
L 208.28562 195.074855 
L 211.564959 193.773131 
L 214.844298 192.394661 
L 218.123636 191.032396 
L 221.402975 189.660029 
L 224.682314 188.369458 
L 227.961653 187.111858 
L 231.240992 185.769867 
L 234.520331 184.322929 
L 237.799669 183.151055 
L 241.079008 181.76564 
L 244.358347 180.637399 
L 247.637686 179.405334 
L 250.917025 178.129285 
L 254.196364 176.924369 
L 257.475702 175.619838 
L 260.755041 174.388264 
L 264.03438 173.240311 
L 267.313719 172.226206 
L 270.593058 171.08611 
L 273.872397 169.90294 
L 277.151736 168.758986 
L 280.431074 167.667013 
L 283.710413 166.531126 
L 286.989752 165.463215 
L 290.269091 164.462298 
L 293.54843 163.416485 
L 296.827769 162.420339 
L 300.107107 161.430015 
L 303.386446 160.428677 
L 306.665785 159.459329 
L 309.945124 158.455115 
L 313.224463 157.386433 
L 316.503802 156.469417 
L 319.78314 155.566431 
L 323.062479 154.626616 
L 326.341818 153.660986 
L 329.621157 152.795601 
L 332.900496 151.839511 
L 336.179835 150.93849 
L 339.459174 150.189206 
L 342.738512 149.293726 
L 346.017851 148.424133 
L 349.29719 147.691825 
L 352.576529 146.828475 
L 355.855868 145.958601 
L 359.135207 145.119453 
L 362.414545 144.410926 
L 365.693884 143.666131 
L 368.973223 142.793311 
L 372.252562 141.931504 
L 375.531901 141.099581 
L 378.81124 140.355558 
L 382.090579 139.658537 
L 385.369917 138.907148 
L 388.649256 138.042044 
L 391.928595 137.301177 
L 395.207934 136.62485 
L 398.487273 135.792577 
" clip-path="url(#p8ae4a41a12)" style="fill: none; stroke: #000000; stroke-width: 2; stroke-linecap: square"/>
   </g>
   <g id="line2d_28">
    <path d="M 73.832727 291.788733 
L 77.112066 282.030358 
L 80.391405 273.585002 
L 83.670744 265.759922 
L 86.950083 258.796018 
L 90.229421 252.139516 
L 93.50876 245.66225 
L 96.788099 239.722903 
L 100.067438 234.083452 
L 103.346777 228.502508 
L 106.626116 223.164426 
L 109.905455 218.499095 
L 113.184793 213.788375 
L 116.464132 209.228691 
L 119.743471 204.838071 
L 123.02281 200.782353 
L 126.302149 196.931405 
L 129.581488 193.077512 
L 132.860826 189.321409 
L 136.140165 185.939422 
L 139.419504 182.72636 
L 142.698843 179.473872 
L 145.978182 176.267263 
L 149.257521 173.104849 
L 152.53686 170.330091 
L 155.816198 167.562137 
L 159.095537 164.968579 
L 162.374876 162.441033 
L 165.654215 159.746528 
L 168.933554 157.093973 
L 172.212893 154.708202 
L 175.492231 152.361717 
L 178.77157 150.089661 
L 182.050909 147.841177 
L 185.330248 145.824822 
L 188.609587 143.712992 
L 191.888926 141.746936 
L 195.168264 139.676776 
L 198.447603 137.730573 
L 201.726942 135.894226 
L 205.006281 134.125014 
L 208.28562 132.32683 
L 211.564959 130.556004 
L 214.844298 129.016117 
L 218.123636 127.479035 
L 221.402975 125.902598 
L 224.682314 124.333598 
L 227.961653 122.723068 
L 231.240992 121.228498 
L 234.520331 119.812216 
L 237.799669 118.382466 
L 241.079008 117.101015 
L 244.358347 115.79908 
L 247.637686 114.4674 
L 250.917025 113.193736 
L 254.196364 111.865775 
L 257.475702 110.648302 
L 260.755041 109.48274 
L 264.03438 108.258813 
L 267.313719 107.226469 
L 270.593058 106.106787 
L 273.872397 105.001345 
L 277.151736 103.885591 
L 280.431074 102.835779 
L 283.710413 101.846227 
L 286.989752 100.937279 
L 290.269091 100.021526 
L 293.54843 99.059403 
L 296.827769 98.056943 
L 300.107107 97.209938 
L 303.386446 96.400534 
L 306.665785 95.499583 
L 309.945124 94.675096 
L 313.224463 93.932687 
L 316.503802 93.118232 
L 319.78314 92.271858 
L 323.062479 91.477397 
L 326.341818 90.684057 
L 329.621157 89.996716 
L 332.900496 89.301378 
L 336.179835 88.512879 
L 339.459174 87.792146 
L 342.738512 87.095546 
L 346.017851 86.414448 
L 349.29719 85.717987 
L 352.576529 84.99494 
L 355.855868 84.339798 
L 359.135207 83.760069 
L 362.414545 83.070343 
L 365.693884 82.47048 
L 368.973223 81.761814 
L 372.252562 81.116563 
L 375.531901 80.420664 
L 378.81124 79.885481 
L 382.090579 79.27222 
L 385.369917 78.688001 
L 388.649256 78.248434 
L 391.928595 77.721458 
L 395.207934 77.284487 
L 398.487273 76.706862 
" clip-path="url(#p8ae4a41a12)" style="fill: none; stroke: #ff0000; stroke-width: 2; stroke-linecap: square"/>
   </g>
   <g id="line2d_29">
    <path d="M 73.832727 284.869936 
L 77.112066 269.610588 
L 80.391405 257.250167 
L 83.670744 246.112269 
L 86.950083 235.860451 
L 90.229421 226.679841 
L 93.50876 218.048724 
L 96.788099 210.239709 
L 100.067438 203.396675 
L 103.346777 196.798679 
L 106.626116 190.703737 
L 109.905455 184.803254 
L 113.184793 179.261665 
L 116.464132 174.055608 
L 119.743471 169.26681 
L 123.02281 164.596006 
L 126.302149 160.245162 
L 129.581488 155.969239 
L 132.860826 152.069256 
L 136.140165 148.174324 
L 139.419504 144.518117 
L 142.698843 141.124976 
L 145.978182 137.916894 
L 149.257521 135.024983 
L 152.53686 131.95552 
L 155.816198 129.090266 
L 159.095537 126.365105 
L 162.374876 123.794977 
L 165.654215 121.120745 
L 168.933554 118.969701 
L 172.212893 116.551731 
L 175.492231 114.502406 
L 178.77157 112.377387 
L 182.050909 110.399405 
L 185.330248 108.519004 
L 188.609587 106.620574 
L 191.888926 104.872197 
L 195.168264 103.225539 
L 198.447603 101.575023 
L 201.726942 99.809388 
L 205.006281 98.344422 
L 208.28562 96.770792 
L 211.564959 95.333465 
L 214.844298 93.964746 
L 218.123636 92.562284 
L 221.402975 91.321521 
L 224.682314 90.177496 
L 227.961653 88.843011 
L 231.240992 87.616628 
L 234.520331 86.587511 
L 237.799669 85.407428 
L 241.079008 84.309072 
L 244.358347 83.402719 
L 247.637686 82.365745 
L 250.917025 81.530385 
L 254.196364 80.690956 
L 257.475702 79.761383 
L 260.755041 78.862116 
L 264.03438 77.999958 
L 267.313719 77.239169 
L 270.593058 76.36712 
L 273.872397 75.537653 
L 277.151736 74.726075 
L 280.431074 73.985208 
L 283.710413 73.222876 
L 286.989752 72.534903 
L 290.269091 71.891056 
L 293.54843 71.216272 
L 296.827769 70.622373 
L 300.107107 69.945905 
L 303.386446 69.283328 
L 306.665785 68.647969 
L 309.945124 68.057436 
L 313.224463 67.441088 
L 316.503802 66.909413 
L 319.78314 66.455605 
L 323.062479 65.94743 
L 326.341818 65.454198 
L 329.621157 64.962578 
L 332.900496 64.553387 
L 336.179835 64.056506 
L 339.459174 63.667448 
L 342.738512 63.205853 
L 346.017851 62.835315 
L 349.29719 62.385576 
L 352.576529 61.975122 
L 355.855868 61.544604 
L 359.135207 61.146216 
L 362.414545 60.738006 
L 365.693884 60.355823 
L 368.973223 59.998964 
L 372.252562 59.646735 
L 375.531901 59.382405 
L 378.81124 58.956097 
L 382.090579 58.734489 
L 385.369917 58.407655 
L 388.649256 58.080611 
L 391.928595 57.763878 
L 395.207934 57.477241 
L 398.487273 57.131886 
" clip-path="url(#p8ae4a41a12)" style="fill: none; stroke: #4169e1; stroke-width: 2; stroke-linecap: square"/>
   </g>
   <g id="line2d_30">
    <path d="M 73.832727 287.846379 
L 77.112066 274.963191 
L 80.391405 263.985659 
L 83.670744 254.231984 
L 86.950083 245.595115 
L 90.229421 237.761687 
L 93.50876 230.354498 
L 96.788099 223.401608 
L 100.067438 216.864994 
L 103.346777 210.956794 
L 106.626116 205.028181 
L 109.905455 199.654743 
L 113.184793 194.402737 
L 116.464132 189.320708 
L 119.743471 184.547553 
L 123.02281 180.063422 
L 126.302149 175.857089 
L 129.581488 171.432095 
L 132.860826 167.524115 
L 136.140165 163.83192 
L 139.419504 160.328361 
L 142.698843 156.978714 
L 145.978182 153.659022 
L 149.257521 150.38619 
L 152.53686 147.305923 
L 155.816198 144.341617 
L 159.095537 141.45181 
L 162.374876 138.660286 
L 165.654215 136.023164 
L 168.933554 133.65914 
L 172.212893 131.436191 
L 175.492231 129.043686 
L 178.77157 126.728137 
L 182.050909 124.57611 
L 185.330248 122.548882 
L 188.609587 120.501241 
L 191.888926 118.548724 
L 195.168264 116.580493 
L 198.447603 114.650495 
L 201.726942 112.752064 
L 205.006281 111.160826 
L 208.28562 109.490247 
L 211.564959 107.855585 
L 214.844298 106.276623 
L 218.123636 104.815234 
L 221.402975 103.386957 
L 224.682314 102.035074 
L 227.961653 100.764777 
L 231.240992 99.35544 
L 234.520331 98.033161 
L 237.799669 96.881069 
L 241.079008 95.643322 
L 244.358347 94.487582 
L 247.637686 93.341944 
L 250.917025 92.293816 
L 254.196364 91.298301 
L 257.475702 90.219867 
L 260.755041 89.11681 
L 264.03438 88.175733 
L 267.313719 87.074991 
L 270.593058 86.063201 
L 273.872397 84.993887 
L 277.151736 84.125627 
L 280.431074 83.225377 
L 283.710413 82.339859 
L 286.989752 81.519652 
L 290.269091 80.700848 
L 293.54843 79.967628 
L 296.827769 79.190634 
L 300.107107 78.445699 
L 303.386446 77.662672 
L 306.665785 77.03531 
L 309.945124 76.306369 
L 313.224463 75.602894 
L 316.503802 74.953084 
L 319.78314 74.361569 
L 323.062479 73.701377 
L 326.341818 73.098568 
L 329.621157 72.545707 
L 332.900496 72.034515 
L 336.179835 71.515748 
L 339.459174 70.9041 
L 342.738512 70.355097 
L 346.017851 69.947449 
L 349.29719 69.379715 
L 352.576529 68.827977 
L 355.855868 68.325484 
L 359.135207 67.884444 
L 362.414545 67.365466 
L 365.693884 66.926039 
L 368.973223 66.475598 
L 372.252562 66.074334 
L 375.531901 65.59001 
L 378.81124 65.159563 
L 382.090579 64.773451 
L 385.369917 64.412663 
L 388.649256 63.96559 
L 391.928595 63.612449 
L 395.207934 63.226758 
L 398.487273 62.853344 
" clip-path="url(#p8ae4a41a12)" style="fill: none; stroke: #ffd700; stroke-width: 2; stroke-linecap: square"/>
   </g>
   <g id="line2d_31">
    <path d="M 73.832727 289.501595 
L 77.112066 279.632381 
L 80.391405 271.979242 
L 83.670744 265.340067 
L 86.950083 259.427518 
L 90.229421 254.230581 
L 93.50876 249.373456 
L 96.788099 244.936957 
L 100.067438 240.915122 
L 103.346777 237.046286 
L 106.626116 233.343779 
L 109.905455 229.907916 
L 113.184793 226.513793 
L 116.464132 223.305921 
L 119.743471 220.357819 
L 123.02281 217.127008 
L 126.302149 214.150495 
L 129.581488 211.169422 
L 132.860826 208.269725 
L 136.140165 205.634146 
L 139.419504 203.034555 
L 142.698843 200.601713 
L 145.978182 198.287287 
L 149.257521 195.732312 
L 152.53686 193.323392 
L 155.816198 191.14134 
L 159.095537 188.823196 
L 162.374876 186.617012 
L 165.654215 184.433909 
L 168.933554 182.400578 
L 172.212893 180.333223 
L 175.492231 178.521079 
L 178.77157 176.671123 
L 182.050909 174.753401 
L 185.330248 172.939854 
L 188.609587 171.149737 
L 191.888926 169.365092 
L 195.168264 167.573361 
L 198.447603 165.936595 
L 201.726942 164.329011 
L 205.006281 162.726127 
L 208.28562 161.131522 
L 211.564959 159.463678 
L 214.844298 157.898396 
L 218.123636 156.399897 
L 221.402975 154.827599 
L 224.682314 153.370981 
L 227.961653 151.969642 
L 231.240992 150.52074 
L 234.520331 149.17938 
L 237.799669 147.724305 
L 241.079008 146.40378 
L 244.358347 145.11833 
L 247.637686 143.872726 
L 250.917025 142.649641 
L 254.196364 141.441779 
L 257.475702 140.272429 
L 260.755041 139.02409 
L 264.03438 137.94769 
L 267.313719 136.918573 
L 270.593058 135.720812 
L 273.872397 134.534486 
L 277.151736 133.469171 
L 280.431074 132.485231 
L 283.710413 131.368285 
L 286.989752 130.408406 
L 290.269091 129.466557 
L 293.54843 128.466623 
L 296.827769 127.566233 
L 300.107107 126.564615 
L 303.386446 125.539426 
L 306.665785 124.503925 
L 309.945124 123.663233 
L 313.224463 122.785081 
L 316.503802 121.990409 
L 319.78314 121.24807 
L 323.062479 120.308465 
L 326.341818 119.276542 
L 329.621157 118.447285 
L 332.900496 117.58148 
L 336.179835 116.724584 
L 339.459174 115.892521 
L 342.738512 115.312511 
L 346.017851 114.497776 
L 349.29719 113.704717 
L 352.576529 112.940771 
L 355.855868 112.301624 
L 359.135207 111.634206 
L 362.414545 110.752897 
L 365.693884 109.98839 
L 368.973223 109.319358 
L 372.252562 108.705325 
L 375.531901 108.004024 
L 378.81124 107.360809 
L 382.090579 106.676695 
L 385.369917 105.986407 
L 388.649256 105.230599 
L 391.928595 104.626457 
L 395.207934 103.929997 
L 398.487273 103.296251 
" clip-path="url(#p8ae4a41a12)" style="fill: none; stroke: #228b22; stroke-width: 2; stroke-linecap: square"/>
   </g>
   <g id="patch_3">
    <path d="M 57.6 307.584 
L 57.6 41.472 
" style="fill: none; stroke: #000000; stroke-width: 0.8; stroke-linejoin: miter; stroke-linecap: square"/>
   </g>
   <g id="patch_4">
    <path d="M 414.72 307.584 
L 414.72 41.472 
" style="fill: none; stroke: #000000; stroke-width: 0.8; stroke-linejoin: miter; stroke-linecap: square"/>
   </g>
   <g id="patch_5">
    <path d="M 57.6 307.584 
L 414.72 307.584 
" style="fill: none; stroke: #000000; stroke-width: 0.8; stroke-linejoin: miter; stroke-linecap: square"/>
   </g>
   <g id="patch_6">
    <path d="M 57.6 41.472 
L 414.72 41.472 
" style="fill: none; stroke: #000000; stroke-width: 0.8; stroke-linejoin: miter; stroke-linecap: square"/>
   </g>
   <g id="text_15">
    <!-- QD_score for Two -->
    <g transform="translate(184.380938 35.472) scale(0.12 -0.12)">
     <defs>
      <path id="DejaVuSans-51" d="M 2522 4238 
Q 1834 4238 1429 3725 
Q 1025 3213 1025 2328 
Q 1025 1447 1429 934 
Q 1834 422 2522 422 
Q 3209 422 3611 934 
Q 4013 1447 4013 2328 
Q 4013 3213 3611 3725 
Q 3209 4238 2522 4238 
z
M 3406 84 
L 4238 -825 
L 3475 -825 
L 2784 -78 
Q 2681 -84 2626 -87 
Q 2572 -91 2522 -91 
Q 1538 -91 948 567 
Q 359 1225 359 2328 
Q 359 3434 948 4092 
Q 1538 4750 2522 4750 
Q 3503 4750 4090 4092 
Q 4678 3434 4678 2328 
Q 4678 1516 4351 937 
Q 4025 359 3406 84 
z
" transform="scale(0.015625)"/>
      <path id="DejaVuSans-44" d="M 1259 4147 
L 1259 519 
L 2022 519 
Q 2988 519 3436 956 
Q 3884 1394 3884 2338 
Q 3884 3275 3436 3711 
Q 2988 4147 2022 4147 
L 1259 4147 
z
M 628 4666 
L 1925 4666 
Q 3281 4666 3915 4102 
Q 4550 3538 4550 2338 
Q 4550 1131 3912 565 
Q 3275 0 1925 0 
L 628 0 
L 628 4666 
z
" transform="scale(0.015625)"/>
      <path id="DejaVuSans-5f" d="M 3263 -1063 
L 3263 -1509 
L -63 -1509 
L -63 -1063 
L 3263 -1063 
z
" transform="scale(0.015625)"/>
      <path id="DejaVuSans-63" d="M 3122 3366 
L 3122 2828 
Q 2878 2963 2633 3030 
Q 2388 3097 2138 3097 
Q 1578 3097 1268 2742 
Q 959 2388 959 1747 
Q 959 1106 1268 751 
Q 1578 397 2138 397 
Q 2388 397 2633 464 
Q 2878 531 3122 666 
L 3122 134 
Q 2881 22 2623 -34 
Q 2366 -91 2075 -91 
Q 1284 -91 818 406 
Q 353 903 353 1747 
Q 353 2603 823 3093 
Q 1294 3584 2113 3584 
Q 2378 3584 2631 3529 
Q 2884 3475 3122 3366 
z
" transform="scale(0.015625)"/>
      <path id="DejaVuSans-72" d="M 2631 2963 
Q 2534 3019 2420 3045 
Q 2306 3072 2169 3072 
Q 1681 3072 1420 2755 
Q 1159 2438 1159 1844 
L 1159 0 
L 581 0 
L 581 3500 
L 1159 3500 
L 1159 2956 
Q 1341 3275 1631 3429 
Q 1922 3584 2338 3584 
Q 2397 3584 2469 3576 
Q 2541 3569 2628 3553 
L 2631 2963 
z
" transform="scale(0.015625)"/>
      <path id="DejaVuSans-65" d="M 3597 1894 
L 3597 1613 
L 953 1613 
Q 991 1019 1311 708 
Q 1631 397 2203 397 
Q 2534 397 2845 478 
Q 3156 559 3463 722 
L 3463 178 
Q 3153 47 2828 -22 
Q 2503 -91 2169 -91 
Q 1331 -91 842 396 
Q 353 884 353 1716 
Q 353 2575 817 3079 
Q 1281 3584 2069 3584 
Q 2775 3584 3186 3129 
Q 3597 2675 3597 1894 
z
M 3022 2063 
Q 3016 2534 2758 2815 
Q 2500 3097 2075 3097 
Q 1594 3097 1305 2825 
Q 1016 2553 972 2059 
L 3022 2063 
z
" transform="scale(0.015625)"/>
      <path id="DejaVuSans-20" transform="scale(0.015625)"/>
      <path id="DejaVuSans-66" d="M 2375 4863 
L 2375 4384 
L 1825 4384 
Q 1516 4384 1395 4259 
Q 1275 4134 1275 3809 
L 1275 3500 
L 2222 3500 
L 2222 3053 
L 1275 3053 
L 1275 0 
L 697 0 
L 697 3053 
L 147 3053 
L 147 3500 
L 697 3500 
L 697 3744 
Q 697 4328 969 4595 
Q 1241 4863 1831 4863 
L 2375 4863 
z
" transform="scale(0.015625)"/>
      <path id="DejaVuSans-54" d="M -19 4666 
L 3928 4666 
L 3928 4134 
L 2272 4134 
L 2272 0 
L 1638 0 
L 1638 4134 
L -19 4134 
L -19 4666 
z
" transform="scale(0.015625)"/>
      <path id="DejaVuSans-77" d="M 269 3500 
L 844 3500 
L 1563 769 
L 2278 3500 
L 2956 3500 
L 3675 769 
L 4391 3500 
L 4966 3500 
L 4050 0 
L 3372 0 
L 2619 2869 
L 1863 0 
L 1184 0 
L 269 3500 
z
" transform="scale(0.015625)"/>
     </defs>
     <use xlink:href="#DejaVuSans-51"/>
     <use xlink:href="#DejaVuSans-44" x="78.710938"/>
     <use xlink:href="#DejaVuSans-5f" x="155.712891"/>
     <use xlink:href="#DejaVuSans-73" x="205.712891"/>
     <use xlink:href="#DejaVuSans-63" x="257.8125"/>
     <use xlink:href="#DejaVuSans-6f" x="312.792969"/>
     <use xlink:href="#DejaVuSans-72" x="373.974609"/>
     <use xlink:href="#DejaVuSans-65" x="412.837891"/>
     <use xlink:href="#DejaVuSans-20" x="474.361328"/>
     <use xlink:href="#DejaVuSans-66" x="506.148438"/>
     <use xlink:href="#DejaVuSans-6f" x="541.353516"/>
     <use xlink:href="#DejaVuSans-72" x="602.535156"/>
     <use xlink:href="#DejaVuSans-20" x="643.648438"/>
     <use xlink:href="#DejaVuSans-54" x="675.435547"/>
     <use xlink:href="#DejaVuSans-77" x="720.019531"/>
     <use xlink:href="#DejaVuSans-6f" x="801.806641"/>
    </g>
   </g>
   <g id="legend_1">
    <g id="patch_7">
     <path d="M 64.6 124.25325 
L 201.921875 124.25325 
Q 203.921875 124.25325 203.921875 122.25325 
L 203.921875 48.472 
Q 203.921875 46.472 201.921875 46.472 
L 64.6 46.472 
Q 62.6 46.472 62.6 48.472 
L 62.6 122.25325 
Q 62.6 124.25325 64.6 124.25325 
z
" style="fill: #ffffff; opacity: 0.8; stroke: #cccccc; stroke-linejoin: miter"/>
    </g>
    <g id="line2d_32">
     <path d="M 66.6 54.570438 
L 76.6 54.570438 
L 86.6 54.570438 
" style="fill: none; stroke: #000000; stroke-width: 2; stroke-linecap: square"/>
    </g>
    <g id="text_16">
     <!-- T_S_B_exLimit -->
     <g transform="translate(94.6 58.070438) scale(0.1 -0.1)">
      <defs>
       <path id="DejaVuSans-53" d="M 3425 4513 
L 3425 3897 
Q 3066 4069 2747 4153 
Q 2428 4238 2131 4238 
Q 1616 4238 1336 4038 
Q 1056 3838 1056 3469 
Q 1056 3159 1242 3001 
Q 1428 2844 1947 2747 
L 2328 2669 
Q 3034 2534 3370 2195 
Q 3706 1856 3706 1288 
Q 3706 609 3251 259 
Q 2797 -91 1919 -91 
Q 1588 -91 1214 -16 
Q 841 59 441 206 
L 441 856 
Q 825 641 1194 531 
Q 1563 422 1919 422 
Q 2459 422 2753 634 
Q 3047 847 3047 1241 
Q 3047 1584 2836 1778 
Q 2625 1972 2144 2069 
L 1759 2144 
Q 1053 2284 737 2584 
Q 422 2884 422 3419 
Q 422 4038 858 4394 
Q 1294 4750 2059 4750 
Q 2388 4750 2728 4690 
Q 3069 4631 3425 4513 
z
" transform="scale(0.015625)"/>
       <path id="DejaVuSans-42" d="M 1259 2228 
L 1259 519 
L 2272 519 
Q 2781 519 3026 730 
Q 3272 941 3272 1375 
Q 3272 1813 3026 2020 
Q 2781 2228 2272 2228 
L 1259 2228 
z
M 1259 4147 
L 1259 2741 
L 2194 2741 
Q 2656 2741 2882 2914 
Q 3109 3088 3109 3444 
Q 3109 3797 2882 3972 
Q 2656 4147 2194 4147 
L 1259 4147 
z
M 628 4666 
L 2241 4666 
Q 2963 4666 3353 4366 
Q 3744 4066 3744 3513 
Q 3744 3084 3544 2831 
Q 3344 2578 2956 2516 
Q 3422 2416 3680 2098 
Q 3938 1781 3938 1306 
Q 3938 681 3513 340 
Q 3088 0 2303 0 
L 628 0 
L 628 4666 
z
" transform="scale(0.015625)"/>
       <path id="DejaVuSans-78" d="M 3513 3500 
L 2247 1797 
L 3578 0 
L 2900 0 
L 1881 1375 
L 863 0 
L 184 0 
L 1544 1831 
L 300 3500 
L 978 3500 
L 1906 2253 
L 2834 3500 
L 3513 3500 
z
" transform="scale(0.015625)"/>
       <path id="DejaVuSans-4c" d="M 628 4666 
L 1259 4666 
L 1259 531 
L 3531 531 
L 3531 0 
L 628 0 
L 628 4666 
z
" transform="scale(0.015625)"/>
       <path id="DejaVuSans-6d" d="M 3328 2828 
Q 3544 3216 3844 3400 
Q 4144 3584 4550 3584 
Q 5097 3584 5394 3201 
Q 5691 2819 5691 2113 
L 5691 0 
L 5113 0 
L 5113 2094 
Q 5113 2597 4934 2840 
Q 4756 3084 4391 3084 
Q 3944 3084 3684 2787 
Q 3425 2491 3425 1978 
L 3425 0 
L 2847 0 
L 2847 2094 
Q 2847 2600 2669 2842 
Q 2491 3084 2119 3084 
Q 1678 3084 1418 2786 
Q 1159 2488 1159 1978 
L 1159 0 
L 581 0 
L 581 3500 
L 1159 3500 
L 1159 2956 
Q 1356 3278 1631 3431 
Q 1906 3584 2284 3584 
Q 2666 3584 2933 3390 
Q 3200 3197 3328 2828 
z
" transform="scale(0.015625)"/>
      </defs>
      <use xlink:href="#DejaVuSans-54"/>
      <use xlink:href="#DejaVuSans-5f" x="61.083984"/>
      <use xlink:href="#DejaVuSans-53" x="111.083984"/>
      <use xlink:href="#DejaVuSans-5f" x="174.560547"/>
      <use xlink:href="#DejaVuSans-42" x="224.560547"/>
      <use xlink:href="#DejaVuSans-5f" x="293.164062"/>
      <use xlink:href="#DejaVuSans-65" x="343.164062"/>
      <use xlink:href="#DejaVuSans-78" x="402.9375"/>
      <use xlink:href="#DejaVuSans-4c" x="462.117188"/>
      <use xlink:href="#DejaVuSans-69" x="517.830078"/>
      <use xlink:href="#DejaVuSans-6d" x="545.613281"/>
      <use xlink:href="#DejaVuSans-69" x="643.025391"/>
      <use xlink:href="#DejaVuSans-74" x="670.808594"/>
     </g>
    </g>
    <g id="line2d_33">
     <path d="M 66.6 69.526688 
L 76.6 69.526688 
L 86.6 69.526688 
" style="fill: none; stroke: #ff0000; stroke-width: 2; stroke-linecap: square"/>
    </g>
    <g id="text_17">
     <!-- T_SUfq_B_exLimit -->
     <g transform="translate(94.6 73.026688) scale(0.1 -0.1)">
      <defs>
       <path id="DejaVuSans-55" d="M 556 4666 
L 1191 4666 
L 1191 1831 
Q 1191 1081 1462 751 
Q 1734 422 2344 422 
Q 2950 422 3222 751 
Q 3494 1081 3494 1831 
L 3494 4666 
L 4128 4666 
L 4128 1753 
Q 4128 841 3676 375 
Q 3225 -91 2344 -91 
Q 1459 -91 1007 375 
Q 556 841 556 1753 
L 556 4666 
z
" transform="scale(0.015625)"/>
       <path id="DejaVuSans-71" d="M 947 1747 
Q 947 1113 1208 752 
Q 1469 391 1925 391 
Q 2381 391 2643 752 
Q 2906 1113 2906 1747 
Q 2906 2381 2643 2742 
Q 2381 3103 1925 3103 
Q 1469 3103 1208 2742 
Q 947 2381 947 1747 
z
M 2906 525 
Q 2725 213 2448 61 
Q 2172 -91 1784 -91 
Q 1150 -91 751 415 
Q 353 922 353 1747 
Q 353 2572 751 3078 
Q 1150 3584 1784 3584 
Q 2172 3584 2448 3432 
Q 2725 3281 2906 2969 
L 2906 3500 
L 3481 3500 
L 3481 -1331 
L 2906 -1331 
L 2906 525 
z
" transform="scale(0.015625)"/>
      </defs>
      <use xlink:href="#DejaVuSans-54"/>
      <use xlink:href="#DejaVuSans-5f" x="61.083984"/>
      <use xlink:href="#DejaVuSans-53" x="111.083984"/>
      <use xlink:href="#DejaVuSans-55" x="174.560547"/>
      <use xlink:href="#DejaVuSans-66" x="247.753906"/>
      <use xlink:href="#DejaVuSans-71" x="282.958984"/>
      <use xlink:href="#DejaVuSans-5f" x="346.435547"/>
      <use xlink:href="#DejaVuSans-42" x="396.435547"/>
      <use xlink:href="#DejaVuSans-5f" x="465.039062"/>
      <use xlink:href="#DejaVuSans-65" x="515.039062"/>
      <use xlink:href="#DejaVuSans-78" x="574.8125"/>
      <use xlink:href="#DejaVuSans-4c" x="633.992188"/>
      <use xlink:href="#DejaVuSans-69" x="689.705078"/>
      <use xlink:href="#DejaVuSans-6d" x="717.488281"/>
      <use xlink:href="#DejaVuSans-69" x="814.900391"/>
      <use xlink:href="#DejaVuSans-74" x="842.683594"/>
     </g>
    </g>
    <g id="line2d_34">
     <path d="M 66.6 84.482938 
L 76.6 84.482938 
L 86.6 84.482938 
" style="fill: none; stroke: #4169e1; stroke-width: 2; stroke-linecap: square"/>
    </g>
    <g id="text_18">
     <!-- T_T_B_exLimit -->
     <g transform="translate(94.6 87.982938) scale(0.1 -0.1)">
      <use xlink:href="#DejaVuSans-54"/>
      <use xlink:href="#DejaVuSans-5f" x="61.083984"/>
      <use xlink:href="#DejaVuSans-54" x="111.083984"/>
      <use xlink:href="#DejaVuSans-5f" x="172.167969"/>
      <use xlink:href="#DejaVuSans-42" x="222.167969"/>
      <use xlink:href="#DejaVuSans-5f" x="290.771484"/>
      <use xlink:href="#DejaVuSans-65" x="340.771484"/>
      <use xlink:href="#DejaVuSans-78" x="400.544922"/>
      <use xlink:href="#DejaVuSans-4c" x="459.724609"/>
      <use xlink:href="#DejaVuSans-69" x="515.4375"/>
      <use xlink:href="#DejaVuSans-6d" x="543.220703"/>
      <use xlink:href="#DejaVuSans-69" x="640.632812"/>
      <use xlink:href="#DejaVuSans-74" x="668.416016"/>
     </g>
    </g>
    <g id="line2d_35">
     <path d="M 66.6 99.439188 
L 76.6 99.439188 
L 86.6 99.439188 
" style="fill: none; stroke: #ffd700; stroke-width: 2; stroke-linecap: square"/>
    </g>
    <g id="text_19">
     <!-- T_TWoff_B_exLimit -->
     <g transform="translate(94.6 102.939188) scale(0.1 -0.1)">
      <defs>
       <path id="DejaVuSans-57" d="M 213 4666 
L 850 4666 
L 1831 722 
L 2809 4666 
L 3519 4666 
L 4500 722 
L 5478 4666 
L 6119 4666 
L 4947 0 
L 4153 0 
L 3169 4050 
L 2175 0 
L 1381 0 
L 213 4666 
z
" transform="scale(0.015625)"/>
      </defs>
      <use xlink:href="#DejaVuSans-54"/>
      <use xlink:href="#DejaVuSans-5f" x="61.083984"/>
      <use xlink:href="#DejaVuSans-54" x="111.083984"/>
      <use xlink:href="#DejaVuSans-57" x="172.167969"/>
      <use xlink:href="#DejaVuSans-6f" x="265.169922"/>
      <use xlink:href="#DejaVuSans-66" x="326.351562"/>
      <use xlink:href="#DejaVuSans-66" x="361.556641"/>
      <use xlink:href="#DejaVuSans-5f" x="396.761719"/>
      <use xlink:href="#DejaVuSans-42" x="446.761719"/>
      <use xlink:href="#DejaVuSans-5f" x="515.365234"/>
      <use xlink:href="#DejaVuSans-65" x="565.365234"/>
      <use xlink:href="#DejaVuSans-78" x="625.138672"/>
      <use xlink:href="#DejaVuSans-4c" x="684.318359"/>
      <use xlink:href="#DejaVuSans-69" x="740.03125"/>
      <use xlink:href="#DejaVuSans-6d" x="767.814453"/>
      <use xlink:href="#DejaVuSans-69" x="865.226562"/>
      <use xlink:href="#DejaVuSans-74" x="893.009766"/>
     </g>
    </g>
    <g id="line2d_36">
     <path d="M 66.6 114.395438 
L 76.6 114.395438 
L 86.6 114.395438 
" style="fill: none; stroke: #228b22; stroke-width: 2; stroke-linecap: square"/>
    </g>
    <g id="text_20">
     <!-- T_TWoffFq_B_exLimit -->
     <g transform="translate(94.6 117.895438) scale(0.1 -0.1)">
      <defs>
       <path id="DejaVuSans-46" d="M 628 4666 
L 3309 4666 
L 3309 4134 
L 1259 4134 
L 1259 2759 
L 3109 2759 
L 3109 2228 
L 1259 2228 
L 1259 0 
L 628 0 
L 628 4666 
z
" transform="scale(0.015625)"/>
      </defs>
      <use xlink:href="#DejaVuSans-54"/>
      <use xlink:href="#DejaVuSans-5f" x="61.083984"/>
      <use xlink:href="#DejaVuSans-54" x="111.083984"/>
      <use xlink:href="#DejaVuSans-57" x="172.167969"/>
      <use xlink:href="#DejaVuSans-6f" x="265.169922"/>
      <use xlink:href="#DejaVuSans-66" x="326.351562"/>
      <use xlink:href="#DejaVuSans-66" x="361.556641"/>
      <use xlink:href="#DejaVuSans-46" x="396.761719"/>
      <use xlink:href="#DejaVuSans-71" x="454.28125"/>
      <use xlink:href="#DejaVuSans-5f" x="517.757812"/>
      <use xlink:href="#DejaVuSans-42" x="567.757812"/>
      <use xlink:href="#DejaVuSans-5f" x="636.361328"/>
      <use xlink:href="#DejaVuSans-65" x="686.361328"/>
      <use xlink:href="#DejaVuSans-78" x="746.134766"/>
      <use xlink:href="#DejaVuSans-4c" x="805.314453"/>
      <use xlink:href="#DejaVuSans-69" x="861.027344"/>
      <use xlink:href="#DejaVuSans-6d" x="888.810547"/>
      <use xlink:href="#DejaVuSans-69" x="986.222656"/>
      <use xlink:href="#DejaVuSans-74" x="1014.005859"/>
     </g>
    </g>
   </g>
  </g>
 </g>
 <defs>
  <clipPath id="p8ae4a41a12">
   <rect x="57.6" y="41.472" width="357.12" height="266.112"/>
  </clipPath>
 </defs>
</svg>
