<?xml version="1.0" encoding="utf-8" standalone="no"?>
<!DOCTYPE svg PUBLIC "-//W3C//DTD SVG 1.1//EN"
  "http://www.w3.org/Graphics/SVG/1.1/DTD/svg11.dtd">
<svg xmlns:xlink="http://www.w3.org/1999/xlink" width="460.8pt" height="345.6pt" viewBox="0 0 460.8 345.6" xmlns="http://www.w3.org/2000/svg" version="1.1">
 <metadata>
  <rdf:RDF xmlns:dc="http://purl.org/dc/elements/1.1/" xmlns:cc="http://creativecommons.org/ns#" xmlns:rdf="http://www.w3.org/1999/02/22-rdf-syntax-ns#">
   <cc:Work>
    <dc:type rdf:resource="http://purl.org/dc/dcmitype/StillImage"/>
    <dc:date>2024-03-18T15:04:01.659254</dc:date>
    <dc:format>image/svg+xml</dc:format>
    <dc:creator>
     <cc:Agent>
      <dc:title>Matplotlib v3.7.2, https://matplotlib.org/</dc:title>
     </cc:Agent>
    </dc:creator>
   </cc:Work>
  </rdf:RDF>
 </metadata>
 <defs>
  <style type="text/css">*{stroke-linejoin: round; stroke-linecap: butt}</style>
 </defs>
 <g id="figure_1">
  <g id="patch_1">
   <path d="M 0 345.6 
L 460.8 345.6 
L 460.8 0 
L 0 0 
z
" style="fill: #ffffff"/>
  </g>
  <g id="axes_1">
   <g id="patch_2">
    <path d="M 57.6 307.584 
L 414.72 307.584 
L 414.72 41.472 
L 57.6 41.472 
z
" style="fill: #ffffff"/>
   </g>
   <g id="PolyCollection_1">
    <path d="M 73.832727 295.488 
L 73.832727 293.17693 
L 77.112066 288.885269 
L 80.391405 285.450473 
L 83.670744 282.861526 
L 86.950083 280.232623 
L 90.229421 278.306484 
L 93.50876 276.140005 
L 96.788099 274.322938 
L 100.067438 272.492952 
L 103.346777 271.023843 
L 106.626116 269.400242 
L 109.905455 267.891004 
L 113.184793 266.540931 
L 116.464132 265.213773 
L 119.743471 263.778553 
L 123.02281 262.615905 
L 126.302149 261.442154 
L 129.581488 260.30818 
L 132.860826 259.32386 
L 136.140165 257.990341 
L 139.419504 256.834465 
L 142.698843 255.730817 
L 145.978182 254.854288 
L 149.257521 253.641542 
L 152.53686 252.651144 
L 155.816198 251.917241 
L 159.095537 250.966538 
L 162.374876 250.077648 
L 165.654215 249.245487 
L 168.933554 248.456896 
L 172.212893 247.487506 
L 175.492231 246.678839 
L 178.77157 245.943084 
L 182.050909 245.29608 
L 185.330248 244.445398 
L 188.609587 243.777395 
L 191.888926 242.970349 
L 195.168264 242.170504 
L 198.447603 241.46674 
L 201.726942 240.762026 
L 205.006281 240.05719 
L 208.28562 239.466766 
L 211.564959 238.758175 
L 214.844298 238.231923 
L 218.123636 237.640365 
L 221.402975 236.958138 
L 224.682314 236.343229 
L 227.961653 235.807914 
L 231.240992 235.311883 
L 234.520331 234.654965 
L 237.799669 234.044455 
L 241.079008 233.47459 
L 244.358347 232.996723 
L 247.637686 232.558921 
L 250.917025 232.039079 
L 254.196364 231.550793 
L 257.475702 230.971542 
L 260.755041 230.546366 
L 264.03438 230.038454 
L 267.313719 229.565605 
L 270.593058 229.100016 
L 273.872397 228.669922 
L 277.151736 228.19944 
L 280.431074 227.685112 
L 283.710413 227.23854 
L 286.989752 226.741829 
L 290.269091 226.287622 
L 293.54843 225.912107 
L 296.827769 225.416894 
L 300.107107 224.908829 
L 303.386446 224.413436 
L 306.665785 223.925583 
L 309.945124 223.479812 
L 313.224463 223.135089 
L 316.503802 222.654173 
L 319.78314 222.2085 
L 323.062479 221.812388 
L 326.341818 221.329533 
L 329.621157 220.871081 
L 332.900496 220.382223 
L 336.179835 220.051535 
L 339.459174 219.623652 
L 342.738512 219.272114 
L 346.017851 219.004115 
L 349.29719 218.577099 
L 352.576529 218.168725 
L 355.855868 217.858447 
L 359.135207 217.495332 
L 362.414545 217.01573 
L 365.693884 216.687582 
L 368.973223 216.302108 
L 372.252562 215.849461 
L 375.531901 215.517546 
L 378.81124 215.056158 
L 382.090579 214.719959 
L 385.369917 214.291661 
L 388.649256 214.004482 
L 391.928595 213.756717 
L 395.207934 213.376558 
L 398.487273 213.029095 
L 398.487273 235.306432 
L 398.487273 235.306432 
L 395.207934 235.557166 
L 391.928595 235.904256 
L 388.649256 236.122143 
L 385.369917 236.364864 
L 382.090579 236.702363 
L 378.81124 236.940618 
L 375.531901 237.262904 
L 372.252562 237.509074 
L 368.973223 237.743871 
L 365.693884 238.027405 
L 362.414545 238.223849 
L 359.135207 238.471078 
L 355.855868 238.638001 
L 352.576529 238.910137 
L 349.29719 239.210576 
L 346.017851 239.510391 
L 342.738512 239.878439 
L 339.459174 240.208898 
L 336.179835 240.381725 
L 332.900496 240.727448 
L 329.621157 240.975756 
L 326.341818 241.305029 
L 323.062479 241.612135 
L 319.78314 241.850253 
L 316.503802 242.170378 
L 313.224463 242.507775 
L 309.945124 242.772422 
L 306.665785 243.096359 
L 303.386446 243.435758 
L 300.107107 243.73675 
L 296.827769 244.025908 
L 293.54843 244.262833 
L 290.269091 244.703535 
L 286.989752 245.07239 
L 283.710413 245.381282 
L 280.431074 245.785565 
L 277.151736 246.091366 
L 273.872397 246.464476 
L 270.593058 246.917501 
L 267.313719 247.285728 
L 264.03438 247.570576 
L 260.755041 247.91352 
L 257.475702 248.348975 
L 254.196364 248.694185 
L 250.917025 249.05033 
L 247.637686 249.454249 
L 244.358347 249.867861 
L 241.079008 250.313617 
L 237.799669 250.699777 
L 234.520331 251.047806 
L 231.240992 251.619964 
L 227.961653 251.985402 
L 224.682314 252.435303 
L 221.402975 252.805191 
L 218.123636 253.286674 
L 214.844298 253.75268 
L 211.564959 254.180637 
L 208.28562 254.663831 
L 205.006281 255.112254 
L 201.726942 255.640126 
L 198.447603 256.170632 
L 195.168264 256.860053 
L 191.888926 257.37085 
L 188.609587 257.931708 
L 185.330248 258.614152 
L 182.050909 259.167968 
L 178.77157 259.780767 
L 175.492231 260.288472 
L 172.212893 260.887376 
L 168.933554 261.489945 
L 165.654215 262.008923 
L 162.374876 262.66101 
L 159.095537 263.389472 
L 155.816198 263.94243 
L 152.53686 264.623082 
L 149.257521 265.355205 
L 145.978182 265.962468 
L 142.698843 266.778293 
L 139.419504 267.514906 
L 136.140165 268.316611 
L 132.860826 269.27448 
L 129.581488 270.087263 
L 126.302149 270.880424 
L 123.02281 271.854063 
L 119.743471 272.731261 
L 116.464132 273.672626 
L 113.184793 274.647331 
L 109.905455 275.677614 
L 106.626116 276.665773 
L 103.346777 277.614851 
L 100.067438 278.886998 
L 96.788099 280.114058 
L 93.50876 281.591472 
L 90.229421 283.074928 
L 86.950083 284.896491 
L 83.670744 286.877738 
L 80.391405 289.242663 
L 77.112066 292.131181 
L 73.832727 295.488 
z
" clip-path="url(#p65b0382e77)" style="fill: #808080; fill-opacity: 0.5"/>
   </g>
   <g id="PolyCollection_2">
    <path d="M 73.832727 294.652076 
L 73.832727 291.645208 
L 77.112066 284.520112 
L 80.391405 278.112736 
L 83.670744 272.705187 
L 86.950083 267.383477 
L 90.229421 262.166412 
L 93.50876 257.58267 
L 96.788099 253.226684 
L 100.067438 248.923346 
L 103.346777 245.040328 
L 106.626116 241.226374 
L 109.905455 237.727749 
L 113.184793 233.954235 
L 116.464132 230.501382 
L 119.743471 227.25537 
L 123.02281 224.276189 
L 126.302149 221.221244 
L 129.581488 218.287056 
L 132.860826 215.449993 
L 136.140165 212.859252 
L 139.419504 210.374256 
L 142.698843 207.745927 
L 145.978182 205.517917 
L 149.257521 203.012849 
L 152.53686 200.641595 
L 155.816198 198.312708 
L 159.095537 195.970822 
L 162.374876 193.773061 
L 165.654215 191.667911 
L 168.933554 189.208986 
L 172.212893 187.213854 
L 175.492231 185.028283 
L 178.77157 183.162165 
L 182.050909 181.093316 
L 185.330248 179.226156 
L 188.609587 177.472245 
L 191.888926 175.551302 
L 195.168264 173.80741 
L 198.447603 172.224134 
L 201.726942 170.844614 
L 205.006281 169.29647 
L 208.28562 167.638603 
L 211.564959 166.239418 
L 214.844298 164.868673 
L 218.123636 163.315295 
L 221.402975 162.063446 
L 224.682314 160.773257 
L 227.961653 159.344047 
L 231.240992 158.09833 
L 234.520331 156.811058 
L 237.799669 155.417512 
L 241.079008 154.262252 
L 244.358347 153.099167 
L 247.637686 152.001427 
L 250.917025 151.071937 
L 254.196364 150.150853 
L 257.475702 149.105857 
L 260.755041 147.962129 
L 264.03438 146.882966 
L 267.313719 145.774242 
L 270.593058 144.712508 
L 273.872397 143.957865 
L 277.151736 142.957803 
L 280.431074 141.920288 
L 283.710413 140.999218 
L 286.989752 140.099666 
L 290.269091 139.195571 
L 293.54843 138.417078 
L 296.827769 137.594365 
L 300.107107 136.800743 
L 303.386446 136.054981 
L 306.665785 135.296043 
L 309.945124 134.585061 
L 313.224463 133.56583 
L 316.503802 132.901061 
L 319.78314 132.186992 
L 323.062479 131.473543 
L 326.341818 130.709653 
L 329.621157 130.121654 
L 332.900496 129.433197 
L 336.179835 128.799259 
L 339.459174 128.089586 
L 342.738512 127.359316 
L 346.017851 126.659467 
L 349.29719 126.011873 
L 352.576529 125.351448 
L 355.855868 124.727104 
L 359.135207 124.051972 
L 362.414545 123.51456 
L 365.693884 122.918463 
L 368.973223 122.39419 
L 372.252562 121.688797 
L 375.531901 121.09267 
L 378.81124 120.43551 
L 382.090579 119.873814 
L 385.369917 119.260136 
L 388.649256 118.685473 
L 391.928595 118.099284 
L 395.207934 117.667017 
L 398.487273 117.087082 
L 398.487273 145.523702 
L 398.487273 145.523702 
L 395.207934 146.107059 
L 391.928595 146.698975 
L 388.649256 147.366722 
L 385.369917 148.013034 
L 382.090579 148.706506 
L 378.81124 149.315085 
L 375.531901 149.936164 
L 372.252562 150.634895 
L 368.973223 151.228132 
L 365.693884 151.828324 
L 362.414545 152.456553 
L 359.135207 153.20995 
L 355.855868 153.943365 
L 352.576529 154.637903 
L 349.29719 155.208091 
L 346.017851 155.872534 
L 342.738512 156.589893 
L 339.459174 157.194845 
L 336.179835 157.865927 
L 332.900496 158.510087 
L 329.621157 159.375294 
L 326.341818 160.060086 
L 323.062479 160.84539 
L 319.78314 161.610044 
L 316.503802 162.314718 
L 313.224463 163.071627 
L 309.945124 163.818075 
L 306.665785 164.669974 
L 303.386446 165.493331 
L 300.107107 166.435173 
L 296.827769 167.338792 
L 293.54843 168.161923 
L 290.269091 169.020614 
L 286.989752 169.911807 
L 283.710413 170.85489 
L 280.431074 171.768355 
L 277.151736 172.683812 
L 273.872397 173.625551 
L 270.593058 174.634771 
L 267.313719 175.435086 
L 264.03438 176.479059 
L 260.755041 177.483458 
L 257.475702 178.540474 
L 254.196364 179.693427 
L 250.917025 180.725875 
L 247.637686 181.586505 
L 244.358347 182.797332 
L 241.079008 183.880243 
L 237.799669 184.913854 
L 234.520331 186.052063 
L 231.240992 187.249061 
L 227.961653 188.531607 
L 224.682314 189.488758 
L 221.402975 190.582138 
L 218.123636 192.028808 
L 214.844298 193.380237 
L 211.564959 194.627563 
L 208.28562 196.092962 
L 205.006281 197.579712 
L 201.726942 198.88023 
L 198.447603 200.436384 
L 195.168264 202.137951 
L 191.888926 203.614935 
L 188.609587 204.960679 
L 185.330248 206.655721 
L 182.050909 208.170474 
L 178.77157 209.597087 
L 175.492231 211.167073 
L 172.212893 212.923063 
L 168.933554 214.559988 
L 165.654215 216.520707 
L 162.374876 218.212143 
L 159.095537 219.954686 
L 155.816198 221.865819 
L 152.53686 223.691208 
L 149.257521 225.491268 
L 145.978182 227.382519 
L 142.698843 229.081405 
L 139.419504 231.185714 
L 136.140165 233.212821 
L 132.860826 235.415335 
L 129.581488 237.648766 
L 126.302149 239.97544 
L 123.02281 242.203284 
L 119.743471 244.353258 
L 116.464132 247.010998 
L 113.184793 249.446114 
L 109.905455 252.174409 
L 106.626116 255.143654 
L 103.346777 258.195203 
L 100.067438 261.369452 
L 96.788099 264.550625 
L 93.50876 267.852896 
L 90.229421 271.573932 
L 86.950083 275.259703 
L 83.670744 279.250054 
L 80.391405 284.028747 
L 77.112066 288.870065 
L 73.832727 294.652076 
z
" clip-path="url(#p65b0382e77)" style="fill: #f08080; fill-opacity: 0.5"/>
   </g>
   <g id="PolyCollection_3">
    <path d="M 73.832727 283.29874 
L 73.832727 279.777119 
L 77.112066 263.594448 
L 80.391405 250.3304 
L 83.670744 238.481533 
L 86.950083 228.303383 
L 90.229421 219.151102 
L 93.50876 210.560693 
L 96.788099 203.202267 
L 100.067438 196.222111 
L 103.346777 189.568749 
L 106.626116 183.716657 
L 109.905455 177.817058 
L 113.184793 172.207739 
L 116.464132 166.773534 
L 119.743471 161.963177 
L 123.02281 157.545267 
L 126.302149 153.2322 
L 129.581488 149.162656 
L 132.860826 144.938421 
L 136.140165 141.181392 
L 139.419504 137.748892 
L 142.698843 134.446134 
L 145.978182 131.387365 
L 149.257521 128.368231 
L 152.53686 125.64171 
L 155.816198 122.789192 
L 159.095537 120.006374 
L 162.374876 117.59543 
L 165.654215 114.965452 
L 168.933554 112.708667 
L 172.212893 110.382594 
L 175.492231 108.391825 
L 178.77157 106.421983 
L 182.050909 104.261157 
L 185.330248 102.641824 
L 188.609587 100.768169 
L 191.888926 98.853885 
L 195.168264 97.100267 
L 198.447603 95.345299 
L 201.726942 93.89146 
L 205.006281 92.368546 
L 208.28562 91.045273 
L 211.564959 89.834372 
L 214.844298 88.484673 
L 218.123636 87.3032 
L 221.402975 85.937496 
L 224.682314 84.859138 
L 227.961653 83.779994 
L 231.240992 82.546498 
L 234.520331 81.354096 
L 237.799669 80.469937 
L 241.079008 79.447126 
L 244.358347 78.429012 
L 247.637686 77.555987 
L 250.917025 76.757779 
L 254.196364 75.843726 
L 257.475702 74.866395 
L 260.755041 74.06859 
L 264.03438 73.399775 
L 267.313719 72.559762 
L 270.593058 71.818192 
L 273.872397 71.097866 
L 277.151736 70.288675 
L 280.431074 69.57903 
L 283.710413 68.932221 
L 286.989752 68.351134 
L 290.269091 67.840095 
L 293.54843 67.240335 
L 296.827769 66.678194 
L 300.107107 66.151885 
L 303.386446 65.557783 
L 306.665785 65.014342 
L 309.945124 64.395918 
L 313.224463 63.74635 
L 316.503802 63.180609 
L 319.78314 62.688251 
L 323.062479 62.194698 
L 326.341818 61.729113 
L 329.621157 61.232138 
L 332.900496 60.769194 
L 336.179835 60.28597 
L 339.459174 59.841728 
L 342.738512 59.36516 
L 346.017851 58.928612 
L 349.29719 58.58968 
L 352.576529 58.237639 
L 355.855868 57.796492 
L 359.135207 57.411564 
L 362.414545 56.995887 
L 365.693884 56.548202 
L 368.973223 56.133305 
L 372.252562 55.867388 
L 375.531901 55.524868 
L 378.81124 55.286077 
L 382.090579 54.966225 
L 385.369917 54.697887 
L 388.649256 54.419775 
L 391.928595 54.224359 
L 395.207934 53.889375 
L 398.487273 53.568 
L 398.487273 61.83461 
L 398.487273 61.83461 
L 395.207934 62.127494 
L 391.928595 62.453417 
L 388.649256 62.897958 
L 385.369917 63.190807 
L 382.090579 63.58198 
L 378.81124 64.057675 
L 375.531901 64.45912 
L 372.252562 64.816614 
L 368.973223 65.243449 
L 365.693884 65.672703 
L 362.414545 66.150038 
L 359.135207 66.648485 
L 355.855868 67.169302 
L 352.576529 67.502892 
L 349.29719 67.858128 
L 346.017851 68.383319 
L 342.738512 68.811733 
L 339.459174 69.272894 
L 336.179835 69.778113 
L 332.900496 70.297562 
L 329.621157 70.813549 
L 326.341818 71.354166 
L 323.062479 71.828264 
L 319.78314 72.356241 
L 316.503802 72.923821 
L 313.224463 73.45489 
L 309.945124 74.10493 
L 306.665785 74.69491 
L 303.386446 75.36574 
L 300.107107 75.950712 
L 296.827769 76.5937 
L 293.54843 77.360636 
L 290.269091 78.009925 
L 286.989752 78.69039 
L 283.710413 79.531958 
L 280.431074 80.272748 
L 277.151736 81.038272 
L 273.872397 81.996854 
L 270.593058 82.878517 
L 267.313719 83.689073 
L 264.03438 84.514038 
L 260.755041 85.291622 
L 257.475702 86.166057 
L 254.196364 86.923398 
L 250.917025 87.738711 
L 247.637686 88.61442 
L 244.358347 89.745905 
L 241.079008 90.74948 
L 237.799669 91.867216 
L 234.520331 93.021227 
L 231.240992 94.062251 
L 227.961653 95.207294 
L 224.682314 96.43155 
L 221.402975 98.028526 
L 218.123636 99.266785 
L 214.844298 100.69612 
L 211.564959 102.168266 
L 208.28562 103.792618 
L 205.006281 105.185323 
L 201.726942 106.719175 
L 198.447603 108.449759 
L 195.168264 110.156873 
L 191.888926 111.944109 
L 188.609587 113.763979 
L 185.330248 115.464839 
L 182.050909 117.468485 
L 178.77157 119.537773 
L 175.492231 121.671646 
L 172.212893 123.770765 
L 168.933554 126.154566 
L 165.654215 128.294658 
L 162.374876 130.688665 
L 159.095537 133.306873 
L 155.816198 135.882685 
L 152.53686 138.729864 
L 149.257521 141.780975 
L 145.978182 144.862524 
L 142.698843 148.449003 
L 139.419504 151.879903 
L 136.140165 155.358577 
L 132.860826 158.659234 
L 129.581488 162.592707 
L 126.302149 166.583105 
L 123.02281 170.735714 
L 119.743471 175.094938 
L 116.464132 179.928633 
L 113.184793 184.791844 
L 109.905455 190.210823 
L 106.626116 195.651819 
L 103.346777 201.299264 
L 100.067438 207.139034 
L 96.788099 213.811252 
L 93.50876 220.712056 
L 90.229421 228.4555 
L 86.950083 236.673127 
L 83.670744 245.844953 
L 80.391405 256.493752 
L 77.112066 268.584133 
L 73.832727 283.29874 
z
" clip-path="url(#p65b0382e77)" style="fill: #000080; fill-opacity: 0.5"/>
   </g>
   <g id="PolyCollection_4">
    <path d="M 73.832727 286.349109 
L 73.832727 282.796568 
L 77.112066 269.109587 
L 80.391405 258.374494 
L 83.670744 249.347051 
L 86.950083 240.817913 
L 90.229421 233.017584 
L 93.50876 226.004436 
L 96.788099 218.927493 
L 100.067438 212.631035 
L 103.346777 206.388039 
L 106.626116 200.304151 
L 109.905455 194.952964 
L 113.184793 189.79366 
L 116.464132 185.196694 
L 119.743471 180.534623 
L 123.02281 176.44257 
L 126.302149 171.98481 
L 129.581488 168.256612 
L 132.860826 164.504046 
L 136.140165 160.92767 
L 139.419504 157.271619 
L 142.698843 153.808884 
L 145.978182 150.554834 
L 149.257521 147.286452 
L 152.53686 144.089891 
L 155.816198 141.564886 
L 159.095537 138.972559 
L 162.374876 136.276406 
L 165.654215 134.04298 
L 168.933554 131.567124 
L 172.212893 129.089459 
L 175.492231 126.737353 
L 178.77157 124.560426 
L 182.050909 122.700679 
L 185.330248 120.918177 
L 188.609587 119.107673 
L 191.888926 117.122075 
L 195.168264 115.277604 
L 198.447603 113.503588 
L 201.726942 111.678793 
L 205.006281 109.8596 
L 208.28562 108.268219 
L 211.564959 106.798493 
L 214.844298 105.306646 
L 218.123636 103.858006 
L 221.402975 102.343173 
L 224.682314 100.956203 
L 227.961653 99.637884 
L 231.240992 98.240891 
L 234.520331 96.899328 
L 237.799669 95.667284 
L 241.079008 94.277824 
L 244.358347 93.228645 
L 247.637686 92.117958 
L 250.917025 90.983043 
L 254.196364 89.796266 
L 257.475702 88.811038 
L 260.755041 87.758689 
L 264.03438 86.84908 
L 267.313719 85.858013 
L 270.593058 84.853183 
L 273.872397 83.859604 
L 277.151736 83.060866 
L 280.431074 82.268989 
L 283.710413 81.448715 
L 286.989752 80.59792 
L 290.269091 79.949474 
L 293.54843 79.104706 
L 296.827769 78.495539 
L 300.107107 77.567467 
L 303.386446 76.870111 
L 306.665785 76.077238 
L 309.945124 75.428291 
L 313.224463 74.921641 
L 316.503802 74.23186 
L 319.78314 73.684442 
L 323.062479 73.083572 
L 326.341818 72.389949 
L 329.621157 71.877061 
L 332.900496 71.290881 
L 336.179835 70.815239 
L 339.459174 70.243559 
L 342.738512 69.66273 
L 346.017851 69.133578 
L 349.29719 68.594007 
L 352.576529 68.189546 
L 355.855868 67.659969 
L 359.135207 67.226573 
L 362.414545 66.745766 
L 365.693884 66.27039 
L 368.973223 65.814183 
L 372.252562 65.271581 
L 375.531901 64.842034 
L 378.81124 64.391085 
L 382.090579 63.940057 
L 385.369917 63.558452 
L 388.649256 63.098034 
L 391.928595 62.744215 
L 395.207934 62.297696 
L 398.487273 62.03006 
L 398.487273 73.655227 
L 398.487273 73.655227 
L 395.207934 74.139561 
L 391.928595 74.654654 
L 388.649256 75.13116 
L 385.369917 75.543385 
L 382.090579 75.929673 
L 378.81124 76.425033 
L 375.531901 76.869773 
L 372.252562 77.365803 
L 368.973223 77.963168 
L 365.693884 78.446924 
L 362.414545 78.991961 
L 359.135207 79.557962 
L 355.855868 80.186041 
L 352.576529 80.702295 
L 349.29719 81.198272 
L 346.017851 81.847552 
L 342.738512 82.370936 
L 339.459174 83.048652 
L 336.179835 83.666521 
L 332.900496 84.45529 
L 329.621157 85.034497 
L 326.341818 85.631408 
L 323.062479 86.313652 
L 319.78314 86.967835 
L 316.503802 87.690555 
L 313.224463 88.465608 
L 309.945124 89.195017 
L 306.665785 90.069705 
L 303.386446 90.782309 
L 300.107107 91.474786 
L 296.827769 92.440468 
L 293.54843 93.373372 
L 290.269091 94.257829 
L 286.989752 95.122821 
L 283.710413 95.9641 
L 280.431074 96.82305 
L 277.151736 97.841545 
L 273.872397 98.86575 
L 270.593058 99.896794 
L 267.313719 100.884043 
L 264.03438 101.894832 
L 260.755041 102.851742 
L 257.475702 104.048042 
L 254.196364 105.210763 
L 250.917025 106.483952 
L 247.637686 107.720734 
L 244.358347 109.068617 
L 241.079008 110.539321 
L 237.799669 111.790558 
L 234.520331 113.11136 
L 231.240992 114.420269 
L 227.961653 115.749031 
L 224.682314 117.109956 
L 221.402975 118.520111 
L 218.123636 119.910086 
L 214.844298 121.486787 
L 211.564959 123.091232 
L 208.28562 124.777995 
L 205.006281 126.465033 
L 201.726942 128.001076 
L 198.447603 129.875938 
L 195.168264 131.660514 
L 191.888926 133.408574 
L 188.609587 135.543731 
L 185.330248 137.501042 
L 182.050909 139.625043 
L 178.77157 141.902253 
L 175.492231 143.8208 
L 172.212893 145.813336 
L 168.933554 147.943865 
L 165.654215 150.202744 
L 162.374876 152.73366 
L 159.095537 155.316526 
L 155.816198 157.871511 
L 152.53686 160.593121 
L 149.257521 163.697667 
L 145.978182 166.565444 
L 142.698843 169.59113 
L 139.419504 173.361085 
L 136.140165 176.548331 
L 132.860826 179.977265 
L 129.581488 183.272888 
L 126.302149 187.143868 
L 123.02281 191.336983 
L 119.743471 195.302357 
L 116.464132 199.637117 
L 113.184793 204.206261 
L 109.905455 208.713913 
L 106.626116 213.641707 
L 103.346777 218.611816 
L 100.067438 224.143921 
L 96.788099 229.861116 
L 93.50876 235.693516 
L 90.229421 242.225616 
L 86.950083 249.07377 
L 83.670744 256.839658 
L 80.391405 265.235476 
L 77.112066 275.105133 
L 73.832727 286.349109 
z
" clip-path="url(#p65b0382e77)" style="fill: #ffa500; fill-opacity: 0.5"/>
   </g>
   <g id="PolyCollection_5">
    <path d="M 73.832727 292.264548 
L 73.832727 289.125652 
L 77.112066 283.174816 
L 80.391405 278.923295 
L 83.670744 275.637383 
L 86.950083 272.50134 
L 90.229421 269.916805 
L 93.50876 267.551702 
L 96.788099 265.248412 
L 100.067438 263.057636 
L 103.346777 260.945896 
L 106.626116 258.981342 
L 109.905455 256.968947 
L 113.184793 255.358157 
L 116.464132 253.666116 
L 119.743471 251.848248 
L 123.02281 250.323292 
L 126.302149 248.652306 
L 129.581488 247.211731 
L 132.860826 245.891477 
L 136.140165 244.575509 
L 139.419504 243.101175 
L 142.698843 241.97792 
L 145.978182 240.74204 
L 149.257521 239.652398 
L 152.53686 238.696727 
L 155.816198 237.482683 
L 159.095537 236.47383 
L 162.374876 235.33796 
L 165.654215 234.225854 
L 168.933554 233.334596 
L 172.212893 232.32564 
L 175.492231 231.201766 
L 178.77157 230.214573 
L 182.050909 229.120545 
L 185.330248 228.179694 
L 188.609587 227.348698 
L 191.888926 226.34348 
L 195.168264 225.503802 
L 198.447603 224.595509 
L 201.726942 223.583162 
L 205.006281 222.665352 
L 208.28562 221.872567 
L 211.564959 220.95968 
L 214.844298 220.136738 
L 218.123636 219.379359 
L 221.402975 218.55038 
L 224.682314 217.769497 
L 227.961653 216.902626 
L 231.240992 216.053359 
L 234.520331 215.219203 
L 237.799669 214.442697 
L 241.079008 213.833151 
L 244.358347 213.072507 
L 247.637686 212.394012 
L 250.917025 211.664898 
L 254.196364 210.838818 
L 257.475702 210.087218 
L 260.755041 209.405496 
L 264.03438 208.843266 
L 267.313719 208.138954 
L 270.593058 207.4708 
L 273.872397 206.926641 
L 277.151736 206.143227 
L 280.431074 205.56527 
L 283.710413 205.092942 
L 286.989752 204.343879 
L 290.269091 203.694861 
L 293.54843 203.12051 
L 296.827769 202.437162 
L 300.107107 201.88 
L 303.386446 201.28771 
L 306.665785 200.765582 
L 309.945124 200.182154 
L 313.224463 199.458501 
L 316.503802 198.865772 
L 319.78314 198.297541 
L 323.062479 197.777478 
L 326.341818 197.279947 
L 329.621157 196.766006 
L 332.900496 196.198065 
L 336.179835 195.607677 
L 339.459174 195.081985 
L 342.738512 194.496763 
L 346.017851 193.961152 
L 349.29719 193.492711 
L 352.576529 193.087144 
L 355.855868 192.668507 
L 359.135207 192.18394 
L 362.414545 191.686925 
L 365.693884 191.192768 
L 368.973223 190.754385 
L 372.252562 190.349276 
L 375.531901 189.815392 
L 378.81124 189.34399 
L 382.090579 188.876022 
L 385.369917 188.348275 
L 388.649256 187.898375 
L 391.928595 187.439847 
L 395.207934 186.961186 
L 398.487273 186.44495 
L 398.487273 213.024775 
L 398.487273 213.024775 
L 395.207934 213.31051 
L 391.928595 213.686336 
L 388.649256 214.024333 
L 385.369917 214.428779 
L 382.090579 214.777867 
L 378.81124 215.158938 
L 375.531901 215.532386 
L 372.252562 215.957739 
L 368.973223 216.337702 
L 365.693884 216.714979 
L 362.414545 217.037458 
L 359.135207 217.381242 
L 355.855868 217.901584 
L 352.576529 218.29707 
L 349.29719 218.625735 
L 346.017851 218.950886 
L 342.738512 219.320182 
L 339.459174 219.721293 
L 336.179835 220.03263 
L 332.900496 220.46838 
L 329.621157 220.85814 
L 326.341818 221.197149 
L 323.062479 221.602989 
L 319.78314 221.957106 
L 316.503802 222.359984 
L 313.224463 222.814902 
L 309.945124 223.209428 
L 306.665785 223.664848 
L 303.386446 224.291766 
L 300.107107 224.772542 
L 296.827769 225.247664 
L 293.54843 225.725653 
L 290.269091 226.202999 
L 286.989752 226.61378 
L 283.710413 227.070327 
L 280.431074 227.571344 
L 277.151736 227.977066 
L 273.872397 228.560718 
L 270.593058 228.904985 
L 267.313719 229.388671 
L 264.03438 229.882289 
L 260.755041 230.448015 
L 257.475702 231.060313 
L 254.196364 231.395747 
L 250.917025 231.849721 
L 247.637686 232.416722 
L 244.358347 232.958644 
L 241.079008 233.508921 
L 237.799669 233.950234 
L 234.520331 234.514816 
L 231.240992 235.088789 
L 227.961653 235.777543 
L 224.682314 236.303718 
L 221.402975 236.996747 
L 218.123636 237.675062 
L 214.844298 238.282934 
L 211.564959 238.929994 
L 208.28562 239.356101 
L 205.006281 239.989741 
L 201.726942 240.714563 
L 198.447603 241.402669 
L 195.168264 242.110052 
L 191.888926 242.859932 
L 188.609587 243.519412 
L 185.330248 244.230627 
L 182.050909 245.026962 
L 178.77157 245.914678 
L 175.492231 246.536317 
L 172.212893 247.336645 
L 168.933554 248.161385 
L 165.654215 248.986503 
L 162.374876 249.928768 
L 159.095537 250.888193 
L 155.816198 251.900889 
L 152.53686 252.871946 
L 149.257521 253.735306 
L 145.978182 254.656739 
L 142.698843 255.707079 
L 139.419504 256.696576 
L 136.140165 257.564329 
L 132.860826 258.492402 
L 129.581488 259.570101 
L 126.302149 260.470776 
L 123.02281 261.65711 
L 119.743471 262.834724 
L 116.464132 263.919988 
L 113.184793 265.192672 
L 109.905455 266.598704 
L 106.626116 267.866822 
L 103.346777 269.227197 
L 100.067438 270.63173 
L 96.788099 272.381956 
L 93.50876 273.9307 
L 90.229421 275.702833 
L 86.950083 277.83655 
L 83.670744 280.580096 
L 80.391405 283.375035 
L 77.112066 286.806353 
L 73.832727 292.264548 
z
" clip-path="url(#p65b0382e77)" style="fill: #00ff00; fill-opacity: 0.5"/>
   </g>
   <g id="matplotlib.axis_1">
    <g id="xtick_1">
     <g id="line2d_1">
      <path d="M 73.832727 307.584 
L 73.832727 41.472 
" clip-path="url(#p65b0382e77)" style="fill: none; stroke: #b0b0b0; stroke-width: 0.8; stroke-linecap: square"/>
     </g>
     <g id="line2d_2">
      <defs>
       <path id="maf46513a09" d="M 0 0 
L 0 3.5 
" style="stroke: #000000; stroke-width: 0.8"/>
      </defs>
      <g>
       <use xlink:href="#maf46513a09" x="73.832727" y="307.584" style="stroke: #000000; stroke-width: 0.8"/>
      </g>
     </g>
     <g id="text_1">
      <!-- 0 -->
      <g transform="translate(70.651477 322.182437) scale(0.1 -0.1)">
       <defs>
        <path id="DejaVuSans-30" d="M 2034 4250 
Q 1547 4250 1301 3770 
Q 1056 3291 1056 2328 
Q 1056 1369 1301 889 
Q 1547 409 2034 409 
Q 2525 409 2770 889 
Q 3016 1369 3016 2328 
Q 3016 3291 2770 3770 
Q 2525 4250 2034 4250 
z
M 2034 4750 
Q 2819 4750 3233 4129 
Q 3647 3509 3647 2328 
Q 3647 1150 3233 529 
Q 2819 -91 2034 -91 
Q 1250 -91 836 529 
Q 422 1150 422 2328 
Q 422 3509 836 4129 
Q 1250 4750 2034 4750 
z
" transform="scale(0.015625)"/>
       </defs>
       <use xlink:href="#DejaVuSans-30"/>
      </g>
     </g>
    </g>
    <g id="xtick_2">
     <g id="line2d_3">
      <path d="M 139.419504 307.584 
L 139.419504 41.472 
" clip-path="url(#p65b0382e77)" style="fill: none; stroke: #b0b0b0; stroke-width: 0.8; stroke-linecap: square"/>
     </g>
     <g id="line2d_4">
      <g>
       <use xlink:href="#maf46513a09" x="139.419504" y="307.584" style="stroke: #000000; stroke-width: 0.8"/>
      </g>
     </g>
     <g id="text_2">
      <!-- 2000 -->
      <g transform="translate(126.694504 322.182437) scale(0.1 -0.1)">
       <defs>
        <path id="DejaVuSans-32" d="M 1228 531 
L 3431 531 
L 3431 0 
L 469 0 
L 469 531 
Q 828 903 1448 1529 
Q 2069 2156 2228 2338 
Q 2531 2678 2651 2914 
Q 2772 3150 2772 3378 
Q 2772 3750 2511 3984 
Q 2250 4219 1831 4219 
Q 1534 4219 1204 4116 
Q 875 4013 500 3803 
L 500 4441 
Q 881 4594 1212 4672 
Q 1544 4750 1819 4750 
Q 2544 4750 2975 4387 
Q 3406 4025 3406 3419 
Q 3406 3131 3298 2873 
Q 3191 2616 2906 2266 
Q 2828 2175 2409 1742 
Q 1991 1309 1228 531 
z
" transform="scale(0.015625)"/>
       </defs>
       <use xlink:href="#DejaVuSans-32"/>
       <use xlink:href="#DejaVuSans-30" x="63.623047"/>
       <use xlink:href="#DejaVuSans-30" x="127.246094"/>
       <use xlink:href="#DejaVuSans-30" x="190.869141"/>
      </g>
     </g>
    </g>
    <g id="xtick_3">
     <g id="line2d_5">
      <path d="M 205.006281 307.584 
L 205.006281 41.472 
" clip-path="url(#p65b0382e77)" style="fill: none; stroke: #b0b0b0; stroke-width: 0.8; stroke-linecap: square"/>
     </g>
     <g id="line2d_6">
      <g>
       <use xlink:href="#maf46513a09" x="205.006281" y="307.584" style="stroke: #000000; stroke-width: 0.8"/>
      </g>
     </g>
     <g id="text_3">
      <!-- 4000 -->
      <g transform="translate(192.281281 322.182437) scale(0.1 -0.1)">
       <defs>
        <path id="DejaVuSans-34" d="M 2419 4116 
L 825 1625 
L 2419 1625 
L 2419 4116 
z
M 2253 4666 
L 3047 4666 
L 3047 1625 
L 3713 1625 
L 3713 1100 
L 3047 1100 
L 3047 0 
L 2419 0 
L 2419 1100 
L 313 1100 
L 313 1709 
L 2253 4666 
z
" transform="scale(0.015625)"/>
       </defs>
       <use xlink:href="#DejaVuSans-34"/>
       <use xlink:href="#DejaVuSans-30" x="63.623047"/>
       <use xlink:href="#DejaVuSans-30" x="127.246094"/>
       <use xlink:href="#DejaVuSans-30" x="190.869141"/>
      </g>
     </g>
    </g>
    <g id="xtick_4">
     <g id="line2d_7">
      <path d="M 270.593058 307.584 
L 270.593058 41.472 
" clip-path="url(#p65b0382e77)" style="fill: none; stroke: #b0b0b0; stroke-width: 0.8; stroke-linecap: square"/>
     </g>
     <g id="line2d_8">
      <g>
       <use xlink:href="#maf46513a09" x="270.593058" y="307.584" style="stroke: #000000; stroke-width: 0.8"/>
      </g>
     </g>
     <g id="text_4">
      <!-- 6000 -->
      <g transform="translate(257.868058 322.182437) scale(0.1 -0.1)">
       <defs>
        <path id="DejaVuSans-36" d="M 2113 2584 
Q 1688 2584 1439 2293 
Q 1191 2003 1191 1497 
Q 1191 994 1439 701 
Q 1688 409 2113 409 
Q 2538 409 2786 701 
Q 3034 994 3034 1497 
Q 3034 2003 2786 2293 
Q 2538 2584 2113 2584 
z
M 3366 4563 
L 3366 3988 
Q 3128 4100 2886 4159 
Q 2644 4219 2406 4219 
Q 1781 4219 1451 3797 
Q 1122 3375 1075 2522 
Q 1259 2794 1537 2939 
Q 1816 3084 2150 3084 
Q 2853 3084 3261 2657 
Q 3669 2231 3669 1497 
Q 3669 778 3244 343 
Q 2819 -91 2113 -91 
Q 1303 -91 875 529 
Q 447 1150 447 2328 
Q 447 3434 972 4092 
Q 1497 4750 2381 4750 
Q 2619 4750 2861 4703 
Q 3103 4656 3366 4563 
z
" transform="scale(0.015625)"/>
       </defs>
       <use xlink:href="#DejaVuSans-36"/>
       <use xlink:href="#DejaVuSans-30" x="63.623047"/>
       <use xlink:href="#DejaVuSans-30" x="127.246094"/>
       <use xlink:href="#DejaVuSans-30" x="190.869141"/>
      </g>
     </g>
    </g>
    <g id="xtick_5">
     <g id="line2d_9">
      <path d="M 336.179835 307.584 
L 336.179835 41.472 
" clip-path="url(#p65b0382e77)" style="fill: none; stroke: #b0b0b0; stroke-width: 0.8; stroke-linecap: square"/>
     </g>
     <g id="line2d_10">
      <g>
       <use xlink:href="#maf46513a09" x="336.179835" y="307.584" style="stroke: #000000; stroke-width: 0.8"/>
      </g>
     </g>
     <g id="text_5">
      <!-- 8000 -->
      <g transform="translate(323.454835 322.182437) scale(0.1 -0.1)">
       <defs>
        <path id="DejaVuSans-38" d="M 2034 2216 
Q 1584 2216 1326 1975 
Q 1069 1734 1069 1313 
Q 1069 891 1326 650 
Q 1584 409 2034 409 
Q 2484 409 2743 651 
Q 3003 894 3003 1313 
Q 3003 1734 2745 1975 
Q 2488 2216 2034 2216 
z
M 1403 2484 
Q 997 2584 770 2862 
Q 544 3141 544 3541 
Q 544 4100 942 4425 
Q 1341 4750 2034 4750 
Q 2731 4750 3128 4425 
Q 3525 4100 3525 3541 
Q 3525 3141 3298 2862 
Q 3072 2584 2669 2484 
Q 3125 2378 3379 2068 
Q 3634 1759 3634 1313 
Q 3634 634 3220 271 
Q 2806 -91 2034 -91 
Q 1263 -91 848 271 
Q 434 634 434 1313 
Q 434 1759 690 2068 
Q 947 2378 1403 2484 
z
M 1172 3481 
Q 1172 3119 1398 2916 
Q 1625 2713 2034 2713 
Q 2441 2713 2670 2916 
Q 2900 3119 2900 3481 
Q 2900 3844 2670 4047 
Q 2441 4250 2034 4250 
Q 1625 4250 1398 4047 
Q 1172 3844 1172 3481 
z
" transform="scale(0.015625)"/>
       </defs>
       <use xlink:href="#DejaVuSans-38"/>
       <use xlink:href="#DejaVuSans-30" x="63.623047"/>
       <use xlink:href="#DejaVuSans-30" x="127.246094"/>
       <use xlink:href="#DejaVuSans-30" x="190.869141"/>
      </g>
     </g>
    </g>
    <g id="xtick_6">
     <g id="line2d_11">
      <path d="M 401.766612 307.584 
L 401.766612 41.472 
" clip-path="url(#p65b0382e77)" style="fill: none; stroke: #b0b0b0; stroke-width: 0.8; stroke-linecap: square"/>
     </g>
     <g id="line2d_12">
      <g>
       <use xlink:href="#maf46513a09" x="401.766612" y="307.584" style="stroke: #000000; stroke-width: 0.8"/>
      </g>
     </g>
     <g id="text_6">
      <!-- 10000 -->
      <g transform="translate(385.860362 322.182437) scale(0.1 -0.1)">
       <defs>
        <path id="DejaVuSans-31" d="M 794 531 
L 1825 531 
L 1825 4091 
L 703 3866 
L 703 4441 
L 1819 4666 
L 2450 4666 
L 2450 531 
L 3481 531 
L 3481 0 
L 794 0 
L 794 531 
z
" transform="scale(0.015625)"/>
       </defs>
       <use xlink:href="#DejaVuSans-31"/>
       <use xlink:href="#DejaVuSans-30" x="63.623047"/>
       <use xlink:href="#DejaVuSans-30" x="127.246094"/>
       <use xlink:href="#DejaVuSans-30" x="190.869141"/>
       <use xlink:href="#DejaVuSans-30" x="254.492188"/>
      </g>
     </g>
    </g>
    <g id="text_7">
     <!-- Evaluations -->
     <g transform="translate(207.173281 335.860562) scale(0.1 -0.1)">
      <defs>
       <path id="DejaVuSans-45" d="M 628 4666 
L 3578 4666 
L 3578 4134 
L 1259 4134 
L 1259 2753 
L 3481 2753 
L 3481 2222 
L 1259 2222 
L 1259 531 
L 3634 531 
L 3634 0 
L 628 0 
L 628 4666 
z
" transform="scale(0.015625)"/>
       <path id="DejaVuSans-76" d="M 191 3500 
L 800 3500 
L 1894 563 
L 2988 3500 
L 3597 3500 
L 2284 0 
L 1503 0 
L 191 3500 
z
" transform="scale(0.015625)"/>
       <path id="DejaVuSans-61" d="M 2194 1759 
Q 1497 1759 1228 1600 
Q 959 1441 959 1056 
Q 959 750 1161 570 
Q 1363 391 1709 391 
Q 2188 391 2477 730 
Q 2766 1069 2766 1631 
L 2766 1759 
L 2194 1759 
z
M 3341 1997 
L 3341 0 
L 2766 0 
L 2766 531 
Q 2569 213 2275 61 
Q 1981 -91 1556 -91 
Q 1019 -91 701 211 
Q 384 513 384 1019 
Q 384 1609 779 1909 
Q 1175 2209 1959 2209 
L 2766 2209 
L 2766 2266 
Q 2766 2663 2505 2880 
Q 2244 3097 1772 3097 
Q 1472 3097 1187 3025 
Q 903 2953 641 2809 
L 641 3341 
Q 956 3463 1253 3523 
Q 1550 3584 1831 3584 
Q 2591 3584 2966 3190 
Q 3341 2797 3341 1997 
z
" transform="scale(0.015625)"/>
       <path id="DejaVuSans-6c" d="M 603 4863 
L 1178 4863 
L 1178 0 
L 603 0 
L 603 4863 
z
" transform="scale(0.015625)"/>
       <path id="DejaVuSans-75" d="M 544 1381 
L 544 3500 
L 1119 3500 
L 1119 1403 
Q 1119 906 1312 657 
Q 1506 409 1894 409 
Q 2359 409 2629 706 
Q 2900 1003 2900 1516 
L 2900 3500 
L 3475 3500 
L 3475 0 
L 2900 0 
L 2900 538 
Q 2691 219 2414 64 
Q 2138 -91 1772 -91 
Q 1169 -91 856 284 
Q 544 659 544 1381 
z
M 1991 3584 
L 1991 3584 
z
" transform="scale(0.015625)"/>
       <path id="DejaVuSans-74" d="M 1172 4494 
L 1172 3500 
L 2356 3500 
L 2356 3053 
L 1172 3053 
L 1172 1153 
Q 1172 725 1289 603 
Q 1406 481 1766 481 
L 2356 481 
L 2356 0 
L 1766 0 
Q 1100 0 847 248 
Q 594 497 594 1153 
L 594 3053 
L 172 3053 
L 172 3500 
L 594 3500 
L 594 4494 
L 1172 4494 
z
" transform="scale(0.015625)"/>
       <path id="DejaVuSans-69" d="M 603 3500 
L 1178 3500 
L 1178 0 
L 603 0 
L 603 3500 
z
M 603 4863 
L 1178 4863 
L 1178 4134 
L 603 4134 
L 603 4863 
z
" transform="scale(0.015625)"/>
       <path id="DejaVuSans-6f" d="M 1959 3097 
Q 1497 3097 1228 2736 
Q 959 2375 959 1747 
Q 959 1119 1226 758 
Q 1494 397 1959 397 
Q 2419 397 2687 759 
Q 2956 1122 2956 1747 
Q 2956 2369 2687 2733 
Q 2419 3097 1959 3097 
z
M 1959 3584 
Q 2709 3584 3137 3096 
Q 3566 2609 3566 1747 
Q 3566 888 3137 398 
Q 2709 -91 1959 -91 
Q 1206 -91 779 398 
Q 353 888 353 1747 
Q 353 2609 779 3096 
Q 1206 3584 1959 3584 
z
" transform="scale(0.015625)"/>
       <path id="DejaVuSans-6e" d="M 3513 2113 
L 3513 0 
L 2938 0 
L 2938 2094 
Q 2938 2591 2744 2837 
Q 2550 3084 2163 3084 
Q 1697 3084 1428 2787 
Q 1159 2491 1159 1978 
L 1159 0 
L 581 0 
L 581 3500 
L 1159 3500 
L 1159 2956 
Q 1366 3272 1645 3428 
Q 1925 3584 2291 3584 
Q 2894 3584 3203 3211 
Q 3513 2838 3513 2113 
z
" transform="scale(0.015625)"/>
       <path id="DejaVuSans-73" d="M 2834 3397 
L 2834 2853 
Q 2591 2978 2328 3040 
Q 2066 3103 1784 3103 
Q 1356 3103 1142 2972 
Q 928 2841 928 2578 
Q 928 2378 1081 2264 
Q 1234 2150 1697 2047 
L 1894 2003 
Q 2506 1872 2764 1633 
Q 3022 1394 3022 966 
Q 3022 478 2636 193 
Q 2250 -91 1575 -91 
Q 1294 -91 989 -36 
Q 684 19 347 128 
L 347 722 
Q 666 556 975 473 
Q 1284 391 1588 391 
Q 1994 391 2212 530 
Q 2431 669 2431 922 
Q 2431 1156 2273 1281 
Q 2116 1406 1581 1522 
L 1381 1569 
Q 847 1681 609 1914 
Q 372 2147 372 2553 
Q 372 3047 722 3315 
Q 1072 3584 1716 3584 
Q 2034 3584 2315 3537 
Q 2597 3491 2834 3397 
z
" transform="scale(0.015625)"/>
      </defs>
      <use xlink:href="#DejaVuSans-45"/>
      <use xlink:href="#DejaVuSans-76" x="63.183594"/>
      <use xlink:href="#DejaVuSans-61" x="122.363281"/>
      <use xlink:href="#DejaVuSans-6c" x="183.642578"/>
      <use xlink:href="#DejaVuSans-75" x="211.425781"/>
      <use xlink:href="#DejaVuSans-61" x="274.804688"/>
      <use xlink:href="#DejaVuSans-74" x="336.083984"/>
      <use xlink:href="#DejaVuSans-69" x="375.292969"/>
      <use xlink:href="#DejaVuSans-6f" x="403.076172"/>
      <use xlink:href="#DejaVuSans-6e" x="464.257812"/>
      <use xlink:href="#DejaVuSans-73" x="527.636719"/>
     </g>
    </g>
   </g>
   <g id="matplotlib.axis_2">
    <g id="ytick_1">
     <g id="line2d_13">
      <path d="M 57.6 306.671195 
L 414.72 306.671195 
" clip-path="url(#p65b0382e77)" style="fill: none; stroke: #b0b0b0; stroke-width: 0.8; stroke-linecap: square"/>
     </g>
     <g id="line2d_14">
      <defs>
       <path id="mcf58744e65" d="M 0 0 
L -3.5 0 
" style="stroke: #000000; stroke-width: 0.8"/>
      </defs>
      <g>
       <use xlink:href="#mcf58744e65" x="57.6" y="306.671195" style="stroke: #000000; stroke-width: 0.8"/>
      </g>
     </g>
     <g id="text_8">
      <!-- 0 -->
      <g transform="translate(44.2375 310.470413) scale(0.1 -0.1)">
       <use xlink:href="#DejaVuSans-30"/>
      </g>
     </g>
    </g>
    <g id="ytick_2">
     <g id="line2d_15">
      <path d="M 57.6 271.75428 
L 414.72 271.75428 
" clip-path="url(#p65b0382e77)" style="fill: none; stroke: #b0b0b0; stroke-width: 0.8; stroke-linecap: square"/>
     </g>
     <g id="line2d_16">
      <g>
       <use xlink:href="#mcf58744e65" x="57.6" y="271.75428" style="stroke: #000000; stroke-width: 0.8"/>
      </g>
     </g>
     <g id="text_9">
      <!-- 50 -->
      <g transform="translate(37.875 275.553499) scale(0.1 -0.1)">
       <defs>
        <path id="DejaVuSans-35" d="M 691 4666 
L 3169 4666 
L 3169 4134 
L 1269 4134 
L 1269 2991 
Q 1406 3038 1543 3061 
Q 1681 3084 1819 3084 
Q 2600 3084 3056 2656 
Q 3513 2228 3513 1497 
Q 3513 744 3044 326 
Q 2575 -91 1722 -91 
Q 1428 -91 1123 -41 
Q 819 9 494 109 
L 494 744 
Q 775 591 1075 516 
Q 1375 441 1709 441 
Q 2250 441 2565 725 
Q 2881 1009 2881 1497 
Q 2881 1984 2565 2268 
Q 2250 2553 1709 2553 
Q 1456 2553 1204 2497 
Q 953 2441 691 2322 
L 691 4666 
z
" transform="scale(0.015625)"/>
       </defs>
       <use xlink:href="#DejaVuSans-35"/>
       <use xlink:href="#DejaVuSans-30" x="63.623047"/>
      </g>
     </g>
    </g>
    <g id="ytick_3">
     <g id="line2d_17">
      <path d="M 57.6 236.837366 
L 414.72 236.837366 
" clip-path="url(#p65b0382e77)" style="fill: none; stroke: #b0b0b0; stroke-width: 0.8; stroke-linecap: square"/>
     </g>
     <g id="line2d_18">
      <g>
       <use xlink:href="#mcf58744e65" x="57.6" y="236.837366" style="stroke: #000000; stroke-width: 0.8"/>
      </g>
     </g>
     <g id="text_10">
      <!-- 100 -->
      <g transform="translate(31.5125 240.636585) scale(0.1 -0.1)">
       <use xlink:href="#DejaVuSans-31"/>
       <use xlink:href="#DejaVuSans-30" x="63.623047"/>
       <use xlink:href="#DejaVuSans-30" x="127.246094"/>
      </g>
     </g>
    </g>
    <g id="ytick_4">
     <g id="line2d_19">
      <path d="M 57.6 201.920452 
L 414.72 201.920452 
" clip-path="url(#p65b0382e77)" style="fill: none; stroke: #b0b0b0; stroke-width: 0.8; stroke-linecap: square"/>
     </g>
     <g id="line2d_20">
      <g>
       <use xlink:href="#mcf58744e65" x="57.6" y="201.920452" style="stroke: #000000; stroke-width: 0.8"/>
      </g>
     </g>
     <g id="text_11">
      <!-- 150 -->
      <g transform="translate(31.5125 205.71967) scale(0.1 -0.1)">
       <use xlink:href="#DejaVuSans-31"/>
       <use xlink:href="#DejaVuSans-35" x="63.623047"/>
       <use xlink:href="#DejaVuSans-30" x="127.246094"/>
      </g>
     </g>
    </g>
    <g id="ytick_5">
     <g id="line2d_21">
      <path d="M 57.6 167.003537 
L 414.72 167.003537 
" clip-path="url(#p65b0382e77)" style="fill: none; stroke: #b0b0b0; stroke-width: 0.8; stroke-linecap: square"/>
     </g>
     <g id="line2d_22">
      <g>
       <use xlink:href="#mcf58744e65" x="57.6" y="167.003537" style="stroke: #000000; stroke-width: 0.8"/>
      </g>
     </g>
     <g id="text_12">
      <!-- 200 -->
      <g transform="translate(31.5125 170.802756) scale(0.1 -0.1)">
       <use xlink:href="#DejaVuSans-32"/>
       <use xlink:href="#DejaVuSans-30" x="63.623047"/>
       <use xlink:href="#DejaVuSans-30" x="127.246094"/>
      </g>
     </g>
    </g>
    <g id="ytick_6">
     <g id="line2d_23">
      <path d="M 57.6 132.086623 
L 414.72 132.086623 
" clip-path="url(#p65b0382e77)" style="fill: none; stroke: #b0b0b0; stroke-width: 0.8; stroke-linecap: square"/>
     </g>
     <g id="line2d_24">
      <g>
       <use xlink:href="#mcf58744e65" x="57.6" y="132.086623" style="stroke: #000000; stroke-width: 0.8"/>
      </g>
     </g>
     <g id="text_13">
      <!-- 250 -->
      <g transform="translate(31.5125 135.885842) scale(0.1 -0.1)">
       <use xlink:href="#DejaVuSans-32"/>
       <use xlink:href="#DejaVuSans-35" x="63.623047"/>
       <use xlink:href="#DejaVuSans-30" x="127.246094"/>
      </g>
     </g>
    </g>
    <g id="ytick_7">
     <g id="line2d_25">
      <path d="M 57.6 97.169709 
L 414.72 97.169709 
" clip-path="url(#p65b0382e77)" style="fill: none; stroke: #b0b0b0; stroke-width: 0.8; stroke-linecap: square"/>
     </g>
     <g id="line2d_26">
      <g>
       <use xlink:href="#mcf58744e65" x="57.6" y="97.169709" style="stroke: #000000; stroke-width: 0.8"/>
      </g>
     </g>
     <g id="text_14">
      <!-- 300 -->
      <g transform="translate(31.5125 100.968928) scale(0.1 -0.1)">
       <defs>
        <path id="DejaVuSans-33" d="M 2597 2516 
Q 3050 2419 3304 2112 
Q 3559 1806 3559 1356 
Q 3559 666 3084 287 
Q 2609 -91 1734 -91 
Q 1441 -91 1130 -33 
Q 819 25 488 141 
L 488 750 
Q 750 597 1062 519 
Q 1375 441 1716 441 
Q 2309 441 2620 675 
Q 2931 909 2931 1356 
Q 2931 1769 2642 2001 
Q 2353 2234 1838 2234 
L 1294 2234 
L 1294 2753 
L 1863 2753 
Q 2328 2753 2575 2939 
Q 2822 3125 2822 3475 
Q 2822 3834 2567 4026 
Q 2313 4219 1838 4219 
Q 1578 4219 1281 4162 
Q 984 4106 628 3988 
L 628 4550 
Q 988 4650 1302 4700 
Q 1616 4750 1894 4750 
Q 2613 4750 3031 4423 
Q 3450 4097 3450 3541 
Q 3450 3153 3228 2886 
Q 3006 2619 2597 2516 
z
" transform="scale(0.015625)"/>
       </defs>
       <use xlink:href="#DejaVuSans-33"/>
       <use xlink:href="#DejaVuSans-30" x="63.623047"/>
       <use xlink:href="#DejaVuSans-30" x="127.246094"/>
      </g>
     </g>
    </g>
    <g id="ytick_8">
     <g id="line2d_27">
      <path d="M 57.6 62.252795 
L 414.72 62.252795 
" clip-path="url(#p65b0382e77)" style="fill: none; stroke: #b0b0b0; stroke-width: 0.8; stroke-linecap: square"/>
     </g>
     <g id="line2d_28">
      <g>
       <use xlink:href="#mcf58744e65" x="57.6" y="62.252795" style="stroke: #000000; stroke-width: 0.8"/>
      </g>
     </g>
     <g id="text_15">
      <!-- 350 -->
      <g transform="translate(31.5125 66.052013) scale(0.1 -0.1)">
       <use xlink:href="#DejaVuSans-33"/>
       <use xlink:href="#DejaVuSans-35" x="63.623047"/>
       <use xlink:href="#DejaVuSans-30" x="127.246094"/>
      </g>
     </g>
    </g>
   </g>
   <g id="line2d_29">
    <path d="M 73.832727 294.332465 
L 77.112066 290.508225 
L 80.391405 287.346568 
L 83.670744 284.869632 
L 86.950083 282.564557 
L 90.229421 280.690706 
L 93.50876 278.865738 
L 96.788099 277.218498 
L 100.067438 275.689975 
L 103.346777 274.319347 
L 106.626116 273.033007 
L 109.905455 271.784309 
L 113.184793 270.594131 
L 116.464132 269.4432 
L 119.743471 268.254907 
L 123.02281 267.234984 
L 126.302149 266.161289 
L 129.581488 265.197722 
L 132.860826 264.29917 
L 136.140165 263.153476 
L 139.419504 262.174685 
L 142.698843 261.254555 
L 145.978182 260.408378 
L 149.257521 259.498374 
L 152.53686 258.637113 
L 155.816198 257.929836 
L 159.095537 257.178005 
L 162.374876 256.369329 
L 165.654215 255.627205 
L 168.933554 254.973421 
L 172.212893 254.187441 
L 175.492231 253.483656 
L 178.77157 252.861925 
L 182.050909 252.232024 
L 185.330248 251.529775 
L 188.609587 250.854552 
L 191.888926 250.170599 
L 195.168264 249.515279 
L 198.447603 248.818686 
L 201.726942 248.201076 
L 205.006281 247.584722 
L 208.28562 247.065298 
L 211.564959 246.469406 
L 214.844298 245.992302 
L 218.123636 245.46352 
L 221.402975 244.881664 
L 224.682314 244.389266 
L 227.961653 243.896658 
L 231.240992 243.465923 
L 234.520331 242.851385 
L 237.799669 242.372116 
L 241.079008 241.894103 
L 244.358347 241.432292 
L 247.637686 241.006585 
L 250.917025 240.544704 
L 254.196364 240.122489 
L 257.475702 239.660259 
L 260.755041 239.229943 
L 264.03438 238.804515 
L 267.313719 238.425667 
L 270.593058 238.008759 
L 273.872397 237.567199 
L 277.151736 237.145403 
L 280.431074 236.735339 
L 283.710413 236.309911 
L 286.989752 235.90711 
L 290.269091 235.495579 
L 293.54843 235.08747 
L 296.827769 234.721401 
L 300.107107 234.322789 
L 303.386446 233.924597 
L 306.665785 233.510971 
L 309.945124 233.126117 
L 313.224463 232.821432 
L 316.503802 232.412276 
L 319.78314 232.029377 
L 323.062479 231.712261 
L 326.341818 231.317281 
L 329.621157 230.923418 
L 332.900496 230.554835 
L 336.179835 230.21663 
L 339.459174 229.916275 
L 342.738512 229.575276 
L 346.017851 229.257253 
L 349.29719 228.893838 
L 352.576529 228.539431 
L 355.855868 228.248224 
L 359.135207 227.983205 
L 362.414545 227.619789 
L 365.693884 227.357494 
L 368.973223 227.02299 
L 372.252562 226.679267 
L 375.531901 226.390225 
L 378.81124 225.998388 
L 382.090579 225.711161 
L 385.369917 225.328262 
L 388.649256 225.063313 
L 391.928595 224.830487 
L 395.207934 224.466862 
L 398.487273 224.167764 
" clip-path="url(#p65b0382e77)" style="fill: none; stroke: #808080; stroke-width: 2; stroke-linecap: square"/>
   </g>
   <g id="line2d_30">
    <path d="M 73.832727 293.148642 
L 77.112066 286.695088 
L 80.391405 281.070741 
L 83.670744 275.977621 
L 86.950083 271.32159 
L 90.229421 266.870172 
L 93.50876 262.717783 
L 96.788099 258.888654 
L 100.067438 255.146399 
L 103.346777 251.617766 
L 106.626116 248.185014 
L 109.905455 244.951079 
L 113.184793 241.700175 
L 116.464132 238.75619 
L 119.743471 235.804314 
L 123.02281 233.239737 
L 126.302149 230.598342 
L 129.581488 227.967911 
L 132.860826 225.432664 
L 136.140165 223.036037 
L 139.419504 220.779985 
L 142.698843 218.413666 
L 145.978182 216.450218 
L 149.257521 214.252058 
L 152.53686 212.166401 
L 155.816198 210.089264 
L 159.095537 207.962754 
L 162.374876 205.992602 
L 165.654215 204.094309 
L 168.933554 201.884487 
L 172.212893 200.068459 
L 175.492231 198.097678 
L 178.77157 196.379626 
L 182.050909 194.631895 
L 185.330248 192.940939 
L 188.609587 191.216462 
L 191.888926 189.583119 
L 195.168264 187.972681 
L 198.447603 186.330259 
L 201.726942 184.862422 
L 205.006281 183.438091 
L 208.28562 181.865782 
L 211.564959 180.43349 
L 214.844298 179.124455 
L 218.123636 177.672051 
L 221.402975 176.322792 
L 224.682314 175.131008 
L 227.961653 173.937827 
L 231.240992 172.673695 
L 234.520331 171.431561 
L 237.799669 170.165683 
L 241.079008 169.071247 
L 244.358347 167.948249 
L 247.637686 166.793966 
L 250.917025 165.898906 
L 254.196364 164.92214 
L 257.475702 163.823165 
L 260.755041 162.722794 
L 264.03438 161.681013 
L 267.313719 160.604664 
L 270.593058 159.673639 
L 273.872397 158.791708 
L 277.151736 157.820808 
L 280.431074 156.844322 
L 283.710413 155.927054 
L 286.989752 155.005737 
L 290.269091 154.108092 
L 293.54843 153.2895 
L 296.827769 152.466579 
L 300.107107 151.617958 
L 303.386446 150.774156 
L 306.665785 149.983008 
L 309.945124 149.201568 
L 313.224463 148.318728 
L 316.503802 147.60789 
L 319.78314 146.898518 
L 323.062479 146.159466 
L 326.341818 145.38487 
L 329.621157 144.748474 
L 332.900496 143.971642 
L 336.179835 143.332593 
L 339.459174 142.642216 
L 342.738512 141.974604 
L 346.017851 141.266001 
L 349.29719 140.609982 
L 352.576529 139.994676 
L 355.855868 139.335235 
L 359.135207 138.630961 
L 362.414545 137.985556 
L 365.693884 137.373393 
L 368.973223 136.811161 
L 372.252562 136.161846 
L 375.531901 135.514417 
L 378.81124 134.875297 
L 382.090579 134.29016 
L 385.369917 133.636585 
L 388.649256 133.026098 
L 391.928595 132.39913 
L 395.207934 131.887038 
L 398.487273 131.305392 
" clip-path="url(#p65b0382e77)" style="fill: none; stroke: #f08080; stroke-width: 2; stroke-linecap: square"/>
   </g>
   <g id="line2d_31">
    <path d="M 73.832727 281.53793 
L 77.112066 266.08929 
L 80.391405 253.412076 
L 83.670744 242.163243 
L 86.950083 232.488255 
L 90.229421 223.803301 
L 93.50876 215.636374 
L 96.788099 208.506759 
L 100.067438 201.680573 
L 103.346777 195.434006 
L 106.626116 189.684238 
L 109.905455 184.013941 
L 113.184793 178.499792 
L 116.464132 173.351083 
L 119.743471 168.529057 
L 123.02281 164.14049 
L 126.302149 159.907652 
L 129.581488 155.877682 
L 132.860826 151.798827 
L 136.140165 148.269984 
L 139.419504 144.814397 
L 142.698843 141.447569 
L 145.978182 138.124945 
L 149.257521 135.074603 
L 152.53686 132.185787 
L 155.816198 129.335938 
L 159.095537 126.656624 
L 162.374876 124.142047 
L 165.654215 121.630055 
L 168.933554 119.431616 
L 172.212893 117.07668 
L 175.492231 115.031736 
L 178.77157 112.979878 
L 182.050909 110.864821 
L 185.330248 109.053331 
L 188.609587 107.266074 
L 191.888926 105.398997 
L 195.168264 103.62857 
L 198.447603 101.897529 
L 201.726942 100.305318 
L 205.006281 98.776934 
L 208.28562 97.418946 
L 211.564959 96.001319 
L 214.844298 94.590396 
L 218.123636 93.284993 
L 221.402975 91.983011 
L 224.682314 90.645344 
L 227.961653 89.493644 
L 231.240992 88.304374 
L 234.520331 87.187661 
L 237.799669 86.168576 
L 241.079008 85.098303 
L 244.358347 84.087458 
L 247.637686 83.085203 
L 250.917025 82.248245 
L 254.196364 81.383562 
L 257.475702 80.516226 
L 260.755041 79.680106 
L 264.03438 78.956907 
L 267.313719 78.124418 
L 270.593058 77.348354 
L 273.872397 76.54736 
L 277.151736 75.663474 
L 280.431074 74.925889 
L 283.710413 74.23209 
L 286.989752 73.520762 
L 290.269091 72.92501 
L 293.54843 72.300486 
L 296.827769 71.635947 
L 300.107107 71.051298 
L 303.386446 70.461761 
L 306.665785 69.854626 
L 309.945124 69.250424 
L 313.224463 68.60062 
L 316.503802 68.052215 
L 319.78314 67.522246 
L 323.062479 67.011481 
L 326.341818 66.541639 
L 329.621157 66.022844 
L 332.900496 65.533378 
L 336.179835 65.032041 
L 339.459174 64.557311 
L 342.738512 64.088447 
L 346.017851 63.655966 
L 349.29719 63.223904 
L 352.576529 62.870265 
L 355.855868 62.482897 
L 359.135207 62.030025 
L 362.414545 61.572962 
L 365.693884 61.110453 
L 368.973223 60.688377 
L 372.252562 60.342001 
L 375.531901 59.991994 
L 378.81124 59.671876 
L 382.090579 59.274102 
L 385.369917 58.944347 
L 388.649256 58.658866 
L 391.928595 58.338888 
L 395.207934 58.008434 
L 398.487273 57.701305 
" clip-path="url(#p65b0382e77)" style="fill: none; stroke: #000080; stroke-width: 2; stroke-linecap: square"/>
   </g>
   <g id="line2d_32">
    <path d="M 73.832727 284.572838 
L 77.112066 272.10736 
L 80.391405 261.804985 
L 83.670744 253.093354 
L 86.950083 244.945842 
L 90.229421 237.6216 
L 93.50876 230.848976 
L 96.788099 224.394305 
L 100.067438 218.387478 
L 103.346777 212.499928 
L 106.626116 206.972929 
L 109.905455 201.833439 
L 113.184793 196.99996 
L 116.464132 192.416906 
L 119.743471 187.91849 
L 123.02281 183.889776 
L 126.302149 179.564339 
L 129.581488 175.76475 
L 132.860826 172.240656 
L 136.140165 168.738 
L 139.419504 165.316352 
L 142.698843 161.700007 
L 145.978182 158.560139 
L 149.257521 155.492059 
L 152.53686 152.341506 
L 155.816198 149.718198 
L 159.095537 147.144542 
L 162.374876 144.505033 
L 165.654215 142.122862 
L 168.933554 139.755495 
L 172.212893 137.451398 
L 175.492231 135.279077 
L 178.77157 133.231339 
L 182.050909 131.162861 
L 185.330248 129.209609 
L 188.609587 127.325702 
L 191.888926 125.265325 
L 195.168264 123.469059 
L 198.447603 121.689763 
L 201.726942 119.839934 
L 205.006281 118.162316 
L 208.28562 116.523107 
L 211.564959 114.944862 
L 214.844298 113.396716 
L 218.123636 111.884046 
L 221.402975 110.431642 
L 224.682314 109.03308 
L 227.961653 107.693457 
L 231.240992 106.33058 
L 234.520331 105.005344 
L 237.799669 103.728921 
L 241.079008 102.408573 
L 244.358347 101.148631 
L 247.637686 99.919346 
L 250.917025 98.733498 
L 254.196364 97.503515 
L 257.475702 96.42954 
L 260.755041 95.305215 
L 264.03438 94.371956 
L 267.313719 93.371028 
L 270.593058 92.374988 
L 273.872397 91.362677 
L 277.151736 90.451206 
L 280.431074 89.54602 
L 283.710413 88.706408 
L 286.989752 87.860371 
L 290.269091 87.103651 
L 293.54843 86.239039 
L 296.827769 85.468003 
L 300.107107 84.521127 
L 303.386446 83.82621 
L 306.665785 83.073471 
L 309.945124 82.311654 
L 313.224463 81.693625 
L 316.503802 80.961207 
L 319.78314 80.326139 
L 323.062479 79.698612 
L 326.341818 79.010679 
L 329.621157 78.455779 
L 332.900496 77.873086 
L 336.179835 77.24088 
L 339.459174 76.646105 
L 342.738512 76.016833 
L 346.017851 75.490565 
L 349.29719 74.896139 
L 352.576529 74.445921 
L 355.855868 73.923005 
L 359.135207 73.392268 
L 362.414545 72.868863 
L 365.693884 72.358657 
L 368.973223 71.888676 
L 372.252562 71.318692 
L 375.531901 70.855903 
L 378.81124 70.408059 
L 382.090579 69.934865 
L 385.369917 69.550919 
L 388.649256 69.114597 
L 391.928595 68.699435 
L 395.207934 68.218629 
L 398.487273 67.842643 
" clip-path="url(#p65b0382e77)" style="fill: none; stroke: #ffa500; stroke-width: 2; stroke-linecap: square"/>
   </g>
   <g id="line2d_33">
    <path d="M 73.832727 290.6951 
L 77.112066 284.990584 
L 80.391405 281.149165 
L 83.670744 278.10874 
L 86.950083 275.168945 
L 90.229421 272.809819 
L 93.50876 270.741201 
L 96.788099 268.815184 
L 100.067438 266.844683 
L 103.346777 265.086546 
L 106.626116 263.424082 
L 109.905455 261.783825 
L 113.184793 260.275415 
L 116.464132 258.793052 
L 119.743471 257.341486 
L 123.02281 255.990201 
L 126.302149 254.561541 
L 129.581488 253.390916 
L 132.860826 252.191939 
L 136.140165 251.069919 
L 139.419504 249.898876 
L 142.698843 248.842499 
L 145.978182 247.69939 
L 149.257521 246.693852 
L 152.53686 245.784336 
L 155.816198 244.691786 
L 159.095537 243.681011 
L 162.374876 242.633364 
L 165.654215 241.606178 
L 168.933554 240.747991 
L 172.212893 239.831142 
L 175.492231 238.869042 
L 178.77157 238.064626 
L 182.050909 237.073753 
L 185.330248 236.20516 
L 188.609587 235.434055 
L 191.888926 234.601706 
L 195.168264 233.806927 
L 198.447603 232.999089 
L 201.726942 232.148862 
L 205.006281 231.327547 
L 208.28562 230.614334 
L 211.564959 229.944837 
L 214.844298 229.209836 
L 218.123636 228.52721 
L 221.402975 227.773564 
L 224.682314 227.036607 
L 227.961653 226.340085 
L 231.240992 225.571074 
L 234.520331 224.86701 
L 237.799669 224.196465 
L 241.079008 223.671036 
L 244.358347 223.015575 
L 247.637686 222.405367 
L 250.917025 221.757309 
L 254.196364 221.117282 
L 257.475702 220.573766 
L 260.755041 219.926755 
L 264.03438 219.362777 
L 267.313719 218.763812 
L 270.593058 218.187893 
L 273.872397 217.74368 
L 277.151736 217.060146 
L 280.431074 216.568307 
L 283.710413 216.081635 
L 286.989752 215.478829 
L 290.269091 214.94893 
L 293.54843 214.423081 
L 296.827769 213.842413 
L 300.107107 213.326271 
L 303.386446 212.789738 
L 306.665785 212.215215 
L 309.945124 211.695791 
L 313.224463 211.136701 
L 316.503802 210.612878 
L 319.78314 210.127323 
L 323.062479 209.690233 
L 326.341818 209.238548 
L 329.621157 208.812073 
L 332.900496 208.333222 
L 336.179835 207.820153 
L 339.459174 207.401639 
L 342.738512 206.908473 
L 346.017851 206.456019 
L 349.29719 206.059223 
L 352.576529 205.692107 
L 355.855868 205.285046 
L 359.135207 204.782591 
L 362.414545 204.362192 
L 365.693884 203.953873 
L 368.973223 203.546044 
L 372.252562 203.153508 
L 375.531901 202.673889 
L 378.81124 202.251464 
L 382.090579 201.826944 
L 385.369917 201.388527 
L 388.649256 200.961354 
L 391.928595 200.563092 
L 395.207934 200.135848 
L 398.487273 199.734862 
" clip-path="url(#p65b0382e77)" style="fill: none; stroke: #00ff00; stroke-width: 2; stroke-linecap: square"/>
   </g>
   <g id="patch_3">
    <path d="M 57.6 307.584 
L 57.6 41.472 
" style="fill: none; stroke: #000000; stroke-width: 0.8; stroke-linejoin: miter; stroke-linecap: square"/>
   </g>
   <g id="patch_4">
    <path d="M 414.72 307.584 
L 414.72 41.472 
" style="fill: none; stroke: #000000; stroke-width: 0.8; stroke-linejoin: miter; stroke-linecap: square"/>
   </g>
   <g id="patch_5">
    <path d="M 57.6 307.584 
L 414.72 307.584 
" style="fill: none; stroke: #000000; stroke-width: 0.8; stroke-linejoin: miter; stroke-linecap: square"/>
   </g>
   <g id="patch_6">
    <path d="M 57.6 41.472 
L 414.72 41.472 
" style="fill: none; stroke: #000000; stroke-width: 0.8; stroke-linejoin: miter; stroke-linecap: square"/>
   </g>
   <g id="text_16">
    <!-- QD_score for Zero -->
    <g transform="translate(181.829062 35.472) scale(0.12 -0.12)">
     <defs>
      <path id="DejaVuSans-51" d="M 2522 4238 
Q 1834 4238 1429 3725 
Q 1025 3213 1025 2328 
Q 1025 1447 1429 934 
Q 1834 422 2522 422 
Q 3209 422 3611 934 
Q 4013 1447 4013 2328 
Q 4013 3213 3611 3725 
Q 3209 4238 2522 4238 
z
M 3406 84 
L 4238 -825 
L 3475 -825 
L 2784 -78 
Q 2681 -84 2626 -87 
Q 2572 -91 2522 -91 
Q 1538 -91 948 567 
Q 359 1225 359 2328 
Q 359 3434 948 4092 
Q 1538 4750 2522 4750 
Q 3503 4750 4090 4092 
Q 4678 3434 4678 2328 
Q 4678 1516 4351 937 
Q 4025 359 3406 84 
z
" transform="scale(0.015625)"/>
      <path id="DejaVuSans-44" d="M 1259 4147 
L 1259 519 
L 2022 519 
Q 2988 519 3436 956 
Q 3884 1394 3884 2338 
Q 3884 3275 3436 3711 
Q 2988 4147 2022 4147 
L 1259 4147 
z
M 628 4666 
L 1925 4666 
Q 3281 4666 3915 4102 
Q 4550 3538 4550 2338 
Q 4550 1131 3912 565 
Q 3275 0 1925 0 
L 628 0 
L 628 4666 
z
" transform="scale(0.015625)"/>
      <path id="DejaVuSans-5f" d="M 3263 -1063 
L 3263 -1509 
L -63 -1509 
L -63 -1063 
L 3263 -1063 
z
" transform="scale(0.015625)"/>
      <path id="DejaVuSans-63" d="M 3122 3366 
L 3122 2828 
Q 2878 2963 2633 3030 
Q 2388 3097 2138 3097 
Q 1578 3097 1268 2742 
Q 959 2388 959 1747 
Q 959 1106 1268 751 
Q 1578 397 2138 397 
Q 2388 397 2633 464 
Q 2878 531 3122 666 
L 3122 134 
Q 2881 22 2623 -34 
Q 2366 -91 2075 -91 
Q 1284 -91 818 406 
Q 353 903 353 1747 
Q 353 2603 823 3093 
Q 1294 3584 2113 3584 
Q 2378 3584 2631 3529 
Q 2884 3475 3122 3366 
z
" transform="scale(0.015625)"/>
      <path id="DejaVuSans-72" d="M 2631 2963 
Q 2534 3019 2420 3045 
Q 2306 3072 2169 3072 
Q 1681 3072 1420 2755 
Q 1159 2438 1159 1844 
L 1159 0 
L 581 0 
L 581 3500 
L 1159 3500 
L 1159 2956 
Q 1341 3275 1631 3429 
Q 1922 3584 2338 3584 
Q 2397 3584 2469 3576 
Q 2541 3569 2628 3553 
L 2631 2963 
z
" transform="scale(0.015625)"/>
      <path id="DejaVuSans-65" d="M 3597 1894 
L 3597 1613 
L 953 1613 
Q 991 1019 1311 708 
Q 1631 397 2203 397 
Q 2534 397 2845 478 
Q 3156 559 3463 722 
L 3463 178 
Q 3153 47 2828 -22 
Q 2503 -91 2169 -91 
Q 1331 -91 842 396 
Q 353 884 353 1716 
Q 353 2575 817 3079 
Q 1281 3584 2069 3584 
Q 2775 3584 3186 3129 
Q 3597 2675 3597 1894 
z
M 3022 2063 
Q 3016 2534 2758 2815 
Q 2500 3097 2075 3097 
Q 1594 3097 1305 2825 
Q 1016 2553 972 2059 
L 3022 2063 
z
" transform="scale(0.015625)"/>
      <path id="DejaVuSans-20" transform="scale(0.015625)"/>
      <path id="DejaVuSans-66" d="M 2375 4863 
L 2375 4384 
L 1825 4384 
Q 1516 4384 1395 4259 
Q 1275 4134 1275 3809 
L 1275 3500 
L 2222 3500 
L 2222 3053 
L 1275 3053 
L 1275 0 
L 697 0 
L 697 3053 
L 147 3053 
L 147 3500 
L 697 3500 
L 697 3744 
Q 697 4328 969 4595 
Q 1241 4863 1831 4863 
L 2375 4863 
z
" transform="scale(0.015625)"/>
      <path id="DejaVuSans-5a" d="M 359 4666 
L 4025 4666 
L 4025 4184 
L 1075 531 
L 4097 531 
L 4097 0 
L 288 0 
L 288 481 
L 3238 4134 
L 359 4134 
L 359 4666 
z
" transform="scale(0.015625)"/>
     </defs>
     <use xlink:href="#DejaVuSans-51"/>
     <use xlink:href="#DejaVuSans-44" x="78.710938"/>
     <use xlink:href="#DejaVuSans-5f" x="155.712891"/>
     <use xlink:href="#DejaVuSans-73" x="205.712891"/>
     <use xlink:href="#DejaVuSans-63" x="257.8125"/>
     <use xlink:href="#DejaVuSans-6f" x="312.792969"/>
     <use xlink:href="#DejaVuSans-72" x="373.974609"/>
     <use xlink:href="#DejaVuSans-65" x="412.837891"/>
     <use xlink:href="#DejaVuSans-20" x="474.361328"/>
     <use xlink:href="#DejaVuSans-66" x="506.148438"/>
     <use xlink:href="#DejaVuSans-6f" x="541.353516"/>
     <use xlink:href="#DejaVuSans-72" x="602.535156"/>
     <use xlink:href="#DejaVuSans-20" x="643.648438"/>
     <use xlink:href="#DejaVuSans-5a" x="675.435547"/>
     <use xlink:href="#DejaVuSans-65" x="743.941406"/>
     <use xlink:href="#DejaVuSans-72" x="805.464844"/>
     <use xlink:href="#DejaVuSans-6f" x="844.328125"/>
    </g>
   </g>
   <g id="legend_1">
    <g id="patch_7">
     <path d="M 64.6 124.25325 
L 202.664062 124.25325 
Q 204.664062 124.25325 204.664062 122.25325 
L 204.664062 48.472 
Q 204.664062 46.472 202.664062 46.472 
L 64.6 46.472 
Q 62.6 46.472 62.6 48.472 
L 62.6 122.25325 
Q 62.6 124.25325 64.6 124.25325 
z
" style="fill: #ffffff; opacity: 0.8; stroke: #cccccc; stroke-linejoin: miter"/>
    </g>
    <g id="line2d_34">
     <path d="M 66.6 54.570438 
L 76.6 54.570438 
L 86.6 54.570438 
" style="fill: none; stroke: #808080; stroke-width: 2; stroke-linecap: square"/>
    </g>
    <g id="text_17">
     <!-- Z_S_B_exLimit -->
     <g transform="translate(94.6 58.070438) scale(0.1 -0.1)">
      <defs>
       <path id="DejaVuSans-53" d="M 3425 4513 
L 3425 3897 
Q 3066 4069 2747 4153 
Q 2428 4238 2131 4238 
Q 1616 4238 1336 4038 
Q 1056 3838 1056 3469 
Q 1056 3159 1242 3001 
Q 1428 2844 1947 2747 
L 2328 2669 
Q 3034 2534 3370 2195 
Q 3706 1856 3706 1288 
Q 3706 609 3251 259 
Q 2797 -91 1919 -91 
Q 1588 -91 1214 -16 
Q 841 59 441 206 
L 441 856 
Q 825 641 1194 531 
Q 1563 422 1919 422 
Q 2459 422 2753 634 
Q 3047 847 3047 1241 
Q 3047 1584 2836 1778 
Q 2625 1972 2144 2069 
L 1759 2144 
Q 1053 2284 737 2584 
Q 422 2884 422 3419 
Q 422 4038 858 4394 
Q 1294 4750 2059 4750 
Q 2388 4750 2728 4690 
Q 3069 4631 3425 4513 
z
" transform="scale(0.015625)"/>
       <path id="DejaVuSans-42" d="M 1259 2228 
L 1259 519 
L 2272 519 
Q 2781 519 3026 730 
Q 3272 941 3272 1375 
Q 3272 1813 3026 2020 
Q 2781 2228 2272 2228 
L 1259 2228 
z
M 1259 4147 
L 1259 2741 
L 2194 2741 
Q 2656 2741 2882 2914 
Q 3109 3088 3109 3444 
Q 3109 3797 2882 3972 
Q 2656 4147 2194 4147 
L 1259 4147 
z
M 628 4666 
L 2241 4666 
Q 2963 4666 3353 4366 
Q 3744 4066 3744 3513 
Q 3744 3084 3544 2831 
Q 3344 2578 2956 2516 
Q 3422 2416 3680 2098 
Q 3938 1781 3938 1306 
Q 3938 681 3513 340 
Q 3088 0 2303 0 
L 628 0 
L 628 4666 
z
" transform="scale(0.015625)"/>
       <path id="DejaVuSans-78" d="M 3513 3500 
L 2247 1797 
L 3578 0 
L 2900 0 
L 1881 1375 
L 863 0 
L 184 0 
L 1544 1831 
L 300 3500 
L 978 3500 
L 1906 2253 
L 2834 3500 
L 3513 3500 
z
" transform="scale(0.015625)"/>
       <path id="DejaVuSans-4c" d="M 628 4666 
L 1259 4666 
L 1259 531 
L 3531 531 
L 3531 0 
L 628 0 
L 628 4666 
z
" transform="scale(0.015625)"/>
       <path id="DejaVuSans-6d" d="M 3328 2828 
Q 3544 3216 3844 3400 
Q 4144 3584 4550 3584 
Q 5097 3584 5394 3201 
Q 5691 2819 5691 2113 
L 5691 0 
L 5113 0 
L 5113 2094 
Q 5113 2597 4934 2840 
Q 4756 3084 4391 3084 
Q 3944 3084 3684 2787 
Q 3425 2491 3425 1978 
L 3425 0 
L 2847 0 
L 2847 2094 
Q 2847 2600 2669 2842 
Q 2491 3084 2119 3084 
Q 1678 3084 1418 2786 
Q 1159 2488 1159 1978 
L 1159 0 
L 581 0 
L 581 3500 
L 1159 3500 
L 1159 2956 
Q 1356 3278 1631 3431 
Q 1906 3584 2284 3584 
Q 2666 3584 2933 3390 
Q 3200 3197 3328 2828 
z
" transform="scale(0.015625)"/>
      </defs>
      <use xlink:href="#DejaVuSans-5a"/>
      <use xlink:href="#DejaVuSans-5f" x="68.505859"/>
      <use xlink:href="#DejaVuSans-53" x="118.505859"/>
      <use xlink:href="#DejaVuSans-5f" x="181.982422"/>
      <use xlink:href="#DejaVuSans-42" x="231.982422"/>
      <use xlink:href="#DejaVuSans-5f" x="300.585938"/>
      <use xlink:href="#DejaVuSans-65" x="350.585938"/>
      <use xlink:href="#DejaVuSans-78" x="410.359375"/>
      <use xlink:href="#DejaVuSans-4c" x="469.539062"/>
      <use xlink:href="#DejaVuSans-69" x="525.251953"/>
      <use xlink:href="#DejaVuSans-6d" x="553.035156"/>
      <use xlink:href="#DejaVuSans-69" x="650.447266"/>
      <use xlink:href="#DejaVuSans-74" x="678.230469"/>
     </g>
    </g>
    <g id="line2d_35">
     <path d="M 66.6 69.526688 
L 76.6 69.526688 
L 86.6 69.526688 
" style="fill: none; stroke: #f08080; stroke-width: 2; stroke-linecap: square"/>
    </g>
    <g id="text_18">
     <!-- Z_SUfq_B_exLimit -->
     <g transform="translate(94.6 73.026688) scale(0.1 -0.1)">
      <defs>
       <path id="DejaVuSans-55" d="M 556 4666 
L 1191 4666 
L 1191 1831 
Q 1191 1081 1462 751 
Q 1734 422 2344 422 
Q 2950 422 3222 751 
Q 3494 1081 3494 1831 
L 3494 4666 
L 4128 4666 
L 4128 1753 
Q 4128 841 3676 375 
Q 3225 -91 2344 -91 
Q 1459 -91 1007 375 
Q 556 841 556 1753 
L 556 4666 
z
" transform="scale(0.015625)"/>
       <path id="DejaVuSans-71" d="M 947 1747 
Q 947 1113 1208 752 
Q 1469 391 1925 391 
Q 2381 391 2643 752 
Q 2906 1113 2906 1747 
Q 2906 2381 2643 2742 
Q 2381 3103 1925 3103 
Q 1469 3103 1208 2742 
Q 947 2381 947 1747 
z
M 2906 525 
Q 2725 213 2448 61 
Q 2172 -91 1784 -91 
Q 1150 -91 751 415 
Q 353 922 353 1747 
Q 353 2572 751 3078 
Q 1150 3584 1784 3584 
Q 2172 3584 2448 3432 
Q 2725 3281 2906 2969 
L 2906 3500 
L 3481 3500 
L 3481 -1331 
L 2906 -1331 
L 2906 525 
z
" transform="scale(0.015625)"/>
      </defs>
      <use xlink:href="#DejaVuSans-5a"/>
      <use xlink:href="#DejaVuSans-5f" x="68.505859"/>
      <use xlink:href="#DejaVuSans-53" x="118.505859"/>
      <use xlink:href="#DejaVuSans-55" x="181.982422"/>
      <use xlink:href="#DejaVuSans-66" x="255.175781"/>
      <use xlink:href="#DejaVuSans-71" x="290.380859"/>
      <use xlink:href="#DejaVuSans-5f" x="353.857422"/>
      <use xlink:href="#DejaVuSans-42" x="403.857422"/>
      <use xlink:href="#DejaVuSans-5f" x="472.460938"/>
      <use xlink:href="#DejaVuSans-65" x="522.460938"/>
      <use xlink:href="#DejaVuSans-78" x="582.234375"/>
      <use xlink:href="#DejaVuSans-4c" x="641.414062"/>
      <use xlink:href="#DejaVuSans-69" x="697.126953"/>
      <use xlink:href="#DejaVuSans-6d" x="724.910156"/>
      <use xlink:href="#DejaVuSans-69" x="822.322266"/>
      <use xlink:href="#DejaVuSans-74" x="850.105469"/>
     </g>
    </g>
    <g id="line2d_36">
     <path d="M 66.6 84.482938 
L 76.6 84.482938 
L 86.6 84.482938 
" style="fill: none; stroke: #000080; stroke-width: 2; stroke-linecap: square"/>
    </g>
    <g id="text_19">
     <!-- Z_T_B_exLimit -->
     <g transform="translate(94.6 87.982938) scale(0.1 -0.1)">
      <defs>
       <path id="DejaVuSans-54" d="M -19 4666 
L 3928 4666 
L 3928 4134 
L 2272 4134 
L 2272 0 
L 1638 0 
L 1638 4134 
L -19 4134 
L -19 4666 
z
" transform="scale(0.015625)"/>
      </defs>
      <use xlink:href="#DejaVuSans-5a"/>
      <use xlink:href="#DejaVuSans-5f" x="68.505859"/>
      <use xlink:href="#DejaVuSans-54" x="118.505859"/>
      <use xlink:href="#DejaVuSans-5f" x="179.589844"/>
      <use xlink:href="#DejaVuSans-42" x="229.589844"/>
      <use xlink:href="#DejaVuSans-5f" x="298.193359"/>
      <use xlink:href="#DejaVuSans-65" x="348.193359"/>
      <use xlink:href="#DejaVuSans-78" x="407.966797"/>
      <use xlink:href="#DejaVuSans-4c" x="467.146484"/>
      <use xlink:href="#DejaVuSans-69" x="522.859375"/>
      <use xlink:href="#DejaVuSans-6d" x="550.642578"/>
      <use xlink:href="#DejaVuSans-69" x="648.054688"/>
      <use xlink:href="#DejaVuSans-74" x="675.837891"/>
     </g>
    </g>
    <g id="line2d_37">
     <path d="M 66.6 99.439188 
L 76.6 99.439188 
L 86.6 99.439188 
" style="fill: none; stroke: #ffa500; stroke-width: 2; stroke-linecap: square"/>
    </g>
    <g id="text_20">
     <!-- Z_TWoff_B_exLimit -->
     <g transform="translate(94.6 102.939188) scale(0.1 -0.1)">
      <defs>
       <path id="DejaVuSans-57" d="M 213 4666 
L 850 4666 
L 1831 722 
L 2809 4666 
L 3519 4666 
L 4500 722 
L 5478 4666 
L 6119 4666 
L 4947 0 
L 4153 0 
L 3169 4050 
L 2175 0 
L 1381 0 
L 213 4666 
z
" transform="scale(0.015625)"/>
      </defs>
      <use xlink:href="#DejaVuSans-5a"/>
      <use xlink:href="#DejaVuSans-5f" x="68.505859"/>
      <use xlink:href="#DejaVuSans-54" x="118.505859"/>
      <use xlink:href="#DejaVuSans-57" x="179.589844"/>
      <use xlink:href="#DejaVuSans-6f" x="272.591797"/>
      <use xlink:href="#DejaVuSans-66" x="333.773438"/>
      <use xlink:href="#DejaVuSans-66" x="368.978516"/>
      <use xlink:href="#DejaVuSans-5f" x="404.183594"/>
      <use xlink:href="#DejaVuSans-42" x="454.183594"/>
      <use xlink:href="#DejaVuSans-5f" x="522.787109"/>
      <use xlink:href="#DejaVuSans-65" x="572.787109"/>
      <use xlink:href="#DejaVuSans-78" x="632.560547"/>
      <use xlink:href="#DejaVuSans-4c" x="691.740234"/>
      <use xlink:href="#DejaVuSans-69" x="747.453125"/>
      <use xlink:href="#DejaVuSans-6d" x="775.236328"/>
      <use xlink:href="#DejaVuSans-69" x="872.648438"/>
      <use xlink:href="#DejaVuSans-74" x="900.431641"/>
     </g>
    </g>
    <g id="line2d_38">
     <path d="M 66.6 114.395438 
L 76.6 114.395438 
L 86.6 114.395438 
" style="fill: none; stroke: #00ff00; stroke-width: 2; stroke-linecap: square"/>
    </g>
    <g id="text_21">
     <!-- Z_TWoffFq_B_exLimit -->
     <g transform="translate(94.6 117.895438) scale(0.1 -0.1)">
      <defs>
       <path id="DejaVuSans-46" d="M 628 4666 
L 3309 4666 
L 3309 4134 
L 1259 4134 
L 1259 2759 
L 3109 2759 
L 3109 2228 
L 1259 2228 
L 1259 0 
L 628 0 
L 628 4666 
z
" transform="scale(0.015625)"/>
      </defs>
      <use xlink:href="#DejaVuSans-5a"/>
      <use xlink:href="#DejaVuSans-5f" x="68.505859"/>
      <use xlink:href="#DejaVuSans-54" x="118.505859"/>
      <use xlink:href="#DejaVuSans-57" x="179.589844"/>
      <use xlink:href="#DejaVuSans-6f" x="272.591797"/>
      <use xlink:href="#DejaVuSans-66" x="333.773438"/>
      <use xlink:href="#DejaVuSans-66" x="368.978516"/>
      <use xlink:href="#DejaVuSans-46" x="404.183594"/>
      <use xlink:href="#DejaVuSans-71" x="461.703125"/>
      <use xlink:href="#DejaVuSans-5f" x="525.179688"/>
      <use xlink:href="#DejaVuSans-42" x="575.179688"/>
      <use xlink:href="#DejaVuSans-5f" x="643.783203"/>
      <use xlink:href="#DejaVuSans-65" x="693.783203"/>
      <use xlink:href="#DejaVuSans-78" x="753.556641"/>
      <use xlink:href="#DejaVuSans-4c" x="812.736328"/>
      <use xlink:href="#DejaVuSans-69" x="868.449219"/>
      <use xlink:href="#DejaVuSans-6d" x="896.232422"/>
      <use xlink:href="#DejaVuSans-69" x="993.644531"/>
      <use xlink:href="#DejaVuSans-74" x="1021.427734"/>
     </g>
    </g>
   </g>
  </g>
 </g>
 <defs>
  <clipPath id="p65b0382e77">
   <rect x="57.6" y="41.472" width="357.12" height="266.112"/>
  </clipPath>
 </defs>
</svg>
