<?xml version="1.0" encoding="utf-8" standalone="no"?>
<!DOCTYPE svg PUBLIC "-//W3C//DTD SVG 1.1//EN"
  "http://www.w3.org/Graphics/SVG/1.1/DTD/svg11.dtd">
<svg xmlns:xlink="http://www.w3.org/1999/xlink" width="288pt" height="288pt" viewBox="0 0 288 288" xmlns="http://www.w3.org/2000/svg" version="1.1">
 <metadata>
  <rdf:RDF xmlns:dc="http://purl.org/dc/elements/1.1/" xmlns:cc="http://creativecommons.org/ns#" xmlns:rdf="http://www.w3.org/1999/02/22-rdf-syntax-ns#">
   <cc:Work>
    <dc:type rdf:resource="http://purl.org/dc/dcmitype/StillImage"/>
    <dc:date>2024-04-21T17:18:10.253457</dc:date>
    <dc:format>image/svg+xml</dc:format>
    <dc:creator>
     <cc:Agent>
      <dc:title>Matplotlib v3.8.2, https://matplotlib.org/</dc:title>
     </cc:Agent>
    </dc:creator>
   </cc:Work>
  </rdf:RDF>
 </metadata>
 <defs>
  <style type="text/css">*{stroke-linejoin: round; stroke-linecap: butt}</style>
 </defs>
 <g id="figure_1">
  <g id="patch_1">
   <path d="M 0 288 
L 288 288 
L 288 0 
L 0 0 
z
" style="fill: #ffffff"/>
  </g>
  <g id="axes_1">
   <g id="patch_2">
    <path d="M 55.28 242.44 
L 275.800868 242.44 
L 275.800868 10.8 
L 55.28 10.8 
z
" style="fill: #ffffff"/>
   </g>
   <g id="matplotlib.axis_1">
    <g id="xtick_1">
     <g id="line2d_1">
      <defs>
       <path id="m2a5d222cb5" d="M 0 0 
L 0 3.5 
" style="stroke: #000000; stroke-width: 0.8"/>
      </defs>
      <g>
       <use xlink:href="#m2a5d222cb5" x="65.303676" y="242.44" style="stroke: #000000; stroke-width: 0.8"/>
      </g>
     </g>
     <g id="text_1">
      <!-- 0 -->
      <g transform="translate(62.122426 257.038437) scale(0.1 -0.1)">
       <defs>
        <path id="DejaVuSans-30" d="M 2034 4250 
Q 1547 4250 1301 3770 
Q 1056 3291 1056 2328 
Q 1056 1369 1301 889 
Q 1547 409 2034 409 
Q 2525 409 2770 889 
Q 3016 1369 3016 2328 
Q 3016 3291 2770 3770 
Q 2525 4250 2034 4250 
z
M 2034 4750 
Q 2819 4750 3233 4129 
Q 3647 3509 3647 2328 
Q 3647 1150 3233 529 
Q 2819 -91 2034 -91 
Q 1250 -91 836 529 
Q 422 1150 422 2328 
Q 422 3509 836 4129 
Q 1250 4750 2034 4750 
z
" transform="scale(0.015625)"/>
       </defs>
       <use xlink:href="#DejaVuSans-30"/>
      </g>
     </g>
    </g>
    <g id="xtick_2">
     <g id="line2d_2">
      <g>
       <use xlink:href="#m2a5d222cb5" x="105.803376" y="242.44" style="stroke: #000000; stroke-width: 0.8"/>
      </g>
     </g>
     <g id="text_2">
      <!-- 20 -->
      <g transform="translate(99.440876 257.038437) scale(0.1 -0.1)">
       <defs>
        <path id="DejaVuSans-32" d="M 1228 531 
L 3431 531 
L 3431 0 
L 469 0 
L 469 531 
Q 828 903 1448 1529 
Q 2069 2156 2228 2338 
Q 2531 2678 2651 2914 
Q 2772 3150 2772 3378 
Q 2772 3750 2511 3984 
Q 2250 4219 1831 4219 
Q 1534 4219 1204 4116 
Q 875 4013 500 3803 
L 500 4441 
Q 881 4594 1212 4672 
Q 1544 4750 1819 4750 
Q 2544 4750 2975 4387 
Q 3406 4025 3406 3419 
Q 3406 3131 3298 2873 
Q 3191 2616 2906 2266 
Q 2828 2175 2409 1742 
Q 1991 1309 1228 531 
z
" transform="scale(0.015625)"/>
       </defs>
       <use xlink:href="#DejaVuSans-32"/>
       <use xlink:href="#DejaVuSans-30" x="63.623047"/>
      </g>
     </g>
    </g>
    <g id="xtick_3">
     <g id="line2d_3">
      <g>
       <use xlink:href="#m2a5d222cb5" x="146.303076" y="242.44" style="stroke: #000000; stroke-width: 0.8"/>
      </g>
     </g>
     <g id="text_3">
      <!-- 40 -->
      <g transform="translate(139.940576 257.038437) scale(0.1 -0.1)">
       <defs>
        <path id="DejaVuSans-34" d="M 2419 4116 
L 825 1625 
L 2419 1625 
L 2419 4116 
z
M 2253 4666 
L 3047 4666 
L 3047 1625 
L 3713 1625 
L 3713 1100 
L 3047 1100 
L 3047 0 
L 2419 0 
L 2419 1100 
L 313 1100 
L 313 1709 
L 2253 4666 
z
" transform="scale(0.015625)"/>
       </defs>
       <use xlink:href="#DejaVuSans-34"/>
       <use xlink:href="#DejaVuSans-30" x="63.623047"/>
      </g>
     </g>
    </g>
    <g id="xtick_4">
     <g id="line2d_4">
      <g>
       <use xlink:href="#m2a5d222cb5" x="186.802777" y="242.44" style="stroke: #000000; stroke-width: 0.8"/>
      </g>
     </g>
     <g id="text_4">
      <!-- 60 -->
      <g transform="translate(180.440277 257.038437) scale(0.1 -0.1)">
       <defs>
        <path id="DejaVuSans-36" d="M 2113 2584 
Q 1688 2584 1439 2293 
Q 1191 2003 1191 1497 
Q 1191 994 1439 701 
Q 1688 409 2113 409 
Q 2538 409 2786 701 
Q 3034 994 3034 1497 
Q 3034 2003 2786 2293 
Q 2538 2584 2113 2584 
z
M 3366 4563 
L 3366 3988 
Q 3128 4100 2886 4159 
Q 2644 4219 2406 4219 
Q 1781 4219 1451 3797 
Q 1122 3375 1075 2522 
Q 1259 2794 1537 2939 
Q 1816 3084 2150 3084 
Q 2853 3084 3261 2657 
Q 3669 2231 3669 1497 
Q 3669 778 3244 343 
Q 2819 -91 2113 -91 
Q 1303 -91 875 529 
Q 447 1150 447 2328 
Q 447 3434 972 4092 
Q 1497 4750 2381 4750 
Q 2619 4750 2861 4703 
Q 3103 4656 3366 4563 
z
" transform="scale(0.015625)"/>
       </defs>
       <use xlink:href="#DejaVuSans-36"/>
       <use xlink:href="#DejaVuSans-30" x="63.623047"/>
      </g>
     </g>
    </g>
    <g id="xtick_5">
     <g id="line2d_5">
      <g>
       <use xlink:href="#m2a5d222cb5" x="227.302477" y="242.44" style="stroke: #000000; stroke-width: 0.8"/>
      </g>
     </g>
     <g id="text_5">
      <!-- 80 -->
      <g transform="translate(220.939977 257.038437) scale(0.1 -0.1)">
       <defs>
        <path id="DejaVuSans-38" d="M 2034 2216 
Q 1584 2216 1326 1975 
Q 1069 1734 1069 1313 
Q 1069 891 1326 650 
Q 1584 409 2034 409 
Q 2484 409 2743 651 
Q 3003 894 3003 1313 
Q 3003 1734 2745 1975 
Q 2488 2216 2034 2216 
z
M 1403 2484 
Q 997 2584 770 2862 
Q 544 3141 544 3541 
Q 544 4100 942 4425 
Q 1341 4750 2034 4750 
Q 2731 4750 3128 4425 
Q 3525 4100 3525 3541 
Q 3525 3141 3298 2862 
Q 3072 2584 2669 2484 
Q 3125 2378 3379 2068 
Q 3634 1759 3634 1313 
Q 3634 634 3220 271 
Q 2806 -91 2034 -91 
Q 1263 -91 848 271 
Q 434 634 434 1313 
Q 434 1759 690 2068 
Q 947 2378 1403 2484 
z
M 1172 3481 
Q 1172 3119 1398 2916 
Q 1625 2713 2034 2713 
Q 2441 2713 2670 2916 
Q 2900 3119 2900 3481 
Q 2900 3844 2670 4047 
Q 2441 4250 2034 4250 
Q 1625 4250 1398 4047 
Q 1172 3844 1172 3481 
z
" transform="scale(0.015625)"/>
       </defs>
       <use xlink:href="#DejaVuSans-38"/>
       <use xlink:href="#DejaVuSans-30" x="63.623047"/>
      </g>
     </g>
    </g>
    <g id="xtick_6">
     <g id="line2d_6">
      <g>
       <use xlink:href="#m2a5d222cb5" x="267.802177" y="242.44" style="stroke: #000000; stroke-width: 0.8"/>
      </g>
     </g>
     <g id="text_6">
      <!-- 100 -->
      <g transform="translate(258.258427 257.038437) scale(0.1 -0.1)">
       <defs>
        <path id="DejaVuSans-31" d="M 794 531 
L 1825 531 
L 1825 4091 
L 703 3866 
L 703 4441 
L 1819 4666 
L 2450 4666 
L 2450 531 
L 3481 531 
L 3481 0 
L 794 0 
L 794 531 
z
" transform="scale(0.015625)"/>
       </defs>
       <use xlink:href="#DejaVuSans-31"/>
       <use xlink:href="#DejaVuSans-30" x="63.623047"/>
       <use xlink:href="#DejaVuSans-30" x="127.246094"/>
      </g>
     </g>
    </g>
    <g id="text_7">
     <!-- Iterations -->
     <g transform="translate(132.20184 273.755938) scale(0.14 -0.14)">
      <defs>
       <path id="DejaVuSans-49" d="M 628 4666 
L 1259 4666 
L 1259 0 
L 628 0 
L 628 4666 
z
" transform="scale(0.015625)"/>
       <path id="DejaVuSans-74" d="M 1172 4494 
L 1172 3500 
L 2356 3500 
L 2356 3053 
L 1172 3053 
L 1172 1153 
Q 1172 725 1289 603 
Q 1406 481 1766 481 
L 2356 481 
L 2356 0 
L 1766 0 
Q 1100 0 847 248 
Q 594 497 594 1153 
L 594 3053 
L 172 3053 
L 172 3500 
L 594 3500 
L 594 4494 
L 1172 4494 
z
" transform="scale(0.015625)"/>
       <path id="DejaVuSans-65" d="M 3597 1894 
L 3597 1613 
L 953 1613 
Q 991 1019 1311 708 
Q 1631 397 2203 397 
Q 2534 397 2845 478 
Q 3156 559 3463 722 
L 3463 178 
Q 3153 47 2828 -22 
Q 2503 -91 2169 -91 
Q 1331 -91 842 396 
Q 353 884 353 1716 
Q 353 2575 817 3079 
Q 1281 3584 2069 3584 
Q 2775 3584 3186 3129 
Q 3597 2675 3597 1894 
z
M 3022 2063 
Q 3016 2534 2758 2815 
Q 2500 3097 2075 3097 
Q 1594 3097 1305 2825 
Q 1016 2553 972 2059 
L 3022 2063 
z
" transform="scale(0.015625)"/>
       <path id="DejaVuSans-72" d="M 2631 2963 
Q 2534 3019 2420 3045 
Q 2306 3072 2169 3072 
Q 1681 3072 1420 2755 
Q 1159 2438 1159 1844 
L 1159 0 
L 581 0 
L 581 3500 
L 1159 3500 
L 1159 2956 
Q 1341 3275 1631 3429 
Q 1922 3584 2338 3584 
Q 2397 3584 2469 3576 
Q 2541 3569 2628 3553 
L 2631 2963 
z
" transform="scale(0.015625)"/>
       <path id="DejaVuSans-61" d="M 2194 1759 
Q 1497 1759 1228 1600 
Q 959 1441 959 1056 
Q 959 750 1161 570 
Q 1363 391 1709 391 
Q 2188 391 2477 730 
Q 2766 1069 2766 1631 
L 2766 1759 
L 2194 1759 
z
M 3341 1997 
L 3341 0 
L 2766 0 
L 2766 531 
Q 2569 213 2275 61 
Q 1981 -91 1556 -91 
Q 1019 -91 701 211 
Q 384 513 384 1019 
Q 384 1609 779 1909 
Q 1175 2209 1959 2209 
L 2766 2209 
L 2766 2266 
Q 2766 2663 2505 2880 
Q 2244 3097 1772 3097 
Q 1472 3097 1187 3025 
Q 903 2953 641 2809 
L 641 3341 
Q 956 3463 1253 3523 
Q 1550 3584 1831 3584 
Q 2591 3584 2966 3190 
Q 3341 2797 3341 1997 
z
" transform="scale(0.015625)"/>
       <path id="DejaVuSans-69" d="M 603 3500 
L 1178 3500 
L 1178 0 
L 603 0 
L 603 3500 
z
M 603 4863 
L 1178 4863 
L 1178 4134 
L 603 4134 
L 603 4863 
z
" transform="scale(0.015625)"/>
       <path id="DejaVuSans-6f" d="M 1959 3097 
Q 1497 3097 1228 2736 
Q 959 2375 959 1747 
Q 959 1119 1226 758 
Q 1494 397 1959 397 
Q 2419 397 2687 759 
Q 2956 1122 2956 1747 
Q 2956 2369 2687 2733 
Q 2419 3097 1959 3097 
z
M 1959 3584 
Q 2709 3584 3137 3096 
Q 3566 2609 3566 1747 
Q 3566 888 3137 398 
Q 2709 -91 1959 -91 
Q 1206 -91 779 398 
Q 353 888 353 1747 
Q 353 2609 779 3096 
Q 1206 3584 1959 3584 
z
" transform="scale(0.015625)"/>
       <path id="DejaVuSans-6e" d="M 3513 2113 
L 3513 0 
L 2938 0 
L 2938 2094 
Q 2938 2591 2744 2837 
Q 2550 3084 2163 3084 
Q 1697 3084 1428 2787 
Q 1159 2491 1159 1978 
L 1159 0 
L 581 0 
L 581 3500 
L 1159 3500 
L 1159 2956 
Q 1366 3272 1645 3428 
Q 1925 3584 2291 3584 
Q 2894 3584 3203 3211 
Q 3513 2838 3513 2113 
z
" transform="scale(0.015625)"/>
       <path id="DejaVuSans-73" d="M 2834 3397 
L 2834 2853 
Q 2591 2978 2328 3040 
Q 2066 3103 1784 3103 
Q 1356 3103 1142 2972 
Q 928 2841 928 2578 
Q 928 2378 1081 2264 
Q 1234 2150 1697 2047 
L 1894 2003 
Q 2506 1872 2764 1633 
Q 3022 1394 3022 966 
Q 3022 478 2636 193 
Q 2250 -91 1575 -91 
Q 1294 -91 989 -36 
Q 684 19 347 128 
L 347 722 
Q 666 556 975 473 
Q 1284 391 1588 391 
Q 1994 391 2212 530 
Q 2431 669 2431 922 
Q 2431 1156 2273 1281 
Q 2116 1406 1581 1522 
L 1381 1569 
Q 847 1681 609 1914 
Q 372 2147 372 2553 
Q 372 3047 722 3315 
Q 1072 3584 1716 3584 
Q 2034 3584 2315 3537 
Q 2597 3491 2834 3397 
z
" transform="scale(0.015625)"/>
      </defs>
      <use xlink:href="#DejaVuSans-49"/>
      <use xlink:href="#DejaVuSans-74" x="29.492188"/>
      <use xlink:href="#DejaVuSans-65" x="68.701172"/>
      <use xlink:href="#DejaVuSans-72" x="130.224609"/>
      <use xlink:href="#DejaVuSans-61" x="171.337891"/>
      <use xlink:href="#DejaVuSans-74" x="232.617188"/>
      <use xlink:href="#DejaVuSans-69" x="271.826172"/>
      <use xlink:href="#DejaVuSans-6f" x="299.609375"/>
      <use xlink:href="#DejaVuSans-6e" x="360.791016"/>
      <use xlink:href="#DejaVuSans-73" x="424.169922"/>
     </g>
    </g>
   </g>
   <g id="matplotlib.axis_2">
    <g id="ytick_1">
     <g id="line2d_7">
      <defs>
       <path id="mbf660d4fd2" d="M 0 0 
L -3.5 0 
" style="stroke: #000000; stroke-width: 0.8"/>
      </defs>
      <g>
       <use xlink:href="#mbf660d4fd2" x="55.28" y="241.09763" style="stroke: #000000; stroke-width: 0.8"/>
      </g>
     </g>
     <g id="text_8">
      <!-- 20 -->
      <g transform="translate(35.555 244.896849) scale(0.1 -0.1)">
       <use xlink:href="#DejaVuSans-32"/>
       <use xlink:href="#DejaVuSans-30" x="63.623047"/>
      </g>
     </g>
    </g>
    <g id="ytick_2">
     <g id="line2d_8">
      <g>
       <use xlink:href="#mbf660d4fd2" x="55.28" y="209.419282" style="stroke: #000000; stroke-width: 0.8"/>
      </g>
     </g>
     <g id="text_9">
      <!-- 40 -->
      <g transform="translate(35.555 213.218501) scale(0.1 -0.1)">
       <use xlink:href="#DejaVuSans-34"/>
       <use xlink:href="#DejaVuSans-30" x="63.623047"/>
      </g>
     </g>
    </g>
    <g id="ytick_3">
     <g id="line2d_9">
      <g>
       <use xlink:href="#mbf660d4fd2" x="55.28" y="177.740934" style="stroke: #000000; stroke-width: 0.8"/>
      </g>
     </g>
     <g id="text_10">
      <!-- 60 -->
      <g transform="translate(35.555 181.540153) scale(0.1 -0.1)">
       <use xlink:href="#DejaVuSans-36"/>
       <use xlink:href="#DejaVuSans-30" x="63.623047"/>
      </g>
     </g>
    </g>
    <g id="ytick_4">
     <g id="line2d_10">
      <g>
       <use xlink:href="#mbf660d4fd2" x="55.28" y="146.062586" style="stroke: #000000; stroke-width: 0.8"/>
      </g>
     </g>
     <g id="text_11">
      <!-- 80 -->
      <g transform="translate(35.555 149.861805) scale(0.1 -0.1)">
       <use xlink:href="#DejaVuSans-38"/>
       <use xlink:href="#DejaVuSans-30" x="63.623047"/>
      </g>
     </g>
    </g>
    <g id="ytick_5">
     <g id="line2d_11">
      <g>
       <use xlink:href="#mbf660d4fd2" x="55.28" y="114.384238" style="stroke: #000000; stroke-width: 0.8"/>
      </g>
     </g>
     <g id="text_12">
      <!-- 100 -->
      <g transform="translate(29.1925 118.183457) scale(0.1 -0.1)">
       <use xlink:href="#DejaVuSans-31"/>
       <use xlink:href="#DejaVuSans-30" x="63.623047"/>
       <use xlink:href="#DejaVuSans-30" x="127.246094"/>
      </g>
     </g>
    </g>
    <g id="ytick_6">
     <g id="line2d_12">
      <g>
       <use xlink:href="#mbf660d4fd2" x="55.28" y="82.70589" style="stroke: #000000; stroke-width: 0.8"/>
      </g>
     </g>
     <g id="text_13">
      <!-- 120 -->
      <g transform="translate(29.1925 86.505109) scale(0.1 -0.1)">
       <use xlink:href="#DejaVuSans-31"/>
       <use xlink:href="#DejaVuSans-32" x="63.623047"/>
       <use xlink:href="#DejaVuSans-30" x="127.246094"/>
      </g>
     </g>
    </g>
    <g id="ytick_7">
     <g id="line2d_13">
      <g>
       <use xlink:href="#mbf660d4fd2" x="55.28" y="51.027542" style="stroke: #000000; stroke-width: 0.8"/>
      </g>
     </g>
     <g id="text_14">
      <!-- 140 -->
      <g transform="translate(29.1925 54.826761) scale(0.1 -0.1)">
       <use xlink:href="#DejaVuSans-31"/>
       <use xlink:href="#DejaVuSans-34" x="63.623047"/>
       <use xlink:href="#DejaVuSans-30" x="127.246094"/>
      </g>
     </g>
    </g>
    <g id="ytick_8">
     <g id="line2d_14">
      <g>
       <use xlink:href="#mbf660d4fd2" x="55.28" y="19.349194" style="stroke: #000000; stroke-width: 0.8"/>
      </g>
     </g>
     <g id="text_15">
      <!-- 160 -->
      <g transform="translate(29.1925 23.148413) scale(0.1 -0.1)">
       <use xlink:href="#DejaVuSans-31"/>
       <use xlink:href="#DejaVuSans-36" x="63.623047"/>
       <use xlink:href="#DejaVuSans-30" x="127.246094"/>
      </g>
     </g>
    </g>
    <g id="text_16">
     <!-- Qd_score_norm -->
     <g transform="translate(21.891562 180.673125) rotate(-90) scale(0.14 -0.14)">
      <defs>
       <path id="DejaVuSans-51" d="M 2522 4238 
Q 1834 4238 1429 3725 
Q 1025 3213 1025 2328 
Q 1025 1447 1429 934 
Q 1834 422 2522 422 
Q 3209 422 3611 934 
Q 4013 1447 4013 2328 
Q 4013 3213 3611 3725 
Q 3209 4238 2522 4238 
z
M 3406 84 
L 4238 -825 
L 3475 -825 
L 2784 -78 
Q 2681 -84 2626 -87 
Q 2572 -91 2522 -91 
Q 1538 -91 948 567 
Q 359 1225 359 2328 
Q 359 3434 948 4092 
Q 1538 4750 2522 4750 
Q 3503 4750 4090 4092 
Q 4678 3434 4678 2328 
Q 4678 1516 4351 937 
Q 4025 359 3406 84 
z
" transform="scale(0.015625)"/>
       <path id="DejaVuSans-64" d="M 2906 2969 
L 2906 4863 
L 3481 4863 
L 3481 0 
L 2906 0 
L 2906 525 
Q 2725 213 2448 61 
Q 2172 -91 1784 -91 
Q 1150 -91 751 415 
Q 353 922 353 1747 
Q 353 2572 751 3078 
Q 1150 3584 1784 3584 
Q 2172 3584 2448 3432 
Q 2725 3281 2906 2969 
z
M 947 1747 
Q 947 1113 1208 752 
Q 1469 391 1925 391 
Q 2381 391 2643 752 
Q 2906 1113 2906 1747 
Q 2906 2381 2643 2742 
Q 2381 3103 1925 3103 
Q 1469 3103 1208 2742 
Q 947 2381 947 1747 
z
" transform="scale(0.015625)"/>
       <path id="DejaVuSans-5f" d="M 3263 -1063 
L 3263 -1509 
L -63 -1509 
L -63 -1063 
L 3263 -1063 
z
" transform="scale(0.015625)"/>
       <path id="DejaVuSans-63" d="M 3122 3366 
L 3122 2828 
Q 2878 2963 2633 3030 
Q 2388 3097 2138 3097 
Q 1578 3097 1268 2742 
Q 959 2388 959 1747 
Q 959 1106 1268 751 
Q 1578 397 2138 397 
Q 2388 397 2633 464 
Q 2878 531 3122 666 
L 3122 134 
Q 2881 22 2623 -34 
Q 2366 -91 2075 -91 
Q 1284 -91 818 406 
Q 353 903 353 1747 
Q 353 2603 823 3093 
Q 1294 3584 2113 3584 
Q 2378 3584 2631 3529 
Q 2884 3475 3122 3366 
z
" transform="scale(0.015625)"/>
       <path id="DejaVuSans-6d" d="M 3328 2828 
Q 3544 3216 3844 3400 
Q 4144 3584 4550 3584 
Q 5097 3584 5394 3201 
Q 5691 2819 5691 2113 
L 5691 0 
L 5113 0 
L 5113 2094 
Q 5113 2597 4934 2840 
Q 4756 3084 4391 3084 
Q 3944 3084 3684 2787 
Q 3425 2491 3425 1978 
L 3425 0 
L 2847 0 
L 2847 2094 
Q 2847 2600 2669 2842 
Q 2491 3084 2119 3084 
Q 1678 3084 1418 2786 
Q 1159 2488 1159 1978 
L 1159 0 
L 581 0 
L 581 3500 
L 1159 3500 
L 1159 2956 
Q 1356 3278 1631 3431 
Q 1906 3584 2284 3584 
Q 2666 3584 2933 3390 
Q 3200 3197 3328 2828 
z
" transform="scale(0.015625)"/>
      </defs>
      <use xlink:href="#DejaVuSans-51"/>
      <use xlink:href="#DejaVuSans-64" x="78.710938"/>
      <use xlink:href="#DejaVuSans-5f" x="142.1875"/>
      <use xlink:href="#DejaVuSans-73" x="192.1875"/>
      <use xlink:href="#DejaVuSans-63" x="244.287109"/>
      <use xlink:href="#DejaVuSans-6f" x="299.267578"/>
      <use xlink:href="#DejaVuSans-72" x="360.449219"/>
      <use xlink:href="#DejaVuSans-65" x="399.3125"/>
      <use xlink:href="#DejaVuSans-5f" x="460.835938"/>
      <use xlink:href="#DejaVuSans-6e" x="510.835938"/>
      <use xlink:href="#DejaVuSans-6f" x="574.214844"/>
      <use xlink:href="#DejaVuSans-72" x="635.396484"/>
      <use xlink:href="#DejaVuSans-6d" x="674.759766"/>
     </g>
    </g>
   </g>
   <g id="line2d_15">
    <path d="M 65.303676 231.910909 
L 67.328661 216.277644 
L 69.353646 208.136309 
L 71.378631 202.386689 
L 73.403616 192.946541 
L 75.428601 186.658389 
L 77.453586 182.540204 
L 79.478571 178.881355 
L 81.503556 176.077821 
L 83.528541 171.405264 
L 85.553526 170.027256 
L 87.578511 161.078123 
L 89.603496 158.116197 
L 91.628481 157.3084 
L 93.653466 155.756161 
L 95.678451 152.144829 
L 97.703436 149.420491 
L 99.728421 146.030908 
L 101.753406 141.532582 
L 103.778391 136.273977 
L 105.803376 134.642542 
L 107.828361 132.836876 
L 109.853346 129.526488 
L 111.878331 124.616344 
L 113.903316 121.812811 
L 115.928301 118.359871 
L 117.953286 116.64924 
L 119.978271 113.608119 
L 122.003256 108.365352 
L 124.028241 106.227063 
L 126.053226 106.021154 
L 128.078211 104.595629 
L 130.103196 103.201781 
L 132.128181 101.538668 
L 134.153166 100.255695 
L 136.178151 99.051918 
L 138.203136 97.436322 
L 140.228121 93.888347 
L 142.253106 93.571563 
L 144.278091 92.890479 
L 146.303076 91.100652 
L 148.328061 89.912714 
L 150.353046 88.439671 
L 152.378031 85.857886 
L 154.403016 82.151519 
L 156.428001 82.024806 
L 158.452986 79.189593 
L 160.477971 79.173754 
L 162.502956 78.841132 
L 164.527941 78.144208 
L 166.552926 75.974241 
L 168.577911 74.311128 
L 170.602896 73.867631 
L 172.627881 72.489623 
L 174.652866 72.473784 
L 176.677851 72.473784 
L 178.702836 72.252035 
L 180.727821 69.622732 
L 182.752806 69.622732 
L 184.777791 69.48018 
L 186.802777 68.038815 
L 188.827762 67.294374 
L 190.852747 66.090597 
L 192.877732 63.857273 
L 194.902717 63.841434 
L 196.927702 62.479265 
L 198.952687 58.867933 
L 200.977672 58.804577 
L 203.002657 58.74122 
L 205.027642 57.109785 
L 207.052627 57.109785 
L 209.077612 54.51216 
L 211.102597 49.776247 
L 213.127582 48.224008 
L 215.152567 46.339147 
L 217.177552 43.804879 
L 219.202537 42.997081 
L 221.227522 41.729947 
L 223.252507 41.064702 
L 225.277492 38.435399 
L 227.302477 37.025712 
L 229.327462 35.378438 
L 231.352447 34.855745 
L 233.377432 34.523123 
L 235.402417 34.238018 
L 237.427402 33.414381 
L 239.452387 33.398541 
L 241.477372 31.909659 
L 243.502357 31.307771 
L 245.527342 29.058608 
L 247.552327 27.316299 
L 249.577312 27.062872 
L 251.602297 24.41773 
L 253.627282 24.370212 
L 255.652267 24.259338 
L 257.677252 23.958394 
L 259.702237 23.879198 
L 261.727222 23.483219 
L 263.752207 21.851784 
L 265.777192 21.329091 
" clip-path="url(#p8eaafff0fa)" style="fill: none; stroke: #000000; stroke-width: 1.5; stroke-linecap: square"/>
   </g>
   <g id="line2d_16">
    <path d="M 65.303676 231.910909 
L 67.328661 216.277644 
L 69.353646 208.136309 
L 71.378631 202.386689 
L 73.403616 192.946541 
L 75.428601 186.658389 
L 77.453586 182.540204 
L 79.478571 178.881355 
L 81.503556 176.077821 
L 83.528541 171.405264 
L 85.553526 170.027256 
L 87.578511 161.078123 
L 89.603496 158.116197 
L 91.628481 157.3084 
L 93.653466 155.756161 
L 95.678451 152.144829 
L 97.703436 149.420491 
L 99.728421 146.030908 
L 101.753406 141.532582 
L 103.778391 136.273977 
L 105.803376 134.642542 
L 107.828361 132.836876 
L 109.853346 129.526488 
L 111.878331 124.616344 
L 113.903316 121.812811 
L 115.928301 118.359871 
L 117.953286 116.64924 
L 119.978271 113.608119 
L 122.003256 108.365352 
L 124.028241 106.227063 
L 126.053226 106.021154 
L 128.078211 104.595629 
L 130.103196 103.201781 
L 132.128181 101.538668 
L 134.153166 100.255695 
L 136.178151 99.051918 
L 138.203136 97.436322 
L 140.228121 93.888347 
L 142.253106 93.571563 
L 144.278091 92.890479 
L 146.303076 91.100652 
L 148.328061 89.912714 
L 150.353046 88.439671 
L 152.378031 85.857886 
L 154.403016 82.151519 
L 156.428001 82.024806 
L 158.452986 79.189593 
L 160.477971 79.173754 
L 162.502956 78.841132 
L 164.527941 78.144208 
L 166.552926 75.974241 
L 168.577911 74.311128 
L 170.602896 73.867631 
L 172.627881 72.489623 
L 174.652866 72.473784 
L 176.677851 72.473784 
L 178.702836 72.252035 
L 180.727821 69.622732 
L 182.752806 69.622732 
L 184.777791 69.48018 
L 186.802777 68.038815 
L 188.827762 67.294374 
L 190.852747 66.090597 
L 192.877732 63.857273 
L 194.902717 63.841434 
L 196.927702 62.479265 
L 198.952687 58.867933 
L 200.977672 58.804577 
L 203.002657 58.74122 
L 205.027642 57.109785 
L 207.052627 57.109785 
L 209.077612 54.51216 
L 211.102597 49.776247 
L 213.127582 48.224008 
L 215.152567 46.339147 
L 217.177552 43.804879 
L 219.202537 42.997081 
L 221.227522 41.729947 
L 223.252507 41.064702 
L 225.277492 38.435399 
L 227.302477 37.025712 
L 229.327462 35.378438 
L 231.352447 34.855745 
L 233.377432 34.523123 
L 235.402417 34.238018 
L 237.427402 33.414381 
L 239.452387 33.398541 
L 241.477372 31.909659 
L 243.502357 31.307771 
L 245.527342 29.058608 
L 247.552327 27.316299 
L 249.577312 27.062872 
L 251.602297 24.41773 
L 253.627282 24.370212 
L 255.652267 24.259338 
L 257.677252 23.958394 
L 259.702237 23.879198 
L 261.727222 23.483219 
L 263.752207 21.851784 
L 265.777192 21.329091 
" clip-path="url(#p8eaafff0fa)" style="fill: none; stroke: #000000; stroke-width: 1.5; stroke-linecap: square"/>
   </g>
   <g id="line2d_17">
    <path d="M 65.303676 231.910909 
L 67.328661 216.277644 
L 69.353646 208.136309 
L 71.378631 202.386689 
L 73.403616 192.946541 
L 75.428601 186.658389 
L 77.453586 182.540204 
L 79.478571 178.881355 
L 81.503556 176.077821 
L 83.528541 171.405264 
L 85.553526 170.027256 
L 87.578511 161.078123 
L 89.603496 158.116197 
L 91.628481 157.3084 
L 93.653466 155.756161 
L 95.678451 152.144829 
L 97.703436 149.420491 
L 99.728421 146.030908 
L 101.753406 141.532582 
L 103.778391 136.273977 
L 105.803376 134.642542 
L 107.828361 132.836876 
L 109.853346 129.526488 
L 111.878331 124.616344 
L 113.903316 121.812811 
L 115.928301 118.359871 
L 117.953286 116.64924 
L 119.978271 113.608119 
L 122.003256 108.365352 
L 124.028241 106.227063 
L 126.053226 106.021154 
L 128.078211 104.595629 
L 130.103196 103.201781 
L 132.128181 101.538668 
L 134.153166 100.255695 
L 136.178151 99.051918 
L 138.203136 97.436322 
L 140.228121 93.888347 
L 142.253106 93.571563 
L 144.278091 92.890479 
L 146.303076 91.100652 
L 148.328061 89.912714 
L 150.353046 88.439671 
L 152.378031 85.857886 
L 154.403016 82.151519 
L 156.428001 82.024806 
L 158.452986 79.189593 
L 160.477971 79.173754 
L 162.502956 78.841132 
L 164.527941 78.144208 
L 166.552926 75.974241 
L 168.577911 74.311128 
L 170.602896 73.867631 
L 172.627881 72.489623 
L 174.652866 72.473784 
L 176.677851 72.473784 
L 178.702836 72.252035 
L 180.727821 69.622732 
L 182.752806 69.622732 
L 184.777791 69.48018 
L 186.802777 68.038815 
L 188.827762 67.294374 
L 190.852747 66.090597 
L 192.877732 63.857273 
L 194.902717 63.841434 
L 196.927702 62.479265 
L 198.952687 58.867933 
L 200.977672 58.804577 
L 203.002657 58.74122 
L 205.027642 57.109785 
L 207.052627 57.109785 
L 209.077612 54.51216 
L 211.102597 49.776247 
L 213.127582 48.224008 
L 215.152567 46.339147 
L 217.177552 43.804879 
L 219.202537 42.997081 
L 221.227522 41.729947 
L 223.252507 41.064702 
L 225.277492 38.435399 
L 227.302477 37.025712 
L 229.327462 35.378438 
L 231.352447 34.855745 
L 233.377432 34.523123 
L 235.402417 34.238018 
L 237.427402 33.414381 
L 239.452387 33.398541 
L 241.477372 31.909659 
L 243.502357 31.307771 
L 245.527342 29.058608 
L 247.552327 27.316299 
L 249.577312 27.062872 
L 251.602297 24.41773 
L 253.627282 24.370212 
L 255.652267 24.259338 
L 257.677252 23.958394 
L 259.702237 23.879198 
L 261.727222 23.483219 
L 263.752207 21.851784 
L 265.777192 21.329091 
" clip-path="url(#p8eaafff0fa)" style="fill: none; stroke: #000000; stroke-width: 1.5; stroke-linecap: square"/>
   </g>
   <g id="line2d_18">
    <path d="M 65.303676 231.910909 
L 67.328661 216.277644 
L 69.353646 208.136309 
L 71.378631 202.386689 
L 73.403616 192.946541 
L 75.428601 186.658389 
L 77.453586 182.540204 
L 79.478571 178.881355 
L 81.503556 176.077821 
L 83.528541 171.405264 
L 85.553526 170.027256 
L 87.578511 161.078123 
L 89.603496 158.116197 
L 91.628481 157.3084 
L 93.653466 155.756161 
L 95.678451 152.144829 
L 97.703436 149.420491 
L 99.728421 146.030908 
L 101.753406 141.532582 
L 103.778391 136.273977 
L 105.803376 134.642542 
L 107.828361 132.836876 
L 109.853346 129.526488 
L 111.878331 124.616344 
L 113.903316 121.812811 
L 115.928301 118.359871 
L 117.953286 116.64924 
L 119.978271 113.608119 
L 122.003256 108.365352 
L 124.028241 106.227063 
L 126.053226 106.021154 
L 128.078211 104.595629 
L 130.103196 103.201781 
L 132.128181 101.538668 
L 134.153166 100.255695 
L 136.178151 99.051918 
L 138.203136 97.436322 
L 140.228121 93.888347 
L 142.253106 93.571563 
L 144.278091 92.890479 
L 146.303076 91.100652 
L 148.328061 89.912714 
L 150.353046 88.439671 
L 152.378031 85.857886 
L 154.403016 82.151519 
L 156.428001 82.024806 
L 158.452986 79.189593 
L 160.477971 79.173754 
L 162.502956 78.841132 
L 164.527941 78.144208 
L 166.552926 75.974241 
L 168.577911 74.311128 
L 170.602896 73.867631 
L 172.627881 72.489623 
L 174.652866 72.473784 
L 176.677851 72.473784 
L 178.702836 72.252035 
L 180.727821 69.622732 
L 182.752806 69.622732 
L 184.777791 69.48018 
L 186.802777 68.038815 
L 188.827762 67.294374 
L 190.852747 66.090597 
L 192.877732 63.857273 
L 194.902717 63.841434 
L 196.927702 62.479265 
L 198.952687 58.867933 
L 200.977672 58.804577 
L 203.002657 58.74122 
L 205.027642 57.109785 
L 207.052627 57.109785 
L 209.077612 54.51216 
L 211.102597 49.776247 
L 213.127582 48.224008 
L 215.152567 46.339147 
L 217.177552 43.804879 
L 219.202537 42.997081 
L 221.227522 41.729947 
L 223.252507 41.064702 
L 225.277492 38.435399 
L 227.302477 37.025712 
L 229.327462 35.378438 
L 231.352447 34.855745 
L 233.377432 34.523123 
L 235.402417 34.238018 
L 237.427402 33.414381 
L 239.452387 33.398541 
L 241.477372 31.909659 
L 243.502357 31.307771 
L 245.527342 29.058608 
L 247.552327 27.316299 
L 249.577312 27.062872 
L 251.602297 24.41773 
L 253.627282 24.370212 
L 255.652267 24.259338 
L 257.677252 23.958394 
L 259.702237 23.879198 
L 261.727222 23.483219 
L 263.752207 21.851784 
L 265.777192 21.329091 
" clip-path="url(#p8eaafff0fa)" style="fill: none; stroke: #000000; stroke-width: 1.5; stroke-linecap: square"/>
   </g>
   <g id="line2d_19">
    <path d="M 65.303676 231.910909 
L 67.328661 216.277644 
L 69.353646 208.136309 
L 71.378631 202.386689 
L 73.403616 192.946541 
L 75.428601 186.658389 
L 77.453586 182.540204 
L 79.478571 178.881355 
L 81.503556 176.077821 
L 83.528541 171.405264 
L 85.553526 170.027256 
L 87.578511 161.078123 
L 89.603496 158.116197 
L 91.628481 157.3084 
L 93.653466 155.756161 
L 95.678451 152.144829 
L 97.703436 149.420491 
L 99.728421 146.030908 
L 101.753406 141.532582 
L 103.778391 136.273977 
L 105.803376 134.642542 
L 107.828361 132.836876 
L 109.853346 129.526488 
L 111.878331 124.616344 
L 113.903316 121.812811 
L 115.928301 118.359871 
L 117.953286 116.64924 
L 119.978271 113.608119 
L 122.003256 108.365352 
L 124.028241 106.227063 
L 126.053226 106.021154 
L 128.078211 104.595629 
L 130.103196 103.201781 
L 132.128181 101.538668 
L 134.153166 100.255695 
L 136.178151 99.051918 
L 138.203136 97.436322 
L 140.228121 93.888347 
L 142.253106 93.571563 
L 144.278091 92.890479 
L 146.303076 91.100652 
L 148.328061 89.912714 
L 150.353046 88.439671 
L 152.378031 85.857886 
L 154.403016 82.151519 
L 156.428001 82.024806 
L 158.452986 79.189593 
L 160.477971 79.173754 
L 162.502956 78.841132 
L 164.527941 78.144208 
L 166.552926 75.974241 
L 168.577911 74.311128 
L 170.602896 73.867631 
L 172.627881 72.489623 
L 174.652866 72.473784 
L 176.677851 72.473784 
L 178.702836 72.252035 
L 180.727821 69.622732 
L 182.752806 69.622732 
L 184.777791 69.48018 
L 186.802777 68.038815 
L 188.827762 67.294374 
L 190.852747 66.090597 
L 192.877732 63.857273 
L 194.902717 63.841434 
L 196.927702 62.479265 
L 198.952687 58.867933 
L 200.977672 58.804577 
L 203.002657 58.74122 
L 205.027642 57.109785 
L 207.052627 57.109785 
L 209.077612 54.51216 
L 211.102597 49.776247 
L 213.127582 48.224008 
L 215.152567 46.339147 
L 217.177552 43.804879 
L 219.202537 42.997081 
L 221.227522 41.729947 
L 223.252507 41.064702 
L 225.277492 38.435399 
L 227.302477 37.025712 
L 229.327462 35.378438 
L 231.352447 34.855745 
L 233.377432 34.523123 
L 235.402417 34.238018 
L 237.427402 33.414381 
L 239.452387 33.398541 
L 241.477372 31.909659 
L 243.502357 31.307771 
L 245.527342 29.058608 
L 247.552327 27.316299 
L 249.577312 27.062872 
L 251.602297 24.41773 
L 253.627282 24.370212 
L 255.652267 24.259338 
L 257.677252 23.958394 
L 259.702237 23.879198 
L 261.727222 23.483219 
L 263.752207 21.851784 
L 265.777192 21.329091 
" clip-path="url(#p8eaafff0fa)" style="fill: none; stroke: #000000; stroke-width: 1.5; stroke-linecap: square"/>
   </g>
   <g id="line2d_20">
    <path d="M 65.303676 231.910909 
L 67.328661 216.277644 
L 69.353646 208.136309 
L 71.378631 202.386689 
L 73.403616 192.946541 
L 75.428601 186.658389 
L 77.453586 182.540204 
L 79.478571 178.881355 
L 81.503556 176.077821 
L 83.528541 171.405264 
L 85.553526 170.027256 
L 87.578511 161.078123 
L 89.603496 158.116197 
L 91.628481 157.3084 
L 93.653466 155.756161 
L 95.678451 152.144829 
L 97.703436 149.420491 
L 99.728421 146.030908 
L 101.753406 141.532582 
L 103.778391 136.273977 
L 105.803376 134.642542 
L 107.828361 132.836876 
L 109.853346 129.526488 
L 111.878331 124.616344 
L 113.903316 121.812811 
L 115.928301 118.359871 
L 117.953286 116.64924 
L 119.978271 113.608119 
L 122.003256 108.365352 
L 124.028241 106.227063 
L 126.053226 106.021154 
L 128.078211 104.595629 
L 130.103196 103.201781 
L 132.128181 101.538668 
L 134.153166 100.255695 
L 136.178151 99.051918 
L 138.203136 97.436322 
L 140.228121 93.888347 
L 142.253106 93.571563 
L 144.278091 92.890479 
L 146.303076 91.100652 
L 148.328061 89.912714 
L 150.353046 88.439671 
L 152.378031 85.857886 
L 154.403016 82.151519 
L 156.428001 82.024806 
L 158.452986 79.189593 
L 160.477971 79.173754 
L 162.502956 78.841132 
L 164.527941 78.144208 
L 166.552926 75.974241 
L 168.577911 74.311128 
L 170.602896 73.867631 
L 172.627881 72.489623 
L 174.652866 72.473784 
L 176.677851 72.473784 
L 178.702836 72.252035 
L 180.727821 69.622732 
L 182.752806 69.622732 
L 184.777791 69.48018 
L 186.802777 68.038815 
L 188.827762 67.294374 
L 190.852747 66.090597 
L 192.877732 63.857273 
L 194.902717 63.841434 
L 196.927702 62.479265 
L 198.952687 58.867933 
L 200.977672 58.804577 
L 203.002657 58.74122 
L 205.027642 57.109785 
L 207.052627 57.109785 
L 209.077612 54.51216 
L 211.102597 49.776247 
L 213.127582 48.224008 
L 215.152567 46.339147 
L 217.177552 43.804879 
L 219.202537 42.997081 
L 221.227522 41.729947 
L 223.252507 41.064702 
L 225.277492 38.435399 
L 227.302477 37.025712 
L 229.327462 35.378438 
L 231.352447 34.855745 
L 233.377432 34.523123 
L 235.402417 34.238018 
L 237.427402 33.414381 
L 239.452387 33.398541 
L 241.477372 31.909659 
L 243.502357 31.307771 
L 245.527342 29.058608 
L 247.552327 27.316299 
L 249.577312 27.062872 
L 251.602297 24.41773 
L 253.627282 24.370212 
L 255.652267 24.259338 
L 257.677252 23.958394 
L 259.702237 23.879198 
L 261.727222 23.483219 
L 263.752207 21.851784 
L 265.777192 21.329091 
" clip-path="url(#p8eaafff0fa)" style="fill: none; stroke: #000000; stroke-width: 1.5; stroke-linecap: square"/>
   </g>
   <g id="patch_3">
    <path d="M 55.28 242.44 
L 55.28 10.8 
" style="fill: none; stroke: #000000; stroke-width: 0.8; stroke-linejoin: miter; stroke-linecap: square"/>
   </g>
   <g id="patch_4">
    <path d="M 275.800868 242.44 
L 275.800868 10.8 
" style="fill: none; stroke: #000000; stroke-width: 0.8; stroke-linejoin: miter; stroke-linecap: square"/>
   </g>
   <g id="patch_5">
    <path d="M 55.28 242.44 
L 275.800868 242.44 
" style="fill: none; stroke: #000000; stroke-width: 0.8; stroke-linejoin: miter; stroke-linecap: square"/>
   </g>
   <g id="patch_6">
    <path d="M 55.28 10.8 
L 275.800868 10.8 
" style="fill: none; stroke: #000000; stroke-width: 0.8; stroke-linejoin: miter; stroke-linecap: square"/>
   </g>
  </g>
 </g>
 <defs>
  <clipPath id="p8eaafff0fa">
   <rect x="55.28" y="10.8" width="220.520868" height="231.64"/>
  </clipPath>
 </defs>
</svg>
