<?xml version="1.0" encoding="utf-8" standalone="no"?>
<!DOCTYPE svg PUBLIC "-//W3C//DTD SVG 1.1//EN"
  "http://www.w3.org/Graphics/SVG/1.1/DTD/svg11.dtd">
<svg xmlns:xlink="http://www.w3.org/1999/xlink" width="396pt" height="288pt" viewBox="0 0 396 288" xmlns="http://www.w3.org/2000/svg" version="1.1">
 <metadata>
  <rdf:RDF xmlns:dc="http://purl.org/dc/elements/1.1/" xmlns:cc="http://creativecommons.org/ns#" xmlns:rdf="http://www.w3.org/1999/02/22-rdf-syntax-ns#">
   <cc:Work>
    <dc:type rdf:resource="http://purl.org/dc/dcmitype/StillImage"/>
    <dc:date>2024-04-20T23:29:42.953558</dc:date>
    <dc:format>image/svg+xml</dc:format>
    <dc:creator>
     <cc:Agent>
      <dc:title>Matplotlib v3.7.2, https://matplotlib.org/</dc:title>
     </cc:Agent>
    </dc:creator>
   </cc:Work>
  </rdf:RDF>
 </metadata>
 <defs>
  <style type="text/css">*{stroke-linejoin: round; stroke-linecap: butt}</style>
 </defs>
 <g id="figure_1">
  <g id="patch_1">
   <path d="M 0 288 
L 396 288 
L 396 0 
L 0 0 
z
" style="fill: #ffffff"/>
  </g>
  <g id="axes_1">
   <g id="patch_2">
    <path d="M 47.45 237.175464 
L 385.2 237.175464 
L 385.2 26.88 
L 47.45 26.88 
z
" style="fill: #ffffff"/>
   </g>
   <g id="matplotlib.axis_1">
    <g id="xtick_1">
     <g id="line2d_1">
      <path d="M 56.640114 237.175464 
L 56.640114 26.88 
" clip-path="url(#pf17240d0b1)" style="fill: none; stroke: #b0b0b0; stroke-width: 0.8; stroke-linecap: square"/>
     </g>
     <g id="line2d_2">
      <defs>
       <path id="ma20daa4b2d" d="M 0 0 
L 0 3.5 
" style="stroke: #000000; stroke-width: 0.8"/>
      </defs>
      <g>
       <use xlink:href="#ma20daa4b2d" x="56.640114" y="237.175464" style="stroke: #000000; stroke-width: 0.8"/>
      </g>
     </g>
     <g id="text_1">
      <!-- −5 -->
      <g transform="translate(42.833161 258.126998) rotate(-30) scale(0.1 -0.1)">
       <defs>
        <path id="DejaVuSans-2212" d="M 678 2272 
L 4684 2272 
L 4684 1741 
L 678 1741 
L 678 2272 
z
" transform="scale(0.015625)"/>
        <path id="DejaVuSans-35" d="M 691 4666 
L 3169 4666 
L 3169 4134 
L 1269 4134 
L 1269 2991 
Q 1406 3038 1543 3061 
Q 1681 3084 1819 3084 
Q 2600 3084 3056 2656 
Q 3513 2228 3513 1497 
Q 3513 744 3044 326 
Q 2575 -91 1722 -91 
Q 1428 -91 1123 -41 
Q 819 9 494 109 
L 494 744 
Q 775 591 1075 516 
Q 1375 441 1709 441 
Q 2250 441 2565 725 
Q 2881 1009 2881 1497 
Q 2881 1984 2565 2268 
Q 2250 2553 1709 2553 
Q 1456 2553 1204 2497 
Q 953 2441 691 2322 
L 691 4666 
z
" transform="scale(0.015625)"/>
       </defs>
       <use xlink:href="#DejaVuSans-2212"/>
       <use xlink:href="#DejaVuSans-35" x="83.789062"/>
      </g>
     </g>
    </g>
    <g id="xtick_2">
     <g id="line2d_3">
      <path d="M 126.016797 237.175464 
L 126.016797 26.88 
" clip-path="url(#pf17240d0b1)" style="fill: none; stroke: #b0b0b0; stroke-width: 0.8; stroke-linecap: square"/>
     </g>
     <g id="line2d_4">
      <g>
       <use xlink:href="#ma20daa4b2d" x="126.016797" y="237.175464" style="stroke: #000000; stroke-width: 0.8"/>
      </g>
     </g>
     <g id="text_2">
      <!-- 0 -->
      <g transform="translate(119.466867 253.937154) rotate(-30) scale(0.1 -0.1)">
       <defs>
        <path id="DejaVuSans-30" d="M 2034 4250 
Q 1547 4250 1301 3770 
Q 1056 3291 1056 2328 
Q 1056 1369 1301 889 
Q 1547 409 2034 409 
Q 2525 409 2770 889 
Q 3016 1369 3016 2328 
Q 3016 3291 2770 3770 
Q 2525 4250 2034 4250 
z
M 2034 4750 
Q 2819 4750 3233 4129 
Q 3647 3509 3647 2328 
Q 3647 1150 3233 529 
Q 2819 -91 2034 -91 
Q 1250 -91 836 529 
Q 422 1150 422 2328 
Q 422 3509 836 4129 
Q 1250 4750 2034 4750 
z
" transform="scale(0.015625)"/>
       </defs>
       <use xlink:href="#DejaVuSans-30"/>
      </g>
     </g>
    </g>
    <g id="xtick_3">
     <g id="line2d_5">
      <path d="M 195.39348 237.175464 
L 195.39348 26.88 
" clip-path="url(#pf17240d0b1)" style="fill: none; stroke: #b0b0b0; stroke-width: 0.8; stroke-linecap: square"/>
     </g>
     <g id="line2d_6">
      <g>
       <use xlink:href="#ma20daa4b2d" x="195.39348" y="237.175464" style="stroke: #000000; stroke-width: 0.8"/>
      </g>
     </g>
     <g id="text_3">
      <!-- 5 -->
      <g transform="translate(188.84355 253.937154) rotate(-30) scale(0.1 -0.1)">
       <use xlink:href="#DejaVuSans-35"/>
      </g>
     </g>
    </g>
    <g id="xtick_4">
     <g id="line2d_7">
      <path d="M 264.770164 237.175464 
L 264.770164 26.88 
" clip-path="url(#pf17240d0b1)" style="fill: none; stroke: #b0b0b0; stroke-width: 0.8; stroke-linecap: square"/>
     </g>
     <g id="line2d_8">
      <g>
       <use xlink:href="#ma20daa4b2d" x="264.770164" y="237.175464" style="stroke: #000000; stroke-width: 0.8"/>
      </g>
     </g>
     <g id="text_4">
      <!-- 10 -->
      <g transform="translate(252.710146 257.118404) rotate(-30) scale(0.1 -0.1)">
       <defs>
        <path id="DejaVuSans-31" d="M 794 531 
L 1825 531 
L 1825 4091 
L 703 3866 
L 703 4441 
L 1819 4666 
L 2450 4666 
L 2450 531 
L 3481 531 
L 3481 0 
L 794 0 
L 794 531 
z
" transform="scale(0.015625)"/>
       </defs>
       <use xlink:href="#DejaVuSans-31"/>
       <use xlink:href="#DejaVuSans-30" x="63.623047"/>
      </g>
     </g>
    </g>
    <g id="xtick_5">
     <g id="line2d_9">
      <path d="M 334.146847 237.175464 
L 334.146847 26.88 
" clip-path="url(#pf17240d0b1)" style="fill: none; stroke: #b0b0b0; stroke-width: 0.8; stroke-linecap: square"/>
     </g>
     <g id="line2d_10">
      <g>
       <use xlink:href="#ma20daa4b2d" x="334.146847" y="237.175464" style="stroke: #000000; stroke-width: 0.8"/>
      </g>
     </g>
     <g id="text_5">
      <!-- 15 -->
      <g transform="translate(322.08683 257.118404) rotate(-30) scale(0.1 -0.1)">
       <use xlink:href="#DejaVuSans-31"/>
       <use xlink:href="#DejaVuSans-35" x="63.623047"/>
      </g>
     </g>
    </g>
    <g id="text_6">
     <!-- Z retning -->
     <g transform="translate(188.851562 273.046185) scale(0.12 -0.12)">
      <defs>
       <path id="DejaVuSans-5a" d="M 359 4666 
L 4025 4666 
L 4025 4184 
L 1075 531 
L 4097 531 
L 4097 0 
L 288 0 
L 288 481 
L 3238 4134 
L 359 4134 
L 359 4666 
z
" transform="scale(0.015625)"/>
       <path id="DejaVuSans-20" transform="scale(0.015625)"/>
       <path id="DejaVuSans-72" d="M 2631 2963 
Q 2534 3019 2420 3045 
Q 2306 3072 2169 3072 
Q 1681 3072 1420 2755 
Q 1159 2438 1159 1844 
L 1159 0 
L 581 0 
L 581 3500 
L 1159 3500 
L 1159 2956 
Q 1341 3275 1631 3429 
Q 1922 3584 2338 3584 
Q 2397 3584 2469 3576 
Q 2541 3569 2628 3553 
L 2631 2963 
z
" transform="scale(0.015625)"/>
       <path id="DejaVuSans-65" d="M 3597 1894 
L 3597 1613 
L 953 1613 
Q 991 1019 1311 708 
Q 1631 397 2203 397 
Q 2534 397 2845 478 
Q 3156 559 3463 722 
L 3463 178 
Q 3153 47 2828 -22 
Q 2503 -91 2169 -91 
Q 1331 -91 842 396 
Q 353 884 353 1716 
Q 353 2575 817 3079 
Q 1281 3584 2069 3584 
Q 2775 3584 3186 3129 
Q 3597 2675 3597 1894 
z
M 3022 2063 
Q 3016 2534 2758 2815 
Q 2500 3097 2075 3097 
Q 1594 3097 1305 2825 
Q 1016 2553 972 2059 
L 3022 2063 
z
" transform="scale(0.015625)"/>
       <path id="DejaVuSans-74" d="M 1172 4494 
L 1172 3500 
L 2356 3500 
L 2356 3053 
L 1172 3053 
L 1172 1153 
Q 1172 725 1289 603 
Q 1406 481 1766 481 
L 2356 481 
L 2356 0 
L 1766 0 
Q 1100 0 847 248 
Q 594 497 594 1153 
L 594 3053 
L 172 3053 
L 172 3500 
L 594 3500 
L 594 4494 
L 1172 4494 
z
" transform="scale(0.015625)"/>
       <path id="DejaVuSans-6e" d="M 3513 2113 
L 3513 0 
L 2938 0 
L 2938 2094 
Q 2938 2591 2744 2837 
Q 2550 3084 2163 3084 
Q 1697 3084 1428 2787 
Q 1159 2491 1159 1978 
L 1159 0 
L 581 0 
L 581 3500 
L 1159 3500 
L 1159 2956 
Q 1366 3272 1645 3428 
Q 1925 3584 2291 3584 
Q 2894 3584 3203 3211 
Q 3513 2838 3513 2113 
z
" transform="scale(0.015625)"/>
       <path id="DejaVuSans-69" d="M 603 3500 
L 1178 3500 
L 1178 0 
L 603 0 
L 603 3500 
z
M 603 4863 
L 1178 4863 
L 1178 4134 
L 603 4134 
L 603 4863 
z
" transform="scale(0.015625)"/>
       <path id="DejaVuSans-67" d="M 2906 1791 
Q 2906 2416 2648 2759 
Q 2391 3103 1925 3103 
Q 1463 3103 1205 2759 
Q 947 2416 947 1791 
Q 947 1169 1205 825 
Q 1463 481 1925 481 
Q 2391 481 2648 825 
Q 2906 1169 2906 1791 
z
M 3481 434 
Q 3481 -459 3084 -895 
Q 2688 -1331 1869 -1331 
Q 1566 -1331 1297 -1286 
Q 1028 -1241 775 -1147 
L 775 -588 
Q 1028 -725 1275 -790 
Q 1522 -856 1778 -856 
Q 2344 -856 2625 -561 
Q 2906 -266 2906 331 
L 2906 616 
Q 2728 306 2450 153 
Q 2172 0 1784 0 
Q 1141 0 747 490 
Q 353 981 353 1791 
Q 353 2603 747 3093 
Q 1141 3584 1784 3584 
Q 2172 3584 2450 3431 
Q 2728 3278 2906 2969 
L 2906 3500 
L 3481 3500 
L 3481 434 
z
" transform="scale(0.015625)"/>
      </defs>
      <use xlink:href="#DejaVuSans-5a"/>
      <use xlink:href="#DejaVuSans-20" x="68.505859"/>
      <use xlink:href="#DejaVuSans-72" x="100.292969"/>
      <use xlink:href="#DejaVuSans-65" x="139.15625"/>
      <use xlink:href="#DejaVuSans-74" x="200.679688"/>
      <use xlink:href="#DejaVuSans-6e" x="239.888672"/>
      <use xlink:href="#DejaVuSans-69" x="303.267578"/>
      <use xlink:href="#DejaVuSans-6e" x="331.050781"/>
      <use xlink:href="#DejaVuSans-67" x="394.429688"/>
     </g>
    </g>
   </g>
   <g id="matplotlib.axis_2">
    <g id="ytick_1">
     <g id="line2d_11">
      <path d="M 47.45 223.745157 
L 385.2 223.745157 
" clip-path="url(#pf17240d0b1)" style="fill: none; stroke: #b0b0b0; stroke-width: 0.8; stroke-linecap: square"/>
     </g>
     <g id="line2d_12">
      <defs>
       <path id="m99eec83527" d="M 0 0 
L -3.5 0 
" style="stroke: #000000; stroke-width: 0.8"/>
      </defs>
      <g>
       <use xlink:href="#m99eec83527" x="47.45" y="223.745157" style="stroke: #000000; stroke-width: 0.8"/>
      </g>
     </g>
     <g id="text_7">
      <!-- 0 -->
      <g transform="translate(34.0875 227.544376) scale(0.1 -0.1)">
       <use xlink:href="#DejaVuSans-30"/>
      </g>
     </g>
    </g>
    <g id="ytick_2">
     <g id="line2d_13">
      <path d="M 47.45 194.77116 
L 385.2 194.77116 
" clip-path="url(#pf17240d0b1)" style="fill: none; stroke: #b0b0b0; stroke-width: 0.8; stroke-linecap: square"/>
     </g>
     <g id="line2d_14">
      <g>
       <use xlink:href="#m99eec83527" x="47.45" y="194.77116" style="stroke: #000000; stroke-width: 0.8"/>
      </g>
     </g>
     <g id="text_8">
      <!-- 10 -->
      <g transform="translate(27.725 198.570379) scale(0.1 -0.1)">
       <use xlink:href="#DejaVuSans-31"/>
       <use xlink:href="#DejaVuSans-30" x="63.623047"/>
      </g>
     </g>
    </g>
    <g id="ytick_3">
     <g id="line2d_15">
      <path d="M 47.45 165.797163 
L 385.2 165.797163 
" clip-path="url(#pf17240d0b1)" style="fill: none; stroke: #b0b0b0; stroke-width: 0.8; stroke-linecap: square"/>
     </g>
     <g id="line2d_16">
      <g>
       <use xlink:href="#m99eec83527" x="47.45" y="165.797163" style="stroke: #000000; stroke-width: 0.8"/>
      </g>
     </g>
     <g id="text_9">
      <!-- 20 -->
      <g transform="translate(27.725 169.596381) scale(0.1 -0.1)">
       <defs>
        <path id="DejaVuSans-32" d="M 1228 531 
L 3431 531 
L 3431 0 
L 469 0 
L 469 531 
Q 828 903 1448 1529 
Q 2069 2156 2228 2338 
Q 2531 2678 2651 2914 
Q 2772 3150 2772 3378 
Q 2772 3750 2511 3984 
Q 2250 4219 1831 4219 
Q 1534 4219 1204 4116 
Q 875 4013 500 3803 
L 500 4441 
Q 881 4594 1212 4672 
Q 1544 4750 1819 4750 
Q 2544 4750 2975 4387 
Q 3406 4025 3406 3419 
Q 3406 3131 3298 2873 
Q 3191 2616 2906 2266 
Q 2828 2175 2409 1742 
Q 1991 1309 1228 531 
z
" transform="scale(0.015625)"/>
       </defs>
       <use xlink:href="#DejaVuSans-32"/>
       <use xlink:href="#DejaVuSans-30" x="63.623047"/>
      </g>
     </g>
    </g>
    <g id="ytick_4">
     <g id="line2d_17">
      <path d="M 47.45 136.823166 
L 385.2 136.823166 
" clip-path="url(#pf17240d0b1)" style="fill: none; stroke: #b0b0b0; stroke-width: 0.8; stroke-linecap: square"/>
     </g>
     <g id="line2d_18">
      <g>
       <use xlink:href="#m99eec83527" x="47.45" y="136.823166" style="stroke: #000000; stroke-width: 0.8"/>
      </g>
     </g>
     <g id="text_10">
      <!-- 30 -->
      <g transform="translate(27.725 140.622384) scale(0.1 -0.1)">
       <defs>
        <path id="DejaVuSans-33" d="M 2597 2516 
Q 3050 2419 3304 2112 
Q 3559 1806 3559 1356 
Q 3559 666 3084 287 
Q 2609 -91 1734 -91 
Q 1441 -91 1130 -33 
Q 819 25 488 141 
L 488 750 
Q 750 597 1062 519 
Q 1375 441 1716 441 
Q 2309 441 2620 675 
Q 2931 909 2931 1356 
Q 2931 1769 2642 2001 
Q 2353 2234 1838 2234 
L 1294 2234 
L 1294 2753 
L 1863 2753 
Q 2328 2753 2575 2939 
Q 2822 3125 2822 3475 
Q 2822 3834 2567 4026 
Q 2313 4219 1838 4219 
Q 1578 4219 1281 4162 
Q 984 4106 628 3988 
L 628 4550 
Q 988 4650 1302 4700 
Q 1616 4750 1894 4750 
Q 2613 4750 3031 4423 
Q 3450 4097 3450 3541 
Q 3450 3153 3228 2886 
Q 3006 2619 2597 2516 
z
" transform="scale(0.015625)"/>
       </defs>
       <use xlink:href="#DejaVuSans-33"/>
       <use xlink:href="#DejaVuSans-30" x="63.623047"/>
      </g>
     </g>
    </g>
    <g id="ytick_5">
     <g id="line2d_19">
      <path d="M 47.45 107.849169 
L 385.2 107.849169 
" clip-path="url(#pf17240d0b1)" style="fill: none; stroke: #b0b0b0; stroke-width: 0.8; stroke-linecap: square"/>
     </g>
     <g id="line2d_20">
      <g>
       <use xlink:href="#m99eec83527" x="47.45" y="107.849169" style="stroke: #000000; stroke-width: 0.8"/>
      </g>
     </g>
     <g id="text_11">
      <!-- 40 -->
      <g transform="translate(27.725 111.648387) scale(0.1 -0.1)">
       <defs>
        <path id="DejaVuSans-34" d="M 2419 4116 
L 825 1625 
L 2419 1625 
L 2419 4116 
z
M 2253 4666 
L 3047 4666 
L 3047 1625 
L 3713 1625 
L 3713 1100 
L 3047 1100 
L 3047 0 
L 2419 0 
L 2419 1100 
L 313 1100 
L 313 1709 
L 2253 4666 
z
" transform="scale(0.015625)"/>
       </defs>
       <use xlink:href="#DejaVuSans-34"/>
       <use xlink:href="#DejaVuSans-30" x="63.623047"/>
      </g>
     </g>
    </g>
    <g id="ytick_6">
     <g id="line2d_21">
      <path d="M 47.45 78.875171 
L 385.2 78.875171 
" clip-path="url(#pf17240d0b1)" style="fill: none; stroke: #b0b0b0; stroke-width: 0.8; stroke-linecap: square"/>
     </g>
     <g id="line2d_22">
      <g>
       <use xlink:href="#m99eec83527" x="47.45" y="78.875171" style="stroke: #000000; stroke-width: 0.8"/>
      </g>
     </g>
     <g id="text_12">
      <!-- 50 -->
      <g transform="translate(27.725 82.67439) scale(0.1 -0.1)">
       <use xlink:href="#DejaVuSans-35"/>
       <use xlink:href="#DejaVuSans-30" x="63.623047"/>
      </g>
     </g>
    </g>
    <g id="ytick_7">
     <g id="line2d_23">
      <path d="M 47.45 49.901174 
L 385.2 49.901174 
" clip-path="url(#pf17240d0b1)" style="fill: none; stroke: #b0b0b0; stroke-width: 0.8; stroke-linecap: square"/>
     </g>
     <g id="line2d_24">
      <g>
       <use xlink:href="#m99eec83527" x="47.45" y="49.901174" style="stroke: #000000; stroke-width: 0.8"/>
      </g>
     </g>
     <g id="text_13">
      <!-- 60 -->
      <g transform="translate(27.725 53.700393) scale(0.1 -0.1)">
       <defs>
        <path id="DejaVuSans-36" d="M 2113 2584 
Q 1688 2584 1439 2293 
Q 1191 2003 1191 1497 
Q 1191 994 1439 701 
Q 1688 409 2113 409 
Q 2538 409 2786 701 
Q 3034 994 3034 1497 
Q 3034 2003 2786 2293 
Q 2538 2584 2113 2584 
z
M 3366 4563 
L 3366 3988 
Q 3128 4100 2886 4159 
Q 2644 4219 2406 4219 
Q 1781 4219 1451 3797 
Q 1122 3375 1075 2522 
Q 1259 2794 1537 2939 
Q 1816 3084 2150 3084 
Q 2853 3084 3261 2657 
Q 3669 2231 3669 1497 
Q 3669 778 3244 343 
Q 2819 -91 2113 -91 
Q 1303 -91 875 529 
Q 447 1150 447 2328 
Q 447 3434 972 4092 
Q 1497 4750 2381 4750 
Q 2619 4750 2861 4703 
Q 3103 4656 3366 4563 
z
" transform="scale(0.015625)"/>
       </defs>
       <use xlink:href="#DejaVuSans-36"/>
       <use xlink:href="#DejaVuSans-30" x="63.623047"/>
      </g>
     </g>
    </g>
    <g id="text_14">
     <!-- X retning -->
     <g transform="translate(21.229375 159.501169) rotate(-90) scale(0.12 -0.12)">
      <defs>
       <path id="DejaVuSans-58" d="M 403 4666 
L 1081 4666 
L 2241 2931 
L 3406 4666 
L 4084 4666 
L 2584 2425 
L 4184 0 
L 3506 0 
L 2194 1984 
L 872 0 
L 191 0 
L 1856 2491 
L 403 4666 
z
" transform="scale(0.015625)"/>
      </defs>
      <use xlink:href="#DejaVuSans-58"/>
      <use xlink:href="#DejaVuSans-20" x="68.505859"/>
      <use xlink:href="#DejaVuSans-72" x="100.292969"/>
      <use xlink:href="#DejaVuSans-65" x="139.15625"/>
      <use xlink:href="#DejaVuSans-74" x="200.679688"/>
      <use xlink:href="#DejaVuSans-6e" x="239.888672"/>
      <use xlink:href="#DejaVuSans-69" x="303.267578"/>
      <use xlink:href="#DejaVuSans-6e" x="331.050781"/>
      <use xlink:href="#DejaVuSans-67" x="394.429688"/>
     </g>
    </g>
   </g>
   <g id="line2d_25">
    <path d="M 126.015856 223.744955 
L 126.016797 223.745157 
L 128.646547 223.994701 
L 133.442421 224.748607 
L 140.577593 226.119114 
L 138.107809 226.48652 
L 137.118304 226.673667 
L 137.090174 226.876076 
L 137.250204 227.008981 
L 136.361304 227.207361 
L 132.697721 227.47573 
L 133.371197 227.616579 
L 131.923737 227.499781 
L 131.001312 227.174273 
L 129.618612 226.900449 
L 127.621795 226.753248 
L 121.222917 226.558653 
L 117.924587 226.218362 
L 108.668869 225.653162 
L 101.960637 225.278647 
L 100.987011 224.965307 
L 99.55512 224.145597 
L 98.345715 223.032163 
L 97.683536 222.186267 
L 97.791038 221.957449 
L 98.635435 221.747831 
L 102.01178 221.733974 
L 105.338501 222.036568 
L 108.476742 222.392538 
L 109.18112 222.602568 
L 109.613797 223.070163 
L 109.798799 223.526591 
L 111.206622 224.352912 
L 111.980207 224.533625 
L 112.912462 224.530589 
L 113.890077 224.40943 
L 117.838346 223.415168 
L 132.816969 219.076376 
L 133.40664 218.510581 
L 133.560997 218.15726 
L 133.503627 217.862109 
L 133.243077 217.565667 
L 132.080867 217.097649 
L 129.96232 216.616471 
L 128.388154 216.415072 
L 123.908726 216.378147 
L 123.198605 216.246816 
L 123.621267 216.253902 
L 123.833876 216.666144 
L 123.483303 217.180706 
L 122.666564 217.750544 
L 119.812666 218.976975 
L 111.2908 222.016982 
L 106.728492 223.632257 
L 100.289879 226.15384 
L 98.087746 226.725368 
L 95.85625 226.813993 
L 88.92255 226.506591 
L 81.866978 226.179786 
L 78.003994 225.832616 
L 76.070194 225.49644 
L 72.714205 224.457368 
L 70.718201 223.528717 
L 69.354326 222.405569 
L 66.482201 221.209406 
L 66.294836 221.006463 
L 66.475796 220.791695 
L 65.089677 220.080352 
L 65.333938 219.870038 
L 66.625033 219.581439 
L 66.449449 219.458642 
L 66.511167 219.287544 
L 66.782224 219.058247 
L 67.36321 219.12905 
L 68.290855 219.504533 
L 69.181212 220.078569 
L 69.937737 220.334099 
L 73.295282 220.743297 
L 77.799258 220.555489 
L 78.922735 220.306392 
L 88.693767 216.983235 
L 97.87984 213.800186 
L 107.170416 210.416068 
L 107.724574 210.045814 
L 107.819079 209.821399 
L 107.082894 209.319576 
L 105.673733 208.641205 
L 104.241218 208.202078 
L 102.674063 208.022041 
L 102.212389 208.071132 
L 102.599211 208.232719 
L 105.800823 208.757091 
L 106.665356 209.206051 
L 106.590844 209.4833 
L 107.266642 210.372751 
L 106.965811 211.223921 
L 105.87811 212.099718 
L 102.851138 213.786318 
L 98.853084 215.416275 
L 85.836408 220.12174 
L 84.133896 220.512307 
L 81.033282 220.798926 
L 79.119495 220.557326 
L 78.838724 220.442749 
L 77.213114 220.138656 
L 77.147695 219.84065 
L 76.672645 219.644997 
L 75.917681 219.483426 
L 75.735019 219.24878 
L 75.997121 218.903671 
L 75.923192 217.905506 
L 76.100307 217.233877 
L 73.803632 215.763807 
L 73.173526 215.110234 
L 62.802273 213.988651 
L 62.826976 213.948705 
L 68.98778 213.909578 
L 72.112825 214.705143 
L 72.303167 215.06167 
L 71.975409 215.22503 
L 70.265123 215.634594 
L 69.578084 215.919623 
L 69.10709 216.237519 
L 68.721971 217.007313 
L 68.437943 217.367532 
L 69.370731 217.779185 
L 69.049854 218.192318 
L 69.718709 218.6137 
L 72.24559 218.809226 
L 75.795536 218.729854 
L 79.990415 218.418733 
L 84.799166 217.838093 
L 95.243784 216.093504 
L 103.858894 215.162519 
L 106.838018 214.988234 
L 102.256304 213.709394 
L 102.261126 213.179416 
L 103.244809 212.747715 
L 105.234766 212.392718 
L 111.038287 211.786171 
L 114.49178 211.517179 
L 118.440466 211.354511 
L 127.79676 211.278446 
L 138.112298 211.42014 
L 161.719194 211.851018 
L 162.908967 211.759366 
L 163.558241 211.5938 
L 163.733933 211.399505 
L 163.46356 211.280002 
L 158.569479 210.312347 
L 155.956263 209.245556 
L 151.852875 208.819547 
L 148.873307 208.528932 
L 144.930708 208.69739 
L 133.576549 209.443934 
L 120.098896 209.874153 
L 110.198898 210.368102 
L 99.73292 211.069473 
L 95.236925 210.970751 
L 91.336182 210.728202 
L 86.399728 210.146285 
L 85.202119 209.819623 
L 84.632672 209.499905 
L 84.501633 209.223168 
L 84.797612 208.995581 
L 86.585074 208.649307 
L 89.410062 208.423875 
L 92.530846 208.337054 
L 94.909147 208.487719 
L 97.257267 208.802957 
L 98.952338 209.378289 
L 98.504603 209.843261 
L 100.45732 210.129299 
L 102.039129 210.02263 
L 109.639064 209.076741 
L 121.604892 207.864302 
L 128.035198 206.7598 
L 134.148578 205.719059 
L 137.152085 205.095334 
L 145.648761 202.846221 
L 151.469148 201.231622 
L 154.825422 200.471886 
L 150.070757 197.593691 
L 149.595811 196.726488 
L 149.650142 195.990875 
L 150.171359 195.318487 
L 151.031777 194.681674 
L 151.088727 194.077841 
L 150.732934 193.511434 
L 151.015355 192.993689 
L 152.628981 192.551972 
L 154.481821 192.223441 
L 155.712465 191.51073 
L 155.974129 191.130174 
L 156.26492 190.420045 
L 156.783566 189.720783 
L 157.306967 189.387122 
L 158.419993 189.165482 
L 159.552745 189.184118 
L 162.892083 189.814633 
L 163.997095 190.043707 
L 164.216723 190.253276 
L 163.746372 190.63347 
L 162.243547 191.035568 
L 163.08013 191.672237 
L 162.80839 192.127419 
L 160.711543 192.335046 
L 159.9117 192.409935 
L 157.911155 192.300301 
L 157.085523 192.172262 
L 156.978639 191.93165 
L 156.446873 191.276589 
L 155.860243 190.987947 
L 154.545077 190.756392 
L 144.016558 190.56001 
L 138.358546 190.734494 
L 127.66116 191.257489 
L 124.812761 191.177089 
L 122.748134 190.929596 
L 119.791686 190.259564 
L 117.799128 189.530647 
L 116.606725 189.121048 
L 112.749021 188.048025 
L 112.03552 187.553699 
L 112.234146 187.048741 
L 113.264031 186.554207 
L 113.720802 185.913453 
L 114.059873 185.168354 
L 115.178168 183.511911 
L 116.466491 182.255474 
L 117.34153 181.622412 
L 117.771272 181.161337 
L 118.530373 180.859121 
L 119.427667 180.750776 
L 120.024089 180.810937 
L 120.331605 181.007888 
L 120.375813 181.309311 
L 120.180427 181.602962 
L 120.27677 181.91881 
L 120.194328 182.65863 
L 120.413545 182.891757 
L 122.720398 182.992807 
L 125.504098 182.904428 
L 137.585255 181.219033 
L 142.316921 180.588719 
L 155.400409 178.135209 
L 159.057734 177.468825 
L 160.692529 177.138993 
L 161.934319 176.734354 
L 161.905885 176.262197 
L 162.557968 175.879494 
L 162.426677 175.656718 
L 162.756048 175.409689 
L 162.870565 175.169063 
L 163.375 175.079301 
L 164.307738 175.072455 
L 168.234039 175.323674 
L 173.919829 175.999072 
L 176.94839 176.48275 
L 179.552438 177.018398 
L 181.486325 177.628929 
L 183.162822 178.332215 
L 184.294152 179.099919 
L 184.190367 179.800437 
L 183.863415 180.506693 
L 182.966551 181.156907 
L 181.184719 181.692932 
L 178.818319 182.099046 
L 169.129059 183.202634 
L 160.940867 183.78495 
L 159.335607 183.732174 
L 157.83157 183.523127 
L 157.135558 182.993294 
L 156.53505 182.340904 
L 156.627999 181.692118 
L 156.565486 181.192513 
L 155.909535 180.850788 
L 154.941175 180.608047 
L 153.601144 180.431427 
L 149.132544 180.257641 
L 141.998005 180.108961 
L 136.265481 179.941318 
L 133.164287 179.928248 
L 130.232111 180.028025 
L 124.865778 179.891877 
L 118.619321 179.369018 
L 115.250226 178.81174 
L 111.801907 178.136232 
L 111.050131 177.761752 
L 108.097271 176.955402 
L 104.380846 176.092064 
L 102.583278 175.581163 
L 101.56516 175.004276 
L 101.11419 174.306556 
L 101.867251 173.637103 
L 103.439995 173.021658 
L 107.335724 172.016608 
L 109.208519 171.785972 
L 111.494018 171.754431 
L 113.168576 171.897765 
L 114.470524 172.25436 
L 116.235167 172.98684 
L 117.226857 173.88592 
L 119.05131 175.033265 
L 120.780068 175.205976 
L 123.036658 175.284266 
L 128.864131 175.135954 
L 134.67981 174.539194 
L 140.521352 173.61477 
L 145.80072 172.579703 
L 152.334582 171.336136 
L 156.408607 170.672724 
L 159.516251 169.965747 
L 159.240741 168.953147 
L 161.609468 168.195283 
L 170.552308 166.194553 
L 172.674119 165.584552 
L 173.555154 165.037175 
L 169.144215 164.105368 
L 167.173719 163.499641 
L 166.809704 162.973403 
L 167.613813 162.550577 
L 169.166662 162.272256 
L 171.552821 162.157661 
L 174.280257 162.165432 
L 176.934268 162.345612 
L 181.688286 163.035886 
L 184.604898 163.553755 
L 191.091206 165.192736 
L 192.028024 165.716673 
L 192.256054 166.295869 
L 191.654739 166.880269 
L 191.161156 167.18172 
L 190.859806 167.147403 
L 188.934775 167.473106 
L 184.512413 167.938089 
L 177.703349 168.455883 
L 173.584559 168.381858 
L 171.082628 167.932732 
L 168.11392 167.630333 
L 164.903505 167.416334 
L 163.869315 167.210989 
L 156.187433 166.97681 
L 150.19496 167.157724 
L 146.932694 167.381817 
L 143.895364 167.39334 
L 141.233886 167.229988 
L 139.25597 166.89426 
L 137.802333 166.459137 
L 136.764759 165.981037 
L 135.285957 165.007766 
L 134.865314 164.491368 
L 134.647362 163.940833 
L 134.645646 163.023221 
L 134.502831 162.718113 
L 133.590635 162.149348 
L 132.959396 161.846547 
L 130.431256 161.151484 
L 127.754646 160.448192 
L 126.676288 159.89345 
L 127.112746 159.824165 
L 129.166177 159.947768 
L 131.34366 160.35276 
L 133.041969 160.935007 
L 133.875952 161.463024 
L 133.806196 161.904906 
L 132.576927 162.309861 
L 132.530773 162.311872 
L 132.978608 162.293076 
L 133.117281 162.450507 
L 133.837734 162.855838 
L 134.117361 163.219071 
L 136.048336 163.376316 
L 143.028828 163.303107 
L 147.611967 162.944267 
L 155.366787 161.815504 
L 158.60326 161.123782 
L 162.305083 160.373575 
L 164.247282 159.995447 
L 165.459532 159.591976 
L 167.052187 159.216548 
L 168.05009 158.815945 
L 169.485751 158.424416 
L 170.20085 158.008648 
L 170.310132 157.571735 
L 170.923059 157.174965 
L 171.744676 156.854953 
L 172.908345 156.646856 
L 174.401153 156.563072 
L 176.147312 156.602198 
L 176.762758 156.279804 
L 177.015773 155.770697 
L 177.429928 155.420097 
L 177.564339 155.215781 
L 178.949268 154.857567 
L 181.258526 154.537723 
L 183.266235 154.498585 
L 186.861763 153.936854 
L 186.470612 153.568702 
L 185.694287 153.422922 
L 184.602867 153.399754 
L 184.324181 153.747106 
L 180.433647 153.831394 
L 176.53355 153.695434 
L 169.634378 153.680492 
L 165.872364 153.442729 
L 160.702945 153.480916 
L 149.770503 153.854794 
L 146.319126 153.724234 
L 143.676222 153.395712 
L 142.22719 152.941826 
L 141.493295 152.421728 
L 141.184847 151.882198 
L 141.111013 151.368083 
L 141.475311 150.314241 
L 141.741203 149.7509 
L 141.318858 149.217372 
L 140.563482 148.695386 
L 139.377903 147.65109 
L 138.500124 147.171252 
L 135.2278 146.261836 
L 133.478568 145.838752 
L 128.580202 144.992086 
L 129.326628 145.12975 
L 130.834104 146.286067 
L 131.476684 146.868152 
L 131.230683 147.241491 
L 130.85108 147.597465 
L 130.147073 147.936473 
L 129.335849 148.57355 
L 128.898238 148.778915 
L 128.767306 148.963183 
L 129.165388 149.141634 
L 129.98441 149.30047 
L 131.621042 149.43043 
L 135.253314 149.60829 
L 139.385077 149.751166 
L 144.303872 149.588457 
L 149.839414 149.13473 
L 162.81753 147.758732 
L 166.783077 147.431887 
L 176.286179 146.995777 
L 191.544198 146.517257 
L 197.778803 146.136443 
L 197.913477 144.715908 
L 199.619797 144.243557 
L 205.410502 143.76657 
L 205.988909 143.561984 
L 208.305202 143.221088 
L 212.248934 142.635022 
L 211.938362 142.311571 
L 212.172564 141.996154 
L 211.967972 141.988534 
L 211.925007 141.823823 
L 208.930939 141.774604 
L 208.132252 141.666274 
L 208.00118 141.507015 
L 208.195693 141.196072 
L 209.222093 141.591909 
L 209.102424 141.631644 
L 207.421084 141.798076 
L 206.82877 141.655295 
L 200.11636 141.174837 
L 194.062697 140.937804 
L 191.155755 140.623163 
L 189.64872 140.28818 
L 189.230572 139.92292 
L 189.56477 139.713826 
L 190.333353 139.662681 
L 190.755896 139.514792 
L 190.763248 139.263037 
L 193.084083 138.514126 
L 194.621518 137.471662 
L 194.710897 136.984368 
L 194.259352 136.474771 
L 194.256122 136.108534 
L 194.516066 135.901323 
L 195.784598 135.899243 
L 199.85121 137.499488 
L 200.386881 137.813274 
L 200.181605 137.754859 
L 198.990065 137.564616 
L 196.760673 137.551641 
L 194.790275 137.933826 
L 193.206283 138.392913 
L 192.103355 138.906454 
L 197.906739 139.242138 
L 203.811278 139.330769 
L 209.483155 139.120833 
L 212.295236 138.948863 
L 214.612487 138.639169 
L 220.686942 138.12929 
L 228.242919 137.804428 
L 236.702332 137.59202 
L 241.388764 137.062575 
L 244.887965 136.35494 
L 245.520562 135.923378 
L 245.232556 135.571564 
L 244.705511 135.301799 
L 244.156145 135.126761 
L 242.608914 135.058244 
L 242.007733 134.928194 
L 242.044957 134.946433 
L 241.47237 135.385485 
L 241.614744 135.615637 
L 241.49532 135.973683 
L 240.951586 136.232116 
L 238.054683 136.489947 
L 233.25722 136.534701 
L 203.973822 136.546626 
L 195.639129 136.571883 
L 187.914524 136.423093 
L 184.511942 136.00709 
L 184.013945 135.583985 
L 183.660787 134.953262 
L 184.097422 134.729377 
L 188.559347 134.100943 
L 193.643906 133.298293 
L 199.873521 132.261514 
L 200.837377 131.952028 
L 205.609571 129.731351 
L 206.670896 129.188894 
L 207.966191 128.754942 
L 211.600437 128.079468 
L 215.597219 127.524265 
L 215.934612 127.600467 
L 216.118654 127.790174 
L 215.882815 128.05943 
L 215.387503 128.27546 
L 214.587664 128.465946 
L 213.432542 128.5173 
L 212.479154 128.242516 
L 211.22653 128.161314 
L 205.090662 128.409297 
L 204.161559 128.560573 
L 203.961098 128.707816 
L 203.992012 128.952287 
L 204.969086 129.27993 
L 206.511954 129.576305 
L 211.191203 130.049335 
L 217.207376 130.372366 
L 227.384859 130.532485 
L 237.107973 130.816375 
L 251.730376 131.353651 
L 253.299095 131.208025 
L 255.989864 130.605497 
L 257.255273 130.307826 
L 258.66736 130.392677 
L 259.832181 130.723455 
L 261.087834 130.796464 
L 261.087834 130.796464 
" clip-path="url(#pf17240d0b1)" style="fill: none; stroke: #1f77b4; stroke-width: 1.5; stroke-linecap: square"/>
   </g>
   <g id="line2d_26">
    <path d="M 126.016797 223.745157 
L 128.580484 223.902254 
L 131.771905 224.308953 
L 137.436729 225.344728 
L 141.189006 225.980228 
L 140.020924 226.253342 
L 139.553087 226.561039 
L 139.734262 226.647674 
L 141.924659 226.777096 
L 142.733203 226.793033 
L 141.8618 226.821667 
L 141.21547 226.946626 
L 140.50521 226.645294 
L 133.793489 225.229234 
L 130.217075 224.190074 
L 127.919489 223.585612 
L 127.835132 223.365009 
L 128.246468 223.149229 
L 129.89336 222.690813 
L 129.265417 222.472662 
L 127.888188 222.406301 
L 125.692877 221.759074 
L 122.953754 220.726854 
L 117.47822 218.912135 
L 116.172097 218.342685 
L 115.250135 217.637093 
L 115.128295 216.73859 
L 115.486223 214.720079 
L 115.603101 213.85334 
L 115.459059 213.279805 
L 115.218203 212.832108 
L 114.635331 212.519274 
L 113.822942 212.405709 
L 112.946722 212.454684 
L 111.951131 212.63638 
L 109.844961 213.34269 
L 107.786039 213.609956 
L 108.510978 213.601231 
L 116.824908 213.595314 
L 120.323109 213.263367 
L 124.182624 212.621128 
L 131.117811 211.223023 
L 141.278313 208.722226 
L 146.546211 207.406471 
L 148.647989 206.663351 
L 151.570014 205.342572 
L 151.491941 204.356705 
L 152.437539 203.440843 
L 154.550962 202.196648 
L 157.303752 201.192688 
L 160.381278 200.616328 
L 162.143215 200.469793 
L 162.826525 200.252439 
L 161.144844 199.887951 
L 162.404082 199.896292 
L 164.80663 200.099947 
L 166.108891 199.828065 
L 167.762634 199.3632 
L 170.18046 198.322417 
L 172.402744 198.347545 
L 177.888258 197.963561 
L 179.984773 197.528922 
L 180.657412 197.23696 
L 180.932715 196.908647 
L 180.188728 196.470337 
L 179.104182 196.073963 
L 177.185091 195.765171 
L 174.02981 194.792495 
L 173.198478 194.364889 
L 170.677976 192.069253 
L 170.393606 191.47119 
L 170.322616 190.857581 
L 169.979003 190.107951 
L 168.844221 189.294935 
L 163.140149 187.238578 
L 160.890535 186.701539 
L 158.254242 186.250267 
L 155.025711 185.946816 
L 151.356177 185.796931 
L 136.395291 185.668361 
L 130.067343 185.806237 
L 117.502421 186.469889 
L 112.685071 186.560778 
L 107.666335 186.279721 
L 103.326348 185.772474 
L 100.826455 185.207098 
L 99.949826 184.715227 
L 100.4332 184.279336 
L 101.805657 183.880278 
L 106.156778 183.373519 
L 110.653852 183.263262 
L 116.437733 183.497099 
L 118.654747 183.68435 
L 119.625921 183.994699 
L 121.164051 184.272009 
L 122.703269 184.917251 
L 125.683968 184.687229 
L 130.825232 184.140145 
L 142.728477 182.580151 
L 150.864413 181.265476 
L 153.784319 180.636752 
L 155.734152 180.002873 
L 157.442905 179.312741 
L 164.523288 175.309332 
L 171.867698 171.51162 
L 172.228972 170.880149 
L 171.71372 170.275187 
L 170.041631 169.216787 
L 169.779442 168.750071 
L 171.078848 167.982715 
L 171.9287 167.74137 
L 174.123467 167.547357 
L 178.304376 167.407254 
L 179.853131 166.929582 
L 180.627296 166.494915 
L 182.201296 166.017264 
L 184.149471 165.558142 
L 186.693292 165.255494 
L 193.368097 165.06725 
L 193.594386 164.994409 
L 193.281701 164.982895 
L 191.63914 164.814307 
L 190.769931 164.417262 
L 184.395264 163.523996 
L 185.665049 162.93957 
L 184.272574 162.442371 
L 181.555998 162.027168 
L 175.165287 161.801735 
L 173.807337 161.898204 
L 171.101318 162.315665 
L 168.649587 162.605205 
L 159.481506 163.562355 
L 148.128332 164.773532 
L 136.75986 166.081047 
L 133.761093 166.125172 
L 131.475118 166.02232 
L 128.311134 165.578768 
L 123.716962 164.698869 
L 116.573703 163.46969 
L 113.566996 163.190679 
L 112.012958 162.929925 
L 111.680212 162.691651 
L 112.265296 162.508347 
L 114.980304 162.288186 
L 118.564621 162.273171 
L 123.328085 162.787677 
L 124.129904 163.208571 
L 125.716408 163.860694 
L 128.381404 164.927612 
L 134.769136 166.283966 
L 137.21215 166.245428 
L 140.341789 166.006932 
L 148.721603 165.091495 
L 153.547985 164.358074 
L 157.153419 163.498395 
L 159.455411 162.638012 
L 163.216011 160.806931 
L 166.742474 158.759935 
L 167.827601 157.75018 
L 168.752848 156.735197 
L 168.900981 155.722837 
L 169.35764 154.731231 
L 170.22837 153.831481 
L 171.199172 153.030214 
L 172.335765 152.294953 
L 173.57572 151.70107 
L 183.726367 148.902425 
L 185.225546 148.574671 
L 185.32863 147.803882 
L 185.585248 147.471327 
L 188.28722 146.305066 
L 190.350638 146.378857 
L 192.82591 146.799463 
L 194.741582 147.341807 
L 195.095156 147.616863 
L 195.870986 147.974741 
L 198.120067 148.097469 
L 197.90246 148.034932 
L 195.722764 147.730097 
L 193.671065 147.537599 
L 192.701074 147.372694 
L 190.322108 146.850826 
L 188.28277 146.669674 
L 184.042675 146.54473 
L 182.98802 146.457205 
L 182.501203 146.114359 
L 182.519513 145.685291 
L 183.300912 145.136144 
L 185.547006 143.950798 
L 185.965858 143.471788 
L 185.707274 143.16591 
L 183.727208 142.806505 
L 177.437032 142.478108 
L 174.156384 142.497236 
L 171.79692 142.097502 
L 166.984369 141.183955 
L 164.915328 140.775384 
L 163.989611 140.275484 
L 163.697428 139.83944 
L 164.108381 139.458559 
L 165.070555 139.132903 
L 166.487699 138.793542 
L 170.275555 138.264216 
L 174.72136 137.779302 
L 178.793004 137.609891 
L 182.007665 137.912182 
L 182.825383 138.08627 
L 182.695151 138.278179 
L 181.95335 138.561605 
L 181.532924 138.503232 
L 181.550803 138.355513 
L 183.021717 137.788121 
L 184.377282 137.412723 
L 188.329985 136.772916 
L 193.273849 135.906295 
L 199.083029 134.479048 
L 203.563736 133.154015 
L 210.64278 130.726196 
L 220.363578 128.271311 
L 235.466077 125.225529 
L 233.964738 124.022236 
L 237.360546 123.455543 
L 240.249119 122.810923 
L 240.684202 122.427247 
L 240.17629 122.081106 
L 239.428485 121.732856 
L 238.409943 121.511162 
L 237.782555 121.089228 
L 237.332587 120.766608 
L 235.939202 120.337483 
L 235.132777 120.078484 
L 235.531749 119.96038 
L 236.910097 119.747914 
L 236.516357 119.703323 
L 236.05915 120.10842 
L 234.594113 120.514746 
L 232.232957 121.408582 
L 230.686127 121.801866 
L 229.005619 122.097282 
L 227.313406 122.264822 
L 225.228257 121.923009 
L 222.824716 121.922401 
L 221.948988 121.514633 
L 221.082355 121.453228 
L 220.524171 121.554437 
L 209.00692 122.257575 
L 203.223582 123.194009 
L 200.001932 123.452634 
L 196.772073 123.471021 
L 191.741622 123.029732 
L 187.844384 122.461943 
L 180.88789 121.323729 
L 177.415272 120.762879 
L 176.070469 120.344518 
L 174.057536 118.987425 
L 171.940207 117.581702 
L 171.281797 116.905498 
L 170.879586 116.262238 
L 170.816638 115.693797 
L 170.573103 115.206443 
L 170.525748 114.779876 
L 170.913693 114.433533 
L 171.769776 114.246149 
L 173.524654 114.416635 
L 175.560407 114.943614 
L 176.358124 115.255148 
L 176.389865 115.610056 
L 176.006878 115.961838 
L 175.89942 116.733538 
L 176.346524 116.879503 
L 177.121724 116.937124 
L 181.34264 116.605583 
L 189.026042 116.556599 
L 193.024287 116.078688 
L 197.180089 115.165416 
L 201.62692 113.91342 
L 221.638305 107.439129 
L 231.017372 104.529792 
L 234.028592 103.385771 
L 237.4645 102.591518 
L 237.936475 102.197414 
L 238.178053 101.833327 
L 238.185005 101.283168 
L 238.037389 100.743953 
L 238.099422 100.337558 
L 238.288084 100.212666 
L 238.740962 100.109258 
L 238.690233 99.978035 
L 238.521337 99.875206 
L 238.094462 99.795093 
L 233.190744 100.728768 
L 232.057809 100.898689 
L 228.598063 100.903884 
L 226.98724 100.537754 
L 226.315958 100.314087 
L 225.360128 99.761906 
L 223.08628 99.378273 
L 221.795943 99.356119 
L 219.404709 99.683265 
L 218.668754 99.835184 
L 217.595642 99.80761 
L 215.683191 99.516624 
L 213.060183 99.272518 
L 207.066718 98.937251 
L 204.937922 98.554302 
L 203.232699 98.116754 
L 202.044451 97.633053 
L 201.595346 97.229764 
L 201.352757 96.090825 
L 200.962061 95.607637 
L 199.836696 95.116966 
L 197.850358 94.531022 
L 196.031851 94.257052 
L 194.878494 93.872182 
L 194.180357 93.485793 
L 194.076725 93.17607 
L 193.590773 92.741451 
L 192.296186 92.958525 
L 189.392059 93.622806 
L 186.204118 94.531445 
L 184.379998 95.264516 
L 184.385288 95.387232 
L 185.200103 95.445064 
L 192.790761 95.210114 
L 201.901952 94.88602 
L 209.150863 94.411017 
L 216.563323 93.665615 
L 226.86155 92.301759 
L 235.462616 90.975176 
L 237.79248 90.557226 
L 239.917826 90.053137 
L 241.405692 89.438114 
L 243.205101 88.089569 
L 243.923146 87.513073 
L 247.165206 86.101278 
L 247.633068 85.857586 
L 250.876463 84.789257 
L 253.304844 84.250503 
L 255.244016 84.298568 
L 259.955144 85.021715 
L 260.769037 84.899126 
L 261.169619 84.69424 
L 261.124294 84.417463 
L 261.245412 84.106282 
L 261.062479 83.719595 
L 261.858063 83.508577 
L 261.986779 83.236743 
L 261.386972 82.816371 
L 259.421041 82.001813 
L 259.019884 81.592921 
L 258.928199 81.194995 
L 258.598004 80.778198 
L 257.740395 80.600622 
L 254.639739 80.402145 
L 249.313691 80.451589 
L 240.405142 80.604464 
L 223.836477 77.997781 
L 221.25973 77.140519 
L 218.625595 76.227455 
L 218.380737 75.887721 
L 219.298987 75.700809 
L 223.033867 75.674046 
L 228.072853 75.884099 
L 235.569004 76.406978 
L 235.235039 76.511502 
L 232.305743 76.801891 
L 231.179454 77.138007 
L 230.989422 77.253555 
L 231.05279 77.318703 
L 232.413142 77.43273 
L 252.470732 77.15739 
L 259.420185 76.705581 
L 266.702942 76.033199 
L 282.666018 74.218572 
L 301.981957 71.6014 
L 304.937903 71.132007 
L 308.776196 70.241007 
L 307.339238 68.958314 
L 308.056538 66.434829 
L 308.365472 66.070768 
L 312.250136 65.479931 
L 314.230355 65.712148 
L 316.15091 66.468555 
L 316.690536 67.03325 
L 316.387873 67.706055 
L 316.45471 67.983687 
L 318.108581 68.32755 
L 318.35491 68.422889 
L 318.120708 68.47871 
L 317.232367 68.463771 
L 317.85623 68.687288 
L 316.441293 68.51378 
L 316.357611 68.158936 
L 316.87566 67.934199 
L 317.074244 67.614196 
L 317.172329 67.135473 
L 318.120056 65.851455 
L 319.035759 65.28344 
L 323.572564 63.780895 
L 324.246073 63.29452 
L 325.555433 62.842161 
L 326.18787 62.216543 
L 325.868765 61.91953 
L 322.940986 61.403599 
L 319.24171 61.011352 
L 315.106596 60.767776 
L 309.128519 60.629347 
L 306.651799 60.385131 
L 302.579054 59.696162 
L 300.156379 58.896954 
L 293.755006 57.457071 
L 294.132277 57.471199 
L 296.711008 57.503951 
L 299.76343 57.801534 
L 302.426676 58.301374 
L 304.856441 58.802884 
L 305.955396 59.0876 
L 305.188006 59.490487 
L 304.696028 59.739556 
L 302.251264 60.015545 
L 303.235025 60.127865 
L 323.213387 58.951017 
L 335.956746 58.084955 
L 342.667927 57.316113 
L 345.323958 56.836718 
L 347.390981 56.309962 
L 350.667211 55.206922 
L 352.700822 54.732171 
L 362.788275 52.901779 
L 365.034886 52.463635 
L 365.893797 52.283889 
L 366.680862 51.824729 
L 367.269648 51.738314 
L 367.729158 51.168477 
L 368.136315 50.935025 
L 368.91629 51.213581 
L 369.768929 51.915273 
L 369.847727 52.288719 
L 368.518165 52.856551 
L 366.397972 53.407741 
L 363.829605 53.929565 
L 361.058603 54.357433 
L 355.058838 54.97666 
L 352.147432 55.189566 
L 347.739806 55.182778 
L 347.142071 54.97123 
L 344.587233 54.742179 
L 344.011975 54.5185 
L 342.721083 54.158845 
L 341.157236 53.96866 
L 332.196751 54.329792 
L 324.916765 54.478457 
L 316.478798 54.330931 
L 301.538085 54.041724 
L 298.775755 53.633344 
L 297.68088 53.176117 
L 297.500099 52.723039 
L 297.487749 51.713776 
L 297.797946 50.571754 
L 297.612683 49.988656 
L 297.141532 49.447972 
L 296.167386 48.936195 
L 287.868672 45.824924 
L 286.875295 45.455474 
L 284.138552 44.78423 
L 284.683894 44.711653 
L 286.981941 44.863338 
L 289.151253 45.341652 
L 290.395177 46.655782 
L 290.941921 47.131637 
L 291.080063 47.545588 
L 290.59759 49.481558 
L 291.21403 49.609038 
L 294.193814 49.511242 
L 303.578689 48.830968 
L 306.229919 48.674705 
L 310.211239 48.182906 
L 315.20013 47.641492 
L 324.182995 46.352373 
L 328.2909 45.890605 
L 329.38368 45.576182 
L 329.748046 45.18851 
L 329.545147 44.744979 
L 328.847911 44.291015 
L 326.963058 43.688243 
L 326.133479 43.651092 
L 325.63516 43.799193 
L 325.476926 44.137962 
L 325.568531 44.66256 
L 327.705777 44.978965 
L 331.713709 45.738147 
L 332.934503 45.702709 
L 332.861089 46.053515 
L 331.274569 46.163587 
L 326.598247 46.1491 
L 313.542 45.588337 
L 311.456564 45.221074 
L 310.83019 44.633858 
L 311.187882 44.25223 
L 312.314934 43.778696 
L 314.200856 43.293017 
L 318.503043 42.52485 
L 320.266793 42.358133 
L 316.287679 42.68919 
L 311.318144 42.602729 
L 299.791333 42.674074 
L 295.73997 42.289184 
L 294.26061 42.019842 
L 293.208374 41.703953 
L 292.481722 41.355488 
L 292.101829 40.989613 
L 291.820257 40.178153 
L 291.947341 39.741778 
L 292.683192 39.338895 
L 293.845099 39.002403 
L 295.362728 38.757824 
L 298.7047 38.578386 
L 301.232883 38.779778 
L 302.946404 39.160378 
L 305.670438 40.150758 
L 306.279135 40.485726 
L 306.536786 40.817363 
L 306.507343 41.153968 
L 306.182341 41.501931 
L 303.539214 42.983882 
L 303.898974 43.161214 
L 303.984751 43.400058 
L 303.409757 43.827935 
L 303.80637 44.097732 
L 304.934462 44.258535 
L 305.335015 44.548046 
L 307.302233 44.606101 
L 314.468886 44.485543 
L 322.297642 43.820793 
L 331.703095 42.984994 
L 338.662533 42.141156 
L 345.614493 41.180146 
L 351.935833 40.123493 
L 356.970749 39.045846 
L 360.185151 37.921371 
L 363.182487 37.085497 
L 364.828879 36.438885 
L 364.828879 36.438885 
" clip-path="url(#pf17240d0b1)" style="fill: none; stroke: #ff7f0e; stroke-width: 1.5; stroke-linecap: square"/>
   </g>
   <g id="line2d_27">
    <defs>
     <path id="maec93716be" d="M 0 3 
C 0.795609 3 1.55874 2.683901 2.12132 2.12132 
C 2.683901 1.55874 3 0.795609 3 0 
C 3 -0.795609 2.683901 -1.55874 2.12132 -2.12132 
C 1.55874 -2.683901 0.795609 -3 0 -3 
C -0.795609 -3 -1.55874 -2.683901 -2.12132 -2.12132 
C -2.683901 -1.55874 -3 -0.795609 -3 0 
C -3 0.795609 -2.683901 1.55874 -2.12132 2.12132 
C -1.55874 2.683901 -0.795609 3 0 3 
z
" style="stroke: #2ca02c"/>
    </defs>
    <g clip-path="url(#pf17240d0b1)">
     <use xlink:href="#maec93716be" x="364.828879" y="36.438885" style="fill: #2ca02c; stroke: #2ca02c"/>
    </g>
   </g>
   <g id="patch_3">
    <path d="M 47.45 237.175464 
L 47.45 26.88 
" style="fill: none; stroke: #000000; stroke-width: 0.8; stroke-linejoin: miter; stroke-linecap: square"/>
   </g>
   <g id="patch_4">
    <path d="M 385.2 237.175464 
L 385.2 26.88 
" style="fill: none; stroke: #000000; stroke-width: 0.8; stroke-linejoin: miter; stroke-linecap: square"/>
   </g>
   <g id="patch_5">
    <path d="M 47.45 237.175464 
L 385.2 237.175464 
" style="fill: none; stroke: #000000; stroke-width: 0.8; stroke-linejoin: miter; stroke-linecap: square"/>
   </g>
   <g id="patch_6">
    <path d="M 47.45 26.88 
L 385.2 26.88 
" style="fill: none; stroke: #000000; stroke-width: 0.8; stroke-linejoin: miter; stroke-linecap: square"/>
   </g>
   <g id="text_15">
    <!-- Sammenligning -->
    <g transform="translate(169.432187 20.88) scale(0.12 -0.12)">
     <defs>
      <path id="DejaVuSans-53" d="M 3425 4513 
L 3425 3897 
Q 3066 4069 2747 4153 
Q 2428 4238 2131 4238 
Q 1616 4238 1336 4038 
Q 1056 3838 1056 3469 
Q 1056 3159 1242 3001 
Q 1428 2844 1947 2747 
L 2328 2669 
Q 3034 2534 3370 2195 
Q 3706 1856 3706 1288 
Q 3706 609 3251 259 
Q 2797 -91 1919 -91 
Q 1588 -91 1214 -16 
Q 841 59 441 206 
L 441 856 
Q 825 641 1194 531 
Q 1563 422 1919 422 
Q 2459 422 2753 634 
Q 3047 847 3047 1241 
Q 3047 1584 2836 1778 
Q 2625 1972 2144 2069 
L 1759 2144 
Q 1053 2284 737 2584 
Q 422 2884 422 3419 
Q 422 4038 858 4394 
Q 1294 4750 2059 4750 
Q 2388 4750 2728 4690 
Q 3069 4631 3425 4513 
z
" transform="scale(0.015625)"/>
      <path id="DejaVuSans-61" d="M 2194 1759 
Q 1497 1759 1228 1600 
Q 959 1441 959 1056 
Q 959 750 1161 570 
Q 1363 391 1709 391 
Q 2188 391 2477 730 
Q 2766 1069 2766 1631 
L 2766 1759 
L 2194 1759 
z
M 3341 1997 
L 3341 0 
L 2766 0 
L 2766 531 
Q 2569 213 2275 61 
Q 1981 -91 1556 -91 
Q 1019 -91 701 211 
Q 384 513 384 1019 
Q 384 1609 779 1909 
Q 1175 2209 1959 2209 
L 2766 2209 
L 2766 2266 
Q 2766 2663 2505 2880 
Q 2244 3097 1772 3097 
Q 1472 3097 1187 3025 
Q 903 2953 641 2809 
L 641 3341 
Q 956 3463 1253 3523 
Q 1550 3584 1831 3584 
Q 2591 3584 2966 3190 
Q 3341 2797 3341 1997 
z
" transform="scale(0.015625)"/>
      <path id="DejaVuSans-6d" d="M 3328 2828 
Q 3544 3216 3844 3400 
Q 4144 3584 4550 3584 
Q 5097 3584 5394 3201 
Q 5691 2819 5691 2113 
L 5691 0 
L 5113 0 
L 5113 2094 
Q 5113 2597 4934 2840 
Q 4756 3084 4391 3084 
Q 3944 3084 3684 2787 
Q 3425 2491 3425 1978 
L 3425 0 
L 2847 0 
L 2847 2094 
Q 2847 2600 2669 2842 
Q 2491 3084 2119 3084 
Q 1678 3084 1418 2786 
Q 1159 2488 1159 1978 
L 1159 0 
L 581 0 
L 581 3500 
L 1159 3500 
L 1159 2956 
Q 1356 3278 1631 3431 
Q 1906 3584 2284 3584 
Q 2666 3584 2933 3390 
Q 3200 3197 3328 2828 
z
" transform="scale(0.015625)"/>
      <path id="DejaVuSans-6c" d="M 603 4863 
L 1178 4863 
L 1178 0 
L 603 0 
L 603 4863 
z
" transform="scale(0.015625)"/>
     </defs>
     <use xlink:href="#DejaVuSans-53"/>
     <use xlink:href="#DejaVuSans-61" x="63.476562"/>
     <use xlink:href="#DejaVuSans-6d" x="124.755859"/>
     <use xlink:href="#DejaVuSans-6d" x="222.167969"/>
     <use xlink:href="#DejaVuSans-65" x="319.580078"/>
     <use xlink:href="#DejaVuSans-6e" x="381.103516"/>
     <use xlink:href="#DejaVuSans-6c" x="444.482422"/>
     <use xlink:href="#DejaVuSans-69" x="472.265625"/>
     <use xlink:href="#DejaVuSans-67" x="500.048828"/>
     <use xlink:href="#DejaVuSans-6e" x="563.525391"/>
     <use xlink:href="#DejaVuSans-69" x="626.904297"/>
     <use xlink:href="#DejaVuSans-6e" x="654.6875"/>
     <use xlink:href="#DejaVuSans-67" x="718.066406"/>
    </g>
   </g>
   <g id="legend_1">
    <g id="patch_7">
     <path d="M 53.05 68.5075 
L 189.38875 68.5075 
Q 190.98875 68.5075 190.98875 66.9075 
L 190.98875 32.48 
Q 190.98875 30.88 189.38875 30.88 
L 53.05 30.88 
Q 51.45 30.88 51.45 32.48 
L 51.45 66.9075 
Q 51.45 68.5075 53.05 68.5075 
z
" style="fill: #ffffff; opacity: 0.8; stroke: #cccccc; stroke-linejoin: miter"/>
    </g>
    <g id="line2d_28">
     <path d="M 54.65 37.35875 
L 62.65 37.35875 
L 70.65 37.35875 
" style="fill: none; stroke: #1f77b4; stroke-width: 1.5; stroke-linecap: square"/>
    </g>
    <g id="text_16">
     <!-- Sim med ekstra kommando -->
     <g transform="translate(77.05 40.15875) scale(0.08 -0.08)">
      <defs>
       <path id="DejaVuSans-64" d="M 2906 2969 
L 2906 4863 
L 3481 4863 
L 3481 0 
L 2906 0 
L 2906 525 
Q 2725 213 2448 61 
Q 2172 -91 1784 -91 
Q 1150 -91 751 415 
Q 353 922 353 1747 
Q 353 2572 751 3078 
Q 1150 3584 1784 3584 
Q 2172 3584 2448 3432 
Q 2725 3281 2906 2969 
z
M 947 1747 
Q 947 1113 1208 752 
Q 1469 391 1925 391 
Q 2381 391 2643 752 
Q 2906 1113 2906 1747 
Q 2906 2381 2643 2742 
Q 2381 3103 1925 3103 
Q 1469 3103 1208 2742 
Q 947 2381 947 1747 
z
" transform="scale(0.015625)"/>
       <path id="DejaVuSans-6b" d="M 581 4863 
L 1159 4863 
L 1159 1991 
L 2875 3500 
L 3609 3500 
L 1753 1863 
L 3688 0 
L 2938 0 
L 1159 1709 
L 1159 0 
L 581 0 
L 581 4863 
z
" transform="scale(0.015625)"/>
       <path id="DejaVuSans-73" d="M 2834 3397 
L 2834 2853 
Q 2591 2978 2328 3040 
Q 2066 3103 1784 3103 
Q 1356 3103 1142 2972 
Q 928 2841 928 2578 
Q 928 2378 1081 2264 
Q 1234 2150 1697 2047 
L 1894 2003 
Q 2506 1872 2764 1633 
Q 3022 1394 3022 966 
Q 3022 478 2636 193 
Q 2250 -91 1575 -91 
Q 1294 -91 989 -36 
Q 684 19 347 128 
L 347 722 
Q 666 556 975 473 
Q 1284 391 1588 391 
Q 1994 391 2212 530 
Q 2431 669 2431 922 
Q 2431 1156 2273 1281 
Q 2116 1406 1581 1522 
L 1381 1569 
Q 847 1681 609 1914 
Q 372 2147 372 2553 
Q 372 3047 722 3315 
Q 1072 3584 1716 3584 
Q 2034 3584 2315 3537 
Q 2597 3491 2834 3397 
z
" transform="scale(0.015625)"/>
       <path id="DejaVuSans-6f" d="M 1959 3097 
Q 1497 3097 1228 2736 
Q 959 2375 959 1747 
Q 959 1119 1226 758 
Q 1494 397 1959 397 
Q 2419 397 2687 759 
Q 2956 1122 2956 1747 
Q 2956 2369 2687 2733 
Q 2419 3097 1959 3097 
z
M 1959 3584 
Q 2709 3584 3137 3096 
Q 3566 2609 3566 1747 
Q 3566 888 3137 398 
Q 2709 -91 1959 -91 
Q 1206 -91 779 398 
Q 353 888 353 1747 
Q 353 2609 779 3096 
Q 1206 3584 1959 3584 
z
" transform="scale(0.015625)"/>
      </defs>
      <use xlink:href="#DejaVuSans-53"/>
      <use xlink:href="#DejaVuSans-69" x="63.476562"/>
      <use xlink:href="#DejaVuSans-6d" x="91.259766"/>
      <use xlink:href="#DejaVuSans-20" x="188.671875"/>
      <use xlink:href="#DejaVuSans-6d" x="220.458984"/>
      <use xlink:href="#DejaVuSans-65" x="317.871094"/>
      <use xlink:href="#DejaVuSans-64" x="379.394531"/>
      <use xlink:href="#DejaVuSans-20" x="442.871094"/>
      <use xlink:href="#DejaVuSans-65" x="474.658203"/>
      <use xlink:href="#DejaVuSans-6b" x="536.181641"/>
      <use xlink:href="#DejaVuSans-73" x="594.091797"/>
      <use xlink:href="#DejaVuSans-74" x="646.191406"/>
      <use xlink:href="#DejaVuSans-72" x="685.400391"/>
      <use xlink:href="#DejaVuSans-61" x="726.513672"/>
      <use xlink:href="#DejaVuSans-20" x="787.792969"/>
      <use xlink:href="#DejaVuSans-6b" x="819.580078"/>
      <use xlink:href="#DejaVuSans-6f" x="873.865234"/>
      <use xlink:href="#DejaVuSans-6d" x="935.046875"/>
      <use xlink:href="#DejaVuSans-6d" x="1032.458984"/>
      <use xlink:href="#DejaVuSans-61" x="1129.871094"/>
      <use xlink:href="#DejaVuSans-6e" x="1191.150391"/>
      <use xlink:href="#DejaVuSans-64" x="1254.529297"/>
      <use xlink:href="#DejaVuSans-6f" x="1318.005859"/>
     </g>
    </g>
    <g id="line2d_29">
     <path d="M 54.65 49.10125 
L 62.65 49.10125 
L 70.65 49.10125 
" style="fill: none; stroke: #ff7f0e; stroke-width: 1.5; stroke-linecap: square"/>
    </g>
    <g id="text_17">
     <!-- Sim uten ekstra kommando -->
     <g transform="translate(77.05 51.90125) scale(0.08 -0.08)">
      <defs>
       <path id="DejaVuSans-75" d="M 544 1381 
L 544 3500 
L 1119 3500 
L 1119 1403 
Q 1119 906 1312 657 
Q 1506 409 1894 409 
Q 2359 409 2629 706 
Q 2900 1003 2900 1516 
L 2900 3500 
L 3475 3500 
L 3475 0 
L 2900 0 
L 2900 538 
Q 2691 219 2414 64 
Q 2138 -91 1772 -91 
Q 1169 -91 856 284 
Q 544 659 544 1381 
z
M 1991 3584 
L 1991 3584 
z
" transform="scale(0.015625)"/>
      </defs>
      <use xlink:href="#DejaVuSans-53"/>
      <use xlink:href="#DejaVuSans-69" x="63.476562"/>
      <use xlink:href="#DejaVuSans-6d" x="91.259766"/>
      <use xlink:href="#DejaVuSans-20" x="188.671875"/>
      <use xlink:href="#DejaVuSans-75" x="220.458984"/>
      <use xlink:href="#DejaVuSans-74" x="283.837891"/>
      <use xlink:href="#DejaVuSans-65" x="323.046875"/>
      <use xlink:href="#DejaVuSans-6e" x="384.570312"/>
      <use xlink:href="#DejaVuSans-20" x="447.949219"/>
      <use xlink:href="#DejaVuSans-65" x="479.736328"/>
      <use xlink:href="#DejaVuSans-6b" x="541.259766"/>
      <use xlink:href="#DejaVuSans-73" x="599.169922"/>
      <use xlink:href="#DejaVuSans-74" x="651.269531"/>
      <use xlink:href="#DejaVuSans-72" x="690.478516"/>
      <use xlink:href="#DejaVuSans-61" x="731.591797"/>
      <use xlink:href="#DejaVuSans-20" x="792.871094"/>
      <use xlink:href="#DejaVuSans-6b" x="824.658203"/>
      <use xlink:href="#DejaVuSans-6f" x="878.943359"/>
      <use xlink:href="#DejaVuSans-6d" x="940.125"/>
      <use xlink:href="#DejaVuSans-6d" x="1037.537109"/>
      <use xlink:href="#DejaVuSans-61" x="1134.949219"/>
      <use xlink:href="#DejaVuSans-6e" x="1196.228516"/>
      <use xlink:href="#DejaVuSans-64" x="1259.607422"/>
      <use xlink:href="#DejaVuSans-6f" x="1323.083984"/>
     </g>
    </g>
    <g id="line2d_30">
     <g>
      <use xlink:href="#maec93716be" x="62.65" y="60.84375" style="fill: #2ca02c; stroke: #2ca02c"/>
     </g>
    </g>
    <g id="text_18">
     <!-- Skulle ha endt -->
     <g transform="translate(77.05 63.64375) scale(0.08 -0.08)">
      <defs>
       <path id="DejaVuSans-68" d="M 3513 2113 
L 3513 0 
L 2938 0 
L 2938 2094 
Q 2938 2591 2744 2837 
Q 2550 3084 2163 3084 
Q 1697 3084 1428 2787 
Q 1159 2491 1159 1978 
L 1159 0 
L 581 0 
L 581 4863 
L 1159 4863 
L 1159 2956 
Q 1366 3272 1645 3428 
Q 1925 3584 2291 3584 
Q 2894 3584 3203 3211 
Q 3513 2838 3513 2113 
z
" transform="scale(0.015625)"/>
      </defs>
      <use xlink:href="#DejaVuSans-53"/>
      <use xlink:href="#DejaVuSans-6b" x="63.476562"/>
      <use xlink:href="#DejaVuSans-75" x="118.261719"/>
      <use xlink:href="#DejaVuSans-6c" x="181.640625"/>
      <use xlink:href="#DejaVuSans-6c" x="209.423828"/>
      <use xlink:href="#DejaVuSans-65" x="237.207031"/>
      <use xlink:href="#DejaVuSans-20" x="298.730469"/>
      <use xlink:href="#DejaVuSans-68" x="330.517578"/>
      <use xlink:href="#DejaVuSans-61" x="393.896484"/>
      <use xlink:href="#DejaVuSans-20" x="455.175781"/>
      <use xlink:href="#DejaVuSans-65" x="486.962891"/>
      <use xlink:href="#DejaVuSans-6e" x="548.486328"/>
      <use xlink:href="#DejaVuSans-64" x="611.865234"/>
      <use xlink:href="#DejaVuSans-74" x="675.341797"/>
     </g>
    </g>
   </g>
  </g>
 </g>
 <defs>
  <clipPath id="pf17240d0b1">
   <rect x="47.45" y="26.88" width="337.75" height="210.295464"/>
  </clipPath>
 </defs>
</svg>
