<?xml version="1.0" encoding="utf-8" standalone="no"?>
<!DOCTYPE svg PUBLIC "-//W3C//DTD SVG 1.1//EN"
  "http://www.w3.org/Graphics/SVG/1.1/DTD/svg11.dtd">
<svg xmlns:xlink="http://www.w3.org/1999/xlink" width="396pt" height="288pt" viewBox="0 0 396 288" xmlns="http://www.w3.org/2000/svg" version="1.1">
 <metadata>
  <rdf:RDF xmlns:dc="http://purl.org/dc/elements/1.1/" xmlns:cc="http://creativecommons.org/ns#" xmlns:rdf="http://www.w3.org/1999/02/22-rdf-syntax-ns#">
   <cc:Work>
    <dc:type rdf:resource="http://purl.org/dc/dcmitype/StillImage"/>
    <dc:date>2024-04-19T14:46:44.917946</dc:date>
    <dc:format>image/svg+xml</dc:format>
    <dc:creator>
     <cc:Agent>
      <dc:title>Matplotlib v3.7.2, https://matplotlib.org/</dc:title>
     </cc:Agent>
    </dc:creator>
   </cc:Work>
  </rdf:RDF>
 </metadata>
 <defs>
  <style type="text/css">*{stroke-linejoin: round; stroke-linecap: butt}</style>
 </defs>
 <g id="figure_1">
  <g id="patch_1">
   <path d="M 0 288 
L 396 288 
L 396 0 
L 0 0 
z
" style="fill: #ffffff"/>
  </g>
  <g id="axes_1">
   <g id="patch_2">
    <path d="M 55.82 238.165464 
L 385.2 238.165464 
L 385.2 26.88 
L 55.82 26.88 
z
" style="fill: #ffffff"/>
   </g>
   <g id="matplotlib.axis_1">
    <g id="xtick_1">
     <g id="line2d_1">
      <path d="M 80.63668 238.165464 
L 80.63668 26.88 
" clip-path="url(#p57bd446142)" style="fill: none; stroke: #b0b0b0; stroke-width: 0.8; stroke-linecap: square"/>
     </g>
     <g id="line2d_2">
      <defs>
       <path id="m34330cb00a" d="M 0 0 
L 0 3.5 
" style="stroke: #000000; stroke-width: 0.8"/>
      </defs>
      <g>
       <use xlink:href="#m34330cb00a" x="80.63668" y="238.165464" style="stroke: #000000; stroke-width: 0.8"/>
      </g>
     </g>
     <g id="text_1">
      <!-- 0 -->
      <g transform="translate(74.08675 254.927154) rotate(-30) scale(0.1 -0.1)">
       <defs>
        <path id="DejaVuSans-30" d="M 2034 4250 
Q 1547 4250 1301 3770 
Q 1056 3291 1056 2328 
Q 1056 1369 1301 889 
Q 1547 409 2034 409 
Q 2525 409 2770 889 
Q 3016 1369 3016 2328 
Q 3016 3291 2770 3770 
Q 2525 4250 2034 4250 
z
M 2034 4750 
Q 2819 4750 3233 4129 
Q 3647 3509 3647 2328 
Q 3647 1150 3233 529 
Q 2819 -91 2034 -91 
Q 1250 -91 836 529 
Q 422 1150 422 2328 
Q 422 3509 836 4129 
Q 1250 4750 2034 4750 
z
" transform="scale(0.015625)"/>
       </defs>
       <use xlink:href="#DejaVuSans-30"/>
      </g>
     </g>
    </g>
    <g id="xtick_2">
     <g id="line2d_3">
      <path d="M 122.140677 238.165464 
L 122.140677 26.88 
" clip-path="url(#p57bd446142)" style="fill: none; stroke: #b0b0b0; stroke-width: 0.8; stroke-linecap: square"/>
     </g>
     <g id="line2d_4">
      <g>
       <use xlink:href="#m34330cb00a" x="122.140677" y="238.165464" style="stroke: #000000; stroke-width: 0.8"/>
      </g>
     </g>
     <g id="text_2">
      <!-- 10 -->
      <g transform="translate(110.08066 258.108404) rotate(-30) scale(0.1 -0.1)">
       <defs>
        <path id="DejaVuSans-31" d="M 794 531 
L 1825 531 
L 1825 4091 
L 703 3866 
L 703 4441 
L 1819 4666 
L 2450 4666 
L 2450 531 
L 3481 531 
L 3481 0 
L 794 0 
L 794 531 
z
" transform="scale(0.015625)"/>
       </defs>
       <use xlink:href="#DejaVuSans-31"/>
       <use xlink:href="#DejaVuSans-30" x="63.623047"/>
      </g>
     </g>
    </g>
    <g id="xtick_3">
     <g id="line2d_5">
      <path d="M 163.644674 238.165464 
L 163.644674 26.88 
" clip-path="url(#p57bd446142)" style="fill: none; stroke: #b0b0b0; stroke-width: 0.8; stroke-linecap: square"/>
     </g>
     <g id="line2d_6">
      <g>
       <use xlink:href="#m34330cb00a" x="163.644674" y="238.165464" style="stroke: #000000; stroke-width: 0.8"/>
      </g>
     </g>
     <g id="text_3">
      <!-- 20 -->
      <g transform="translate(151.584657 258.108404) rotate(-30) scale(0.1 -0.1)">
       <defs>
        <path id="DejaVuSans-32" d="M 1228 531 
L 3431 531 
L 3431 0 
L 469 0 
L 469 531 
Q 828 903 1448 1529 
Q 2069 2156 2228 2338 
Q 2531 2678 2651 2914 
Q 2772 3150 2772 3378 
Q 2772 3750 2511 3984 
Q 2250 4219 1831 4219 
Q 1534 4219 1204 4116 
Q 875 4013 500 3803 
L 500 4441 
Q 881 4594 1212 4672 
Q 1544 4750 1819 4750 
Q 2544 4750 2975 4387 
Q 3406 4025 3406 3419 
Q 3406 3131 3298 2873 
Q 3191 2616 2906 2266 
Q 2828 2175 2409 1742 
Q 1991 1309 1228 531 
z
" transform="scale(0.015625)"/>
       </defs>
       <use xlink:href="#DejaVuSans-32"/>
       <use xlink:href="#DejaVuSans-30" x="63.623047"/>
      </g>
     </g>
    </g>
    <g id="xtick_4">
     <g id="line2d_7">
      <path d="M 205.14867 238.165464 
L 205.14867 26.88 
" clip-path="url(#p57bd446142)" style="fill: none; stroke: #b0b0b0; stroke-width: 0.8; stroke-linecap: square"/>
     </g>
     <g id="line2d_8">
      <g>
       <use xlink:href="#m34330cb00a" x="205.14867" y="238.165464" style="stroke: #000000; stroke-width: 0.8"/>
      </g>
     </g>
     <g id="text_4">
      <!-- 30 -->
      <g transform="translate(193.088653 258.108404) rotate(-30) scale(0.1 -0.1)">
       <defs>
        <path id="DejaVuSans-33" d="M 2597 2516 
Q 3050 2419 3304 2112 
Q 3559 1806 3559 1356 
Q 3559 666 3084 287 
Q 2609 -91 1734 -91 
Q 1441 -91 1130 -33 
Q 819 25 488 141 
L 488 750 
Q 750 597 1062 519 
Q 1375 441 1716 441 
Q 2309 441 2620 675 
Q 2931 909 2931 1356 
Q 2931 1769 2642 2001 
Q 2353 2234 1838 2234 
L 1294 2234 
L 1294 2753 
L 1863 2753 
Q 2328 2753 2575 2939 
Q 2822 3125 2822 3475 
Q 2822 3834 2567 4026 
Q 2313 4219 1838 4219 
Q 1578 4219 1281 4162 
Q 984 4106 628 3988 
L 628 4550 
Q 988 4650 1302 4700 
Q 1616 4750 1894 4750 
Q 2613 4750 3031 4423 
Q 3450 4097 3450 3541 
Q 3450 3153 3228 2886 
Q 3006 2619 2597 2516 
z
" transform="scale(0.015625)"/>
       </defs>
       <use xlink:href="#DejaVuSans-33"/>
       <use xlink:href="#DejaVuSans-30" x="63.623047"/>
      </g>
     </g>
    </g>
    <g id="xtick_5">
     <g id="line2d_9">
      <path d="M 246.652667 238.165464 
L 246.652667 26.88 
" clip-path="url(#p57bd446142)" style="fill: none; stroke: #b0b0b0; stroke-width: 0.8; stroke-linecap: square"/>
     </g>
     <g id="line2d_10">
      <g>
       <use xlink:href="#m34330cb00a" x="246.652667" y="238.165464" style="stroke: #000000; stroke-width: 0.8"/>
      </g>
     </g>
     <g id="text_5">
      <!-- 40 -->
      <g transform="translate(234.59265 258.108404) rotate(-30) scale(0.1 -0.1)">
       <defs>
        <path id="DejaVuSans-34" d="M 2419 4116 
L 825 1625 
L 2419 1625 
L 2419 4116 
z
M 2253 4666 
L 3047 4666 
L 3047 1625 
L 3713 1625 
L 3713 1100 
L 3047 1100 
L 3047 0 
L 2419 0 
L 2419 1100 
L 313 1100 
L 313 1709 
L 2253 4666 
z
" transform="scale(0.015625)"/>
       </defs>
       <use xlink:href="#DejaVuSans-34"/>
       <use xlink:href="#DejaVuSans-30" x="63.623047"/>
      </g>
     </g>
    </g>
    <g id="xtick_6">
     <g id="line2d_11">
      <path d="M 288.156664 238.165464 
L 288.156664 26.88 
" clip-path="url(#p57bd446142)" style="fill: none; stroke: #b0b0b0; stroke-width: 0.8; stroke-linecap: square"/>
     </g>
     <g id="line2d_12">
      <g>
       <use xlink:href="#m34330cb00a" x="288.156664" y="238.165464" style="stroke: #000000; stroke-width: 0.8"/>
      </g>
     </g>
     <g id="text_6">
      <!-- 50 -->
      <g transform="translate(276.096647 258.108404) rotate(-30) scale(0.1 -0.1)">
       <defs>
        <path id="DejaVuSans-35" d="M 691 4666 
L 3169 4666 
L 3169 4134 
L 1269 4134 
L 1269 2991 
Q 1406 3038 1543 3061 
Q 1681 3084 1819 3084 
Q 2600 3084 3056 2656 
Q 3513 2228 3513 1497 
Q 3513 744 3044 326 
Q 2575 -91 1722 -91 
Q 1428 -91 1123 -41 
Q 819 9 494 109 
L 494 744 
Q 775 591 1075 516 
Q 1375 441 1709 441 
Q 2250 441 2565 725 
Q 2881 1009 2881 1497 
Q 2881 1984 2565 2268 
Q 2250 2553 1709 2553 
Q 1456 2553 1204 2497 
Q 953 2441 691 2322 
L 691 4666 
z
" transform="scale(0.015625)"/>
       </defs>
       <use xlink:href="#DejaVuSans-35"/>
       <use xlink:href="#DejaVuSans-30" x="63.623047"/>
      </g>
     </g>
    </g>
    <g id="xtick_7">
     <g id="line2d_13">
      <path d="M 329.660661 238.165464 
L 329.660661 26.88 
" clip-path="url(#p57bd446142)" style="fill: none; stroke: #b0b0b0; stroke-width: 0.8; stroke-linecap: square"/>
     </g>
     <g id="line2d_14">
      <g>
       <use xlink:href="#m34330cb00a" x="329.660661" y="238.165464" style="stroke: #000000; stroke-width: 0.8"/>
      </g>
     </g>
     <g id="text_7">
      <!-- 60 -->
      <g transform="translate(317.600644 258.108404) rotate(-30) scale(0.1 -0.1)">
       <defs>
        <path id="DejaVuSans-36" d="M 2113 2584 
Q 1688 2584 1439 2293 
Q 1191 2003 1191 1497 
Q 1191 994 1439 701 
Q 1688 409 2113 409 
Q 2538 409 2786 701 
Q 3034 994 3034 1497 
Q 3034 2003 2786 2293 
Q 2538 2584 2113 2584 
z
M 3366 4563 
L 3366 3988 
Q 3128 4100 2886 4159 
Q 2644 4219 2406 4219 
Q 1781 4219 1451 3797 
Q 1122 3375 1075 2522 
Q 1259 2794 1537 2939 
Q 1816 3084 2150 3084 
Q 2853 3084 3261 2657 
Q 3669 2231 3669 1497 
Q 3669 778 3244 343 
Q 2819 -91 2113 -91 
Q 1303 -91 875 529 
Q 447 1150 447 2328 
Q 447 3434 972 4092 
Q 1497 4750 2381 4750 
Q 2619 4750 2861 4703 
Q 3103 4656 3366 4563 
z
" transform="scale(0.015625)"/>
       </defs>
       <use xlink:href="#DejaVuSans-36"/>
       <use xlink:href="#DejaVuSans-30" x="63.623047"/>
      </g>
     </g>
    </g>
    <g id="xtick_8">
     <g id="line2d_15">
      <path d="M 371.164657 238.165464 
L 371.164657 26.88 
" clip-path="url(#p57bd446142)" style="fill: none; stroke: #b0b0b0; stroke-width: 0.8; stroke-linecap: square"/>
     </g>
     <g id="line2d_16">
      <g>
       <use xlink:href="#m34330cb00a" x="371.164657" y="238.165464" style="stroke: #000000; stroke-width: 0.8"/>
      </g>
     </g>
     <g id="text_8">
      <!-- 70 -->
      <g transform="translate(359.10464 258.108404) rotate(-30) scale(0.1 -0.1)">
       <defs>
        <path id="DejaVuSans-37" d="M 525 4666 
L 3525 4666 
L 3525 4397 
L 1831 0 
L 1172 0 
L 2766 4134 
L 525 4134 
L 525 4666 
z
" transform="scale(0.015625)"/>
       </defs>
       <use xlink:href="#DejaVuSans-37"/>
       <use xlink:href="#DejaVuSans-30" x="63.623047"/>
      </g>
     </g>
    </g>
    <g id="text_9">
     <!-- Z retning -->
     <g transform="translate(193.036563 273.027591) scale(0.12 -0.12)">
      <defs>
       <path id="DejaVuSans-5a" d="M 359 4666 
L 4025 4666 
L 4025 4184 
L 1075 531 
L 4097 531 
L 4097 0 
L 288 0 
L 288 481 
L 3238 4134 
L 359 4134 
L 359 4666 
z
" transform="scale(0.015625)"/>
       <path id="DejaVuSans-20" transform="scale(0.015625)"/>
       <path id="DejaVuSans-72" d="M 2631 2963 
Q 2534 3019 2420 3045 
Q 2306 3072 2169 3072 
Q 1681 3072 1420 2755 
Q 1159 2438 1159 1844 
L 1159 0 
L 581 0 
L 581 3500 
L 1159 3500 
L 1159 2956 
Q 1341 3275 1631 3429 
Q 1922 3584 2338 3584 
Q 2397 3584 2469 3576 
Q 2541 3569 2628 3553 
L 2631 2963 
z
" transform="scale(0.015625)"/>
       <path id="DejaVuSans-65" d="M 3597 1894 
L 3597 1613 
L 953 1613 
Q 991 1019 1311 708 
Q 1631 397 2203 397 
Q 2534 397 2845 478 
Q 3156 559 3463 722 
L 3463 178 
Q 3153 47 2828 -22 
Q 2503 -91 2169 -91 
Q 1331 -91 842 396 
Q 353 884 353 1716 
Q 353 2575 817 3079 
Q 1281 3584 2069 3584 
Q 2775 3584 3186 3129 
Q 3597 2675 3597 1894 
z
M 3022 2063 
Q 3016 2534 2758 2815 
Q 2500 3097 2075 3097 
Q 1594 3097 1305 2825 
Q 1016 2553 972 2059 
L 3022 2063 
z
" transform="scale(0.015625)"/>
       <path id="DejaVuSans-74" d="M 1172 4494 
L 1172 3500 
L 2356 3500 
L 2356 3053 
L 1172 3053 
L 1172 1153 
Q 1172 725 1289 603 
Q 1406 481 1766 481 
L 2356 481 
L 2356 0 
L 1766 0 
Q 1100 0 847 248 
Q 594 497 594 1153 
L 594 3053 
L 172 3053 
L 172 3500 
L 594 3500 
L 594 4494 
L 1172 4494 
z
" transform="scale(0.015625)"/>
       <path id="DejaVuSans-6e" d="M 3513 2113 
L 3513 0 
L 2938 0 
L 2938 2094 
Q 2938 2591 2744 2837 
Q 2550 3084 2163 3084 
Q 1697 3084 1428 2787 
Q 1159 2491 1159 1978 
L 1159 0 
L 581 0 
L 581 3500 
L 1159 3500 
L 1159 2956 
Q 1366 3272 1645 3428 
Q 1925 3584 2291 3584 
Q 2894 3584 3203 3211 
Q 3513 2838 3513 2113 
z
" transform="scale(0.015625)"/>
       <path id="DejaVuSans-69" d="M 603 3500 
L 1178 3500 
L 1178 0 
L 603 0 
L 603 3500 
z
M 603 4863 
L 1178 4863 
L 1178 4134 
L 603 4134 
L 603 4863 
z
" transform="scale(0.015625)"/>
       <path id="DejaVuSans-67" d="M 2906 1791 
Q 2906 2416 2648 2759 
Q 2391 3103 1925 3103 
Q 1463 3103 1205 2759 
Q 947 2416 947 1791 
Q 947 1169 1205 825 
Q 1463 481 1925 481 
Q 2391 481 2648 825 
Q 2906 1169 2906 1791 
z
M 3481 434 
Q 3481 -459 3084 -895 
Q 2688 -1331 1869 -1331 
Q 1566 -1331 1297 -1286 
Q 1028 -1241 775 -1147 
L 775 -588 
Q 1028 -725 1275 -790 
Q 1522 -856 1778 -856 
Q 2344 -856 2625 -561 
Q 2906 -266 2906 331 
L 2906 616 
Q 2728 306 2450 153 
Q 2172 0 1784 0 
Q 1141 0 747 490 
Q 353 981 353 1791 
Q 353 2603 747 3093 
Q 1141 3584 1784 3584 
Q 2172 3584 2450 3431 
Q 2728 3278 2906 2969 
L 2906 3500 
L 3481 3500 
L 3481 434 
z
" transform="scale(0.015625)"/>
      </defs>
      <use xlink:href="#DejaVuSans-5a"/>
      <use xlink:href="#DejaVuSans-20" x="68.505859"/>
      <use xlink:href="#DejaVuSans-72" x="100.292969"/>
      <use xlink:href="#DejaVuSans-65" x="139.15625"/>
      <use xlink:href="#DejaVuSans-74" x="200.679688"/>
      <use xlink:href="#DejaVuSans-6e" x="239.888672"/>
      <use xlink:href="#DejaVuSans-69" x="303.267578"/>
      <use xlink:href="#DejaVuSans-6e" x="331.050781"/>
      <use xlink:href="#DejaVuSans-67" x="394.429688"/>
     </g>
    </g>
   </g>
   <g id="matplotlib.axis_2">
    <g id="ytick_1">
     <g id="line2d_17">
      <path d="M 55.82 229.110224 
L 385.2 229.110224 
" clip-path="url(#p57bd446142)" style="fill: none; stroke: #b0b0b0; stroke-width: 0.8; stroke-linecap: square"/>
     </g>
     <g id="line2d_18">
      <defs>
       <path id="m2055961c4c" d="M 0 0 
L -3.5 0 
" style="stroke: #000000; stroke-width: 0.8"/>
      </defs>
      <g>
       <use xlink:href="#m2055961c4c" x="55.82" y="229.110224" style="stroke: #000000; stroke-width: 0.8"/>
      </g>
     </g>
     <g id="text_10">
      <!-- −70 -->
      <g transform="translate(27.715313 232.909442) scale(0.1 -0.1)">
       <defs>
        <path id="DejaVuSans-2212" d="M 678 2272 
L 4684 2272 
L 4684 1741 
L 678 1741 
L 678 2272 
z
" transform="scale(0.015625)"/>
       </defs>
       <use xlink:href="#DejaVuSans-2212"/>
       <use xlink:href="#DejaVuSans-37" x="83.789062"/>
       <use xlink:href="#DejaVuSans-30" x="147.412109"/>
      </g>
     </g>
    </g>
    <g id="ytick_2">
     <g id="line2d_19">
      <path d="M 55.82 203.945358 
L 385.2 203.945358 
" clip-path="url(#p57bd446142)" style="fill: none; stroke: #b0b0b0; stroke-width: 0.8; stroke-linecap: square"/>
     </g>
     <g id="line2d_20">
      <g>
       <use xlink:href="#m2055961c4c" x="55.82" y="203.945358" style="stroke: #000000; stroke-width: 0.8"/>
      </g>
     </g>
     <g id="text_11">
      <!-- −60 -->
      <g transform="translate(27.715313 207.744577) scale(0.1 -0.1)">
       <use xlink:href="#DejaVuSans-2212"/>
       <use xlink:href="#DejaVuSans-36" x="83.789062"/>
       <use xlink:href="#DejaVuSans-30" x="147.412109"/>
      </g>
     </g>
    </g>
    <g id="ytick_3">
     <g id="line2d_21">
      <path d="M 55.82 178.780492 
L 385.2 178.780492 
" clip-path="url(#p57bd446142)" style="fill: none; stroke: #b0b0b0; stroke-width: 0.8; stroke-linecap: square"/>
     </g>
     <g id="line2d_22">
      <g>
       <use xlink:href="#m2055961c4c" x="55.82" y="178.780492" style="stroke: #000000; stroke-width: 0.8"/>
      </g>
     </g>
     <g id="text_12">
      <!-- −50 -->
      <g transform="translate(27.715313 182.579711) scale(0.1 -0.1)">
       <use xlink:href="#DejaVuSans-2212"/>
       <use xlink:href="#DejaVuSans-35" x="83.789062"/>
       <use xlink:href="#DejaVuSans-30" x="147.412109"/>
      </g>
     </g>
    </g>
    <g id="ytick_4">
     <g id="line2d_23">
      <path d="M 55.82 153.615627 
L 385.2 153.615627 
" clip-path="url(#p57bd446142)" style="fill: none; stroke: #b0b0b0; stroke-width: 0.8; stroke-linecap: square"/>
     </g>
     <g id="line2d_24">
      <g>
       <use xlink:href="#m2055961c4c" x="55.82" y="153.615627" style="stroke: #000000; stroke-width: 0.8"/>
      </g>
     </g>
     <g id="text_13">
      <!-- −40 -->
      <g transform="translate(27.715313 157.414845) scale(0.1 -0.1)">
       <use xlink:href="#DejaVuSans-2212"/>
       <use xlink:href="#DejaVuSans-34" x="83.789062"/>
       <use xlink:href="#DejaVuSans-30" x="147.412109"/>
      </g>
     </g>
    </g>
    <g id="ytick_5">
     <g id="line2d_25">
      <path d="M 55.82 128.450761 
L 385.2 128.450761 
" clip-path="url(#p57bd446142)" style="fill: none; stroke: #b0b0b0; stroke-width: 0.8; stroke-linecap: square"/>
     </g>
     <g id="line2d_26">
      <g>
       <use xlink:href="#m2055961c4c" x="55.82" y="128.450761" style="stroke: #000000; stroke-width: 0.8"/>
      </g>
     </g>
     <g id="text_14">
      <!-- −30 -->
      <g transform="translate(27.715313 132.24998) scale(0.1 -0.1)">
       <use xlink:href="#DejaVuSans-2212"/>
       <use xlink:href="#DejaVuSans-33" x="83.789062"/>
       <use xlink:href="#DejaVuSans-30" x="147.412109"/>
      </g>
     </g>
    </g>
    <g id="ytick_6">
     <g id="line2d_27">
      <path d="M 55.82 103.285895 
L 385.2 103.285895 
" clip-path="url(#p57bd446142)" style="fill: none; stroke: #b0b0b0; stroke-width: 0.8; stroke-linecap: square"/>
     </g>
     <g id="line2d_28">
      <g>
       <use xlink:href="#m2055961c4c" x="55.82" y="103.285895" style="stroke: #000000; stroke-width: 0.8"/>
      </g>
     </g>
     <g id="text_15">
      <!-- −20 -->
      <g transform="translate(27.715313 107.085114) scale(0.1 -0.1)">
       <use xlink:href="#DejaVuSans-2212"/>
       <use xlink:href="#DejaVuSans-32" x="83.789062"/>
       <use xlink:href="#DejaVuSans-30" x="147.412109"/>
      </g>
     </g>
    </g>
    <g id="ytick_7">
     <g id="line2d_29">
      <path d="M 55.82 78.12103 
L 385.2 78.12103 
" clip-path="url(#p57bd446142)" style="fill: none; stroke: #b0b0b0; stroke-width: 0.8; stroke-linecap: square"/>
     </g>
     <g id="line2d_30">
      <g>
       <use xlink:href="#m2055961c4c" x="55.82" y="78.12103" style="stroke: #000000; stroke-width: 0.8"/>
      </g>
     </g>
     <g id="text_16">
      <!-- −10 -->
      <g transform="translate(27.715313 81.920248) scale(0.1 -0.1)">
       <use xlink:href="#DejaVuSans-2212"/>
       <use xlink:href="#DejaVuSans-31" x="83.789062"/>
       <use xlink:href="#DejaVuSans-30" x="147.412109"/>
      </g>
     </g>
    </g>
    <g id="ytick_8">
     <g id="line2d_31">
      <path d="M 55.82 52.956164 
L 385.2 52.956164 
" clip-path="url(#p57bd446142)" style="fill: none; stroke: #b0b0b0; stroke-width: 0.8; stroke-linecap: square"/>
     </g>
     <g id="line2d_32">
      <g>
       <use xlink:href="#m2055961c4c" x="55.82" y="52.956164" style="stroke: #000000; stroke-width: 0.8"/>
      </g>
     </g>
     <g id="text_17">
      <!-- 0 -->
      <g transform="translate(42.4575 56.755383) scale(0.1 -0.1)">
       <use xlink:href="#DejaVuSans-30"/>
      </g>
     </g>
    </g>
    <g id="ytick_9">
     <g id="line2d_33">
      <path d="M 55.82 27.791298 
L 385.2 27.791298 
" clip-path="url(#p57bd446142)" style="fill: none; stroke: #b0b0b0; stroke-width: 0.8; stroke-linecap: square"/>
     </g>
     <g id="line2d_34">
      <g>
       <use xlink:href="#m2055961c4c" x="55.82" y="27.791298" style="stroke: #000000; stroke-width: 0.8"/>
      </g>
     </g>
     <g id="text_18">
      <!-- 10 -->
      <g transform="translate(36.095 31.590517) scale(0.1 -0.1)">
       <use xlink:href="#DejaVuSans-31"/>
       <use xlink:href="#DejaVuSans-30" x="63.623047"/>
      </g>
     </g>
    </g>
    <g id="text_19">
     <!-- X retning -->
     <g transform="translate(21.219688 159.996169) rotate(-90) scale(0.12 -0.12)">
      <defs>
       <path id="DejaVuSans-58" d="M 403 4666 
L 1081 4666 
L 2241 2931 
L 3406 4666 
L 4084 4666 
L 2584 2425 
L 4184 0 
L 3506 0 
L 2194 1984 
L 872 0 
L 191 0 
L 1856 2491 
L 403 4666 
z
" transform="scale(0.015625)"/>
      </defs>
      <use xlink:href="#DejaVuSans-58"/>
      <use xlink:href="#DejaVuSans-20" x="68.505859"/>
      <use xlink:href="#DejaVuSans-72" x="100.292969"/>
      <use xlink:href="#DejaVuSans-65" x="139.15625"/>
      <use xlink:href="#DejaVuSans-74" x="200.679688"/>
      <use xlink:href="#DejaVuSans-6e" x="239.888672"/>
      <use xlink:href="#DejaVuSans-69" x="303.267578"/>
      <use xlink:href="#DejaVuSans-6e" x="331.050781"/>
      <use xlink:href="#DejaVuSans-67" x="394.429688"/>
     </g>
    </g>
   </g>
   <g id="line2d_35">
    <path d="M 80.636399 52.956339 
L 80.63668 52.956164 
L 79.806881 52.927054 
L 77.402057 52.953114 
L 74.336502 52.899466 
L 72.144356 53.17924 
L 71.827713 53.399711 
L 71.78818 53.716164 
L 72.232577 54.031714 
L 73.104475 54.30653 
L 75.577356 54.634716 
L 78.322181 54.913521 
L 81.896131 55.587464 
L 82.830525 55.919935 
L 84.456177 56.751344 
L 86.111796 57.174056 
L 90.572303 57.846228 
L 90.976246 57.534461 
L 91.20062 57.021324 
L 91.660561 56.886809 
L 91.695653 57.014238 
L 90.967098 58.353358 
L 90.529863 59.041948 
L 89.610085 59.626079 
L 88.585167 59.712836 
L 81.070715 59.089496 
L 79.876781 58.785553 
L 79.063732 58.402644 
L 78.606305 58.027749 
L 78.526956 57.687343 
L 78.823851 57.308958 
L 83.210581 53.507177 
L 87.228928 50.548651 
L 88.155679 50.066916 
L 88.327201 50.357553 
L 89.47492 50.249474 
L 92.905373 49.720607 
L 93.139148 49.390099 
L 93.085766 48.656201 
L 92.832776 47.565459 
L 92.871729 47.610725 
L 93.710389 48.536582 
L 95.130173 49.744499 
L 97.25471 51.139163 
L 104.31271 55.121112 
L 107.693897 56.976179 
L 113.908413 61.320512 
L 117.512817 65.106641 
L 118.991792 66.418766 
L 120.518141 67.435197 
L 121.696068 68.389185 
L 123.315572 69.365478 
L 123.966683 69.536839 
L 124.520707 69.567381 
L 125.697881 69.243509 
L 126.099594 68.965646 
L 126.271288 68.613895 
L 125.953732 68.308786 
L 120.835358 66.572445 
L 116.363485 64.628246 
L 112.348714 63.31097 
L 110.603801 62.658869 
L 108.980943 61.736368 
L 108.420038 61.215547 
L 108.107535 60.5578 
L 108.048162 59.776974 
L 108.355232 57.844785 
L 108.286387 56.683745 
L 107.998342 55.444712 
L 107.521637 54.241734 
L 106.873847 53.087961 
L 105.133024 50.926234 
L 102.80257 48.995353 
L 101.690847 48.117225 
L 100.596803 47.398008 
L 99.997223 46.733307 
L 99.958548 46.094687 
L 100.413874 44.626374 
L 100.14929 43.441381 
L 100.409063 42.922017 
L 100.225475 42.650902 
L 99.714235 42.651719 
L 99.002477 42.823896 
L 98.709317 42.963146 
L 98.507807 43.202141 
L 98.414413 43.551561 
L 98.525022 44.544426 
L 99.017286 45.851367 
L 99.856177 47.356014 
L 100.949435 48.947079 
L 103.530563 52.11206 
L 106.468739 55.41951 
L 108.311819 57.266693 
L 111.507835 60.166245 
L 113.348746 62.425458 
L 114.849168 64.636162 
L 116.897061 67.912973 
L 118.426617 69.402863 
L 119.529706 70.257445 
L 121.01721 71.015984 
L 123.20711 71.799558 
L 124.833573 71.920156 
L 124.545141 72.068838 
L 123.312227 72.282086 
L 122.160304 72.294779 
L 121.780356 72.162318 
L 121.441376 71.860514 
L 120.936318 70.888857 
L 121.020813 69.586006 
L 121.461338 68.030409 
L 123.311247 64.021883 
L 123.983957 63.688135 
L 125.31736 63.363051 
L 128.000958 63.080344 
L 140.484414 62.294596 
L 142.258594 61.984915 
L 143.9932 61.300718 
L 145.259632 60.707839 
L 146.572283 60.736831 
L 147.138816 60.99044 
L 148.192495 62.053463 
L 149.259447 63.389894 
L 150.387471 65.076725 
L 150.832539 66.270562 
L 151.198239 67.579713 
L 151.814931 69.107332 
L 152.683016 70.826196 
L 153.867909 72.776606 
L 155.411103 74.961723 
L 157.303552 77.31211 
L 159.500458 79.645613 
L 163.131751 82.993766 
L 166.922066 86.035707 
L 170.42768 88.623944 
L 173.624526 90.707806 
L 175.680941 91.750364 
L 177.693445 92.480298 
L 179.647461 92.913456 
L 180.789668 93.076527 
L 180.079273 93.086935 
L 179.317371 92.982634 
L 178.850236 92.71138 
L 178.245024 92.120864 
L 177.63477 91.055466 
L 176.849477 89.036099 
L 176.644954 88.223835 
L 176.868436 87.285014 
L 177.639224 85.108598 
L 177.851936 83.892645 
L 179.93415 77.114048 
L 180.890315 75.363625 
L 181.470873 74.597956 
L 183.536489 72.555619 
L 184.150732 71.164722 
L 184.446286 70.552379 
L 184.400997 69.938715 
L 184.071551 69.314577 
L 182.164629 67.39637 
L 181.677202 67.095675 
L 180.435282 66.687962 
L 180.61743 66.674736 
L 182.487874 66.94265 
L 183.14829 67.030641 
L 183.766965 66.866091 
L 184.324953 66.596188 
L 184.560746 66.357935 
L 184.572097 65.783428 
L 184.311979 65.343133 
L 183.661321 64.871021 
L 183.187196 64.790869 
L 182.881747 65.037906 
L 182.727788 65.80344 
L 182.859663 66.982427 
L 183.289802 68.347879 
L 183.820597 69.311013 
L 184.594302 70.285439 
L 185.56447 71.246226 
L 186.976839 72.148874 
L 187.794953 72.616002 
L 189.637129 74.16033 
L 192.511264 77.077771 
L 194.570489 78.408533 
L 197.434555 80.040764 
L 199.546681 80.812266 
L 202.01294 81.520234 
L 203.213165 81.808664 
L 205.592506 82.130128 
L 203.307624 81.869266 
L 202.512079 81.282489 
L 200.876008 79.575803 
L 200.502103 78.959105 
L 200.358927 78.358513 
L 200.502904 77.784847 
L 203.246185 73.597313 
L 204.720017 71.792572 
L 204.969992 71.311718 
L 206.316099 69.797398 
L 207.015612 69.272024 
L 208.184547 68.796747 
L 211.280151 67.892316 
L 218.106774 66.630081 
L 222.061192 65.418754 
L 223.335278 64.798939 
L 223.983458 64.150997 
L 224.212357 63.871909 
L 224.072023 63.948391 
L 223.36719 64.386026 
L 223.620016 64.262697 
L 223.233821 63.650361 
L 222.794103 63.375691 
L 222.244503 63.354609 
L 221.577729 63.724361 
L 221.239554 64.000734 
L 220.747026 64.987763 
L 220.577628 66.192035 
L 220.776216 67.546537 
L 221.234184 68.93192 
L 221.993947 70.345533 
L 223.340146 72.381669 
L 225.891853 75.761099 
L 227.014794 77.622295 
L 228.390826 79.44445 
L 230.104667 81.151086 
L 230.941474 81.877346 
L 231.233405 82.632438 
L 231.274216 83.49555 
L 230.824711 85.548953 
L 231.008466 85.952253 
L 231.447661 86.254302 
L 233.401254 87.081884 
L 234.958169 87.441364 
L 237.728685 87.604407 
L 238.872548 87.634129 
L 238.803398 87.700954 
L 237.935599 87.840114 
L 237.336655 87.804445 
L 236.107112 87.381819 
L 234.836176 86.498746 
L 234.24799 85.997892 
L 232.697795 83.936831 
L 232.492956 83.478267 
L 232.464775 82.977574 
L 232.812641 81.9684 
L 233.61915 80.657953 
L 234.361607 79.890782 
L 235.617958 79.064722 
L 239.177831 77.077965 
L 239.43208 76.558115 
L 239.325759 76.066366 
L 239.007581 75.627985 
L 237.719227 74.84752 
L 236.298545 74.330708 
L 234.395956 73.900992 
L 235.443957 73.55807 
L 236.292282 73.437385 
L 237.442972 73.423982 
L 238.101059 73.004469 
L 238.776503 72.300365 
L 239.281283 71.902883 
L 239.258772 72.009031 
L 239.019563 72.779874 
L 238.51514 74.940913 
L 237.671215 77.249323 
L 236.996634 79.045906 
L 236.668719 80.579131 
L 236.673612 81.6191 
L 237.151531 86.244309 
L 237.073105 87.292818 
L 236.607301 89.21182 
L 236.349935 90.216641 
L 236.097205 92.01195 
L 235.774262 93.511484 
L 234.172349 95.480771 
L 233.726256 95.806726 
L 232.538561 96.293714 
L 231.688841 97.241999 
L 231.484787 97.553805 
L 231.430993 97.874171 
L 231.52622 98.213751 
L 232.250378 99.45581 
L 231.926095 99.500483 
L 231.673128 99.408936 
L 231.274511 98.890097 
L 231.072963 98.544042 
L 231.030633 98.093259 
L 231.184285 97.533116 
L 231.953184 96.128534 
L 233.188219 94.413116 
L 235.777777 91.216494 
L 237.514911 88.945722 
L 239.243125 87.283346 
L 241.121952 86.184225 
L 242.200098 85.755106 
L 245.927352 84.90974 
L 248.289294 84.427297 
L 250.84504 84.039731 
L 251.784856 83.7717 
L 252.397526 83.475406 
L 252.791191 83.080453 
L 253.006556 82.65679 
L 253.044216 82.245534 
L 252.94073 81.84961 
L 252.439017 81.150573 
L 251.634682 80.59947 
L 250.477746 80.118906 
L 247.633614 79.179623 
L 246.243504 78.895413 
L 245.51987 78.862382 
L 243.69369 79.2357 
L 242.551255 79.338463 
L 241.23276 79.265717 
L 239.835519 79.544969 
L 237.94737 80.150216 
L 234.520924 81.545996 
L 229.004645 84.09452 
L 219.025872 88.817041 
L 213.961575 90.726632 
L 211.409619 91.998814 
L 210.380644 92.631466 
L 205.064729 96.891005 
L 203.772925 97.763222 
L 202.952789 98.703393 
L 202.606924 99.207904 
L 202.220439 100.428224 
L 202.496656 101.579566 
L 203.225989 102.680494 
L 204.201508 103.695177 
L 205.211852 104.086433 
L 205.782922 104.053177 
L 206.294795 103.808972 
L 208.157005 102.455281 
L 210.1526 101.476106 
L 220.013219 97.616548 
L 221.199768 97.272298 
L 222.993086 96.986224 
L 223.608922 97.097784 
L 225.897166 97.897692 
L 227.832514 99.052078 
L 229.848081 100.259448 
L 230.982895 100.532532 
L 233.347702 101.413237 
L 236.811239 102.952934 
L 239.658704 104.458646 
L 241.650332 105.545026 
L 242.67949 106.121095 
L 243.056587 106.464563 
L 243.372855 106.192845 
L 242.847797 106.004637 
L 241.508155 105.840904 
L 239.507223 105.827914 
L 235.289155 106.263055 
L 227.558712 107.244304 
L 223.98164 107.911839 
L 220.620315 108.774876 
L 215.094887 110.360454 
L 210.354699 111.613566 
L 209.068764 112.12864 
L 207.659666 112.383344 
L 204.878924 112.508617 
L 203.709553 112.563905 
L 201.929268 113.337289 
L 200.008732 114.489112 
L 199.57409 115.064346 
L 199.554944 116.896431 
L 199.558306 117.919315 
L 199.625775 119.310222 
L 199.564897 119.30903 
L 199.508842 119.181773 
L 199.540219 118.891348 
L 199.728863 118.472132 
L 200.166186 117.933012 
L 200.846848 117.390853 
L 202.663004 116.365737 
L 205.244258 115.160559 
L 206.829927 114.645132 
L 208.223523 114.366801 
L 209.653141 114.279733 
L 210.331793 114.425626 
L 211.073947 114.833229 
L 212.080759 115.638261 
L 214.9556 118.425287 
L 221.969008 125.37157 
L 221.443418 124.969755 
L 220.714163 125.125345 
L 220.422589 125.001463 
L 219.978397 124.813306 
L 218.913222 124.583495 
L 217.031252 124.374991 
L 212.980877 124.215766 
L 206.435419 124.290435 
L 201.33916 124.487929 
L 196.176461 124.709765 
L 192.668502 124.908927 
L 187.144307 125.444347 
L 182.367816 125.967072 
L 179.259237 126.032065 
L 176.621757 125.875593 
L 174.378222 125.372884 
L 173.448673 125.172282 
L 169.16317 124.970035 
L 166.628242 124.074541 
L 165.817441 123.754703 
L 164.296805 123.515722 
L 162.992023 123.54789 
L 161.82486 123.657526 
L 161.972108 123.574734 
L 163.439988 123.257047 
L 166.082672 123.118482 
L 170.415607 123.202981 
L 173.394228 123.265515 
L 177.950271 123.429323 
L 181.182997 123.529605 
L 182.868702 123.808055 
L 184.314926 124.385513 
L 185.580013 125.194614 
L 186.175562 125.77373 
L 186.71682 126.481678 
L 187.698406 128.17815 
L 190.520877 132.06554 
L 191.660577 134.521402 
L 191.660577 134.521402 
" clip-path="url(#p57bd446142)" style="fill: none; stroke: #1f77b4; stroke-width: 1.5; stroke-linecap: square"/>
   </g>
   <g id="line2d_36">
    <path d="M 80.63668 52.956164 
L 79.808015 52.902932 
L 77.440914 52.935307 
L 74.992714 52.865731 
L 71.211695 53.138449 
L 70.823056 53.377999 
L 70.791818 53.534133 
L 71.11828 54.046085 
L 72.016186 54.601369 
L 74.040679 55.229947 
L 75.750699 55.737373 
L 78.093297 56.773435 
L 80.204722 58.332502 
L 80.9361 58.634968 
L 84.088444 59.282216 
L 85.046971 59.335183 
L 86.539642 59.02982 
L 87.691418 58.44781 
L 88.71535 57.630039 
L 89.718063 57.222776 
L 90.365141 57.102494 
L 90.760336 57.287637 
L 90.962969 57.752845 
L 90.967045 58.274641 
L 90.726421 59.99681 
L 90.633914 61.292679 
L 90.517166 61.542544 
L 89.960576 61.917736 
L 89.005625 62.152807 
L 88.445748 62.148118 
L 87.223262 61.808946 
L 84.756605 60.500401 
L 83.618092 59.564675 
L 83.305405 58.944072 
L 83.307616 58.641294 
L 83.654436 58.033073 
L 84.424993 57.41537 
L 88.241535 55.227586 
L 91.966272 53.213654 
L 99.310802 49.575804 
L 108.259553 45.370311 
L 108.995699 44.646577 
L 109.072697 43.979006 
L 109.011769 43.45652 
L 108.761009 43.122645 
L 107.281505 42.245098 
L 106.429914 42.2528 
L 105.814188 42.65992 
L 105.669816 42.994629 
L 105.736842 43.377787 
L 105.990009 43.79922 
L 107.002468 44.713682 
L 108.584687 45.67871 
L 120.407458 51.864648 
L 125.586891 54.244961 
L 127.984203 55.616224 
L 132.679484 59.524884 
L 135.485254 61.48069 
L 137.596608 62.119393 
L 140.210334 62.979063 
L 141.524031 63.516874 
L 142.240058 63.658345 
L 145.11135 63.801444 
L 146.133382 63.632123 
L 146.065174 63.54137 
L 143.801659 62.570117 
L 139.751055 59.991509 
L 138.46583 58.880741 
L 137.433866 57.700616 
L 136.558352 56.321094 
L 134.258342 51.883906 
L 133.783486 51.154083 
L 133.469106 50.45788 
L 133.667325 49.784641 
L 134.989576 48.484807 
L 136.639073 46.882125 
L 137.134095 46.202341 
L 138.254122 45.556593 
L 141.669797 44.07005 
L 144.600361 42.805061 
L 145.598919 42.297816 
L 149.012054 39.805443 
L 149.659421 39.69434 
L 151.352518 39.898735 
L 152.009452 42.431455 
L 152.970269 44.692321 
L 155.022397 48.901757 
L 156.863265 52.376706 
L 158.59856 55.147921 
L 158.971116 56.27294 
L 159.321912 58.780149 
L 159.412673 61.18987 
L 159.623762 62.226641 
L 160.659275 64.298942 
L 161.907105 66.174118 
L 164.818685 70.379154 
L 165.408652 70.879715 
L 166.790926 71.628161 
L 168.208258 71.986277 
L 170.962007 72.077393 
L 172.116636 71.987264 
L 172.029012 71.403809 
L 171.46968 69.785882 
L 171.251854 67.574789 
L 170.378531 64.242124 
L 169.766862 63.022011 
L 170.092328 62.914956 
L 169.985468 62.85559 
L 170.288335 62.803532 
L 175.856723 62.828207 
L 184.750037 62.756328 
L 188.613972 62.364482 
L 189.972273 62.480336 
L 190.951564 62.445043 
L 191.727025 62.554167 
L 192.093339 62.48827 
L 192.22223 62.080332 
L 192.155031 61.57291 
L 191.908696 61.537428 
L 191.501376 61.811693 
L 191.009711 62.409673 
L 190.17793 63.874739 
L 189.641134 65.108115 
L 189.270681 66.448956 
L 189.026069 68.427127 
L 188.875563 69.701739 
L 188.42808 70.390302 
L 187.673649 71.116013 
L 186.492167 72.530816 
L 184.40616 74.026419 
L 179.391373 77.316813 
L 177.438083 79.438939 
L 176.773293 80.839502 
L 176.031376 82.882471 
L 174.75844 83.871654 
L 173.008241 85.000085 
L 171.690174 86.112767 
L 171.284211 86.631435 
L 171.059844 87.154892 
L 170.94878 88.192663 
L 171.044654 89.001316 
L 170.721948 89.169765 
L 170.317051 89.107436 
L 170.041842 88.891877 
L 169.869049 88.537802 
L 169.906548 87.991571 
L 170.376257 86.556444 
L 171.447848 83.80645 
L 172.543616 82.024573 
L 173.208988 81.486388 
L 173.944995 81.177861 
L 174.945897 81.022254 
L 176.497839 81.009551 
L 181.452258 81.390562 
L 191.442548 81.973142 
L 194.888418 81.994708 
L 196.49722 81.95379 
L 199.042968 82.174174 
L 205.29603 83.287027 
L 207.160846 84.011601 
L 209.184312 84.393589 
L 209.335648 84.624039 
L 209.45222 85.400158 
L 209.536639 89.639303 
L 209.769808 91.440423 
L 210.227743 93.38997 
L 210.971922 95.450208 
L 212.478401 98.713344 
L 215.86582 104.846009 
L 217.410985 107.207256 
L 219.091083 109.456912 
L 220.952118 111.540568 
L 222.982797 113.410677 
L 225.074349 115.0298 
L 227.170409 116.475808 
L 226.960648 116.650175 
L 225.951461 117.099373 
L 225.769807 117.33016 
L 225.694946 117.242516 
L 225.592709 116.794471 
L 225.634562 116.407702 
L 226.121462 115.598526 
L 227.408853 114.143725 
L 228.010317 113.630115 
L 228.735126 113.161394 
L 229.61939 112.770196 
L 231.619119 112.275905 
L 233.643966 112.059908 
L 236.447947 112.056878 
L 241.227306 112.406398 
L 249.400439 112.957803 
L 256.719462 113.182356 
L 265.037883 113.25733 
L 272.285552 113.033275 
L 272.642802 112.986405 
L 271.960372 112.993585 
L 264.751095 113.209643 
L 260.617006 112.957088 
L 259.415794 113.020015 
L 257.565508 113.615595 
L 255.337212 117.048958 
L 254.727934 118.592639 
L 252.751414 124.880214 
L 251.945506 126.686301 
L 249.65656 130.575934 
L 247.725023 133.440237 
L 247.219529 134.374495 
L 246.553082 135.248478 
L 245.541838 136.923122 
L 244.502843 138.286977 
L 243.029584 140.087599 
L 241.019446 143.321435 
L 240.637451 144.484168 
L 240.567144 146.088883 
L 240.008649 146.940364 
L 240.187341 147.111083 
L 240.61176 147.169143 
L 242.054556 146.635062 
L 243.19003 145.686052 
L 246.087109 141.176176 
L 247.50887 139.654932 
L 247.816335 139.25359 
L 248.058673 139.12766 
L 248.962738 139.074869 
L 250.566506 139.327356 
L 254.308005 140.124065 
L 254.707323 139.933645 
L 254.645382 139.771244 
L 253.685453 138.897359 
L 252.191998 138.027344 
L 251.202518 137.599435 
L 251.319086 137.730091 
L 251.590215 137.967539 
L 252.29941 138.014764 
L 251.950466 137.78833 
L 251.33602 137.722947 
L 249.333078 137.900646 
L 247.384217 138.243349 
L 243.759548 139.151811 
L 238.346838 140.80516 
L 233.652516 142.494097 
L 230.178299 143.809357 
L 218.70537 147.349052 
L 211.484073 150.065116 
L 209.520166 151.376626 
L 208.742522 151.735922 
L 208.315259 151.774183 
L 208.11575 152.208999 
L 208.390498 152.931714 
L 209.064191 154.137043 
L 209.373321 154.434466 
L 209.592553 154.46745 
L 209.927163 153.83821 
L 210.622666 152.651037 
L 211.164729 151.989239 
L 212.539785 150.789104 
L 214.010923 149.951061 
L 215.533742 149.424036 
L 218.912276 148.603817 
L 220.042961 148.477021 
L 221.281075 148.613196 
L 222.849436 149.097763 
L 224.740977 149.869904 
L 225.603006 150.014648 
L 226.930101 149.904101 
L 229.002329 150.322401 
L 233.075506 151.220254 
L 235.176584 151.396304 
L 236.908442 151.330697 
L 237.710839 151.521676 
L 239.03883 152.137241 
L 240.154992 152.801787 
L 240.710922 153.49409 
L 241.038397 154.373668 
L 241.761695 154.516151 
L 242.366288 154.418625 
L 242.437119 154.237191 
L 241.798069 154.129971 
L 240.54161 154.185472 
L 238.830575 154.442519 
L 235.700227 155.291951 
L 231.892447 156.608811 
L 222.269422 160.340862 
L 220.587501 161.055451 
L 215.400901 162.77292 
L 209.428911 164.228682 
L 206.999927 164.550629 
L 204.786482 164.793873 
L 201.30457 164.668841 
L 199.287908 164.613654 
L 196.423003 164.846792 
L 194.014788 165.288387 
L 193.343489 165.497142 
L 192.818314 165.830466 
L 192.582323 166.257449 
L 192.670896 166.794039 
L 192.882911 166.803551 
L 193.29349 166.670361 
L 195.638959 165.531543 
L 198.866406 164.259041 
L 201.03003 163.625355 
L 203.092077 163.284668 
L 205.015243 163.199666 
L 207.243817 163.326723 
L 208.853251 163.644203 
L 209.826822 164.086954 
L 210.885 164.947441 
L 216.243664 169.80645 
L 217.667106 171.256839 
L 218.323392 171.778645 
L 219.077001 172.207442 
L 220.384443 172.751275 
L 220.583426 173.447755 
L 220.785592 174.620413 
L 220.769003 175.668102 
L 220.518841 176.475063 
L 220.281243 176.843578 
L 219.831539 177.343201 
L 220.385742 177.397532 
L 220.093969 177.440186 
L 214.028338 178.239506 
L 210.867763 178.805833 
L 205.856023 179.927816 
L 199.965693 181.412435 
L 193.966925 183.170848 
L 192.547053 183.502662 
L 185.374203 185.853229 
L 181.566631 187.674722 
L 179.350226 188.998115 
L 178.887747 189.440304 
L 178.60288 189.939432 
L 178.474035 190.499053 
L 178.565933 191.79634 
L 179.020336 192.741444 
L 179.147184 192.827913 
L 179.251658 192.519945 
L 179.306871 191.838793 
L 179.519562 191.566292 
L 180.667094 191.1263 
L 183.151772 190.536971 
L 185.170265 190.393819 
L 186.86367 190.53027 
L 187.835984 190.809386 
L 188.654069 191.253969 
L 189.450917 191.99333 
L 190.398187 193.172792 
L 192.219686 195.946343 
L 195.088542 200.407908 
L 196.489708 201.937705 
L 197.074026 202.445643 
L 197.720202 202.757692 
L 198.451278 202.867043 
L 199.879365 202.663374 
L 200.491694 202.434017 
L 202.225768 201.364651 
L 202.705031 201.46375 
L 203.320511 201.913632 
L 203.784749 202.59631 
L 203.752874 202.911459 
L 202.189967 204.322554 
L 200.3826 205.156508 
L 190.783681 206.987564 
L 183.727325 208.814893 
L 179.260677 210.194901 
L 172.555582 212.399912 
L 170.72445 212.854719 
L 165.607589 213.699569 
L 162.753616 214.495667 
L 158.15123 215.967737 
L 153.817718 217.751533 
L 152.557524 218.658009 
L 151.254689 219.867108 
L 151.091217 219.986888 
L 151.07015 219.956239 
L 151.43482 219.457072 
L 151.854745 219.117593 
L 152.442533 218.860357 
L 156.366201 218.084867 
L 157.509968 218.001611 
L 160.007376 218.097072 
L 163.707735 218.774434 
L 165.053552 219.423663 
L 165.767885 220.02772 
L 167.054899 221.273935 
L 171.265289 224.347534 
L 171.787418 224.477221 
L 172.581377 224.867201 
L 173.403334 225.571918 
L 175.308866 227.59925 
L 176.397964 228.561579 
L 176.397964 228.561579 
" clip-path="url(#p57bd446142)" style="fill: none; stroke: #ff7f0e; stroke-width: 1.5; stroke-linecap: square"/>
   </g>
   <g id="line2d_37">
    <defs>
     <path id="m68102c88c0" d="M 0 3 
C 0.795609 3 1.55874 2.683901 2.12132 2.12132 
C 2.683901 1.55874 3 0.795609 3 0 
C 3 -0.795609 2.683901 -1.55874 2.12132 -2.12132 
C 1.55874 -2.683901 0.795609 -3 0 -3 
C -0.795609 -3 -1.55874 -2.683901 -2.12132 -2.12132 
C -2.683901 -1.55874 -3 -0.795609 -3 0 
C -3 0.795609 -2.683901 1.55874 -2.12132 2.12132 
C -1.55874 2.683901 -0.795609 3 0 3 
z
" style="stroke: #2ca02c"/>
    </defs>
    <g clip-path="url(#p57bd446142)">
     <use xlink:href="#m68102c88c0" x="370.228182" y="36.483885" style="fill: #2ca02c; stroke: #2ca02c"/>
    </g>
   </g>
   <g id="patch_3">
    <path d="M 55.82 238.165464 
L 55.82 26.88 
" style="fill: none; stroke: #000000; stroke-width: 0.8; stroke-linejoin: miter; stroke-linecap: square"/>
   </g>
   <g id="patch_4">
    <path d="M 385.2 238.165464 
L 385.2 26.88 
" style="fill: none; stroke: #000000; stroke-width: 0.8; stroke-linejoin: miter; stroke-linecap: square"/>
   </g>
   <g id="patch_5">
    <path d="M 55.82 238.165464 
L 385.2 238.165464 
" style="fill: none; stroke: #000000; stroke-width: 0.8; stroke-linejoin: miter; stroke-linecap: square"/>
   </g>
   <g id="patch_6">
    <path d="M 55.82 26.88 
L 385.2 26.88 
" style="fill: none; stroke: #000000; stroke-width: 0.8; stroke-linejoin: miter; stroke-linecap: square"/>
   </g>
   <g id="text_20">
    <!-- Sammenligning -->
    <g transform="translate(173.617188 20.88) scale(0.12 -0.12)">
     <defs>
      <path id="DejaVuSans-53" d="M 3425 4513 
L 3425 3897 
Q 3066 4069 2747 4153 
Q 2428 4238 2131 4238 
Q 1616 4238 1336 4038 
Q 1056 3838 1056 3469 
Q 1056 3159 1242 3001 
Q 1428 2844 1947 2747 
L 2328 2669 
Q 3034 2534 3370 2195 
Q 3706 1856 3706 1288 
Q 3706 609 3251 259 
Q 2797 -91 1919 -91 
Q 1588 -91 1214 -16 
Q 841 59 441 206 
L 441 856 
Q 825 641 1194 531 
Q 1563 422 1919 422 
Q 2459 422 2753 634 
Q 3047 847 3047 1241 
Q 3047 1584 2836 1778 
Q 2625 1972 2144 2069 
L 1759 2144 
Q 1053 2284 737 2584 
Q 422 2884 422 3419 
Q 422 4038 858 4394 
Q 1294 4750 2059 4750 
Q 2388 4750 2728 4690 
Q 3069 4631 3425 4513 
z
" transform="scale(0.015625)"/>
      <path id="DejaVuSans-61" d="M 2194 1759 
Q 1497 1759 1228 1600 
Q 959 1441 959 1056 
Q 959 750 1161 570 
Q 1363 391 1709 391 
Q 2188 391 2477 730 
Q 2766 1069 2766 1631 
L 2766 1759 
L 2194 1759 
z
M 3341 1997 
L 3341 0 
L 2766 0 
L 2766 531 
Q 2569 213 2275 61 
Q 1981 -91 1556 -91 
Q 1019 -91 701 211 
Q 384 513 384 1019 
Q 384 1609 779 1909 
Q 1175 2209 1959 2209 
L 2766 2209 
L 2766 2266 
Q 2766 2663 2505 2880 
Q 2244 3097 1772 3097 
Q 1472 3097 1187 3025 
Q 903 2953 641 2809 
L 641 3341 
Q 956 3463 1253 3523 
Q 1550 3584 1831 3584 
Q 2591 3584 2966 3190 
Q 3341 2797 3341 1997 
z
" transform="scale(0.015625)"/>
      <path id="DejaVuSans-6d" d="M 3328 2828 
Q 3544 3216 3844 3400 
Q 4144 3584 4550 3584 
Q 5097 3584 5394 3201 
Q 5691 2819 5691 2113 
L 5691 0 
L 5113 0 
L 5113 2094 
Q 5113 2597 4934 2840 
Q 4756 3084 4391 3084 
Q 3944 3084 3684 2787 
Q 3425 2491 3425 1978 
L 3425 0 
L 2847 0 
L 2847 2094 
Q 2847 2600 2669 2842 
Q 2491 3084 2119 3084 
Q 1678 3084 1418 2786 
Q 1159 2488 1159 1978 
L 1159 0 
L 581 0 
L 581 3500 
L 1159 3500 
L 1159 2956 
Q 1356 3278 1631 3431 
Q 1906 3584 2284 3584 
Q 2666 3584 2933 3390 
Q 3200 3197 3328 2828 
z
" transform="scale(0.015625)"/>
      <path id="DejaVuSans-6c" d="M 603 4863 
L 1178 4863 
L 1178 0 
L 603 0 
L 603 4863 
z
" transform="scale(0.015625)"/>
     </defs>
     <use xlink:href="#DejaVuSans-53"/>
     <use xlink:href="#DejaVuSans-61" x="63.476562"/>
     <use xlink:href="#DejaVuSans-6d" x="124.755859"/>
     <use xlink:href="#DejaVuSans-6d" x="222.167969"/>
     <use xlink:href="#DejaVuSans-65" x="319.580078"/>
     <use xlink:href="#DejaVuSans-6e" x="381.103516"/>
     <use xlink:href="#DejaVuSans-6c" x="444.482422"/>
     <use xlink:href="#DejaVuSans-69" x="472.265625"/>
     <use xlink:href="#DejaVuSans-67" x="500.048828"/>
     <use xlink:href="#DejaVuSans-6e" x="563.525391"/>
     <use xlink:href="#DejaVuSans-69" x="626.904297"/>
     <use xlink:href="#DejaVuSans-6e" x="654.6875"/>
     <use xlink:href="#DejaVuSans-67" x="718.066406"/>
    </g>
   </g>
   <g id="legend_1">
    <g id="patch_7">
     <path d="M 243.26125 234.165464 
L 379.6 234.165464 
Q 381.2 234.165464 381.2 232.565464 
L 381.2 198.137964 
Q 381.2 196.537964 379.6 196.537964 
L 243.26125 196.537964 
Q 241.66125 196.537964 241.66125 198.137964 
L 241.66125 232.565464 
Q 241.66125 234.165464 243.26125 234.165464 
z
" style="fill: #ffffff; opacity: 0.8; stroke: #cccccc; stroke-linejoin: miter"/>
    </g>
    <g id="line2d_38">
     <path d="M 244.86125 203.016714 
L 252.86125 203.016714 
L 260.86125 203.016714 
" style="fill: none; stroke: #1f77b4; stroke-width: 1.5; stroke-linecap: square"/>
    </g>
    <g id="text_21">
     <!-- Sim med ekstra kommando -->
     <g transform="translate(267.26125 205.816714) scale(0.08 -0.08)">
      <defs>
       <path id="DejaVuSans-64" d="M 2906 2969 
L 2906 4863 
L 3481 4863 
L 3481 0 
L 2906 0 
L 2906 525 
Q 2725 213 2448 61 
Q 2172 -91 1784 -91 
Q 1150 -91 751 415 
Q 353 922 353 1747 
Q 353 2572 751 3078 
Q 1150 3584 1784 3584 
Q 2172 3584 2448 3432 
Q 2725 3281 2906 2969 
z
M 947 1747 
Q 947 1113 1208 752 
Q 1469 391 1925 391 
Q 2381 391 2643 752 
Q 2906 1113 2906 1747 
Q 2906 2381 2643 2742 
Q 2381 3103 1925 3103 
Q 1469 3103 1208 2742 
Q 947 2381 947 1747 
z
" transform="scale(0.015625)"/>
       <path id="DejaVuSans-6b" d="M 581 4863 
L 1159 4863 
L 1159 1991 
L 2875 3500 
L 3609 3500 
L 1753 1863 
L 3688 0 
L 2938 0 
L 1159 1709 
L 1159 0 
L 581 0 
L 581 4863 
z
" transform="scale(0.015625)"/>
       <path id="DejaVuSans-73" d="M 2834 3397 
L 2834 2853 
Q 2591 2978 2328 3040 
Q 2066 3103 1784 3103 
Q 1356 3103 1142 2972 
Q 928 2841 928 2578 
Q 928 2378 1081 2264 
Q 1234 2150 1697 2047 
L 1894 2003 
Q 2506 1872 2764 1633 
Q 3022 1394 3022 966 
Q 3022 478 2636 193 
Q 2250 -91 1575 -91 
Q 1294 -91 989 -36 
Q 684 19 347 128 
L 347 722 
Q 666 556 975 473 
Q 1284 391 1588 391 
Q 1994 391 2212 530 
Q 2431 669 2431 922 
Q 2431 1156 2273 1281 
Q 2116 1406 1581 1522 
L 1381 1569 
Q 847 1681 609 1914 
Q 372 2147 372 2553 
Q 372 3047 722 3315 
Q 1072 3584 1716 3584 
Q 2034 3584 2315 3537 
Q 2597 3491 2834 3397 
z
" transform="scale(0.015625)"/>
       <path id="DejaVuSans-6f" d="M 1959 3097 
Q 1497 3097 1228 2736 
Q 959 2375 959 1747 
Q 959 1119 1226 758 
Q 1494 397 1959 397 
Q 2419 397 2687 759 
Q 2956 1122 2956 1747 
Q 2956 2369 2687 2733 
Q 2419 3097 1959 3097 
z
M 1959 3584 
Q 2709 3584 3137 3096 
Q 3566 2609 3566 1747 
Q 3566 888 3137 398 
Q 2709 -91 1959 -91 
Q 1206 -91 779 398 
Q 353 888 353 1747 
Q 353 2609 779 3096 
Q 1206 3584 1959 3584 
z
" transform="scale(0.015625)"/>
      </defs>
      <use xlink:href="#DejaVuSans-53"/>
      <use xlink:href="#DejaVuSans-69" x="63.476562"/>
      <use xlink:href="#DejaVuSans-6d" x="91.259766"/>
      <use xlink:href="#DejaVuSans-20" x="188.671875"/>
      <use xlink:href="#DejaVuSans-6d" x="220.458984"/>
      <use xlink:href="#DejaVuSans-65" x="317.871094"/>
      <use xlink:href="#DejaVuSans-64" x="379.394531"/>
      <use xlink:href="#DejaVuSans-20" x="442.871094"/>
      <use xlink:href="#DejaVuSans-65" x="474.658203"/>
      <use xlink:href="#DejaVuSans-6b" x="536.181641"/>
      <use xlink:href="#DejaVuSans-73" x="594.091797"/>
      <use xlink:href="#DejaVuSans-74" x="646.191406"/>
      <use xlink:href="#DejaVuSans-72" x="685.400391"/>
      <use xlink:href="#DejaVuSans-61" x="726.513672"/>
      <use xlink:href="#DejaVuSans-20" x="787.792969"/>
      <use xlink:href="#DejaVuSans-6b" x="819.580078"/>
      <use xlink:href="#DejaVuSans-6f" x="873.865234"/>
      <use xlink:href="#DejaVuSans-6d" x="935.046875"/>
      <use xlink:href="#DejaVuSans-6d" x="1032.458984"/>
      <use xlink:href="#DejaVuSans-61" x="1129.871094"/>
      <use xlink:href="#DejaVuSans-6e" x="1191.150391"/>
      <use xlink:href="#DejaVuSans-64" x="1254.529297"/>
      <use xlink:href="#DejaVuSans-6f" x="1318.005859"/>
     </g>
    </g>
    <g id="line2d_39">
     <path d="M 244.86125 214.759214 
L 252.86125 214.759214 
L 260.86125 214.759214 
" style="fill: none; stroke: #ff7f0e; stroke-width: 1.5; stroke-linecap: square"/>
    </g>
    <g id="text_22">
     <!-- Sim uten ekstra kommando -->
     <g transform="translate(267.26125 217.559214) scale(0.08 -0.08)">
      <defs>
       <path id="DejaVuSans-75" d="M 544 1381 
L 544 3500 
L 1119 3500 
L 1119 1403 
Q 1119 906 1312 657 
Q 1506 409 1894 409 
Q 2359 409 2629 706 
Q 2900 1003 2900 1516 
L 2900 3500 
L 3475 3500 
L 3475 0 
L 2900 0 
L 2900 538 
Q 2691 219 2414 64 
Q 2138 -91 1772 -91 
Q 1169 -91 856 284 
Q 544 659 544 1381 
z
M 1991 3584 
L 1991 3584 
z
" transform="scale(0.015625)"/>
      </defs>
      <use xlink:href="#DejaVuSans-53"/>
      <use xlink:href="#DejaVuSans-69" x="63.476562"/>
      <use xlink:href="#DejaVuSans-6d" x="91.259766"/>
      <use xlink:href="#DejaVuSans-20" x="188.671875"/>
      <use xlink:href="#DejaVuSans-75" x="220.458984"/>
      <use xlink:href="#DejaVuSans-74" x="283.837891"/>
      <use xlink:href="#DejaVuSans-65" x="323.046875"/>
      <use xlink:href="#DejaVuSans-6e" x="384.570312"/>
      <use xlink:href="#DejaVuSans-20" x="447.949219"/>
      <use xlink:href="#DejaVuSans-65" x="479.736328"/>
      <use xlink:href="#DejaVuSans-6b" x="541.259766"/>
      <use xlink:href="#DejaVuSans-73" x="599.169922"/>
      <use xlink:href="#DejaVuSans-74" x="651.269531"/>
      <use xlink:href="#DejaVuSans-72" x="690.478516"/>
      <use xlink:href="#DejaVuSans-61" x="731.591797"/>
      <use xlink:href="#DejaVuSans-20" x="792.871094"/>
      <use xlink:href="#DejaVuSans-6b" x="824.658203"/>
      <use xlink:href="#DejaVuSans-6f" x="878.943359"/>
      <use xlink:href="#DejaVuSans-6d" x="940.125"/>
      <use xlink:href="#DejaVuSans-6d" x="1037.537109"/>
      <use xlink:href="#DejaVuSans-61" x="1134.949219"/>
      <use xlink:href="#DejaVuSans-6e" x="1196.228516"/>
      <use xlink:href="#DejaVuSans-64" x="1259.607422"/>
      <use xlink:href="#DejaVuSans-6f" x="1323.083984"/>
     </g>
    </g>
    <g id="line2d_40">
     <g>
      <use xlink:href="#m68102c88c0" x="252.86125" y="226.501714" style="fill: #2ca02c; stroke: #2ca02c"/>
     </g>
    </g>
    <g id="text_23">
     <!-- Skulle ha endt -->
     <g transform="translate(267.26125 229.301714) scale(0.08 -0.08)">
      <defs>
       <path id="DejaVuSans-68" d="M 3513 2113 
L 3513 0 
L 2938 0 
L 2938 2094 
Q 2938 2591 2744 2837 
Q 2550 3084 2163 3084 
Q 1697 3084 1428 2787 
Q 1159 2491 1159 1978 
L 1159 0 
L 581 0 
L 581 4863 
L 1159 4863 
L 1159 2956 
Q 1366 3272 1645 3428 
Q 1925 3584 2291 3584 
Q 2894 3584 3203 3211 
Q 3513 2838 3513 2113 
z
" transform="scale(0.015625)"/>
      </defs>
      <use xlink:href="#DejaVuSans-53"/>
      <use xlink:href="#DejaVuSans-6b" x="63.476562"/>
      <use xlink:href="#DejaVuSans-75" x="118.261719"/>
      <use xlink:href="#DejaVuSans-6c" x="181.640625"/>
      <use xlink:href="#DejaVuSans-6c" x="209.423828"/>
      <use xlink:href="#DejaVuSans-65" x="237.207031"/>
      <use xlink:href="#DejaVuSans-20" x="298.730469"/>
      <use xlink:href="#DejaVuSans-68" x="330.517578"/>
      <use xlink:href="#DejaVuSans-61" x="393.896484"/>
      <use xlink:href="#DejaVuSans-20" x="455.175781"/>
      <use xlink:href="#DejaVuSans-65" x="486.962891"/>
      <use xlink:href="#DejaVuSans-6e" x="548.486328"/>
      <use xlink:href="#DejaVuSans-64" x="611.865234"/>
      <use xlink:href="#DejaVuSans-74" x="675.341797"/>
     </g>
    </g>
   </g>
  </g>
 </g>
 <defs>
  <clipPath id="p57bd446142">
   <rect x="55.82" y="26.88" width="329.38" height="211.285464"/>
  </clipPath>
 </defs>
</svg>
